<svg width="40" height="40" viewBox="0 0 40 40" fill="none" xmlns="http://www.w3.org/2000/svg">
<g clip-path="url(#clip0_626_364)">
<path d="M0 20C0 23.9556 1.17298 27.8224 3.37061 31.1114C5.56824 34.4004 8.69181 36.9638 12.3463 38.4776C16.0009 39.9913 20.0222 40.3874 23.9018 39.6157C27.7814 38.844 31.3451 36.9392 34.1421 34.1421C36.9392 31.3451 38.844 27.7814 39.6157 23.9018C40.3874 20.0222 39.9913 16.0008 38.4776 12.3463C36.9638 8.6918 34.4004 5.56823 31.1114 3.37061C27.8224 1.17298 23.9556 -7.62939e-06 20 -7.62939e-06C14.6974 0.00572968 9.61368 2.11471 5.8642 5.86419C2.11471 9.61368 0.00573514 14.6974 0 20ZM26.6667 20C26.6679 21.22 26.222 22.3982 25.4133 23.3117C24.9283 23.8567 24.4567 24.3733 24.1183 24.7117L19.4117 29.5C19.098 29.7947 18.6825 29.9566 18.2522 29.9519C17.8218 29.9471 17.41 29.7761 17.1029 29.4746C16.7958 29.1731 16.6172 28.7645 16.6045 28.3343C16.5919 27.9041 16.7461 27.4857 17.035 27.1667L21.75 22.3667C22.0617 22.0533 22.485 21.5867 22.9167 21.1017C23.1852 20.7972 23.3334 20.4052 23.3334 19.9992C23.3334 19.5932 23.1852 19.2011 22.9167 18.8967C22.4867 18.4133 22.0633 17.9467 21.7617 17.6433L17.035 12.8333C16.8714 12.6796 16.7405 12.4944 16.6502 12.2888C16.5599 12.0832 16.5121 11.8615 16.5096 11.637C16.5071 11.4124 16.5501 11.1897 16.6358 10.9822C16.7215 10.7747 16.8483 10.5866 17.0086 10.4293C17.1688 10.272 17.3591 10.1487 17.5682 10.0668C17.7773 9.9849 18.0007 9.94608 18.2252 9.95268C18.4496 9.95928 18.6704 10.0112 18.8743 10.1052C19.0782 10.1993 19.261 10.3335 19.4117 10.5L24.1267 15.2983C24.46 15.6317 24.9267 16.1433 25.4083 16.6867C26.2196 17.5996 26.6674 18.7787 26.6667 20Z" fill="#068BBE"/>
</g>
<defs>
<clipPath id="clip0_626_364">
<rect width="40" height="40" fill="white" transform="matrix(0 -1 1 0 0 40)"/>
</clipPath>
</defs>
</svg>
