<svg width="30" height="30" viewBox="0 0 30 30" fill="none" xmlns="http://www.w3.org/2000/svg">
<g clip-path="url(#clip0_626_205)">
<rect width="30" height="30" fill="#FAFAFA"/>
<path d="M30 23.75V6.25C29.998 4.59301 29.3389 3.00445 28.1672 1.83277C26.9956 0.661102 25.407 0.00198482 23.75 0L6.25 0C4.59301 0.00198482 3.00445 0.661102 1.83277 1.83277C0.661102 3.00445 0.00198482 4.59301 0 6.25L0 23.75C0.00198482 25.407 0.661102 26.9956 1.83277 28.1672C3.00445 29.3389 4.59301 29.998 6.25 30H23.75C25.407 29.998 26.9956 29.3389 28.1672 28.1672C29.3389 26.9956 29.998 25.407 30 23.75ZM11.8313 22.1338L7.34875 17.6513C7.00046 17.303 6.72418 16.8896 6.53569 16.4346C6.34719 15.9796 6.25018 15.4919 6.25018 14.9994C6.25018 14.5069 6.34719 14.0192 6.53569 13.5642C6.72418 13.1092 7.00046 12.6957 7.34875 12.3475L11.8313 7.86625L11.8625 7.83625C11.9795 7.7171 12.1191 7.62259 12.2732 7.5583C12.4272 7.494 12.5926 7.46122 12.7596 7.46189C12.9265 7.46256 13.0917 7.49667 13.2452 7.5622C13.3988 7.62774 13.5376 7.72337 13.6536 7.84345C13.7696 7.96353 13.8604 8.10563 13.9206 8.26136C13.9807 8.4171 14.0091 8.5833 14.004 8.75018C13.9989 8.91705 13.9604 9.08121 13.8908 9.23297C13.8212 9.38472 13.7219 9.521 13.5987 9.63375L9.4825 13.75L22.5 13.7413C22.8315 13.7413 23.1495 13.8729 23.3839 14.1074C23.6183 14.3418 23.75 14.6597 23.75 14.9913C23.75 15.3228 23.6183 15.6407 23.3839 15.8751C23.1495 16.1096 22.8315 16.2412 22.5 16.2412L9.48375 16.25L13.5987 20.3662C13.7181 20.4816 13.8134 20.6195 13.8789 20.772C13.9444 20.9245 13.9789 21.0885 13.9803 21.2545C13.9818 21.4205 13.9501 21.5851 13.8873 21.7387C13.8244 21.8923 13.7316 22.0319 13.6142 22.1492C13.4969 22.2666 13.3573 22.3594 13.2037 22.4223C13.0501 22.4851 12.8855 22.5168 12.7195 22.5153C12.5535 22.5139 12.3895 22.4794 12.237 22.4139C12.0845 22.3484 11.9466 22.2531 11.8313 22.1338Z" fill="#068BBE"/>
</g>
<defs>
<clipPath id="clip0_626_205">
<rect width="30" height="30" fill="white"/>
</clipPath>
</defs>
</svg>
