<svg width="28" height="30" viewBox="0 0 28 30" fill="none" xmlns="http://www.w3.org/2000/svg">
<path d="M23.7213 4.0275C21.1251 1.43125 17.6713 0 14.0001 0C10.3288 0 6.87506 1.43125 4.27756 4.0275C-1.08369 9.38875 -1.08369 18.1113 4.31256 23.5075L9.24006 28.06C10.5201 29.3113 12.2113 30.0013 14.0001 30.0013C15.7888 30.0013 17.4788 29.3113 18.7326 28.085L23.7213 23.475C29.0826 18.1138 29.0826 9.39 23.7213 4.02875V4.0275ZM12.7501 7.5C12.7501 6.80875 13.3088 6.25 14.0001 6.25C14.6913 6.25 15.2501 6.80875 15.2501 7.5V14.375C15.2501 15.0663 14.6913 15.625 14.0001 15.625C13.3088 15.625 12.7501 15.0663 12.7501 14.375V7.5ZM14.0001 21.25C12.9651 21.25 12.1251 20.41 12.1251 19.375C12.1251 18.34 12.9651 17.5 14.0001 17.5C15.0351 17.5 15.8751 18.34 15.8751 19.375C15.8751 20.41 15.0351 21.25 14.0001 21.25Z" fill="#EAE332"/>
</svg>
