<svg width="14" height="14" viewBox="0 0 14 14" fill="none" xmlns="http://www.w3.org/2000/svg">
<g clip-path="url(#clip0_1893_142)">
<path d="M12.3726 9.26921C12.0015 10.1468 11.421 10.9202 10.682 11.5216C9.94297 12.1231 9.06786 12.5344 8.13316 12.7195C7.19847 12.9046 6.23265 12.858 5.32016 12.5836C4.40766 12.3092 3.57627 11.8155 2.89867 11.1456C2.22106 10.4757 1.71788 9.64998 1.43311 8.74068C1.14834 7.83138 1.09065 6.86616 1.26509 5.92942C1.43953 4.99267 1.84078 4.11291 2.43377 3.36706C3.02675 2.62121 3.79342 2.03198 4.66674 1.65088" stroke="black" stroke-linecap="round" stroke-linejoin="round"/>
<path d="M12.8333 6.99996C12.8333 6.23392 12.6825 5.47537 12.3893 4.76764C12.0961 4.05991 11.6665 3.41684 11.1248 2.87517C10.5831 2.33349 9.94005 1.90381 9.23232 1.61066C8.52459 1.31751 7.76604 1.16663 7 1.16663V6.99996H12.8333Z" stroke="black" stroke-linecap="round" stroke-linejoin="round"/>
</g>
<defs>
<clipPath id="clip0_1893_142">
<rect width="14" height="14" fill="white"/>
</clipPath>
</defs>
</svg>
