<svg width="152" height="156" viewBox="0 0 152 156" fill="none" xmlns="http://www.w3.org/2000/svg">
<rect width="152" height="156" rx="15" fill="#FE9C96"/>
<path d="M0.111328 32.2C30.7647 32.2 30.0047 1 30.0047 1" stroke="#E45A51" stroke-width="8"/>
<path d="M149.069 36.3961C149.069 60.9718 147.044 72.1993 128.296 72.1993C109.548 72.1993 90.8026 60.9718 90.8026 36.3961C90.8026 11.8203 106.001 2.89442 124.749 2.89442C143.497 2.89442 149.069 11.8203 149.069 36.3961Z" fill="#E35A50" fill-opacity="0.46"/>
<path d="M65.6608 124.039C65.6608 148.615 48.9424 152.426 30.1942 152.426C11.4459 152.426 3.34082 160.634 3.34082 136.059C3.34082 111.483 5.1121 102.557 23.8603 102.557C42.6086 102.557 65.6608 99.4632 65.6608 124.039Z" fill="#E35A50" fill-opacity="0.46"/>
<path d="M107.854 126.768L106.318 134.824L99.9601 128.718L107.854 126.768Z" fill="#E45A51"/>
<path d="M63.1331 29.3613L70.5395 32.7372L63.1812 37.5647L63.1331 29.3613Z" fill="#E45A51"/>
<path d="M22.0612 85.0907L17.1136 91.5986L14.1388 83.2641L22.0612 85.0907Z" fill="#E45A51"/>
</svg>
