<svg width="152" height="156" viewBox="0 0 152 156" fill="none" xmlns="http://www.w3.org/2000/svg">
<rect width="152" height="156" rx="15" fill="#9FCFAD"/>
<path d="M0 32.2C30.6533 32.2 29.8933 1 29.8933 1" stroke="#79BD8E" stroke-width="8"/>
<path d="M147.141 36.0442C147.141 60.62 145.116 71.8475 126.367 71.8475C107.619 71.8475 88.874 60.62 88.874 36.0442C88.874 11.4685 104.072 2.5426 122.821 2.5426C141.569 2.5426 147.141 11.4685 147.141 36.0442Z" fill="#C4E2CD" fill-opacity="0.5"/>
<path d="M69.0427 122.213C69.0427 146.789 52.3242 150.6 33.576 150.6C14.8278 150.6 6.72266 158.809 6.72266 134.233C6.72266 109.657 8.49394 100.731 27.2422 100.731C45.9904 100.731 69.0427 97.6374 69.0427 122.213Z" fill="#C4E2CD" fill-opacity="0.5"/>
<path d="M107.743 126.768L106.208 134.824L99.8497 128.718L107.743 126.768Z" fill="#79BD8E"/>
<path d="M63.0218 29.3609L70.4282 32.7368L63.0699 37.5643L63.0218 29.3609Z" fill="#79BD8E"/>
<path d="M21.9499 85.0906L17.0023 91.5985L14.0275 83.264L21.9499 85.0906Z" fill="#79BD8E"/>
</svg>
