<svg width="152" height="156" viewBox="0 0 152 156" fill="none" xmlns="http://www.w3.org/2000/svg">
<rect width="152" height="156" rx="15" fill="#E4B6D4"/>
<path d="M0.256836 30.9204C30.4582 30.9204 29.7094 0.251221 29.7094 0.251221" stroke="#E868BD" stroke-width="8"/>
<path d="M147.021 36.3059C147.021 60.4636 145.026 71.5001 126.554 71.5001C108.082 71.5001 89.6133 60.4636 89.6133 36.3059C89.6133 12.1482 104.588 3.37415 123.059 3.37415C141.531 3.37415 147.021 12.1482 147.021 36.3059Z" fill="#FFB0E4" fill-opacity="0.8"/>
<path d="M64.3817 118.74C64.3817 142.897 47.9097 146.644 29.4379 146.644C10.9661 146.644 2.98047 154.712 2.98047 130.555C2.98047 106.397 4.72564 97.623 23.1974 97.623C41.6693 97.623 64.3817 94.5819 64.3817 118.74Z" fill="#FFB0E4" fill-opacity="0.8"/>
<path d="M106.411 123.88L104.898 131.799L98.6336 125.796L106.411 123.88Z" fill="#E868BD"/>
<path d="M62.3517 28.1296L69.649 31.4481L62.3991 36.1935L62.3517 28.1296Z" fill="#E868BD"/>
<path d="M21.8845 82.9111L17.0098 89.3083L14.0789 81.1155L21.8845 82.9111Z" fill="#E868BD"/>
</svg>
