<svg width="250" height="250" viewBox="0 0 250 250" fill="none" xmlns="http://www.w3.org/2000/svg">
<path d="M179.485 157.208H215.617V129.34H179.485V157.208Z" fill="#EBEBEB"/>
<path d="M182.068 154.776H186.422V149.854H182.068V154.776Z" fill="white"/>
<path d="M204.594 129.411H200.49V135.358H204.594V129.411Z" fill="#FAFAFA"/>
<path d="M204.594 151.178H200.49V157.125H204.594V151.178Z" fill="#FAFAFA"/>
<path d="M188.504 157.4C188.44 157.4 188.389 151.27 188.389 143.711C188.389 136.149 188.44 130.021 188.504 130.021C188.567 130.021 188.619 136.149 188.619 143.711C188.619 151.27 188.567 157.4 188.504 157.4Z" fill="#E0E0E0"/>
<path d="M164.748 205.199H227.09V157.116H164.748V205.199Z" fill="#EBEBEB"/>
<path d="M169.204 201.003H176.716V192.511H169.204V201.003Z" fill="white"/>
<path d="M208.071 157.24H200.99V167.499H208.071V157.24Z" fill="#FAFAFA"/>
<path d="M208.071 194.796H200.99V205.057H208.071V194.796Z" fill="#FAFAFA"/>
<path d="M180.309 205.53C180.199 205.53 180.109 194.954 180.109 181.912C180.109 168.865 180.199 158.292 180.309 158.292C180.419 158.292 180.507 168.865 180.507 181.912C180.507 194.954 180.418 205.53 180.309 205.53Z" fill="#E0E0E0"/>
<path d="M225.109 57.1055L228.449 63.872L235.916 64.9575L230.513 70.2245L231.788 77.662L225.109 74.1505L218.43 77.662L219.706 70.2245L214.302 64.9575L221.77 63.872L225.109 57.1055Z" fill="#FBF335"/>
<path d="M26.2546 144.483L28.3596 148.748L33.0656 149.432L29.6601 152.751L30.4641 157.438L26.2546 155.225L22.0456 157.438L22.8491 152.751L19.4441 149.432L24.1501 148.748L26.2546 144.483Z" fill="#FBF335"/>
<path d="M28.8661 107.331L33.5396 116.801L43.9901 118.319L36.4281 125.69L38.2131 136.098L28.8661 131.184L19.5191 136.098L21.3046 125.69L13.7426 118.319L24.1926 116.801L28.8661 107.331Z" fill="#FBF335"/>
<path d="M222.136 87.662L224.15 91.7435L228.654 92.398L225.395 95.575L226.165 100.061L222.136 97.943L218.107 100.061L218.877 95.575L215.617 92.398L220.121 91.7435L222.136 87.662Z" fill="#FBF335"/>
<path d="M156.025 21.534L158.039 25.6155L162.543 26.27L159.284 29.4475L160.053 33.9335L156.025 31.8155L151.996 33.9335L152.765 29.4475L149.506 26.27L154.01 25.6155L156.025 21.534Z" fill="#FBF335"/>
<path d="M202.112 65.2045L203.43 67.876L206.378 68.3045L204.245 70.384L204.748 73.32L202.112 71.9335L199.475 73.32L199.978 70.384L197.845 68.3045L200.793 67.876L202.112 65.2045Z" fill="#FBF335"/>
<path d="M80.4621 200.054L83.0301 205.257L88.7721 206.092L84.6171 210.141L85.5981 215.861L80.4621 213.161L75.3261 215.861L76.3071 210.141L72.1521 206.092L77.8941 205.257L80.4621 200.054Z" fill="#FBF335"/>
<path d="M87.2406 194.882L88.3016 197.032L90.6741 197.376L88.9576 199.05L89.3626 201.413L87.2406 200.297L85.1186 201.413L85.5241 199.05L83.8076 197.376L86.1796 197.032L87.2406 194.882Z" fill="#FBF335"/>
<path d="M182.067 174.96L184.325 179.535L189.374 180.268L185.721 183.829L186.583 188.858L182.067 186.484L177.552 188.858L178.414 183.829L174.761 180.268L179.81 179.535L182.067 174.96Z" fill="#FBF335"/>
<path d="M192.839 170.906L193.903 173.061L196.282 173.407L194.561 175.085L194.967 177.454L192.839 176.335L190.712 177.454L191.117 175.085L189.396 173.407L191.775 173.061L192.839 170.906Z" fill="#FBF335"/>
<path d="M178.721 51.83L180.486 46.3005C179.112 43.544 178.459 40.3865 178.757 37.0955C179.613 27.63 187.991 20.652 197.469 21.5095C206.948 22.3665 213.937 30.7345 213.081 40.2C212.225 49.665 203.847 56.643 194.369 55.786C190.411 55.428 187.151 53.995 184.451 51.485L178.721 51.83Z" fill="#FAFAFA"/>
<path d="M178.721 51.83C178.721 51.83 178.854 51.8165 179.102 51.798C179.359 51.7795 179.726 51.753 180.204 51.719C181.175 51.6525 182.598 51.555 184.448 51.4285L184.472 51.427L184.49 51.4435C186.119 52.947 188.605 54.6155 191.968 55.3265C192.802 55.5055 193.681 55.645 194.598 55.702C195.057 55.7195 195.524 55.737 195.999 55.7545C196.473 55.751 196.954 55.7015 197.443 55.6765C199.39 55.4955 201.433 54.9715 203.393 54.0135C205.352 53.06 207.225 51.675 208.79 49.888C210.352 48.104 211.621 45.922 212.328 43.4775C213.031 41.037 213.21 38.3615 212.753 35.7225C212.674 35.0555 212.464 34.413 212.296 33.757C212.223 33.4255 212.083 33.1145 211.968 32.794C211.846 32.4765 211.734 32.1535 211.602 31.8385C211.014 30.6065 210.368 29.373 209.488 28.2875C209.091 27.7145 208.598 27.2245 208.135 26.714C207.913 26.449 207.636 26.2405 207.387 26.005C207.128 25.78 206.885 25.5375 206.615 25.3285L205.793 24.722L205.383 24.4205L204.947 24.16L204.08 23.641C203.788 23.475 203.476 23.3485 203.176 23.2005C200.758 22.066 198.134 21.515 195.597 21.57C193.059 21.62 190.62 22.239 188.487 23.27C186.35 24.299 184.518 25.7315 183.077 27.362C181.632 28.993 180.58 30.8185 179.889 32.646C179.806 32.8765 179.724 33.1045 179.643 33.3315C179.557 33.557 179.481 33.783 179.432 34.016C179.318 34.476 179.205 34.929 179.094 35.3745C178.971 36.2835 178.805 37.157 178.787 38.012C178.649 41.439 179.553 44.281 180.537 46.275L180.548 46.296L180.54 46.3175C179.956 48.099 179.506 49.469 179.199 50.404C179.046 50.8645 178.929 51.217 178.847 51.464C178.767 51.7035 178.721 51.83 178.721 51.83C178.721 51.83 178.751 51.716 178.822 51.481C178.897 51.2355 179.005 50.8855 179.145 50.4285C179.44 49.48 179.871 48.09 180.432 46.283L180.436 46.3255C179.426 44.3285 178.494 41.4675 178.615 38.0055C178.628 37.142 178.792 36.2585 178.912 35.339C179.022 34.8885 179.133 34.43 179.247 33.964C179.296 33.7285 179.371 33.499 179.458 33.271C179.539 33.0415 179.621 32.81 179.704 32.5765C180.395 30.725 181.454 28.873 182.913 27.2165C184.367 25.561 186.22 24.1045 188.385 23.0565C190.545 22.007 193.018 21.374 195.594 21.3205C198.167 21.2615 200.83 21.817 203.286 22.9675C203.59 23.117 203.907 23.2455 204.204 23.414L205.085 23.94L205.527 24.2045L205.944 24.51L206.779 25.1255C207.053 25.3375 207.3 25.5835 207.562 25.812C207.815 26.051 208.096 26.2625 208.322 26.5315C208.792 27.0495 209.293 27.5475 209.697 28.129C210.589 29.2315 211.246 30.483 211.842 31.7345C211.975 32.0545 212.088 32.3825 212.212 32.705C212.329 33.03 212.471 33.346 212.545 33.6825C212.715 34.348 212.927 35.001 213.008 35.678C213.469 38.3575 213.285 41.072 212.568 43.5475C211.847 46.027 210.556 48.2385 208.969 50.044C207.378 51.8525 205.477 53.251 203.49 54.211C201.502 55.175 199.432 55.699 197.461 55.874C196.966 55.8975 196.48 55.9455 196.001 55.9465C195.521 55.9265 195.049 55.9065 194.585 55.887C193.66 55.825 192.774 55.68 191.932 55.495C188.539 54.7595 186.038 53.055 184.415 51.526L184.456 51.541C182.587 51.6385 181.15 51.7135 180.169 51.765C179.697 51.788 179.335 51.8055 179.081 51.818C178.837 51.8285 178.721 51.83 178.721 51.83Z" fill="#263238"/>
<path d="M186.153 37.998L188.989 35.5425L193.765 40.4445L204.474 31.5265L206.74 34.3485L193.021 45.52L186.153 37.998Z" fill="#05B06C"/>
<path d="M149.055 174.747L53.1744 196.115C50.8469 196.633 48.5399 195.167 48.0214 192.84L16.9044 53.216C16.3859 50.8885 17.8519 48.5815 20.1794 48.063L116.061 26.695C118.388 26.1765 120.695 27.6425 121.214 29.97L152.33 169.594C152.849 171.921 151.383 174.228 149.055 174.747Z" fill="#E0E0E0"/>
<path d="M149.055 174.747C149.055 174.747 149.162 174.714 149.373 174.653C149.584 174.591 149.892 174.471 150.272 174.262C150.644 174.041 151.082 173.71 151.483 173.207C151.877 172.704 152.233 172.019 152.36 171.182C152.432 170.766 152.423 170.312 152.349 169.847C152.271 169.382 152.143 168.897 152.034 168.385C151.804 167.363 151.554 166.245 151.282 165.034C150.739 162.612 150.113 159.817 149.408 156.672C146.595 144.085 142.525 125.873 137.496 103.371C134.984 92.1185 132.233 79.793 129.28 66.5615C127.804 59.9455 126.277 53.103 124.704 46.055C123.918 42.531 123.121 38.9555 122.312 35.331C121.905 33.5205 121.497 31.6975 121.085 29.8625C120.867 28.966 120.324 28.16 119.601 27.584C118.868 27.021 117.95 26.6855 117.016 26.689C116.548 26.687 116.093 26.779 115.624 26.8895C115.158 26.9935 114.691 27.0975 114.223 27.202C113.287 27.4105 112.349 27.62 111.407 27.83C109.525 28.25 107.631 28.672 105.726 29.097C101.917 29.9465 98.0645 30.8055 94.1705 31.674C86.3825 33.4105 78.4305 35.1835 70.3355 36.9885C54.145 40.5975 37.3815 44.334 20.2125 48.161C19.1615 48.3915 18.2145 49.0375 17.6215 49.9305C17.021 50.818 16.782 51.937 16.9695 52.988C17.422 55.116 17.9125 57.2475 18.38 59.3665C19.325 63.607 20.2635 67.8195 21.1955 72.001C23.059 80.3645 24.895 88.6055 26.699 96.7025C30.306 112.897 33.7855 128.519 37.1 143.4C40.413 158.281 43.561 172.422 46.5075 185.657C46.8755 187.311 47.2405 188.951 47.6025 190.577C47.787 191.387 47.9555 192.205 48.151 192.999C48.3535 193.783 48.7975 194.495 49.3895 195.034C49.983 195.575 50.729 195.934 51.511 196.074C51.9035 196.139 52.302 196.149 52.6955 196.111C53.085 196.059 53.4775 195.964 53.8695 195.877C55.436 195.528 56.987 195.183 58.523 194.841C64.666 193.475 70.5615 192.163 76.1885 190.911C98.697 185.909 116.911 181.861 129.501 179.064C135.795 177.67 140.682 176.587 143.997 175.853C145.654 175.488 146.917 175.21 147.768 175.023C148.619 174.837 149.055 174.747 149.055 174.747C149.055 174.747 148.622 174.851 147.774 175.043C146.924 175.235 145.662 175.52 144.007 175.893C140.694 176.636 135.809 177.731 129.519 179.142C116.933 181.955 98.7235 186.024 76.221 191.053C70.595 192.309 64.7005 193.625 58.5585 194.996C57.023 195.339 55.472 195.685 53.906 196.035C53.515 196.121 53.125 196.218 52.715 196.272C52.306 196.312 51.892 196.303 51.484 196.235C50.671 196.09 49.896 195.717 49.279 195.156C48.663 194.596 48.2015 193.856 47.9905 193.041C47.791 192.233 47.6245 191.426 47.439 190.613C47.076 188.987 46.7105 187.347 46.341 185.693C43.389 172.46 40.2345 158.321 36.915 143.441C33.597 128.561 30.1135 112.94 26.5025 96.746C24.6975 88.649 22.8605 80.408 20.996 72.045C20.064 67.8635 19.125 63.651 18.18 59.4105C17.7115 57.287 17.224 55.17 16.7675 53.0225C16.571 51.92 16.822 50.745 17.4515 49.815C18.073 48.8785 19.0685 48.2 20.1695 47.959C37.339 44.1335 54.1025 40.398 70.2935 36.7905C78.389 34.987 86.3415 33.216 94.13 31.481C98.024 30.614 101.877 29.7555 105.687 28.907C107.592 28.483 109.485 28.061 111.368 27.6415C112.31 27.432 113.248 27.223 114.184 27.0145C114.652 26.9105 115.119 26.8065 115.585 26.7025C116.045 26.594 116.532 26.495 117.019 26.498C117.996 26.4945 118.955 26.8455 119.721 27.434C120.477 28.0355 121.043 28.879 121.27 29.815C121.682 31.652 122.09 33.477 122.496 35.2895C123.303 38.9145 124.099 42.49 124.884 46.0145C126.453 53.0635 127.977 59.907 129.45 66.5235C132.394 79.757 135.137 92.0845 137.641 103.338C142.643 125.847 146.691 144.063 149.489 156.653C150.187 159.801 150.807 162.597 151.344 165.02C151.612 166.232 151.86 167.35 152.086 168.373C152.194 168.886 152.319 169.368 152.397 169.839C152.47 170.309 152.477 170.768 152.403 171.188C152.272 172.033 151.909 172.722 151.51 173.226C151.102 173.731 150.66 174.061 150.284 174.28C149.9 174.487 149.59 174.604 149.378 174.663C149.164 174.721 149.055 174.747 149.055 174.747Z" fill="#263238"/>
<g opacity="0.3">
<path d="M58.0364 191.172L145.397 171.201L142.633 154.078L137.682 144.483L54.1119 177.309L58.0364 191.172Z" fill="black"/>
</g>
<g opacity="0.3">
<path d="M94.5079 31.8155L97.8124 37.272L98.4569 40.163L96.2134 40.663L94.5079 31.8155Z" fill="black"/>
</g>
<path d="M21.882 54.025L52.1905 190.026L147.196 168.853L141.776 144.535L116.887 32.8525L21.882 54.025Z" fill="white"/>
<path d="M21.882 54.025C22.559 53.8735 59.127 45.6905 116.869 32.77L116.951 32.7515L116.97 32.834C125.398 70.6285 135.917 117.794 147.296 168.82L147.298 168.831L147.321 168.932L147.219 168.956C113.254 176.522 81.003 183.706 52.2125 190.119L52.119 190.14L52.0985 190.047C34.257 109.734 22.066 54.8535 21.882 54.025C22.067 54.8525 34.3335 109.718 52.284 190.005L52.17 189.932C80.9595 183.513 113.209 176.324 147.173 168.751L147.093 168.876L147.091 168.865C135.726 117.836 125.222 70.6675 116.804 32.8705L116.905 32.9345C59.141 45.7555 22.5585 53.875 21.882 54.025Z" fill="#263238"/>
<path d="M96.726 41.7675L48.656 52.4805L46.237 41.625C45.857 39.92 46.931 38.23 48.636 37.85L90.532 28.513C92.237 28.133 93.927 29.207 94.307 30.912L96.726 41.7675Z" fill="#263238"/>
<path d="M74.533 26.575L62.298 29.3015L66.0655 39.47L75.281 37.416L74.533 26.575Z" fill="#263238"/>
<path d="M90.531 28.5135C90.5435 28.569 81.1745 30.7045 69.6075 33.2825C58.0365 35.861 48.6495 37.906 48.637 37.85C48.6245 37.7945 57.9915 35.6595 69.5625 33.0805C81.1295 30.503 90.5185 28.458 90.531 28.5135Z" fill="#455A64"/>
<path d="M49.2309 49.9915C49.1754 50.004 48.6904 48.042 48.1484 45.6095C47.6059 43.1765 47.2119 41.1945 47.2674 41.182C47.3229 41.1695 47.8079 43.1315 48.3499 45.5645C48.8919 47.997 49.2864 49.979 49.2309 49.9915Z" fill="#455A64"/>
<path d="M94.4364 38.822C94.3804 38.8345 93.9364 37.054 93.4444 34.8455C92.9519 32.6365 92.5984 30.836 92.6539 30.824C92.7094 30.8115 93.1539 32.5915 93.6459 34.801C94.1379 37.009 94.4919 38.8095 94.4364 38.822Z" fill="#455A64"/>
<path d="M92.5315 41.193C92.544 41.249 82.9265 43.4395 71.053 46.0855C59.1755 48.7325 49.54 50.8325 49.5275 50.7765C49.515 50.721 59.1305 48.5305 71.008 45.8835C82.8815 43.238 92.519 41.1375 92.5315 41.193Z" fill="#455A64"/>
<path d="M67.225 80.757C67.2375 80.8135 60.751 82.307 52.7389 84.0925C44.7239 85.8785 38.2185 87.2805 38.206 87.224C38.1935 87.1675 44.6785 85.6745 52.6935 83.888C60.7055 82.1025 67.2125 80.7005 67.225 80.757Z" fill="#263238"/>
<path d="M115.581 75.311C115.594 75.3675 98.645 79.1925 77.73 83.854C56.8075 88.517 39.8415 92.2495 39.829 92.1935C39.8165 92.137 56.762 88.3125 77.6845 83.65C98.6 78.9885 115.569 75.255 115.581 75.311Z" fill="#263238"/>
<path d="M116.623 79.985C116.636 80.0415 99.687 83.867 78.772 88.528C57.8495 93.191 40.8835 96.9235 40.871 96.867C40.8585 96.8105 57.804 92.986 78.7265 88.3235C99.6415 83.6625 116.61 79.9285 116.623 79.985Z" fill="#263238"/>
<path d="M117.665 84.659C117.677 84.7155 100.728 88.5405 79.8135 93.202C58.891 97.865 41.925 101.597 41.9125 101.541C41.9 101.484 58.8455 97.66 79.768 92.9975C100.683 88.3365 117.652 84.6025 117.665 84.659Z" fill="#263238"/>
<path d="M118.706 89.333C118.719 89.3895 101.77 93.215 80.855 97.876C59.9325 102.539 42.9665 106.271 42.954 106.215C42.9415 106.158 59.887 102.334 80.8095 97.6715C101.724 93.01 118.694 89.2765 118.706 89.333Z" fill="#263238"/>
<path d="M119.748 94.007C119.76 94.0635 102.811 97.889 81.8965 102.55C60.974 107.213 44.0085 110.945 43.9955 110.889C43.983 110.832 60.9285 107.008 81.851 102.345C102.766 97.684 119.735 93.9505 119.748 94.007Z" fill="#263238"/>
<path d="M58.686 126.907C58.682 126.904 58.6665 126.85 58.6405 126.749C58.612 126.632 58.5755 126.486 58.5305 126.303C58.4345 125.898 58.301 125.337 58.134 124.632C57.8 123.187 57.331 121.155 56.77 118.725L56.878 118.794C54.4905 119.33 51.6795 119.961 48.6805 120.635C48.662 120.662 48.83 120.4 48.7595 120.512L48.76 120.514L48.761 120.518L48.763 120.527L48.767 120.545L48.775 120.58L48.7905 120.65L48.822 120.79L48.8845 121.07C48.926 121.256 48.967 121.442 49.008 121.626C49.09 121.995 49.1715 122.361 49.2515 122.723C49.412 123.446 49.5685 124.154 49.7215 124.843C50.0245 126.22 50.3105 127.52 50.5735 128.714L50.4655 128.646C52.904 128.122 54.9425 127.684 56.393 127.372C57.102 127.224 57.6665 127.107 58.074 127.022C58.258 126.985 58.4065 126.956 58.524 126.932C58.6265 126.913 58.682 126.904 58.686 126.907C58.69 126.909 58.643 126.923 58.5475 126.948C58.4355 126.976 58.2945 127.011 58.1195 127.054C57.719 127.149 57.1645 127.281 56.4685 127.446C55.009 127.783 52.9585 128.256 50.505 128.823L50.417 128.843L50.397 128.754C50.128 127.562 49.835 126.263 49.5245 124.888C49.37 124.199 49.2115 123.491 49.0495 122.768C48.9685 122.406 48.887 122.041 48.8045 121.672C48.7635 121.487 48.722 121.302 48.6805 121.116L48.618 120.836L48.5865 120.695L48.571 120.625L48.563 120.59L48.559 120.572L48.557 120.563L48.556 120.559L48.5555 120.557C48.4845 120.668 48.6515 120.403 48.6355 120.43C51.637 119.767 54.45 119.145 56.839 118.616L56.928 118.597L56.947 118.685C57.476 121.147 57.9185 123.204 58.233 124.669C58.379 125.369 58.495 125.927 58.579 126.33C58.614 126.507 58.6425 126.65 58.6645 126.763C58.6825 126.86 58.69 126.909 58.686 126.907Z" fill="#263238"/>
<path d="M119.642 106.692L62.4336 119.44L63.4971 124.213L120.705 111.465L119.642 106.692Z" fill="#E0E0E0"/>
<path d="M61.8564 141.132C61.8524 141.13 61.8369 141.076 61.8109 140.974C61.7824 140.858 61.7459 140.711 61.7009 140.529C61.6049 140.123 61.4714 139.562 61.3044 138.858C60.9704 137.412 60.5019 135.381 59.9404 132.951L60.0484 133.019C57.6609 133.556 54.8499 134.187 51.8509 134.861C51.8324 134.888 52.0004 134.625 51.9299 134.737L51.9304 134.739L51.9314 134.744L51.9334 134.753L51.9374 134.77L51.9454 134.805L51.9609 134.876L51.9924 135.016L52.0549 135.296C52.0964 135.482 52.1374 135.668 52.1789 135.852C52.2609 136.221 52.3419 136.587 52.4224 136.949C52.5829 137.672 52.7394 138.38 52.8924 139.069C53.1954 140.446 53.4814 141.746 53.7444 142.94L53.6364 142.872C56.0749 142.348 58.1134 141.91 59.5639 141.598C60.2729 141.45 60.8374 141.333 61.2449 141.248C61.4289 141.211 61.5774 141.182 61.6949 141.158C61.7969 141.139 61.8519 141.13 61.8564 141.132C61.8604 141.135 61.8134 141.149 61.7179 141.174C61.6059 141.201 61.4649 141.236 61.2899 141.28C60.8894 141.375 60.3349 141.507 59.6389 141.672C58.1794 142.009 56.1284 142.482 53.6749 143.049L53.5869 143.069L53.5669 142.98C53.2979 141.788 53.0049 140.489 52.6944 139.114C52.5399 138.425 52.3814 137.718 52.2194 136.994C52.1384 136.633 52.0569 136.267 51.9744 135.898C51.9334 135.713 51.8919 135.528 51.8504 135.342L51.7879 135.062L51.7564 134.921L51.7409 134.851L51.7329 134.816L51.7289 134.798L51.7269 134.789L51.7259 134.785L51.7254 134.783C51.6544 134.894 51.8214 134.629 51.8054 134.656C54.8069 133.993 57.6199 133.371 60.0089 132.843L60.0979 132.823L60.1169 132.911C60.6459 135.373 61.0884 137.43 61.4034 138.895C61.5494 139.595 61.6654 140.153 61.7494 140.556C61.7844 140.733 61.8124 140.876 61.8349 140.989C61.8529 141.086 61.8604 141.135 61.8564 141.132Z" fill="#263238"/>
<path d="M122.812 120.919L65.6039 133.667L66.6673 138.439L123.876 125.692L122.812 120.919Z" fill="#E0E0E0"/>
<path d="M65.0265 155.358C65.0225 155.356 65.007 155.302 64.981 155.2C64.9525 155.084 64.916 154.937 64.871 154.755C64.775 154.35 64.6415 153.788 64.4745 153.084C64.1405 151.638 63.672 149.607 63.1105 147.177L63.2185 147.245C60.831 147.782 58.02 148.413 55.021 149.087C55.0025 149.114 55.171 148.851 55.1 148.963L55.1005 148.966L55.1015 148.97L55.1035 148.979L55.1075 148.997L55.1155 149.032L55.131 149.102L55.1625 149.243L55.225 149.523C55.2665 149.709 55.3075 149.894 55.3485 150.079C55.4305 150.448 55.512 150.814 55.592 151.175C55.7525 151.899 55.909 152.607 56.0615 153.296C56.3645 154.673 56.6505 155.973 56.9135 157.167L56.8055 157.098C59.244 156.574 61.2825 156.136 62.733 155.824C63.442 155.676 64.0065 155.559 64.4145 155.474C64.5985 155.437 64.747 155.408 64.8645 155.384C64.9675 155.365 65.0225 155.356 65.0265 155.358C65.0305 155.361 64.9835 155.375 64.888 155.4C64.776 155.428 64.635 155.463 64.46 155.506C64.0595 155.601 63.505 155.733 62.809 155.898C61.3495 156.235 59.299 156.708 56.8455 157.275L56.7575 157.295L56.7375 157.206C56.4685 156.013 56.1755 154.715 55.865 153.34C55.7105 152.651 55.552 151.943 55.39 151.22C55.309 150.858 55.2275 150.493 55.145 150.124C55.104 149.939 55.0625 149.754 55.021 149.568L54.9585 149.288L54.927 149.147L54.9115 149.077L54.9035 149.042L54.8995 149.024L54.8975 149.015L54.8965 149.011L54.896 149.009C54.825 149.12 54.992 148.855 54.976 148.882C57.9775 148.219 60.7905 147.597 63.1795 147.068L63.2685 147.049L63.2875 147.137C63.8165 149.599 64.259 151.656 64.5735 153.121C64.7195 153.821 64.8355 154.379 64.9195 154.782C64.9545 154.959 64.983 155.102 65.005 155.215C65.0235 155.312 65.0305 155.361 65.0265 155.358Z" fill="#263238"/>
<path d="M125.983 135.146L68.7743 147.893L69.8378 152.666L127.046 139.918L125.983 135.146Z" fill="#E0E0E0"/>
<path d="M50.8075 123.967L51.6665 122.616L54.221 124.035L57.508 119.076L58.7805 119.953L54.538 126.202L50.8075 123.967Z" fill="#068BBE"/>
<path d="M53.8719 137.717L54.7309 136.366L57.2849 137.785L60.5724 132.826L61.8449 133.703L57.6024 139.952L53.8719 137.717Z" fill="#068BBE"/>
<path d="M57.014 151.816L57.873 150.464L60.427 151.883L63.714 146.924L64.987 147.801L60.744 154.051L57.014 151.816Z" fill="#068BBE"/>
<path d="M83.198 169.507C83.2105 169.563 78.3805 170.688 72.4115 172.018C66.44 173.348 61.591 174.381 61.5785 174.325C61.566 174.268 66.3945 173.144 72.366 171.813C78.335 170.483 83.185 169.451 83.198 169.507Z" fill="#263238"/>
<path d="M93.9705 166.932C93.983 166.989 92.206 167.432 90.002 167.923C87.797 168.415 86.0005 168.767 85.9875 168.711C85.975 168.654 87.7515 168.21 89.9565 167.719C92.1605 167.228 93.958 166.876 93.9705 166.932Z" fill="#263238"/>
<path d="M129.641 155.704C129.653 155.761 125.307 156.777 119.935 157.974C114.561 159.172 110.196 160.097 110.183 160.04C110.171 159.984 114.516 158.967 119.89 157.77C125.262 156.573 129.628 155.648 129.641 155.704Z" fill="#263238"/>
<path d="M124.996 168.866C124.984 168.862 125.038 168.729 125.091 168.468C125.149 168.208 125.152 167.805 125.031 167.313C124.905 166.821 124.648 166.251 124.339 165.592C124.044 164.936 123.661 164.157 123.655 163.208C123.669 162.277 124.079 161.242 124.922 160.517C125.755 159.777 127.06 159.516 128.245 159.897C128.834 160.089 129.403 160.423 129.826 160.936C130.028 161.197 130.19 161.511 130.202 161.872C130.233 162.239 129.952 162.604 129.615 162.717C129.283 162.844 128.958 162.882 128.631 162.961C128.303 163.028 127.972 163.097 127.638 163.165C126.97 163.297 126.288 163.42 125.592 163.511C124.203 163.697 122.808 163.722 121.501 163.534C120.862 163.467 120.187 163.456 119.706 163.827C119.226 164.193 118.982 164.789 118.624 165.288C118.447 165.54 118.222 165.781 117.926 165.911C117.635 166.046 117.295 166.043 117.009 165.95C116.432 165.755 116.008 165.369 115.55 165.109C115.324 164.976 115.088 164.867 114.847 164.843C114.608 164.82 114.367 164.878 114.177 165.012C113.79 165.287 113.586 165.742 113.33 166.122C112.824 166.931 111.953 167.314 111.219 167.34C110.465 167.377 109.854 167.057 109.468 166.72C109.075 166.376 108.878 166.01 108.776 165.76C108.675 165.507 108.662 165.363 108.662 165.363C108.673 165.36 108.703 165.5 108.814 165.743C108.927 165.983 109.131 166.333 109.521 166.657C109.904 166.976 110.496 167.269 111.212 167.223C111.915 167.186 112.734 166.813 113.206 166.041C113.455 165.67 113.648 165.2 114.085 164.879C114.302 164.724 114.586 164.65 114.864 164.676C115.143 164.703 115.4 164.823 115.637 164.959C116.112 165.228 116.542 165.605 117.063 165.774C117.321 165.855 117.603 165.854 117.85 165.74C118.098 165.629 118.299 165.419 118.467 165.177C118.811 164.702 119.047 164.089 119.586 163.668C119.854 163.46 120.191 163.353 120.523 163.315C120.857 163.278 121.192 163.298 121.522 163.331C122.828 163.515 124.184 163.488 125.565 163.304C126.255 163.214 126.932 163.093 127.598 162.962C127.931 162.894 128.261 162.826 128.589 162.759C128.913 162.683 129.255 162.638 129.538 162.528C129.825 162.422 130.016 162.17 130 161.876C129.993 161.585 129.852 161.295 129.67 161.06C129.285 160.589 128.743 160.264 128.187 160.082C127.063 159.716 125.828 159.955 125.036 160.65C124.23 161.333 123.826 162.321 123.804 163.211C123.799 164.112 124.161 164.885 124.447 165.545C124.744 166.207 124.995 166.789 125.11 167.295C125.222 167.801 125.205 168.215 125.133 168.477C125.065 168.74 124.996 168.866 124.996 168.866Z" fill="#263238"/>
<path d="M135.334 162.466C135.335 162.473 135.245 162.499 135.073 162.543C134.879 162.59 134.628 162.65 134.316 162.725C133.633 162.884 132.686 163.103 131.527 163.372C129.173 163.918 125.924 164.689 122.35 165.595C118.775 166.502 115.552 167.373 113.222 168.016C112.075 168.332 111.139 168.59 110.463 168.776C110.153 168.859 109.903 168.925 109.71 168.976C109.538 169.02 109.446 169.039 109.444 169.032C109.442 169.025 109.529 168.992 109.698 168.936C109.888 168.875 110.134 168.795 110.44 168.697C111.085 168.494 112.021 168.212 113.182 167.873C115.502 167.194 118.721 166.299 122.299 165.391C125.875 164.485 129.131 163.736 131.495 163.227C132.677 162.972 133.635 162.774 134.298 162.645C134.614 162.586 134.867 162.538 135.063 162.501C135.24 162.471 135.332 162.459 135.334 162.466Z" fill="#263238"/>
<path d="M94.3288 52.754L55.4941 61.4073L57.12 68.7037L95.9546 60.0503L94.3288 52.754Z" fill="#E0E0E0"/>
<path d="M131.059 171.153L143.605 237.434L155.07 216.251L176.801 229.005L153.734 164.462L131.059 171.153Z" fill="#068BBE"/>
<g opacity="0.3">
<path d="M135.279 193.445C137.598 193.923 140.305 193.102 141.95 191.4C143.093 190.217 143.856 188.611 145.297 187.819C146.591 187.108 148.187 187.209 149.61 187.602C151.033 187.995 152.373 188.655 153.802 189.025C156.603 189.752 159.692 189.294 162.161 187.785L158.542 177.734L141.741 175.636L133.73 185.259L135.279 193.445Z" fill="black"/>
</g>
<path d="M154.253 213.618C154.183 213.636 152.315 206.753 150.08 198.245C147.845 189.734 146.09 182.822 146.159 182.804C146.229 182.786 148.097 189.668 150.332 198.179C152.567 206.686 154.322 213.6 154.253 213.618Z" fill="#263238"/>
<path d="M132.896 174.601L120.349 240.882L108.884 219.698L87.1534 232.453L110.221 167.911L132.896 174.601Z" fill="#068BBE"/>
<g opacity="0.3">
<path d="M103.322 187.215C103.322 187.215 106.89 190.152 111.147 188.799C115.404 187.445 118.047 187.161 120.35 188.799C122.653 190.437 128.888 195.777 128.888 195.777L130.336 188.13L121.963 176.63L113.218 178.396L106.991 179.018L104.676 183.4L103.322 187.215Z" fill="black"/>
</g>
<path d="M206.452 114.769C206.452 119.524 200.374 123.621 199.485 128.115C198.569 132.746 202.6 138.851 200.833 143.112C199.036 147.447 191.851 148.905 189.271 152.758C186.671 156.641 188.058 163.834 184.765 167.126C181.473 170.418 174.281 169.031 170.398 171.631C166.544 174.211 165.087 181.395 160.751 183.193C156.49 184.96 150.386 180.929 145.755 181.845C141.26 182.734 137.164 188.812 132.408 188.812C127.653 188.812 123.556 182.734 119.062 181.845C114.431 180.929 108.326 184.96 104.065 183.193C99.7295 181.396 98.272 174.211 94.4185 171.631C90.5355 169.031 83.343 170.418 80.051 167.125C76.759 163.833 78.1455 156.641 75.546 152.758C72.9665 148.904 65.7815 147.447 63.9835 143.111C62.2165 138.85 66.248 132.746 65.332 128.115C64.443 123.62 58.3645 119.524 58.3645 114.768C58.3645 110.013 64.443 105.916 65.332 101.422C66.248 96.7905 62.2165 90.686 63.9835 86.425C65.781 82.0895 72.966 80.632 75.546 76.7785C78.1455 72.8955 76.759 65.703 80.0515 62.411C83.3435 59.119 90.536 60.5055 94.419 57.906C98.2725 55.326 99.73 48.1415 104.066 46.3435C108.327 44.5765 114.431 48.608 119.062 47.692C123.557 46.803 127.653 40.7245 132.409 40.7245C137.164 40.7245 141.261 46.803 145.755 47.692C150.386 48.608 156.491 44.577 160.752 46.3435C165.087 48.141 166.545 55.326 170.398 57.906C174.281 60.5055 181.474 59.119 184.766 62.411C188.058 65.703 186.671 72.8955 189.271 76.7785C191.85 80.632 199.035 82.0895 200.833 86.425C202.6 90.686 198.569 96.7905 199.485 101.422C200.374 105.917 206.452 110.013 206.452 114.769Z" fill="#068BBE"/>
<path d="M115.084 73.2655C115.076 73.2695 115.03 73.199 114.949 73.061C114.857 72.895 114.744 72.694 114.608 72.4515C114.315 71.9205 113.911 71.1415 113.429 70.1705C112.463 68.229 111.214 65.5025 110.009 62.419C108.807 59.3335 107.879 56.481 107.276 54.3985C106.973 53.3575 106.743 52.5105 106.599 51.9215C106.535 51.651 106.481 51.427 106.437 51.2425C106.403 51.0865 106.389 51.0035 106.398 51.001C106.406 50.9985 106.437 51.077 106.488 51.2285C106.545 51.4095 106.614 51.629 106.697 51.8945C106.887 52.512 107.142 53.34 107.452 54.3455C108.1 56.411 109.053 59.247 110.252 62.325C111.453 65.401 112.672 68.1325 113.594 70.0915C114.047 71.041 114.42 71.823 114.698 72.406C114.816 72.6575 114.915 72.866 114.995 73.0375C115.061 73.1825 115.092 73.261 115.084 73.2655Z" fill="#263238"/>
<path d="M121.673 70.7595C121.655 70.764 121.588 70.5675 121.482 70.208C121.374 69.849 121.233 69.3255 121.068 68.6765C120.738 67.378 120.329 65.572 119.959 63.5615C119.59 61.55 119.33 59.716 119.178 58.385C119.101 57.7195 119.048 57.18 119.021 56.8065C118.993 56.433 118.986 56.2255 119.003 56.2235C119.021 56.2215 119.062 56.425 119.121 56.7945C119.186 57.219 119.266 57.7425 119.36 58.3605C119.559 59.683 119.847 61.5075 120.215 63.514C120.584 65.52 120.963 67.3275 121.247 68.634C121.378 69.2455 121.49 69.763 121.58 70.183C121.656 70.55 121.69 70.755 121.673 70.7595Z" fill="#263238"/>
<path d="M133.298 69.6045C133.226 69.606 133.041 63.9975 132.885 57.079C132.728 50.158 132.66 44.548 132.732 44.5465C132.804 44.545 132.989 50.1525 133.145 57.0735C133.301 63.9915 133.37 69.603 133.298 69.6045Z" fill="#263238"/>
<path d="M144.995 58.0805C145.064 58.102 144.257 60.9065 143.193 64.3435C142.128 67.782 141.21 70.5515 141.141 70.5305C141.073 70.5095 141.88 67.7055 142.944 64.2665C144.008 60.829 144.926 58.059 144.995 58.0805Z" fill="#263238"/>
<path d="M149.77 72.5735C149.761 72.5705 149.783 72.489 149.833 72.337C149.895 72.1575 149.97 71.94 150.061 71.6775C150.262 71.1055 150.573 70.286 150.961 69.2745C151.743 67.2535 152.867 64.4795 154.146 61.432C155.425 58.383 156.613 55.6365 157.49 53.6555C157.922 52.696 158.277 51.9055 158.543 51.316C158.662 51.065 158.761 50.857 158.842 50.686C158.913 50.543 158.955 50.47 158.963 50.4735C158.972 50.477 158.946 50.5575 158.89 50.707C158.821 50.8835 158.737 51.098 158.636 51.3565C158.39 51.9545 158.06 52.7555 157.659 53.7285C156.807 55.7605 155.657 58.5025 154.386 61.533C153.123 64.565 151.98 67.309 151.133 69.343C150.732 70.3155 150.402 71.1165 150.156 71.714C150.047 71.9695 149.957 72.1815 149.882 72.356C149.816 72.5015 149.778 72.5765 149.77 72.5735Z" fill="#263238"/>
<path d="M156.02 75.833C156.005 75.823 156.108 75.6425 156.305 75.324C156.502 75.005 156.799 74.5515 157.175 73.997C157.926 72.8875 159.004 71.382 160.261 69.7695C161.519 68.157 162.717 66.745 163.61 65.7465C164.057 65.247 164.424 64.849 164.686 64.58C164.946 64.3105 165.097 64.1675 165.11 64.1795C165.124 64.1915 164.999 64.3575 164.762 64.647C164.488 64.9775 164.15 65.385 163.75 65.8665C162.894 66.894 161.722 68.321 160.466 69.9295C159.212 71.538 158.114 73.0225 157.325 74.103C156.956 74.6075 156.643 75.035 156.389 75.381C156.166 75.6815 156.035 75.843 156.02 75.833Z" fill="#263238"/>
<path d="M165.11 83.2855C165.061 83.233 169.017 79.4725 173.945 74.888C178.875 70.302 182.91 66.628 182.959 66.6805C183.008 66.733 179.052 70.4925 174.123 75.0785C169.195 79.6635 165.159 83.338 165.11 83.2855Z" fill="#263238"/>
<path d="M180.992 84.8385C181.008 84.8745 180.422 85.168 179.485 85.6595C178.547 86.1495 177.268 86.8565 175.859 87.648C174.448 88.44 173.149 89.125 172.187 89.574C171.706 89.7985 171.313 89.973 171.036 90.082C170.761 90.193 170.605 90.2465 170.597 90.23C170.581 90.1945 171.167 89.9005 172.104 89.409C173.042 88.919 174.321 88.212 175.731 87.42C177.141 86.6285 178.44 85.9435 179.402 85.494C179.883 85.2695 180.276 85.095 180.553 84.986C180.829 84.8755 180.984 84.822 180.992 84.8385Z" fill="#263238"/>
<path d="M195.694 90.937C195.718 91.005 191.008 92.7245 185.177 94.7775C179.343 96.831 174.596 98.4405 174.572 98.373C174.548 98.305 179.257 96.586 185.09 94.532C190.922 92.479 195.67 90.869 195.694 90.937Z" fill="#263238"/>
<path d="M200.373 117.67C200.366 117.742 195.249 117.313 188.944 116.713C182.637 116.113 177.531 115.568 177.538 115.497C177.545 115.425 182.661 115.854 188.968 116.454C195.273 117.054 200.38 117.599 200.373 117.67Z" fill="#263238"/>
<path d="M196.61 141.649C196.579 141.714 191.794 139.518 185.924 136.744C180.051 133.97 175.317 131.669 175.348 131.604C175.379 131.539 180.163 133.735 186.035 136.509C191.905 139.282 196.64 141.584 196.61 141.649Z" fill="#263238"/>
<path d="M180.87 164.463C180.815 164.509 177.364 160.506 173.163 155.523C168.96 150.539 165.598 146.462 165.653 146.415C165.708 146.369 169.159 150.371 173.361 155.355C177.563 160.339 180.925 164.417 180.87 164.463Z" fill="#263238"/>
<path d="M167.732 167.477C167.717 167.486 167.569 167.286 167.315 166.915C167.06 166.544 166.702 166 166.268 165.323C165.399 163.97 164.233 162.076 163.006 159.95C161.779 157.823 160.724 155.867 159.987 154.437C159.618 153.722 159.327 153.14 159.133 152.733C158.939 152.327 158.839 152.099 158.855 152.091C158.871 152.083 159.001 152.295 159.223 152.686C159.466 153.123 159.777 153.681 160.149 154.35C160.927 155.756 162.007 157.696 163.232 159.82C164.457 161.943 165.596 163.849 166.424 165.226C166.817 165.883 167.145 166.432 167.401 166.86C167.628 167.248 167.747 167.467 167.732 167.477Z" fill="#263238"/>
<path d="M159.571 178.951C159.563 178.955 159.518 178.884 159.441 178.746C159.352 178.579 159.244 178.378 159.114 178.135C158.833 177.603 158.446 176.822 157.986 175.85C157.064 173.905 155.88 171.174 154.754 168.088C153.63 164.999 152.779 162.146 152.234 160.065C151.96 159.024 151.754 158.178 151.627 157.59C151.571 157.32 151.524 157.096 151.485 156.912C151.455 156.756 151.444 156.673 151.452 156.671C151.461 156.669 151.489 156.748 151.536 156.899C151.588 157.081 151.65 157.3 151.726 157.565C151.899 158.183 152.13 159.011 152.411 160.016C153.001 162.081 153.877 164.918 154.998 167.998C156.122 171.077 157.276 173.812 158.153 175.773C158.584 176.723 158.939 177.506 159.205 178.09C159.317 178.342 159.411 178.55 159.488 178.722C159.55 178.868 159.579 178.947 159.571 178.951Z" fill="#263238"/>
<path d="M143.039 170.907C143.001 170.909 142.939 170.241 142.823 169.166C142.708 168.09 142.526 166.608 142.255 164.981C141.982 163.354 141.671 161.893 141.43 160.839C141.19 159.784 141.031 159.133 141.068 159.122C141.085 159.117 141.146 159.274 141.242 159.562C141.339 159.85 141.465 160.271 141.609 160.794C141.896 161.841 142.237 163.304 142.512 164.938C142.784 166.573 142.938 168.067 143.007 169.15C143.042 169.691 143.06 170.13 143.061 170.434C143.064 170.738 143.057 170.906 143.039 170.907Z" fill="#263238"/>
<path d="M132.225 185.299C132.216 185.299 132.209 185.211 132.203 185.043C132.2 184.845 132.196 184.602 132.192 184.308C132.185 183.669 132.189 182.746 132.21 181.605C132.248 179.322 132.353 176.17 132.536 172.693C132.716 169.214 132.94 166.068 133.124 163.793C133.217 162.656 133.3 161.736 133.365 161.101C133.398 160.809 133.425 160.567 133.447 160.371C133.469 160.204 133.485 160.117 133.494 160.118C133.503 160.118 133.505 160.207 133.5 160.375C133.491 160.573 133.48 160.815 133.466 161.11C133.427 161.786 133.373 162.698 133.308 163.807C133.175 166.121 132.995 169.249 132.796 172.707C132.613 176.183 132.48 179.331 132.394 181.611C132.353 182.721 132.318 183.634 132.293 184.311C132.278 184.605 132.266 184.847 132.256 185.045C132.245 185.211 132.234 185.299 132.225 185.299Z" fill="#263238"/>
<path d="M123.435 160.117C123.47 160.124 123.416 160.611 123.285 161.393C123.155 162.175 122.945 163.25 122.669 164.427C122.393 165.604 122.104 166.661 121.873 167.419C121.643 168.177 121.474 168.638 121.441 168.628C121.405 168.618 121.511 168.139 121.696 167.371C121.902 166.512 122.146 165.493 122.416 164.367C122.674 163.239 122.908 162.219 123.105 161.358C123.281 160.587 123.399 160.111 123.435 160.117Z" fill="#263238"/>
<path d="M107.541 152.481C107.598 152.524 106.619 153.912 105.353 155.581C104.088 157.25 103.015 158.567 102.958 158.523C102.901 158.48 103.88 157.092 105.146 155.423C106.411 153.755 107.483 152.437 107.541 152.481Z" fill="#263238"/>
<path d="M99.2029 146.878C99.2569 146.926 96.1544 150.569 92.2734 155.015C88.3914 159.463 85.2009 163.029 85.1469 162.982C85.0929 162.934 88.1949 159.292 92.0774 154.844C95.9579 150.398 99.1484 146.831 99.2029 146.878Z" fill="#263238"/>
<path d="M95.0305 140.678C95.076 140.733 93.35 142.231 91.175 144.024C88.9995 145.817 87.1995 147.225 87.1535 147.169C87.108 147.114 88.8335 145.616 91.009 143.823C93.184 142.03 94.9845 140.622 95.0305 140.678Z" fill="#263238"/>
<path d="M90.149 131.321C90.1805 131.386 85.8585 133.533 80.4975 136.116C75.1345 138.701 70.763 140.743 70.732 140.678C70.701 140.613 75.0215 138.466 80.3845 135.882C85.7455 133.298 90.118 131.256 90.149 131.321Z" fill="#263238"/>
<path d="M88.1875 126.654C88.191 126.671 88.031 126.718 87.7385 126.787C87.4465 126.857 87.021 126.944 86.493 127.042C85.4375 127.238 83.9695 127.46 82.339 127.624C80.7075 127.787 79.2245 127.859 78.151 127.877C77.614 127.886 77.18 127.884 76.8795 127.873C76.5795 127.864 76.4135 127.85 76.413 127.832C76.4125 127.794 77.075 127.757 78.1435 127.693C79.2125 127.628 80.6875 127.527 82.3125 127.365C83.937 127.202 85.4025 127.009 86.463 126.86C87.524 126.712 88.1805 126.616 88.1875 126.654Z" fill="#263238"/>
<path d="M86.6044 115.881C86.6029 115.899 86.2914 115.891 85.7294 115.862C85.1249 115.831 84.3229 115.789 83.3514 115.74C81.3439 115.642 78.5684 115.551 75.5024 115.566C72.4354 115.584 69.6609 115.705 67.6544 115.824C66.6839 115.884 65.8824 115.934 65.2779 115.971C64.7169 116.007 64.4054 116.018 64.4034 116C64.4019 115.982 64.7099 115.937 65.2689 115.871C65.8279 115.803 66.6384 115.723 67.6414 115.64C69.6474 115.474 72.4269 115.323 75.5004 115.305C78.5729 115.29 81.3539 115.411 83.3614 115.555C84.3654 115.627 85.1769 115.698 85.7364 115.76C86.2974 115.821 86.6059 115.863 86.6044 115.881Z" fill="#263238"/>
<path d="M87.5864 106.42C87.5669 106.489 84.3294 105.646 80.3559 104.537C76.3809 103.428 73.1754 102.473 73.1944 102.404C73.2139 102.334 76.4509 103.177 80.4259 104.286C84.3994 105.395 87.6059 106.351 87.5864 106.42Z" fill="#263238"/>
<path d="M89.6789 98.487C89.6759 98.4955 89.5949 98.477 89.4429 98.434C89.2624 98.3795 89.0444 98.313 88.7814 98.2335C88.2079 98.0565 87.3859 97.7765 86.3774 97.4095C84.3604 96.677 81.6109 95.5555 78.6704 94.1095C75.7309 92.6595 73.1654 91.1635 71.3549 90.011C70.4494 89.4355 69.7264 88.9545 69.2364 88.608C69.0129 88.448 68.8279 88.3155 68.6744 88.206C68.5474 88.112 68.4834 88.0585 68.4884 88.051C68.4934 88.0435 68.5674 88.082 68.7034 88.1625C68.8639 88.261 69.0579 88.38 69.2919 88.5235C69.7984 88.844 70.5354 89.3005 71.4514 89.8545C73.2829 90.9645 75.8544 92.4305 78.7849 93.8755C81.7164 95.317 84.4459 96.462 86.4419 97.237C87.4399 97.6255 88.2509 97.9315 88.8139 98.1375C89.0704 98.2355 89.2829 98.317 89.4589 98.384C89.6064 98.4435 89.6819 98.4785 89.6789 98.487Z" fill="#263238"/>
<path d="M94.3854 90.5125C94.3439 90.5715 91.8129 88.86 88.7324 86.691C85.6509 84.521 83.1874 82.715 83.2289 82.656C83.2704 82.597 85.8009 84.308 88.8824 86.478C91.9629 88.6475 94.4269 90.454 94.3854 90.5125Z" fill="#263238"/>
<path d="M84.438 66.2085C84.444 66.202 84.509 66.25 84.6275 66.347C84.767 66.4665 84.9345 66.61 85.136 66.7825C85.6025 67.196 86.224 67.747 86.9775 68.4145C88.557 69.824 90.6835 71.721 93.034 73.818C95.3945 75.905 97.5295 77.7935 99.1155 79.1955C99.8675 79.865 100.488 80.417 100.953 80.8315C101.148 81.011 101.31 81.1605 101.445 81.285C101.556 81.391 101.611 81.45 101.605 81.4565C101.599 81.4635 101.533 81.418 101.411 81.325C101.267 81.2105 101.094 81.0735 100.887 80.9085C100.435 80.5425 99.7885 80.0055 98.9945 79.335C97.4065 77.9945 95.232 76.119 92.8605 74.013C90.49 71.907 88.371 69.97 86.8525 68.551C86.0935 67.8415 85.483 67.2625 85.0665 66.8575C84.878 66.671 84.7215 66.5155 84.591 66.386C84.485 66.276 84.432 66.215 84.438 66.2085Z" fill="#263238"/>
<path d="M100.035 66.663C100.049 66.6515 100.17 66.7755 100.375 67.009C100.581 67.242 100.869 67.588 101.217 68.022C101.913 68.8895 102.839 70.1175 103.798 71.5185C104.756 72.9205 105.565 74.229 106.121 75.1925C106.399 75.674 106.617 76.068 106.759 76.3445C106.902 76.621 106.974 76.778 106.959 76.7865C106.926 76.8055 106.559 76.224 105.964 75.288C105.369 74.351 104.538 73.063 103.583 71.6655C102.628 70.269 101.729 69.028 101.071 68.134C100.414 67.2395 100.006 66.687 100.035 66.663Z" fill="#263238"/>
<g opacity="0.2">
<path d="M80.052 62.4115L101.803 81.457L107.211 77.1305L94.588 57.789C94.588 57.789 93.621 58.5005 91.1075 59.2185C88.673 59.9145 81.504 60.1005 80.052 62.4115Z" fill="black"/>
</g>
<g opacity="0.2">
<path d="M104.264 46.3005L114.886 72.8865L121.673 70.76L119.411 47.7015C119.411 47.7015 118.242 47.975 115.649 47.6455C113.137 47.326 107.04 44.942 104.264 46.3005Z" fill="black"/>
</g>
<g opacity="0.3">
<path d="M132.585 40.7335L133.298 69.6045L139.66 69.91L146.102 47.7515C145.979 47.7405 144.317 47.453 142.356 46.2C140.153 44.7925 135.667 40.504 132.585 40.7335Z" fill="black"/>
</g>
<g opacity="0.2">
<path d="M160.325 46.188L149.769 72.804L155.516 75.5515L170.042 57.621C169.933 57.5635 168.556 56.417 167.283 54.3775C165.899 52.159 163.54 47.0765 160.325 46.188Z" fill="black"/>
</g>
<g opacity="0.2">
<path d="M185.114 62.797L165.453 83.2855L169.835 89.1905L189.045 76.369C189.045 76.369 188.238 75.09 187.782 72.6285C187.319 70.1385 187.252 65.6015 185.114 62.797Z" fill="black"/>
</g>
<g opacity="0.2">
<path d="M200.634 85.926L174.159 96.8225L176.355 103.587L199.389 101.087C199.389 101.087 199.245 100.375 199.548 97.7785C199.841 95.263 202.483 89.645 200.634 85.926Z" fill="black"/>
</g>
<g opacity="0.2">
<path d="M206.493 114.768L177.631 115.779L177.391 122.144L199.408 128.585C199.418 128.462 199.614 127.219 200.281 125.957C201.902 122.892 206.493 118.57 206.493 114.768Z" fill="black"/>
</g>
<g opacity="0.2">
<path d="M201.176 142.061L174.601 131.703L171.913 137.478L189.993 151.817C190.049 151.708 191.105 150.729 193.131 149.435C195.336 148.028 200.565 145.755 201.176 142.061Z" fill="black"/>
</g>
<g opacity="0.2">
<path d="M162.088 141.648L155.511 147.169C156.009 147.69 164.776 162.589 170.177 171.8C170.251 171.746 170.321 171.682 170.397 171.63C173.955 169.248 180.284 170.204 183.852 167.848L162.088 141.648Z" fill="black"/>
<path d="M150.001 152.09L140.18 155.439L144.83 182.101C145.137 181.994 145.445 181.906 145.755 181.844C150.386 180.928 156.49 184.96 160.751 183.193C161.337 182.95 161.867 182.602 162.361 182.187L150.001 152.09Z" fill="black"/>
<path d="M132.068 188.798L133.637 153.968L125.146 151.817L118.828 181.806C118.906 181.819 118.985 181.829 119.062 181.844C123.449 182.712 127.457 188.52 132.068 188.798Z" fill="black"/>
<path d="M110.717 148.055C110.717 148.055 99.497 163.084 93.631 171.178C93.9055 171.314 94.1695 171.463 94.419 171.63C98.2725 174.21 99.73 181.395 104.065 183.193C104.264 183.275 104.468 183.341 104.675 183.4L120.349 153.73L110.717 148.055Z" fill="black"/>
<path d="M99.2029 135.954L75.2729 152.402C75.3644 152.52 75.4644 152.634 75.5469 152.758C78.1464 156.641 76.7599 163.833 80.0519 167.125C80.3549 167.428 80.6999 167.68 81.0634 167.911C89.5194 158.379 104.699 141.272 105.249 140.678L99.2029 135.954Z" fill="black"/>
<path d="M93.7199 124.212L65.4274 128.781C65.8779 133.319 62.3009 139.051 63.9844 143.111C64.0874 143.359 64.2124 143.596 64.3489 143.826C74.2499 138.897 94.9369 128.642 95.7974 128.585L93.7199 124.212Z" fill="black"/>
<path d="M92.175 108.452L65.4295 100.733C65.407 100.966 65.3775 101.196 65.3325 101.422C64.4435 105.917 58.365 110.013 58.365 114.769C58.365 115.088 58.3945 115.404 58.4455 115.717H91.092L92.175 108.452Z" fill="black"/>
<path d="M64.0925 86.213C74.0865 91.5695 93.6315 102.404 93.6315 102.404L98.4415 93.2695L75.848 76.259C75.7515 76.4355 75.6575 76.6145 75.5465 76.7795C73.011 80.567 66.037 82.0465 64.0925 86.213Z" fill="black"/>
</g>
<path d="M206.452 114.769C206.452 114.769 206.439 114.662 206.42 114.452C206.393 114.243 206.403 113.925 206.288 113.522C206.131 112.706 205.674 111.533 204.79 110.17C203.931 108.788 202.63 107.247 201.273 105.29C200.611 104.307 199.923 103.197 199.556 101.864C199.189 100.529 199.259 99.0255 199.547 97.51C199.823 95.9855 200.277 94.4155 200.675 92.75C201.042 91.0935 201.438 89.284 201.069 87.4425C200.872 86.533 200.44 85.6655 199.826 84.912C199.206 84.161 198.426 83.53 197.603 82.9385C195.943 81.761 194.037 80.818 192.21 79.5895C191.302 78.9725 190.4 78.2855 189.659 77.4085C188.909 76.534 188.424 75.4435 188.096 74.3155C187.453 72.042 187.312 69.6085 186.823 67.178C186.574 65.9685 186.238 64.739 185.592 63.649C184.96 62.55 183.937 61.7 182.744 61.185C181.553 60.6565 180.244 60.3825 178.92 60.163C177.593 59.945 176.237 59.7905 174.873 59.5485C173.515 59.3045 172.122 58.9825 170.865 58.2865C169.6 57.5955 168.611 56.4845 167.783 55.3015C166.953 54.109 166.239 52.829 165.479 51.5655C164.718 50.306 163.918 49.0395 162.88 47.963C161.844 46.8965 160.461 46.129 158.937 46.029C157.419 45.916 155.881 46.2065 154.365 46.566C152.845 46.931 151.323 47.375 149.747 47.671C148.184 47.976 146.503 48.0835 144.918 47.5805C143.357 47.0385 141.981 46.092 140.652 45.117C139.321 44.1375 138.02 43.094 136.594 42.228C135.176 41.39 133.556 40.6915 131.872 40.8805L131.559 40.9045C131.456 40.922 131.354 40.949 131.252 40.9705C131.048 41.019 130.84 41.0565 130.638 41.1135C130.242 41.2595 129.836 41.378 129.458 41.5755C128.681 41.9205 127.958 42.388 127.241 42.862C125.817 43.833 124.475 44.948 123.016 45.9385C122.295 46.444 121.522 46.8875 120.715 47.269C119.899 47.637 119.012 47.859 118.111 47.927C116.301 48.0155 114.522 47.607 112.778 47.167C111.029 46.729 109.28 46.227 107.476 46.054C106.576 45.9785 105.665 46.0165 104.792 46.2345C103.912 46.446 103.132 46.9455 102.44 47.5265C101.061 48.73 100.097 50.349 99.139 51.941C98.183 53.542 97.275 55.2115 96.005 56.6485C95.3645 57.354 94.6235 57.9975 93.7555 58.433C92.888 58.859 91.963 59.144 91.027 59.365C89.1475 59.7775 87.2275 59.954 85.3355 60.2965C83.4645 60.6365 81.5175 61.1685 80.13 62.513C79.4625 63.1985 78.995 64.0565 78.652 64.958C78.3015 65.861 78.1005 66.8215 77.923 67.784C77.5725 69.713 77.411 71.694 76.9435 73.6415C76.721 74.615 76.3865 75.579 75.8795 76.4585C75.3715 77.3375 74.6675 78.1 73.8755 78.726C72.2955 79.996 70.4985 80.936 68.782 81.987C67.926 82.5165 67.0805 83.0675 66.3025 83.704C65.5365 84.3495 64.8405 85.0905 64.3635 85.9655C63.88 86.8355 63.659 87.8395 63.667 88.847C63.6635 89.855 63.8145 90.8645 64.018 91.864C64.441 93.8625 65.0755 95.831 65.414 97.886C65.5905 98.9095 65.654 99.9685 65.517 101.015C65.3825 102.064 64.977 103.061 64.4725 103.979C63.431 105.806 62.071 107.409 60.8655 109.11C60.2565 109.956 59.6945 110.839 59.253 111.778C58.8145 112.714 58.504 113.723 58.4965 114.757C58.503 115.791 58.8065 116.801 59.2435 117.739C59.682 118.68 60.2455 119.562 60.8535 120.409C62.058 122.112 63.42 123.713 64.463 125.541C64.969 126.458 65.377 127.454 65.5155 128.504C65.656 129.55 65.5935 130.61 65.417 131.634C65.081 133.69 64.445 135.659 64.022 137.658C63.8185 138.658 63.6655 139.667 63.667 140.676C63.656 141.684 63.8785 142.688 64.358 143.56C64.8325 144.436 65.528 145.179 66.2935 145.825C67.072 146.461 67.916 147.015 68.7725 147.544C70.49 148.596 72.287 149.536 73.8685 150.804C74.66 151.431 75.366 152.192 75.8755 153.07C76.3845 153.949 76.7185 154.913 76.942 155.886C77.411 157.834 77.572 159.816 77.922 161.745C78.099 162.708 78.3005 163.668 78.6505 164.572C78.9935 165.473 79.4585 166.333 80.127 167.019C81.513 168.366 83.4605 168.898 85.3315 169.239C87.224 169.582 89.1445 169.758 91.0245 170.17C91.961 170.391 92.8855 170.676 93.7535 171.101C94.6215 171.537 95.363 172.18 96.004 172.886C97.2745 174.323 98.1825 175.993 99.139 177.594C100.098 179.186 101.062 180.805 102.441 182.009C103.133 182.59 103.913 183.09 104.793 183.302C105.666 183.52 106.578 183.558 107.478 183.482C109.282 183.309 111.031 182.807 112.78 182.369C114.524 181.929 116.304 181.52 118.114 181.609C119.015 181.678 119.902 181.9 120.718 182.268C121.525 182.65 122.298 183.094 123.019 183.599C124.478 184.59 125.82 185.705 127.245 186.676C127.962 187.15 128.685 187.618 129.462 187.962C129.84 188.16 130.247 188.278 130.643 188.424C130.845 188.481 131.052 188.519 131.256 188.567C131.359 188.589 131.461 188.616 131.564 188.633L131.876 188.657C133.561 188.846 135.18 188.145 136.599 187.308C138.025 186.441 139.325 185.398 140.656 184.418C141.986 183.443 143.362 182.496 144.924 181.955C146.509 181.453 148.189 181.562 149.753 181.867C151.329 182.163 152.851 182.608 154.371 182.973C155.887 183.332 157.425 183.622 158.943 183.508C160.467 183.406 161.85 182.638 162.885 181.57C163.923 180.493 164.723 179.226 165.483 177.967C166.243 176.703 166.957 175.424 167.787 174.231C168.616 173.048 169.605 171.938 170.871 171.248C172.129 170.553 173.522 170.232 174.88 169.988C176.244 169.746 177.6 169.592 178.927 169.374C180.251 169.154 181.56 168.88 182.75 168.35C183.943 167.834 184.965 166.983 185.596 165.883C186.241 164.793 186.577 163.564 186.826 162.354C187.314 159.923 187.455 157.489 188.099 155.217C188.426 154.089 188.913 152.999 189.664 152.125C190.406 151.248 191.308 150.562 192.216 149.945C194.043 148.717 195.949 147.774 197.608 146.596C198.432 146.005 199.21 145.373 199.831 144.622C200.444 143.868 200.875 143 201.071 142.091C201.284 141.181 201.229 140.252 201.147 139.366C201.059 138.475 200.86 137.619 200.675 136.784C200.277 135.119 199.823 133.549 199.547 132.025C199.26 130.509 199.191 129.006 199.558 127.672C199.926 126.339 200.614 125.229 201.275 124.245C202.632 122.289 203.934 120.748 204.792 119.367C205.676 118.003 206.133 116.832 206.29 116.016C206.404 115.613 206.395 115.294 206.421 115.086C206.439 114.875 206.452 114.769 206.452 114.769C206.452 114.769 206.448 114.875 206.434 115.086C206.411 115.295 206.425 115.615 206.315 116.02C206.166 116.841 205.715 118.022 204.835 119.394C203.982 120.783 202.685 122.333 201.338 124.288C200.682 125.27 200.002 126.378 199.643 127.694C199.286 129.011 199.356 130.497 199.646 132.006C199.925 133.522 200.382 135.089 200.784 136.757C200.971 137.594 201.173 138.453 201.264 139.352C201.348 140.246 201.407 141.185 201.192 142.115C200.994 143.044 200.554 143.936 199.93 144.704C199.3 145.469 198.514 146.109 197.685 146.706C196.017 147.894 194.11 148.841 192.296 150.065C191.395 150.679 190.504 151.36 189.778 152.22C189.046 153.076 188.571 154.142 188.248 155.259C187.613 157.508 187.474 159.939 186.987 162.386C186.738 163.604 186.401 164.85 185.742 165.969C185.097 167.098 184.037 167.983 182.821 168.509C181.606 169.051 180.285 169.328 178.956 169.55C177.623 169.771 176.267 169.927 174.912 170.169C173.562 170.413 172.186 170.734 170.962 171.413C169.733 172.084 168.766 173.168 167.944 174.341C167.123 175.523 166.412 176.8 165.651 178.068C164.889 179.332 164.085 180.61 163.028 181.711C161.977 182.803 160.529 183.608 158.961 183.712C157.402 183.83 155.846 183.535 154.322 183.176C152.795 182.81 151.275 182.368 149.714 182.076C148.162 181.774 146.522 181.674 144.991 182.161C143.472 182.687 142.11 183.622 140.786 184.595C139.46 185.572 138.157 186.62 136.713 187.499C136.341 187.7 135.986 187.933 135.594 188.1C135.4 188.188 135.21 188.286 135.013 188.367L134.408 188.581C133.593 188.829 132.721 188.995 131.855 188.882L131.53 188.857C131.423 188.84 131.318 188.811 131.212 188.789C131.001 188.74 130.787 188.7 130.578 188.642C130.171 188.493 129.752 188.37 129.366 188.169C128.572 187.817 127.84 187.344 127.116 186.866C125.68 185.888 124.335 184.772 122.889 183.791C122.173 183.29 121.412 182.855 120.623 182.481C119.825 182.123 118.973 181.911 118.099 181.844C116.339 181.758 114.577 182.159 112.837 182.599C111.093 183.036 109.336 183.544 107.498 183.721C106.58 183.798 105.64 183.762 104.73 183.535C103.811 183.313 102.995 182.792 102.282 182.193C100.86 180.951 99.8915 179.314 98.928 177.719C97.9705 176.116 97.0635 174.455 95.82 173.051C95.192 172.361 94.479 171.744 93.6405 171.322C92.799 170.91 91.8925 170.63 90.969 170.413C89.1115 170.006 87.194 169.829 85.2855 169.485C84.3345 169.301 83.3745 169.104 82.4585 168.742C81.5445 168.388 80.6625 167.898 79.947 167.196C79.246 166.477 78.7645 165.584 78.4125 164.661C78.054 163.734 77.8505 162.76 77.6715 161.789C77.3185 159.845 77.1565 157.866 76.693 155.946C76.4725 154.985 76.1445 154.045 75.6535 153.198C75.1625 152.352 74.484 151.618 73.7055 151.002C72.154 149.757 70.3635 148.818 68.637 147.762C67.775 147.229 66.9215 146.671 66.1275 146.023C65.346 145.363 64.626 144.598 64.1295 143.681C63.627 142.769 63.396 141.712 63.4075 140.678C63.4055 139.64 63.562 138.614 63.7675 137.605C64.195 135.588 64.829 133.62 65.16 131.592C65.334 130.582 65.3925 129.548 65.2575 128.539C65.1245 127.529 64.7325 126.568 64.2355 125.667C63.2115 123.871 61.8545 122.273 60.641 120.559C60.029 119.706 59.457 118.811 59.0075 117.848C58.56 116.888 58.2425 115.84 58.236 114.756C58.244 113.671 58.568 112.626 59.017 111.668C59.469 110.706 60.04 109.812 60.653 108.96C61.8675 107.247 63.2225 105.649 64.245 103.853C64.7405 102.951 65.13 101.99 65.2595 100.98C65.3915 99.971 65.332 98.937 65.1575 97.927C64.8245 95.9 64.191 93.933 63.7645 91.917C63.5595 90.9075 63.4045 89.881 63.4085 88.844C63.3995 87.81 63.6295 86.7525 64.136 85.8425C64.635 84.928 65.356 84.164 66.138 83.5055C66.9315 82.8565 67.786 82.3 68.6475 81.7675C70.373 80.712 72.1635 79.7735 73.7135 78.5275C74.492 77.912 75.169 77.1765 75.6585 76.33C76.1475 75.482 76.476 74.542 76.6955 73.5815C77.1575 71.6615 77.32 69.6835 77.673 67.7395C77.8525 66.769 78.056 65.796 78.415 64.8695C78.767 63.9455 79.2505 63.054 79.951 62.3355C80.6675 61.634 81.55 61.1455 82.464 60.7925C83.38 60.431 84.3395 60.234 85.2905 60.0505C87.1985 59.706 89.115 59.53 90.9725 59.1225C91.896 58.905 92.802 58.625 93.643 58.2125C94.4815 57.7915 95.1935 57.1735 95.8215 56.484C97.0645 55.08 97.9715 53.4195 98.9285 51.8165C99.8915 50.221 100.861 48.585 102.282 47.3435C102.995 46.7445 103.811 46.2235 104.73 46.002C105.639 45.775 106.579 45.7385 107.497 45.8155C109.335 45.993 111.092 46.5005 112.836 46.9375C114.576 47.378 116.337 47.779 118.097 47.6935C118.971 47.6265 119.822 47.415 120.62 47.0565C121.409 46.6835 122.17 46.2485 122.886 45.747C124.332 44.766 125.677 43.651 127.113 42.673C127.837 42.1945 128.568 41.722 129.363 41.3695C129.748 41.1685 130.167 41.0455 130.574 40.8965C130.782 40.8375 130.997 40.7985 131.208 40.7485C131.314 40.726 131.419 40.6985 131.526 40.6805L131.851 40.655C132.717 40.5415 133.589 40.708 134.404 40.9545L135.009 41.169C135.206 41.2495 135.396 41.347 135.59 41.435C135.982 41.6025 136.338 41.835 136.709 42.036C138.153 42.9145 139.456 43.962 140.782 44.9395C142.105 45.913 143.468 46.847 144.986 47.3745C146.517 47.8615 148.157 47.763 149.708 47.461C151.27 47.169 152.79 46.7275 154.316 46.3615C155.84 46.0025 157.396 45.7065 158.955 45.8235C160.523 45.925 161.971 46.7305 163.023 47.8205C164.081 48.9205 164.886 50.199 165.648 51.463C166.408 52.7305 167.119 54.0075 167.94 55.1895C168.761 56.3635 169.728 57.448 170.956 58.12C172.18 58.7995 173.555 59.122 174.905 59.3655C176.26 59.6075 177.617 59.7635 178.949 59.984C180.278 60.2065 181.599 60.483 182.814 61.0235C184.03 61.5485 185.092 62.4325 185.738 63.5605C186.398 64.679 186.736 65.925 186.985 67.143C187.473 69.59 187.611 72.02 188.245 74.2705C188.568 75.3875 189.042 76.454 189.774 77.31C190.499 78.1705 191.39 78.8525 192.291 79.467C194.104 80.6915 196.011 81.6385 197.68 82.8265C198.508 83.4235 199.295 84.0625 199.925 84.828C200.549 85.5955 200.991 86.486 201.189 87.415C201.405 88.345 201.346 89.2845 201.263 90.1785C201.172 91.078 200.97 91.937 200.783 92.774C200.381 94.4425 199.924 96.009 199.645 97.5255C199.355 99.034 199.284 100.52 199.641 101.838C200 103.154 200.68 104.262 201.336 105.245C202.682 107.201 203.98 108.75 204.833 110.14C205.713 111.511 206.165 112.694 206.313 113.515C206.424 113.92 206.41 114.239 206.432 114.449C206.448 114.662 206.452 114.769 206.452 114.769Z" fill="#263238"/>
<path d="M118.521 183.479C118.59 183.497 116.745 190.98 114.399 200.19C112.052 209.404 110.094 216.856 110.024 216.838C109.955 216.82 111.8 209.339 114.146 200.126C116.492 190.916 118.451 183.462 118.521 183.479Z" fill="#263238"/>
<path d="M132.408 160.157C157.475 160.157 177.796 139.836 177.796 114.769C177.796 89.7014 157.475 69.3805 132.408 69.3805C107.341 69.3805 87.0204 89.7014 87.0204 114.769C87.0204 139.836 107.341 160.157 132.408 160.157Z" fill="white"/>
<path d="M104.461 99.0415C103.835 99.6675 100.393 105.926 100.08 111.089C99.767 116.252 100.509 145.248 100.509 145.248L100.643 147.169C108.814 156.725 138.512 170.944 165.264 147.121L166.763 129.287L162.349 91.532L147.016 87.777L143.421 81.9495L119.458 87.5595L117.321 92.612L104.461 99.0415Z" fill="#455A64"/>
<path d="M140.564 42.7232L140.564 42.7231C140.592 42.6685 140.599 42.6045 140.601 42.5507C140.603 42.4928 140.599 42.4264 140.59 42.3553C140.574 42.2127 140.539 42.0356 140.495 41.8396C140.424 41.5244 140.325 41.1482 140.224 40.7688C140.2 40.6761 140.175 40.5833 140.151 40.4911C140.026 40.0178 139.912 39.5623 139.854 39.2219C139.825 39.0501 139.813 38.9184 139.818 38.832C139.819 38.8234 139.82 38.8158 139.82 38.8091C139.821 38.8094 139.822 38.8098 139.823 38.8101C139.855 38.8254 139.897 38.853 139.949 38.896C140.052 38.9821 140.174 39.1153 140.312 39.287C140.585 39.6293 140.899 40.1037 141.205 40.6031C141.816 41.6029 142.379 42.6806 142.497 42.9539C144.093 46.6534 144.431 50.8065 144.068 54.836C143.718 58.7087 142.75 62.4963 141.738 66.2675C140.389 62.4928 139.388 58.9121 138.859 54.9203L138.739 54.9361L138.859 54.9203C138.309 50.7768 138.658 46.4212 140.564 42.7232Z" fill="#263238" stroke="black" stroke-width="0.3"/>
<path d="M141.211 51.2739L141.211 51.2739L141.212 51.2821L143.644 84.1519L124.471 96.0272L120.415 91.6207L120.413 91.6017L120.4 91.399L120.35 90.6756C120.31 90.0769 120.255 89.2787 120.2 88.4805C120.145 87.6824 120.089 86.8841 120.045 86.2853C120.023 85.986 120.005 85.7362 119.991 85.5612C119.984 85.4737 119.978 85.4044 119.974 85.3566C119.971 85.3329 119.969 85.3134 119.968 85.2992C119.967 85.2925 119.966 85.2847 119.965 85.2775C119.964 85.2747 119.963 85.2671 119.96 85.2585C119.959 85.2553 119.956 85.2438 119.949 85.2304C119.945 85.2228 119.932 85.2042 119.922 85.1937C119.906 85.1796 119.86 85.1582 119.823 85.1511L119.823 85.1492L119.823 85.1492L119.822 85.1491L119.817 85.1489L119.797 85.1476C119.79 85.1472 119.782 85.1466 119.772 85.1459C119.757 85.1448 119.738 85.1434 119.716 85.1417C119.645 85.1359 119.541 85.1261 119.406 85.1102C119.138 85.0783 118.752 85.0221 118.284 84.9244C117.349 84.729 116.092 84.3685 114.8 83.7085C112.22 82.3908 109.503 79.8805 108.938 75.0869L108.789 75.1045L108.938 75.0869C108.386 70.4058 108.033 60.6634 107.816 51.8348L107.666 51.8385L107.816 51.8348C107.585 42.4255 114.622 34.4195 123.982 33.4327L124.915 33.3346C129.954 33.1004 133.974 35.0555 136.762 38.3276C139.553 41.604 141.115 46.2088 141.211 51.2739Z" fill="#FAFAFA" stroke="black" stroke-width="0.3"/>
<path d="M119.982 85.5128C120.017 85.5098 120.059 85.5062 120.106 85.5017C120.29 85.4842 120.557 85.454 120.896 85.4027C121.575 85.3002 122.543 85.1133 123.702 84.7761C125.928 84.1282 128.861 82.9248 131.807 80.6957C131.733 80.9284 131.622 81.2446 131.467 81.6185C131.126 82.437 130.571 83.5298 129.714 84.6265C128.019 86.7958 125.139 88.9857 120.377 89.0974L119.982 85.5128Z" fill="black" stroke="black" stroke-width="0.3"/>
<path d="M113.408 59.746L113.408 59.7462C113.452 60.3939 114.043 60.9018 114.736 60.8662L113.408 59.746ZM113.408 59.746C113.362 59.1006 113.874 58.5384 114.566 58.5028L114.566 58.5028M113.408 59.746L114.566 58.5028M114.566 58.5028C115.258 58.4672 115.848 58.9758 115.893 59.624C115.938 60.2699 115.427 60.8307 114.736 60.8662L114.566 58.5028Z" fill="#263238" stroke="black" stroke-width="0.3"/>
<path d="M110.29 55.5796C110.29 55.5796 110.29 55.5789 110.29 55.5771L110.29 55.5796ZM110.394 55.4699C110.359 55.4854 110.33 55.4972 110.305 55.5057C110.313 55.4857 110.322 55.4622 110.336 55.4351C110.397 55.3099 110.521 55.1375 110.723 54.9458L110.723 54.9458L110.724 54.945C111.114 54.5687 111.83 54.1594 112.725 54.0596C113.621 53.9614 114.426 54.2051 114.907 54.4865L114.907 54.4868C115.153 54.6294 115.32 54.7709 115.414 54.8805C115.432 54.9007 115.446 54.919 115.457 54.9353C115.434 54.9322 115.406 54.9275 115.374 54.9212C115.287 54.9039 115.185 54.8785 115.065 54.8485C114.977 54.8265 114.879 54.802 114.769 54.7763C114.264 54.6585 113.578 54.5347 112.808 54.6249C112.036 54.7044 111.401 54.9738 110.942 55.1979C110.842 55.247 110.753 55.2923 110.673 55.333C110.565 55.3879 110.474 55.4342 110.394 55.4699ZM115.499 55.0149C115.499 55.0148 115.499 55.0137 115.499 55.0116C115.499 55.0139 115.499 55.0149 115.499 55.0149ZM115.545 54.939C115.546 54.9386 115.547 54.9385 115.547 54.9385L115.545 54.939ZM110.232 55.5239C110.232 55.5239 110.233 55.5239 110.234 55.524C110.233 55.524 110.232 55.5239 110.232 55.5239Z" fill="#263238" stroke="black" stroke-width="0.3"/>
<path d="M127.933 59.7452C127.239 59.7808 126.65 59.2729 126.604 58.625L127.933 59.7452Z" fill="#263238" stroke="black" stroke-width="0.3"/>
<path d="M124.986 54.6425C124.986 54.6425 124.986 54.6417 124.986 54.6399L124.986 54.6425ZM125.09 54.5316C125.055 54.547 125.026 54.5587 125.002 54.5672C125.009 54.5473 125.019 54.524 125.032 54.4972C125.094 54.3718 125.218 54.1994 125.419 54.0076L125.419 54.0076L125.42 54.007C125.81 53.6311 126.526 53.2213 127.421 53.1216C128.317 53.0234 129.122 53.2671 129.603 53.5489L129.603 53.5489L129.604 53.5495C129.851 53.6919 130.017 53.833 130.111 53.9423C130.129 53.9626 130.143 53.981 130.154 53.9974C130.131 53.9943 130.103 53.9896 130.071 53.9832C129.983 53.966 129.881 53.9406 129.761 53.9105C129.673 53.8885 129.575 53.8641 129.465 53.8385C128.961 53.7208 128.275 53.5969 127.505 53.6869C126.733 53.7664 126.098 54.0356 125.639 54.2597C125.538 54.3087 125.449 54.354 125.369 54.3946C125.261 54.4495 125.17 54.496 125.09 54.5316ZM130.196 54.0763C130.195 54.0762 130.195 54.0751 130.195 54.0731C130.196 54.0753 130.196 54.0763 130.196 54.0763ZM130.241 54.001C130.242 54.0006 130.243 54.0005 130.243 54.0005L130.241 54.001ZM124.927 54.5858C124.927 54.5857 124.928 54.5857 124.929 54.5858C124.928 54.5859 124.927 54.5858 124.927 54.5858Z" fill="#263238" stroke="black" stroke-width="0.3"/>
<path d="M118.257 67.0155L118.25 66.8657C118.23 66.8666 118.211 66.8676 118.191 66.8686C118.015 66.8776 117.836 66.8867 117.628 66.8467L117.628 66.8466L117.623 66.8459C117.41 66.8116 117.156 66.6589 117.049 66.4379C116.857 66.0209 116.951 65.6336 117.048 65.2353C117.066 65.1635 117.083 65.0913 117.099 65.0185C117.254 64.4071 117.415 63.7782 117.58 63.1304C117.675 62.7553 117.772 62.3738 117.871 61.9856C118.436 59.8369 118.982 57.9015 119.409 56.5095C119.579 55.9545 119.73 55.4872 119.854 55.1276C119.787 55.5011 119.688 55.9804 119.564 56.5453C119.251 57.9657 118.775 59.9186 118.21 62.0673C117.923 63.122 117.65 64.1287 117.389 65.0884C117.32 65.3186 117.254 65.5499 117.221 65.7588C117.188 65.9629 117.183 66.1705 117.258 66.3434C117.33 66.5336 117.501 66.6264 117.672 66.6725C117.844 66.719 118.049 66.7279 118.242 66.7275C118.8 66.7398 119.279 66.756 119.661 66.7757C119.281 66.8067 118.804 66.8371 118.249 66.8657L118.257 67.0155ZM118.257 67.0155C119.313 66.9611 120.089 66.9001 120.464 66.8394L116.913 66.502C117.046 66.7765 117.348 66.9535 117.599 66.994C117.826 67.0376 118.023 67.0275 118.198 67.0184C118.218 67.0174 118.238 67.0164 118.257 67.0155Z" fill="#263238" stroke="black" stroke-width="0.3"/>
<path d="M125.234 67.6417C125.241 67.6101 125.247 67.5825 125.253 67.5587C125.266 67.5821 125.278 67.61 125.291 67.6427C125.354 67.8015 125.41 68.0498 125.415 68.3771L125.415 68.3784C125.429 69.0124 125.177 69.952 124.435 70.7164C123.69 71.479 122.705 71.8071 122.018 71.8559L122.017 71.856C121.664 71.8835 121.39 71.8555 121.21 71.8115C121.19 71.8064 121.171 71.8011 121.153 71.7958C121.169 71.7908 121.187 71.7855 121.206 71.78C121.26 71.7646 121.323 71.7477 121.393 71.7288C121.549 71.6868 121.74 71.6351 121.947 71.5687C122.551 71.3741 123.33 71.0393 123.986 70.3643C124.644 69.6901 124.928 68.9327 125.079 68.3497C125.13 68.1515 125.167 67.9672 125.197 67.8183C125.21 67.7518 125.222 67.6923 125.234 67.6417ZM125.293 67.4482C125.293 67.4484 125.292 67.4498 125.29 67.4519C125.292 67.4491 125.293 67.448 125.293 67.4482Z" fill="#263238" stroke="black" stroke-width="0.3"/>
<path d="M130.295 47.9368L130.295 47.9365C129.711 47.6162 128.792 47.3439 127.751 47.338C126.71 47.3341 125.789 47.5972 125.201 47.9118L125.201 47.912L125.201 47.912C124.902 48.0703 124.692 48.2306 124.568 48.3663C124.506 48.4343 124.471 48.4906 124.455 48.532C124.447 48.5522 124.445 48.5661 124.444 48.5744C124.444 48.5784 124.445 48.5809 124.445 48.5822L130.295 47.9368ZM130.295 47.9368C130.593 48.0982 130.802 48.2608 130.924 48.3978C130.986 48.4665 131.02 48.5232 131.036 48.5648C131.044 48.585 131.046 48.599 131.046 48.6073C131.046 48.6113 131.046 48.6138 131.046 48.6151C131.046 48.6153 131.046 48.6154 131.046 48.6156C131.04 48.6242 131.027 48.6388 130.991 48.6547C130.948 48.6733 130.885 48.6887 130.796 48.6982C130.618 48.7173 130.373 48.7096 130.066 48.6889C129.921 48.6791 129.763 48.6665 129.595 48.6531C129.063 48.6106 128.425 48.5596 127.745 48.563C127.066 48.5529 126.428 48.5976 125.895 48.635C125.727 48.6468 125.569 48.6578 125.424 48.6662C125.117 48.6839 124.871 48.6892 124.693 48.6683C124.605 48.6579 124.542 48.6418 124.5 48.6228C124.463 48.6064 124.45 48.5915 124.445 48.5828L130.295 47.9368Z" fill="#263238" stroke="black" stroke-width="0.3"/>
<path d="M114.624 49.2863L114.624 49.2866C114.857 49.4161 115.011 49.552 115.096 49.6671C115.181 49.7837 115.175 49.8474 115.168 49.8668C115.145 49.9055 115.089 49.9491 114.958 49.9844C114.824 50.02 114.645 50.039 114.421 50.0525C114.315 50.0589 114.199 50.064 114.076 50.0694C113.693 50.0863 113.24 50.1062 112.769 50.1789C112.295 50.2354 111.853 50.338 111.48 50.4245C111.36 50.4523 111.247 50.4784 111.143 50.5008C110.924 50.548 110.746 50.5779 110.608 50.5794C110.472 50.5808 110.407 50.554 110.375 50.523C110.362 50.5055 110.34 50.4451 110.39 50.3105C110.44 50.1771 110.552 50.0052 110.742 49.8184L110.742 49.8184L110.743 49.8176C111.112 49.4488 111.785 49.0775 112.602 48.9651C113.42 48.8538 114.169 49.0308 114.624 49.2863Z" fill="#263238" stroke="black" stroke-width="0.3"/>
<path d="M141.483 58.6484L141.483 58.6479C141.536 58.6267 141.609 58.5985 141.701 58.5664C141.885 58.5015 142.142 58.4205 142.447 58.3462C143.059 58.1974 143.86 58.0771 144.666 58.1621C145.471 58.2468 146.274 58.5349 146.906 59.1959C147.538 59.8572 148.016 60.9087 148.136 62.552C148.256 64.1934 147.927 65.3532 147.381 66.1713C146.834 66.99 146.059 67.4816 145.261 67.7678C144.462 68.0544 143.644 68.133 143.023 68.1275C142.713 68.1248 142.455 68.1012 142.276 68.0731C142.198 68.0609 142.137 68.0482 142.095 68.0369C142.094 68.0212 142.093 68.0034 142.091 67.9836C142.085 67.9047 142.078 67.7943 142.068 67.6569C142.049 67.3821 142.024 66.9998 141.994 66.5462C141.934 65.6392 141.857 64.4476 141.78 63.2619C141.703 62.0762 141.627 60.8965 141.57 60.0132L141.502 58.9468L141.483 58.6484Z" fill="#FAFAFA" stroke="black" stroke-width="0.3"/>
<path d="M146.29 62.8782C146.262 62.248 146.086 61.6582 145.826 61.1765C145.579 60.689 145.207 60.3163 144.774 60.2692C144.68 60.2552 144.593 60.2569 144.513 60.2709C144.593 60.2477 144.68 60.2361 144.773 60.2394L144.773 60.2395L144.779 60.2395C144.994 60.2387 145.216 60.3301 145.422 60.4894C145.627 60.6482 145.807 60.8681 145.935 61.1058L145.935 61.1059L145.938 61.1114C146.229 61.5987 146.426 62.2121 146.456 62.8705C146.483 63.5209 146.352 64.1596 146.103 64.6747C145.855 65.1906 145.495 65.569 145.072 65.7262C144.977 65.7584 144.885 65.7777 144.798 65.7869C144.885 65.7673 144.973 65.7382 145.062 65.6975C145.452 65.5207 145.772 65.1145 145.986 64.6178C146.202 64.1168 146.319 63.5026 146.29 62.8782ZM146.29 62.8782L146.14 62.885M146.29 62.8782C146.29 62.8782 146.29 62.8781 146.29 62.8781L146.14 62.885M146.14 62.885C146.113 62.277 145.943 61.7085 145.693 61.246M146.14 62.885C146.196 64.0895 145.685 65.251 144.999 65.561L145.693 61.246M145.693 61.246C145.454 60.773 145.113 60.4555 144.754 60.418C144.395 60.3625 144.16 60.593 144.092 60.7865L145.693 61.246Z" fill="#FAFAFA" stroke="black" stroke-width="0.3"/>
<path d="M129.424 32.2661L129.424 32.2662C133.933 33.2365 137.733 35.1981 140.2 39.0612C142.678 42.9414 143.817 47.5812 143.985 52.1954C144.036 53.6077 143.981 55.052 143.325 56.2552C143.123 56.627 142.864 56.9718 142.589 57.3156C142.513 57.4104 142.436 57.5055 142.358 57.6012C142.156 57.8491 141.951 58.1004 141.765 58.3582C141.244 59.079 140.842 59.8844 140.952 60.9514C141.025 61.6633 140.867 62.3844 140.423 62.922C140.157 63.2446 139.874 63.4116 139.592 63.4732C139.309 63.5352 139.013 63.4938 138.719 63.3742C138.126 63.1332 137.563 62.5832 137.19 62.0098C135.578 59.5257 135.215 56.4531 134.893 53.4614L134.893 53.4614C134.664 51.3353 134.442 49.1922 134.904 47.1379L134.904 47.1379C135.013 46.653 135.159 46.1772 135.308 45.6951C135.33 45.6209 135.353 45.5466 135.376 45.4721C135.546 44.9158 135.711 44.3501 135.808 43.7667C136.003 42.6015 135.891 41.2685 135.087 40.3431L135.087 40.343C134.953 40.1892 134.742 40.005 134.487 39.8091C132.448 38.2412 129.713 37.909 127.349 38.9206C125.516 39.7053 123.032 40.6948 120.79 41.3423C119.669 41.6662 118.613 41.9029 117.733 41.9868C116.842 42.0717 116.166 41.9966 115.773 41.7356L115.773 41.7355C114.517 40.9016 113.73 40.199 113.259 39.708C113.023 39.4625 112.867 39.2699 112.77 39.1401C112.721 39.0751 112.688 39.0259 112.667 38.9936C112.656 38.9775 112.649 38.9656 112.644 38.9581L112.639 38.9501L112.639 38.9488L112.639 38.9487L112.639 38.9486L112.638 38.9485L112.532 38.7594L112.393 38.9265L111.245 40.3045C111.213 40.2661 111.194 40.2167 111.186 40.1532C111.171 40.0337 111.198 39.8671 111.277 39.6555C111.435 39.2346 111.776 38.6937 112.24 38.1166C113.167 36.9638 114.55 35.7089 115.816 35.0333C117.749 34.0015 120.222 33.1078 122.68 32.5735C125.141 32.0385 127.572 31.8671 129.424 32.2661Z" fill="#263238" stroke="black" stroke-width="0.3"/>
<path d="M104.461 99.0415C104.074 99.5765 98.6089 101.391 96.5359 104.845C94.4629 108.299 92.4114 123.809 92.4114 123.809L91.0919 134.02C93.6919 138.133 97.1789 143.578 100.879 147.418L104.461 99.0415Z" fill="#455A64"/>
<g opacity="0.3">
<path d="M145.523 114.017C145.753 116.098 145.988 118.202 146.704 120.169C147.42 122.137 148.675 123.985 150.507 124.998C151.275 125.422 152.14 125.702 152.782 126.299C153.472 126.941 153.82 127.871 154.444 128.577C155.171 129.397 156.217 129.854 157.25 130.22C160.307 131.302 163.318 131.819 166.56 131.703C166.658 130.633 166.665 126.702 166.763 125.632L145.523 114.017Z" fill="black"/>
</g>
<path d="M162.349 91.5317C162.349 91.5317 169.241 93.5697 171.259 96.5052C173.277 99.4412 176.855 110.818 177.589 112.928C178.323 115.038 177.681 119.931 176.305 123.449C174.929 126.966 172.54 129.994 168.413 130.452C164.286 130.911 157.767 128.525 156.301 126.966C154.836 125.406 154.222 121.905 154.222 121.905C156.054 121.583 157.864 121.129 159.631 120.548" fill="#455A64"/>
<path d="M159.632 120.548C159.633 120.551 159.604 120.564 159.546 120.586C159.477 120.61 159.393 120.641 159.286 120.679C159.055 120.758 158.71 120.873 158.256 121.01C157.347 121.282 155.996 121.651 154.234 121.972L154.29 121.893C154.444 122.673 154.667 123.528 154.993 124.422C155.157 124.868 155.346 125.326 155.59 125.774C155.834 126.218 156.119 126.67 156.513 127.031C156.908 127.39 157.396 127.682 157.907 127.95C158.416 128.226 158.964 128.463 159.529 128.695C160.663 129.152 161.889 129.545 163.19 129.854C164.49 130.155 165.872 130.378 167.302 130.382C167.66 130.398 168.017 130.35 168.378 130.332C168.735 130.273 169.1 130.241 169.453 130.14C170.168 129.978 170.87 129.711 171.523 129.337C172.842 128.605 173.96 127.468 174.808 126.131C175.667 124.796 176.296 123.282 176.76 121.699C177.119 120.484 177.384 119.255 177.556 118.033C177.73 116.812 177.816 115.592 177.735 114.407C177.689 113.81 177.579 113.25 177.377 112.695C177.191 112.135 177.007 111.581 176.825 111.032C176.458 109.936 176.1 108.863 175.75 107.816C175.04 105.726 174.34 103.748 173.639 101.917C172.924 100.094 172.258 98.3795 171.423 96.9485C171.015 96.229 170.457 95.6645 169.867 95.2075C169.287 94.7375 168.686 94.363 168.114 94.0325C166.965 93.379 165.92 92.9155 165.06 92.5555C164.199 92.1985 163.518 91.9495 163.055 91.7855C162.833 91.7075 162.658 91.646 162.527 91.6C162.409 91.558 162.348 91.5355 162.349 91.531C162.35 91.527 162.414 91.5405 162.535 91.5745C162.668 91.6145 162.846 91.668 163.071 91.7355C163.541 91.8835 164.228 92.1175 165.098 92.4615C165.966 92.808 167.021 93.2595 168.186 93.9055C168.765 94.2325 169.376 94.6045 169.97 95.0775C170.57 95.5325 171.158 96.119 171.58 96.8525C172.44 98.3035 173.114 100.013 173.84 101.838C174.552 103.671 175.261 105.648 175.977 107.738C176.33 108.784 176.691 109.857 177.061 110.953C177.244 111.501 177.429 112.054 177.616 112.613C177.82 113.168 177.945 113.784 177.989 114.386C178.073 115.601 177.987 116.834 177.812 118.069C177.639 119.304 177.373 120.544 177.009 121.773C176.54 123.373 175.903 124.91 175.025 126.271C174.159 127.634 173.009 128.804 171.646 129.557C170.971 129.941 170.246 130.215 169.51 130.38C169.145 130.482 168.771 130.516 168.404 130.575C168.034 130.593 167.666 130.64 167.302 130.623C165.843 130.614 164.449 130.383 163.137 130.074C161.826 129.758 160.592 129.355 159.45 128.888C158.88 128.651 158.328 128.408 157.813 128.125C157.296 127.849 156.802 127.552 156.385 127.168C155.969 126.782 155.681 126.314 155.434 125.857C155.189 125.397 155.002 124.931 154.839 124.478C154.517 123.57 154.302 122.71 154.155 121.918L154.142 121.85L154.21 121.839C155.97 121.538 157.322 121.191 158.235 120.941C158.68 120.814 159.026 120.716 159.274 120.645C159.383 120.614 159.47 120.589 159.54 120.569C159.6 120.552 159.631 120.545 159.632 120.548Z" fill="#263238"/>
<path d="M172.274 116.864C172.223 116.876 172.066 116.016 171.487 114.747C170.922 113.479 169.906 111.804 168.378 110.332C167.617 109.593 166.771 109.031 165.961 108.612C165.753 108.519 165.55 108.428 165.352 108.339C165.155 108.248 164.947 108.21 164.755 108.145C164.371 108.005 163.993 107.971 163.651 107.917C163.566 107.904 163.483 107.891 163.401 107.879C163.319 107.879 163.239 107.879 163.161 107.879C163.007 107.879 162.86 107.879 162.72 107.88C162.443 107.863 162.21 107.913 162.017 107.941C161.632 107.997 161.415 108.02 161.41 108.003C161.406 107.985 161.614 107.929 162 107.841C162.193 107.797 162.429 107.731 162.712 107.734C162.856 107.728 163.006 107.721 163.164 107.714C163.244 107.711 163.327 107.707 163.411 107.704C163.495 107.714 163.581 107.723 163.669 107.734C164.022 107.777 164.414 107.802 164.813 107.937C165.013 107.999 165.23 108.036 165.434 108.125C165.639 108.213 165.85 108.303 166.066 108.396C166.906 108.814 167.78 109.388 168.557 110.143C170.119 111.648 171.126 113.369 171.656 114.673C171.792 114.999 171.91 115.296 171.985 115.567C172.067 115.835 172.145 116.063 172.177 116.259C172.256 116.647 172.291 116.861 172.274 116.864Z" fill="#263238"/>
<path d="M176.034 110.682C175.977 110.704 175.79 109.796 174.995 108.583C174.216 107.391 172.727 105.894 170.603 105.259C168.488 104.615 166.434 104.814 165 104.952C164.318 105.033 163.744 105.102 163.287 105.157C162.882 105.206 162.656 105.227 162.653 105.209C162.65 105.191 162.87 105.137 163.271 105.057C163.671 104.977 164.253 104.87 164.978 104.769C166.413 104.586 168.496 104.348 170.68 105.011C171.763 105.34 172.715 105.895 173.459 106.529C174.212 107.157 174.76 107.86 175.15 108.485C175.539 109.113 175.761 109.671 175.885 110.063C176.011 110.453 176.047 110.679 176.034 110.682Z" fill="#263238"/>
<path d="M170.838 103.284C170.82 103.369 169.023 102.791 166.742 102.892C164.458 102.97 162.714 103.688 162.689 103.604C162.677 103.576 163.095 103.361 163.817 103.131C164.538 102.9 165.572 102.679 166.731 102.632C167.891 102.588 168.938 102.727 169.675 102.901C170.414 103.074 170.847 103.256 170.838 103.284Z" fill="#263238"/>
<path d="M159.688 93.2515C159.729 93.258 159.63 93.9545 159.549 95.0835C159.469 96.212 159.431 97.7785 159.586 99.4965C159.728 101.149 160.027 102.63 160.291 103.707L160.11 103.766C159.906 103.188 159.745 102.718 159.639 102.392C159.534 102.065 159.484 101.881 159.501 101.875C159.519 101.868 159.602 102.04 159.738 102.355C159.873 102.671 160.061 103.129 160.288 103.699L160.107 103.757C159.798 102.683 159.469 101.19 159.327 99.52C159.17 97.7835 159.238 96.2 159.366 95.0675C159.429 94.501 159.503 94.045 159.564 93.7325C159.627 93.4195 159.671 93.2485 159.688 93.2515Z" fill="#263238"/>
<path d="M146.07 84.7371L146.07 84.7371C145.82 87.1272 145.933 89.4545 146.014 91.1125C146.045 91.7374 146.07 92.2672 146.07 92.6695C146.07 93.402 145.91 95.0572 145.751 96.5193C145.672 97.2526 145.592 97.9405 145.532 98.4452C145.502 98.6975 145.478 98.904 145.46 99.0475L145.44 99.2132L145.435 99.2566L145.433 99.2677L145.433 99.2705L145.433 99.2712L145.433 99.2714L145.284 99.253L145.433 99.2714L145.426 99.3276L145.384 99.3652L145.383 99.3652L145.383 99.3652L145.383 99.3654L145.382 99.3663L145.378 99.3705L145.358 99.3882C145.341 99.404 145.316 99.4277 145.283 99.4591C145.218 99.5218 145.125 99.6147 145.013 99.7345C144.788 99.9741 144.489 100.32 144.192 100.746C143.595 101.602 143.015 102.762 143.035 104.016L142.885 104.019L143.035 104.016C143.055 105.284 143.514 106.103 143.962 106.604C144.187 106.856 144.411 107.03 144.577 107.14C144.66 107.195 144.728 107.234 144.775 107.259C144.799 107.271 144.817 107.28 144.829 107.285L144.841 107.291L144.844 107.293L144.844 107.293L144.844 107.293L144.844 107.293L144.844 107.293L144.985 107.353L144.921 107.493L144.921 107.493L144.921 107.493L144.921 107.494L144.919 107.498L144.911 107.517C144.904 107.534 144.894 107.559 144.881 107.594C144.856 107.662 144.821 107.763 144.786 107.892C144.716 108.151 144.644 108.519 144.638 108.955C144.626 109.826 144.873 110.972 145.925 112.075L145.994 112.147L146.07 84.7371ZM146.07 84.7371C146.289 82.6367 147.267 81.6046 148.175 81.0909C148.633 80.832 149.078 80.7022 149.409 80.6374C149.574 80.605 149.71 80.5889 149.804 80.5809C149.851 80.5769 149.887 80.5749 149.912 80.5739C149.919 80.5736 149.926 80.5734 149.931 80.5733C150.771 80.762 151.278 81.2645 151.574 81.9544C151.876 82.6577 151.957 83.557 151.925 84.5147C151.893 85.4702 151.749 86.4675 151.612 87.3608C151.599 87.447 151.586 87.5325 151.573 87.6169C151.452 88.3988 151.344 89.0942 151.344 89.5735V89.5735C151.344 90.6259 151.612 91.9058 151.877 92.9147C152.009 93.4209 152.142 93.8621 152.241 94.1767C152.291 94.3341 152.333 94.46 152.362 94.5466C152.376 94.59 152.388 94.6235 152.396 94.6463L152.405 94.6722L152.407 94.679L152.408 94.6807L152.408 94.6812L152.408 94.6813L152.549 94.6315M146.07 84.7371L158.004 122.746M158.004 122.746C158.031 122.734 158.065 122.718 158.106 122.699C158.215 122.647 158.37 122.57 158.558 122.47C158.933 122.271 159.433 121.981 159.935 121.618C160.439 121.255 160.939 120.822 161.32 120.339C161.7 119.855 161.953 119.33 161.977 118.778L162.067 116.701L162.078 116.442L162.079 116.429L162.072 116.408L162.036 116.281C162.005 116.171 161.96 116.013 161.906 115.819C161.798 115.431 161.652 114.902 161.504 114.333C161.208 113.202 160.894 111.897 160.841 111.262C160.814 110.933 160.862 110.498 160.935 110.023C160.971 109.783 161.015 109.53 161.059 109.271L161.063 109.248C161.106 108.996 161.151 108.737 161.191 108.479C161.275 107.945 161.341 107.415 161.349 106.936C161.357 106.456 161.305 106.044 161.164 105.739C161.02 105.427 160.783 105.141 160.5 104.853C160.359 104.709 160.208 104.567 160.054 104.422L160.046 104.415C159.896 104.273 159.742 104.128 159.594 103.978C158.993 103.372 158.46 102.662 158.571 101.653C158.673 100.728 158.62 100.023 158.435 99.4264C158.249 98.8312 157.928 98.3335 157.473 97.8284C157.255 97.5862 156.839 97.2728 156.323 96.9342C155.812 96.5981 155.215 96.2451 154.645 95.9234C154.075 95.6018 153.534 95.3122 153.136 95.103C152.937 94.9984 152.773 94.914 152.659 94.8557C152.602 94.8266 152.558 94.804 152.528 94.7887L152.494 94.7714L152.485 94.767L152.483 94.7659L152.482 94.7656L152.482 94.7655L152.549 94.6315M158.004 122.746L155.717 121.485L155.682 121.465L155.642 121.466L152.973 121.518L152.973 121.517L152.967 121.518H152.967L152.967 121.518L152.966 121.518L152.961 121.518L152.943 121.519C152.927 121.52 152.903 121.521 152.872 121.522C152.81 121.524 152.718 121.527 152.604 121.529C152.375 121.532 152.055 121.53 151.688 121.51C150.951 121.469 150.041 121.356 149.313 121.071C148.701 120.832 148.317 120.515 148.078 120.181C147.84 119.846 147.741 119.486 147.716 119.15C147.691 118.813 147.741 118.504 147.798 118.277C147.826 118.164 147.856 118.073 147.879 118.01C147.89 117.979 147.899 117.955 147.906 117.939L147.913 117.922L147.915 117.918L147.915 117.917L147.915 117.917L147.915 117.917L147.986 117.759L158.004 122.746ZM152.549 94.6315L152.482 94.7655L152.428 94.7384L152.408 94.6814L152.549 94.6315ZM147.819 117.712L147.819 117.712L147.818 117.712L147.818 117.712L147.816 117.711L147.805 117.708C147.795 117.704 147.78 117.7 147.76 117.693C147.72 117.68 147.662 117.66 147.59 117.632C147.446 117.575 147.247 117.487 147.028 117.361C146.587 117.109 146.077 116.71 145.765 116.119C145.362 115.358 145.4 114.398 145.551 113.607C145.626 113.215 145.727 112.871 145.81 112.626C145.851 112.504 145.888 112.406 145.914 112.339C145.927 112.306 145.937 112.28 145.944 112.263L145.952 112.244L145.954 112.239L145.954 112.238L145.955 112.238L145.955 112.238L147.819 117.712Z" fill="#FAFAFA" stroke="black" stroke-width="0.3"/>
<path d="M152.356 95.4135C152.374 95.4445 151.994 95.688 151.366 96.056C150.737 96.424 149.86 96.9165 148.884 97.447C147.907 97.9775 147.015 98.445 146.364 98.7715C145.713 99.098 145.301 99.2845 145.284 99.253C145.267 99.2215 145.647 98.978 146.276 98.61C146.904 98.242 147.781 97.7495 148.757 97.2195C149.733 96.6895 150.624 96.2225 151.275 95.8955C151.926 95.569 152.338 95.382 152.356 95.4135Z" fill="black"/>
<path d="M154.704 103.496C154.714 103.51 154.603 103.609 154.392 103.775C154.182 103.943 153.864 104.168 153.461 104.43C152.655 104.954 151.482 105.594 150.109 106.122C148.734 106.646 147.433 106.953 146.483 107.101C146.008 107.176 145.622 107.221 145.353 107.236C145.085 107.253 144.936 107.254 144.934 107.236C144.93 107.195 145.517 107.115 146.45 106.92C147.383 106.727 148.659 106.397 150.016 105.879C151.371 105.358 152.542 104.752 153.365 104.273C154.189 103.794 154.679 103.462 154.704 103.496Z" fill="black"/>
<path d="M157.774 100.925C157.839 100.948 157.705 101.406 157.281 101.789C156.86 102.176 156.391 102.266 156.374 102.2C156.349 102.129 156.732 101.943 157.106 101.597C157.485 101.258 157.706 100.894 157.774 100.925Z" fill="#FAFAFA"/>
<path d="M156.302 110.576C156.312 110.606 155.747 110.836 154.805 111.123C153.864 111.411 152.541 111.743 151.056 111.983C149.57 112.221 148.209 112.321 147.225 112.343C146.241 112.365 145.632 112.325 145.632 112.292C145.632 112.253 146.239 112.228 147.216 112.159C148.193 112.09 149.54 111.962 151.014 111.726C152.488 111.488 153.807 111.187 154.756 110.946C155.705 110.705 156.289 110.538 156.302 110.576Z" fill="black"/>
<path d="M159.568 109.981C159.533 109.959 159.69 109.686 159.843 109.215C159.997 108.747 160.127 108.064 160.038 107.32C159.949 106.576 159.662 105.942 159.402 105.524C159.142 105.102 158.925 104.874 158.955 104.845C158.975 104.822 159.242 105.006 159.554 105.421C159.866 105.83 160.202 106.494 160.297 107.29C160.392 108.085 160.222 108.809 160.015 109.28C159.809 109.757 159.593 109.998 159.568 109.981Z" fill="#FAFAFA"/>
<path d="M156.487 117.813C156.493 117.845 156.012 117.981 155.216 118.113C154.42 118.246 153.306 118.361 152.073 118.359C150.839 118.354 149.726 118.233 148.931 118.096C148.135 117.959 147.655 117.82 147.661 117.789C147.669 117.75 148.161 117.824 148.956 117.913C149.752 118.003 150.853 118.094 152.073 118.098C153.293 118.101 154.395 118.016 155.191 117.931C155.987 117.846 156.479 117.774 156.487 117.813Z" fill="black"/>
<path d="M150.139 89.632C150.153 89.6595 149.977 89.794 149.643 89.9135C149.311 90.0335 148.814 90.1175 148.273 90.054C147.731 89.9885 147.268 89.7905 146.974 89.596C146.677 89.4015 146.537 89.2295 146.558 89.206C146.603 89.141 147.283 89.6845 148.304 89.7955C149.321 89.9275 150.11 89.5585 150.139 89.632Z" fill="#FAFAFA"/>
<path d="M160.311 110.283C160.327 110.282 160.356 110.418 160.369 110.669C160.376 110.921 160.344 111.286 160.245 111.724C160.148 112.161 159.983 112.666 159.826 113.224C159.676 113.78 159.53 114.409 159.639 115.045C159.725 115.677 160.198 116.191 160.273 116.833C160.357 117.465 160.108 118 159.88 118.38C159.642 118.765 159.403 119.038 159.234 119.221C159.064 119.403 158.96 119.494 158.947 119.483C158.907 119.452 159.29 119.044 159.72 118.289C159.92 117.912 160.123 117.413 160.035 116.868C159.975 116.325 159.496 115.813 159.382 115.09C159.262 114.381 159.431 113.719 159.595 113.157C159.768 112.593 159.949 112.1 160.066 111.678C160.316 110.836 160.267 110.286 160.311 110.283Z" fill="#FAFAFA"/>
<path d="M161.656 113.424C161.673 113.42 161.734 113.587 161.823 113.894C161.913 114.201 162.033 114.649 162.146 115.212C162.255 115.775 162.366 116.453 162.385 117.219C162.4 117.978 162.325 118.85 161.933 119.668C161.53 120.474 160.951 121.106 160.396 121.626C159.833 122.142 159.281 122.549 158.808 122.872C158.333 123.194 157.936 123.434 157.657 123.59C157.378 123.747 157.217 123.823 157.208 123.808C157.186 123.773 157.786 123.396 158.701 122.722C159.157 122.383 159.69 121.966 160.232 121.451C160.766 120.933 161.32 120.314 161.699 119.554C162.065 118.792 162.148 117.962 162.145 117.221C162.141 116.476 162.051 115.805 161.965 115.244C161.781 114.123 161.614 113.434 161.656 113.424Z" fill="#263238"/>
<path d="M123.928 96.7815C123.916 96.795 123.711 96.6405 123.349 96.3485C122.953 96.021 122.444 95.6 121.834 95.0945C121.513 94.8235 121.166 94.531 120.796 94.219C120.61 94.062 120.422 93.9015 120.206 93.7955C119.993 93.6895 119.751 93.662 119.537 93.7725C119.105 93.998 118.817 94.552 118.449 95.0115C118.093 95.4915 117.724 95.9875 117.347 96.496C116.743 97.305 116.161 98.082 115.625 98.799L115.302 99.2315L115.404 98.7025C115.756 96.8935 116.245 95.384 116.649 94.3405C116.85 93.818 117.028 93.41 117.157 93.134C117.287 92.8585 117.365 92.713 117.378 92.7185C117.392 92.7245 117.338 92.8805 117.233 93.1655C117.128 93.4505 116.974 93.8655 116.793 94.3925C116.433 95.445 115.978 96.952 115.647 98.748L115.427 98.6515C115.959 97.932 116.537 97.1525 117.138 96.3405C117.517 95.8335 117.886 95.338 118.244 94.859C118.424 94.62 118.6 94.385 118.773 94.155C118.952 93.9255 119.152 93.6915 119.434 93.556C119.718 93.411 120.064 93.459 120.308 93.5905C120.559 93.719 120.755 93.8955 120.938 94.056C121.3 94.3765 121.64 94.677 121.955 94.9555C122.543 95.486 123.034 95.928 123.416 96.272C123.756 96.587 123.939 96.768 123.928 96.7815Z" fill="#263238"/>
<path d="M145.04 92.553C145.045 92.56 144.978 92.62 144.845 92.7275C144.687 92.8505 144.492 93.0025 144.254 93.188C143.705 93.6015 142.96 94.162 142.051 94.8455C140.147 96.2475 137.563 98.149 134.695 100.26L134.583 100.342L134.508 100.225C134.451 100.134 134.388 100.037 134.326 99.939C132.971 97.8 131.705 95.802 130.634 94.111L130.769 94.1545C129.004 94.8565 127.616 95.626 126.671 96.198C126.198 96.4845 125.834 96.7215 125.585 96.882C125.337 97.044 125.203 97.1275 125.196 97.118C125.189 97.109 125.31 97.0065 125.546 96.8265C125.784 96.6475 126.137 96.393 126.603 96.0885C127.532 95.4815 128.914 94.6775 130.686 93.948L130.771 93.913L130.821 93.9915C131.902 95.676 133.179 97.6675 134.546 99.7985C134.608 99.8965 134.67 99.994 134.728 100.085L134.541 100.05C137.427 97.963 140.027 96.0835 141.944 94.698C142.872 94.042 143.633 93.5035 144.195 93.1065C144.444 92.937 144.648 92.7975 144.813 92.685C144.958 92.592 145.035 92.546 145.04 92.553Z" fill="#263238"/>
<path d="M100.167 112.438C100.176 112.438 100.185 112.559 100.194 112.79C100.201 113.048 100.21 113.384 100.222 113.802C100.239 114.711 100.262 115.975 100.291 117.524C100.351 120.666 100.476 125.005 100.639 129.798C100.802 134.593 100.899 138.937 100.911 142.081C100.916 143.653 100.913 144.924 100.898 145.803C100.889 146.222 100.882 146.558 100.877 146.816C100.869 147.047 100.861 147.168 100.852 147.168C100.843 147.168 100.834 147.047 100.824 146.816C100.817 146.558 100.808 146.222 100.797 145.803C100.78 144.894 100.756 143.631 100.727 142.083C100.668 138.941 100.542 134.601 100.379 129.807C100.217 125.014 100.12 120.671 100.108 117.526C100.103 115.954 100.106 114.681 100.121 113.802C100.13 113.384 100.137 113.048 100.142 112.79C100.15 112.559 100.158 112.438 100.167 112.438Z" fill="#263238"/>
<path d="M124.092 157.602C124.088 157.603 124.079 157.554 124.067 157.458C124.054 157.348 124.038 157.208 124.019 157.034C123.98 156.641 123.927 156.094 123.859 155.399C123.72 153.979 123.56 151.92 123.401 149.373C123.237 146.827 123.104 143.791 123.017 140.418C122.944 137.045 122.926 133.335 123.005 129.442C123.095 125.548 123.275 121.842 123.494 118.474C123.727 115.108 123.992 112.08 124.266 109.544C124.536 107.007 124.785 104.957 124.986 103.544C125.084 102.852 125.161 102.308 125.217 101.918C125.244 101.744 125.266 101.605 125.283 101.496C125.3 101.401 125.31 101.353 125.315 101.353C125.319 101.354 125.317 101.403 125.31 101.499C125.299 101.61 125.286 101.75 125.269 101.925C125.225 102.316 125.164 102.863 125.086 103.557C124.917 104.973 124.696 107.025 124.449 109.562C124.199 112.1 123.953 115.126 123.733 118.49C123.527 121.855 123.355 125.558 123.265 129.448C123.186 133.337 123.197 137.043 123.257 140.413C123.33 143.783 123.444 146.817 123.584 149.362C123.719 151.908 123.851 153.968 123.959 155.39C124.007 156.087 124.044 156.636 124.071 157.029C124.08 157.205 124.087 157.345 124.093 157.456C124.097 157.552 124.097 157.602 124.092 157.602Z" fill="#263238"/>
<path d="M109.194 75.758C109.194 75.758 109.018 75.8815 108.666 76.112C108.31 76.3435 107.787 76.6835 107.103 77.128C106.417 77.575 105.623 78.208 104.653 78.9105C104.176 79.2715 103.696 79.7045 103.164 80.143C102.9 80.365 102.628 80.594 102.347 80.83C102.071 81.071 101.805 81.341 101.522 81.607C99.2494 83.7225 96.6679 86.5625 94.2899 90.2885C93.9984 90.7575 93.7019 91.234 93.4004 91.719C93.0869 92.197 92.8439 92.7265 92.5554 93.2405C92.2829 93.763 91.9794 94.2805 91.7199 94.83C91.4674 95.383 91.2114 95.9445 90.9514 96.5135C90.8249 96.7995 90.6829 97.0815 90.5664 97.3765C90.4534 97.673 90.3399 97.972 90.2254 98.2725C89.9999 98.875 89.7579 99.481 89.5369 100.104C89.1669 101.372 88.6999 102.65 88.4209 104.012C87.7279 106.704 87.3459 109.604 87.1914 112.629C87.0169 115.657 87.1974 118.825 87.7174 122.048C88.7699 128.482 91.3084 135.182 95.6234 141.137C99.8824 147.111 105.902 152.307 113.131 155.722C120.344 159.158 128.785 160.643 137.214 159.769C145.656 158.895 153.564 155.572 159.898 150.714C161.495 149.513 162.961 148.177 164.37 146.814C164.709 146.46 165.047 146.107 165.384 145.754C165.726 145.406 166.055 145.048 166.367 144.676C166.685 144.309 167.002 143.943 167.319 143.578C167.618 143.199 167.916 142.82 168.213 142.443C170.59 139.42 172.465 136.123 173.946 132.768C175.425 129.406 176.404 125.935 177.007 122.512C177.317 120.8 177.488 119.092 177.601 117.409C177.655 116.567 177.654 115.729 177.682 114.899C177.666 114.07 177.621 113.247 177.593 112.431C177.577 112.023 177.561 111.617 177.545 111.212C177.52 110.809 177.454 110.41 177.412 110.011C177.315 109.215 177.22 108.425 177.126 107.643C177.002 106.866 176.822 106.105 176.676 105.346C176.52 104.589 176.389 103.833 176.154 103.111C175.945 102.382 175.737 101.661 175.532 100.947C175.44 100.587 175.313 100.24 175.179 99.8975C175.05 99.5535 174.921 99.2115 174.793 98.871C174.527 98.195 174.309 97.507 174.011 96.862C173.71 96.218 173.412 95.5815 173.118 94.9525C170.704 89.942 167.604 85.8925 164.491 82.767C161.368 79.6345 158.225 77.438 155.578 75.821C154.904 75.434 154.267 75.068 153.669 74.7245C153.375 74.5435 153.072 74.404 152.781 74.267C152.49 74.1285 152.209 73.995 151.939 73.866C151.398 73.6085 150.9 73.3705 150.443 73.153C149.992 72.924 149.55 72.794 149.172 72.636C148.412 72.341 147.83 72.116 147.434 71.9625C147.043 71.8095 146.845 71.7245 146.845 71.7245C146.845 71.7245 147.049 71.7925 147.443 71.9375C147.842 72.0855 148.427 72.303 149.192 72.5875C149.571 72.7415 150.016 72.868 150.469 73.0935C150.928 73.308 151.429 73.5425 151.972 73.7965C152.244 73.9235 152.526 74.056 152.818 74.1925C153.111 74.328 153.416 74.466 153.712 74.6455C154.313 74.9865 154.953 75.3495 155.63 75.734C158.292 77.3415 161.451 79.5315 164.595 82.6645C167.727 85.79 170.849 89.846 173.284 94.872C173.581 95.503 173.881 96.1415 174.184 96.7875C174.485 97.435 174.705 98.125 174.974 98.8035C175.103 99.145 175.232 99.4885 175.363 99.8335C175.498 100.177 175.626 100.526 175.719 100.887C175.927 101.604 176.137 102.328 176.349 103.059C176.586 103.784 176.718 104.543 176.876 105.304C177.025 106.066 177.206 106.83 177.332 107.611C177.428 108.396 177.525 109.189 177.623 109.989C177.667 110.39 177.734 110.79 177.759 111.196C177.775 111.602 177.792 112.01 177.809 112.42C177.839 113.239 177.885 114.066 177.902 114.9C177.875 115.733 177.877 116.575 177.824 117.421C177.713 119.113 177.543 120.83 177.234 122.551C176.632 125.992 175.651 129.482 174.167 132.864C172.681 136.238 170.798 139.554 168.41 142.596C168.112 142.975 167.812 143.356 167.512 143.738C167.194 144.105 166.875 144.473 166.556 144.842C166.242 145.216 165.911 145.576 165.568 145.927C165.229 146.281 164.889 146.637 164.548 146.993C163.133 148.364 161.659 149.708 160.053 150.917C153.686 155.805 145.733 159.149 137.242 160.029C128.765 160.908 120.275 159.412 113.023 155.953C105.754 152.516 99.7054 147.287 95.4294 141.278C91.0969 135.287 88.5534 128.549 87.5049 122.083C86.9869 118.844 86.8104 115.661 86.9909 112.62C87.1509 109.582 87.5409 106.67 88.2419 103.969C88.5254 102.602 88.9969 101.32 89.3714 100.048C89.5944 99.423 89.8389 98.815 90.0669 98.211C90.1824 97.9095 90.2974 97.61 90.4114 97.3125C90.5289 97.0165 90.6724 96.734 90.7999 96.447C91.0624 95.8765 91.3209 95.3135 91.5754 94.7595C91.8369 94.2085 92.1429 93.69 92.4179 93.1665C92.7089 92.6515 92.9544 92.121 93.2699 91.6425C93.5739 91.157 93.8729 90.6795 94.1669 90.21C96.5644 86.48 99.1644 83.6425 101.452 81.5335C101.738 81.2685 102.005 80.9995 102.283 80.7595C102.566 80.5245 102.84 80.2965 103.106 80.0755C103.641 79.6395 104.124 79.2085 104.605 78.85C105.581 78.1525 106.381 77.5255 107.073 77.085C107.764 76.6495 108.291 76.3165 108.651 76.0895C109.008 75.8665 109.194 75.758 109.194 75.758Z" fill="#263238"/>
</svg>
