<svg width="321" height="227" viewBox="0 0 321 227" fill="none" xmlns="http://www.w3.org/2000/svg">
<path d="M321 205.032H0V205.188H321V205.032Z" fill="#EBEBEB"/>
<path d="M288.837 215.11H267.572V215.267H288.837V215.11Z" fill="#EBEBEB"/>
<path d="M212.643 216.809H207.062V216.966H212.643V216.809Z" fill="#EBEBEB"/>
<path d="M266.93 209.296H254.608V209.452H266.93V209.296Z" fill="#EBEBEB"/>
<path d="M61.4086 210.348H33.6787V210.504H61.4086V210.348Z" fill="#EBEBEB"/>
<path d="M71.1903 210.348H67.1245V210.504H71.1903V210.348Z" fill="#EBEBEB"/>
<path d="M144.544 212.992H84.4043V213.148H144.544V212.992Z" fill="#EBEBEB"/>
<path d="M152.163 177.106H28.1933C26.173 177.106 24.5288 175.503 24.5288 173.532V3.57409C24.5288 1.60358 26.173 0 28.1933 0H152.163C154.183 0 155.827 1.60358 155.827 3.57409V173.532C155.827 175.503 154.183 177.106 152.163 177.106ZM28.1933 0.157164C26.2609 0.157164 24.6893 1.68999 24.6893 3.57471V173.533C24.6893 175.418 26.2609 176.95 28.1933 176.95H152.163C154.095 176.95 155.666 175.418 155.666 173.533V3.57409C155.666 1.68999 154.095 0.156538 152.163 0.156538L28.1933 0.157164Z" fill="#EBEBEB"/>
<path d="M291.025 177.106H167.056C165.036 177.106 163.392 175.503 163.392 173.532V3.57409C163.392 1.60358 165.036 0 167.056 0H291.025C293.046 0 294.689 1.60358 294.689 3.57409V173.532C294.69 175.503 293.046 177.106 291.025 177.106ZM167.056 0.157164C165.124 0.157164 163.553 1.68999 163.553 3.57471V173.533C163.553 175.418 165.124 176.95 167.056 176.95H291.025C292.957 176.95 294.529 175.418 294.529 173.533V3.57409C294.529 1.68999 292.957 0.156538 291.025 0.156538L167.056 0.157164Z" fill="#EBEBEB"/>
<path d="M155.583 74.4653H64.4282V204.811H155.583V74.4653Z" fill="#F0F0F0"/>
<path d="M152.36 78.5685H67.6504V102.642H152.36V78.5685Z" fill="#E0E0E0"/>
<path d="M72.4622 82.4657H67.6504V102.642H72.4622V82.4657Z" fill="#EBEBEB"/>
<path d="M95.7314 82.4657H90.9189V102.642H95.7314V82.4657Z" fill="#EBEBEB"/>
<path d="M122.145 81.971L117.402 82.768L120.915 102.652L125.657 101.855L122.145 81.971Z" fill="#EBEBEB"/>
<path d="M78.4246 85.1243H73.6128V102.642H78.4246V85.1243Z" fill="#EBEBEB"/>
<path d="M89.4856 85.1243H84.6738V102.642H89.4856V85.1243Z" fill="#EBEBEB"/>
<path d="M117.404 85.1243H112.592V102.642H117.404V85.1243Z" fill="#EBEBEB"/>
<path d="M102.051 84.5259L97.353 85.5439L101.249 102.644L105.947 101.626L102.051 84.5259Z" fill="#EBEBEB"/>
<path d="M82.5864 81.4639H80.1802V102.642H82.5864V81.4639Z" fill="#EBEBEB"/>
<path d="M111.209 81.4639H108.803V102.642H111.209V81.4639Z" fill="#EBEBEB"/>
<path d="M67.6509 130.527H152.361V106.454L67.6509 106.454V130.527Z" fill="#E0E0E0"/>
<path d="M147.549 130.528H152.361V110.352H147.549V130.528Z" fill="#EBEBEB"/>
<path d="M124.28 130.528H129.093V110.352H124.28V130.528Z" fill="#EBEBEB"/>
<path d="M94.3439 129.73L99.0859 130.527L102.599 110.643L97.8566 109.846L94.3439 129.73Z" fill="#EBEBEB"/>
<path d="M141.586 130.527H146.398V113.01H141.586V130.527Z" fill="#EBEBEB"/>
<path d="M130.525 130.527H135.338V113.01H130.525V130.527Z" fill="#EBEBEB"/>
<path d="M102.607 130.527H107.419V113.01H102.607V130.527Z" fill="#EBEBEB"/>
<path d="M114.065 129.508L118.762 130.526L122.658 113.425L117.961 112.407L114.065 129.508Z" fill="#EBEBEB"/>
<path d="M137.425 130.527H139.831V109.349H137.425V130.527Z" fill="#EBEBEB"/>
<path d="M108.803 130.527H111.209V109.349H108.803V130.527Z" fill="#EBEBEB"/>
<path d="M72.4622 110.351H67.6504V130.527H72.4622V110.351Z" fill="#EBEBEB"/>
<path d="M78.4246 113.01H73.6128V130.527H78.4246V113.01Z" fill="#EBEBEB"/>
<path d="M89.4856 113.01H84.6738V130.527H89.4856V113.01Z" fill="#EBEBEB"/>
<path d="M82.5864 109.35H80.1802V130.527H82.5864V109.35Z" fill="#EBEBEB"/>
<path d="M152.36 134.339H67.6499V158.413H152.36V134.339Z" fill="#E0E0E0"/>
<path d="M121.083 138.237H116.271V158.413H121.083V138.237Z" fill="#EBEBEB"/>
<path d="M147.494 137.744L142.751 138.541L146.264 158.425L151.007 157.628L147.494 137.744Z" fill="#EBEBEB"/>
<path d="M103.778 140.895H98.9653V158.412H103.778V140.895Z" fill="#EBEBEB"/>
<path d="M114.838 140.895H110.026V158.412H114.838V140.895Z" fill="#EBEBEB"/>
<path d="M142.757 140.895H137.944V158.412H142.757V140.895Z" fill="#EBEBEB"/>
<path d="M127.403 140.296L122.706 141.314L126.602 158.414L131.299 157.397L127.403 140.296Z" fill="#EBEBEB"/>
<path d="M107.939 137.235H105.533V158.413H107.939V137.235Z" fill="#EBEBEB"/>
<path d="M136.561 137.235H134.155V158.413H136.561V137.235Z" fill="#EBEBEB"/>
<path d="M92.1313 137.742L87.3887 138.539L90.9014 158.423L95.644 157.626L92.1313 137.742Z" fill="#EBEBEB"/>
<path d="M87.3945 140.895H82.582V158.412H87.3945V140.895Z" fill="#EBEBEB"/>
<path d="M72.041 140.296L67.3438 141.314L71.2394 158.414L75.9367 157.396L72.041 140.296Z" fill="#EBEBEB"/>
<path d="M81.1992 137.235H78.793V158.413H81.1992V137.235Z" fill="#EBEBEB"/>
<path d="M48.7024 205.153H64.4282L64.4282 74.4653H48.7024L48.7024 205.153Z" fill="#E0E0E0"/>
<path d="M208.931 201.742H195.569L202.593 145.947C202.891 143.585 205.095 141.67 207.516 141.67H212.108H265.816L257.269 201.742H208.931Z" fill="#F5F5F5"/>
<path d="M251.307 201.742H264.668L271.692 145.947C271.989 143.585 270.267 141.67 267.846 141.67H263.254C260.833 141.67 258.629 143.585 258.331 145.947L251.307 201.742Z" fill="#F0F0F0"/>
<path d="M246.385 201.676L248.805 174.689C248.913 173.484 249.869 172.515 251.099 172.362L252.095 172.238C253.746 172.033 255.026 170.733 255.172 169.116L255.613 164.196C255.794 162.179 254.164 160.444 252.089 160.444H274.418C276.494 160.444 278.124 162.179 277.943 164.196L277.501 169.116C277.356 170.733 276.075 172.033 274.424 172.238L273.429 172.362C272.198 172.515 271.243 173.484 271.136 174.689L268.715 201.676C268.538 203.643 266.849 205.153 264.824 205.153H242.495C244.519 205.153 246.208 203.643 246.385 201.676Z" fill="#E6E6E6"/>
<path d="M184.936 167.933C184.556 163.695 180.917 160.444 176.556 160.444H187.36H195.995C200.357 160.444 203.995 163.695 204.375 167.933L206.294 189.326H186.854L184.936 167.933Z" fill="#E6E6E6"/>
<path d="M167.92 160.444H176.555C180.916 160.444 184.555 163.695 184.935 167.933L186.854 189.325H233.153L235.072 167.932C235.452 163.695 239.09 160.443 243.452 160.443H252.087C254.162 160.443 255.792 162.177 255.611 164.194L255.169 169.115C255.024 170.731 253.744 172.031 252.093 172.237L251.097 172.361C249.867 172.514 248.912 173.483 248.803 174.688L246.382 201.675C246.206 203.642 244.517 205.152 242.492 205.152H177.514C175.489 205.152 173.8 203.642 173.623 201.675L171.202 174.688C171.094 173.483 170.139 172.514 168.909 172.361L167.913 172.237C166.263 172.031 164.982 170.731 164.837 169.115L164.395 164.194C164.214 162.179 165.844 160.444 167.92 160.444Z" fill="#F0F0F0"/>
<path d="M65.5863 67.9533C65.5863 67.9533 64.8749 63.3805 68.2949 60.4482C71.7142 57.516 71.4137 55.7721 70.4366 55.5448C69.4595 55.3175 68.5574 58.2492 67.0545 59.0557C67.0545 59.0557 67.007 54.8774 68.5337 53.3383C70.0604 51.7992 70.8616 47.8338 69.4087 47.7636C67.9559 47.6941 67.8057 50.1192 67.5052 51.8386C67.2048 53.558 65.5856 55.9769 65.5856 55.9769C65.5856 55.9769 65.2698 52.2381 64.283 50.699C63.2963 49.1599 65.9272 45.641 64.9122 44.1019C63.8978 42.5628 62.0938 45.4944 62.244 48.793C62.3942 52.0916 64.6489 55.61 64.1231 59.0551C64.1231 59.0551 63.1287 56.6362 62.2357 56.4164C61.3427 56.1967 60.4406 54.5968 59.8397 54.0039C59.2382 53.4109 58.487 55.4634 59.8397 57.3694C61.1924 59.2755 64.6496 64.3742 64.1238 68.4949L65.5863 67.9533Z" fill="#E6E6E6"/>
<path d="M67.6305 65.8732L68.7501 72.727C69.0962 74.8434 67.4193 76.7601 65.2217 76.7601H64.0269C61.8294 76.7601 60.1525 74.8434 60.4985 72.727L61.6182 65.8732H67.6305Z" fill="#E6E6E6"/>
<path d="M134.856 75.4147H138.343V60.7934H134.856V75.4147Z" fill="#EBEBEB"/>
<path d="M117.994 75.4147H121.481V60.7934H117.994V75.4147Z" fill="#EBEBEB"/>
<path d="M96.2976 74.8388L99.7344 75.4164L102.28 61.0071L98.8431 60.4295L96.2976 74.8388Z" fill="#EBEBEB"/>
<path d="M130.535 75.4149H134.022V62.7202H130.535V75.4149Z" fill="#EBEBEB"/>
<path d="M122.519 75.4149H126.007V62.7202H122.519V75.4149Z" fill="#EBEBEB"/>
<path d="M102.287 75.4149H105.774V62.7202H102.287V75.4149Z" fill="#EBEBEB"/>
<path d="M110.588 74.6768L113.993 75.4146L116.816 63.022L113.411 62.2843L110.588 74.6768Z" fill="#EBEBEB"/>
<path d="M127.52 75.4145H129.263V60.0668H127.52V75.4145Z" fill="#EBEBEB"/>
<path d="M106.777 75.4145H108.521V60.0668H106.777V75.4145Z" fill="#EBEBEB"/>
<path d="M94.3395 63.8094H77.3477V75.2505H94.3395V63.8094Z" fill="#EBEBEB"/>
<path d="M152.624 68.4955H138.389V77.0375H152.624V68.4955Z" fill="#EBEBEB"/>
<path d="M149.295 60.9873H142.177V69.5287H149.295V60.9873Z" fill="#EBEBEB"/>
<path d="M268.236 49.6859H251.307V118.491H268.236V49.6859Z" fill="#E0E0E0"/>
<path d="M203.107 118.672L266.419 118.672V49.6854L203.107 49.6854V118.672Z" fill="#E0E0E0"/>
<path d="M201.065 118.672L266.755 118.672V49.6854L201.065 49.6854V118.672Z" fill="#F0F0F0"/>
<path d="M203.871 115.502L264.054 115.502V51.8857L203.871 51.8857V115.502Z" fill="white"/>
<path d="M203.87 115.502H204.987V51.8857H203.87V115.502Z" fill="#E0E0E0"/>
<path d="M204.799 97.6331V99.3488H264.211V97.6331H204.799Z" fill="#E0E0E0"/>
<path d="M203.87 97.6332L264.998 97.6332V94.7529H203.87V97.6332Z" fill="#F0F0F0"/>
<path d="M206.695 202.358H91.8282C89.2345 202.358 87.1313 200.307 87.1313 197.777V65.8638C87.1313 63.3342 89.2339 61.2829 91.8282 61.2829H206.694C209.288 61.2829 211.391 63.3335 211.391 65.8638V197.777C211.392 200.307 209.289 202.358 206.695 202.358Z" fill="#149DD1"/>
<path opacity="0.6" d="M206.695 202.358H91.8282C89.2345 202.358 87.1313 200.307 87.1313 197.777V65.8638C87.1313 63.3342 89.2339 61.2829 91.8282 61.2829H206.694C209.288 61.2829 211.391 63.3335 211.391 65.8638V197.777C211.392 200.307 209.289 202.358 206.695 202.358Z" fill="white"/>
<path d="M191.261 125.979H107.264V140.007H191.261V125.979Z" fill="white"/>
<g opacity="0.4">
<path d="M114.775 134.357V134.725H111.86V130.705H114.686V131.073H112.296V132.503H114.427V132.864H112.296V134.357H114.775Z" fill="#263238"/>
<path d="M115.364 132.991H116.906V133.347H115.364V132.991Z" fill="#263238"/>
<path d="M122.953 132.974V134.725H122.535V133.014C122.535 132.376 122.205 132.049 121.646 132.049C121.01 132.049 120.61 132.451 120.61 133.14V134.725H120.192V133.014C120.192 132.376 119.862 132.049 119.297 132.049C118.667 132.049 118.261 132.451 118.261 133.14V134.725H117.843V131.704H118.243V132.256C118.461 131.894 118.862 131.682 119.38 131.682C119.892 131.682 120.292 131.894 120.481 132.319C120.705 131.929 121.147 131.682 121.706 131.682C122.459 131.682 122.953 132.107 122.953 132.974Z" fill="#263238"/>
<path d="M126.426 132.853V134.725H126.026V134.254C125.838 134.564 125.472 134.754 124.96 134.754C124.26 134.754 123.83 134.398 123.83 133.875C123.83 133.41 124.136 133.02 125.025 133.02H126.008V132.836C126.008 132.319 125.707 132.038 125.131 132.038C124.73 132.038 124.353 132.176 124.101 132.394L123.912 132.09C124.224 131.832 124.683 131.683 125.172 131.683C125.973 131.682 126.426 132.072 126.426 132.853ZM126.009 133.818V133.324H125.037C124.436 133.324 124.242 133.554 124.242 133.864C124.242 134.214 124.531 134.432 125.026 134.432C125.496 134.432 125.844 134.214 126.009 133.818Z" fill="#263238"/>
<path d="M127.47 130.751C127.47 130.597 127.605 130.465 127.776 130.465C127.947 130.465 128.082 130.591 128.082 130.746C128.082 130.912 127.953 131.044 127.776 131.044C127.605 131.044 127.47 130.912 127.47 130.751ZM127.563 131.704H127.981V134.725H127.563V131.704Z" fill="#263238"/>
<path d="M129.146 130.464H129.564V134.725H129.146V130.464Z" fill="#263238"/>
</g>
<path d="M191.261 145.141H107.264V159.169H191.261V145.141Z" fill="white"/>
<g opacity="0.4">
<path d="M115.087 151.267C115.087 152.123 114.451 152.639 113.403 152.639H112.296V153.908H111.86V149.889H113.403C114.451 149.889 115.087 150.406 115.087 151.267ZM114.651 151.267C114.651 150.624 114.216 150.257 113.392 150.257H112.296V152.266H113.392C114.216 152.266 114.651 151.899 114.651 151.267Z" fill="#263238"/>
<path d="M118.249 152.037V153.909H117.849V153.438C117.66 153.748 117.295 153.937 116.783 153.937C116.082 153.937 115.652 153.582 115.652 153.059C115.652 152.594 115.959 152.204 116.848 152.204H117.831V152.019C117.831 151.503 117.53 151.222 116.954 151.222C116.554 151.222 116.177 151.36 115.923 151.577L115.735 151.274C116.047 151.015 116.506 150.866 116.995 150.866C117.795 150.865 118.249 151.256 118.249 152.037ZM117.831 153.001V152.508H116.86C116.259 152.508 116.065 152.737 116.065 153.047C116.065 153.397 116.353 153.616 116.848 153.616C117.319 153.616 117.666 153.397 117.831 153.001Z" fill="#263238"/>
<path d="M118.956 153.564L119.144 153.242C119.391 153.432 119.809 153.581 120.245 153.581C120.833 153.581 121.075 153.385 121.075 153.087C121.075 152.301 119.067 152.92 119.067 151.726C119.067 151.232 119.503 150.865 120.292 150.865C120.692 150.865 121.128 150.974 121.387 151.146L121.205 151.473C120.934 151.29 120.611 151.215 120.293 151.215C119.733 151.215 119.486 151.428 119.486 151.715C119.486 152.53 121.494 151.915 121.494 153.076C121.494 153.599 121.023 153.937 120.216 153.937C119.703 153.937 119.209 153.776 118.956 153.564Z" fill="#263238"/>
<path d="M121.834 153.564L122.023 153.242C122.27 153.432 122.689 153.581 123.124 153.581C123.713 153.581 123.955 153.385 123.955 153.087C123.955 152.301 121.947 152.92 121.947 151.726C121.947 151.232 122.383 150.865 123.172 150.865C123.573 150.865 124.008 150.974 124.268 151.146L124.085 151.473C123.814 151.29 123.491 151.215 123.173 151.215C122.613 151.215 122.367 151.428 122.367 151.715C122.367 152.53 124.374 151.915 124.374 153.076C124.374 153.599 123.904 153.937 123.097 153.937C122.582 153.937 122.087 153.776 121.834 153.564Z" fill="#263238"/>
<path d="M129.63 150.889L128.458 153.909H128.064L127.086 151.434L126.109 153.909H125.715L124.549 150.889H124.949L125.92 153.455L126.915 150.889H127.275L128.263 153.455L129.247 150.889H129.63Z" fill="#263238"/>
<path d="M129.859 152.398C129.859 151.502 130.53 150.865 131.437 150.865C132.345 150.865 133.01 151.503 133.01 152.398C133.01 153.294 132.345 153.937 131.437 153.937C130.531 153.937 129.859 153.294 129.859 152.398ZM132.586 152.398C132.586 151.692 132.097 151.221 131.438 151.221C130.779 151.221 130.284 151.692 130.284 152.398C130.284 153.105 130.779 153.575 131.438 153.575C132.097 153.575 132.586 153.105 132.586 152.398Z" fill="#263238"/>
<path d="M135.424 150.865V151.262C135.389 151.262 135.353 151.256 135.324 151.256C134.676 151.256 134.282 151.658 134.282 152.37V153.909H133.864V150.889H134.264V151.48C134.458 151.077 134.853 150.865 135.424 150.865Z" fill="#263238"/>
<path d="M138.974 149.648V153.909H138.573V153.311C138.32 153.719 137.89 153.937 137.378 153.937C136.495 153.937 135.835 153.311 135.835 152.398C135.835 151.485 136.495 150.865 137.378 150.865C137.873 150.865 138.297 151.072 138.556 151.463V149.648H138.974V149.648ZM138.562 152.398C138.562 151.692 138.068 151.221 137.413 151.221C136.754 151.221 136.26 151.692 136.26 152.398C136.26 153.105 136.754 153.575 137.413 153.575C138.067 153.575 138.562 153.105 138.562 152.398Z" fill="#263238"/>
</g>
<path opacity="0.2" d="M191.261 173.476H107.264V187.504H191.261V173.476Z" fill="black"/>
<g opacity="0.5">
<path d="M127.691 167.03H126.32L126.024 167.671H125.753L126.879 165.269H127.136L128.261 167.671H127.987L127.691 167.03ZM127.597 166.824L127.006 165.534L126.415 166.824H127.597Z" fill="black"/>
<path d="M128.618 165.126H128.867V167.671H128.618V165.126Z" fill="black"/>
<path d="M130.497 165.853V166.09C130.475 166.09 130.454 166.086 130.437 166.086C130.05 166.086 129.814 166.326 129.814 166.752V167.671H129.564V165.867H129.803V166.22C129.92 165.98 130.155 165.853 130.497 165.853Z" fill="black"/>
<path d="M132.541 166.844H130.994C131.022 167.222 131.317 167.472 131.722 167.472C131.947 167.472 132.148 167.393 132.288 167.236L132.429 167.393C132.264 167.586 132.007 167.688 131.715 167.688C131.138 167.688 130.744 167.304 130.744 166.769C130.744 166.234 131.127 165.853 131.648 165.853C132.169 165.853 132.545 166.227 132.545 166.769C132.545 166.789 132.541 166.817 132.541 166.844ZM130.994 166.663H132.305C132.274 166.309 132.01 166.062 131.648 166.062C131.289 166.062 131.025 166.309 130.994 166.663Z" fill="black"/>
<path d="M134.399 166.552V167.671H134.16V167.39C134.048 167.575 133.83 167.688 133.524 167.688C133.105 167.688 132.848 167.475 132.848 167.163C132.848 166.885 133.031 166.653 133.562 166.653H134.149V166.543C134.149 166.234 133.97 166.066 133.626 166.066C133.386 166.066 133.161 166.148 133.01 166.279L132.898 166.097C133.084 165.943 133.359 165.853 133.65 165.853C134.128 165.853 134.399 166.086 134.399 166.552ZM134.149 167.129V166.834H133.569C133.21 166.834 133.094 166.971 133.094 167.157C133.094 167.366 133.267 167.496 133.562 167.496C133.843 167.496 134.051 167.366 134.149 167.129Z" fill="black"/>
<path d="M136.774 165.126V167.671H136.536V167.314C136.384 167.558 136.127 167.688 135.822 167.688C135.295 167.688 134.9 167.314 134.9 166.769C134.9 166.224 135.295 165.853 135.822 165.853C136.117 165.853 136.37 165.976 136.525 166.209V165.126H136.774ZM136.528 166.769C136.528 166.347 136.233 166.066 135.843 166.066C135.449 166.066 135.153 166.347 135.153 166.769C135.153 167.191 135.449 167.472 135.843 167.472C136.233 167.472 136.528 167.191 136.528 166.769Z" fill="black"/>
<path d="M139.027 165.867L138.103 167.887C137.948 168.241 137.751 168.354 137.487 168.354C137.315 168.354 137.149 168.299 137.037 168.189L137.153 168.008C137.244 168.097 137.357 168.145 137.491 168.145C137.656 168.145 137.769 168.07 137.874 167.843L137.955 167.668L137.128 165.867H137.388L138.085 167.401L138.781 165.867H139.027V165.867Z" fill="black"/>
<path d="M141.698 166.552V167.671H141.459V167.39C141.346 167.575 141.128 167.688 140.822 167.688C140.403 167.688 140.146 167.475 140.146 167.163C140.146 166.885 140.329 166.653 140.86 166.653H141.448V166.543C141.448 166.234 141.269 166.066 140.924 166.066C140.684 166.066 140.46 166.148 140.309 166.279L140.197 166.097C140.383 165.943 140.658 165.853 140.949 165.853C141.427 165.853 141.698 166.086 141.698 166.552ZM141.448 167.129V166.834H140.868C140.509 166.834 140.393 166.971 140.393 167.157C140.393 167.366 140.566 167.496 140.861 167.496C141.142 167.496 141.35 167.366 141.448 167.129Z" fill="black"/>
<path d="M146.353 166.624V167.671H146.103V166.648C146.103 166.268 145.906 166.072 145.572 166.072C145.192 166.072 144.953 166.313 144.953 166.724V167.671H144.704V166.648C144.704 166.268 144.507 166.072 144.169 166.072C143.793 166.072 143.55 166.313 143.55 166.724V167.671H143.3V165.866H143.539V166.195C143.669 165.979 143.908 165.852 144.218 165.852C144.524 165.852 144.763 165.979 144.875 166.233C145.009 166 145.273 165.852 145.606 165.852C146.058 165.853 146.353 166.107 146.353 166.624Z" fill="black"/>
<path d="M148.652 166.844H147.105C147.132 167.222 147.428 167.472 147.833 167.472C148.057 167.472 148.258 167.393 148.399 167.236L148.54 167.393C148.375 167.586 148.118 167.688 147.826 167.688C147.249 167.688 146.855 167.304 146.855 166.769C146.855 166.234 147.238 165.853 147.759 165.853C148.28 165.853 148.656 166.227 148.656 166.769C148.655 166.789 148.652 166.817 148.652 166.844ZM147.105 166.663H148.416C148.385 166.309 148.121 166.062 147.759 166.062C147.4 166.062 147.136 166.309 147.105 166.663Z" fill="black"/>
<path d="M152.219 166.624V167.671H151.969V166.648C151.969 166.268 151.772 166.072 151.439 166.072C151.058 166.072 150.82 166.313 150.82 166.724V167.671H150.57V166.648C150.57 166.268 150.373 166.072 150.035 166.072C149.659 166.072 149.416 166.313 149.416 166.724V167.671H149.167V165.866H149.405V166.195C149.536 165.979 149.774 165.852 150.084 165.852C150.39 165.852 150.629 165.979 150.741 166.233C150.875 166 151.139 165.852 151.473 165.852C151.924 165.853 152.219 166.107 152.219 166.624Z" fill="black"/>
<path d="M154.775 166.769C154.775 167.314 154.382 167.688 153.854 167.688C153.548 167.688 153.291 167.558 153.14 167.314V167.671H152.901V165.126H153.151V166.209C153.306 165.976 153.559 165.853 153.855 165.853C154.381 165.853 154.775 166.224 154.775 166.769ZM154.526 166.769C154.526 166.347 154.226 166.066 153.836 166.066C153.442 166.066 153.147 166.347 153.147 166.769C153.147 167.191 153.442 167.472 153.836 167.472C154.226 167.472 154.526 167.191 154.526 166.769Z" fill="black"/>
<path d="M156.898 166.844H155.35C155.379 167.222 155.674 167.472 156.078 167.472C156.304 167.472 156.504 167.393 156.645 167.236L156.785 167.393C156.62 167.586 156.363 167.688 156.071 167.688C155.495 167.688 155.101 167.304 155.101 166.769C155.101 166.234 155.484 165.853 156.005 165.853C156.525 165.853 156.901 166.227 156.901 166.769C156.901 166.789 156.898 166.817 156.898 166.844ZM155.35 166.663H156.662C156.63 166.309 156.367 166.062 156.005 166.062C155.646 166.062 155.382 166.309 155.35 166.663Z" fill="black"/>
<path d="M158.344 165.853V166.09C158.323 166.09 158.301 166.086 158.284 166.086C157.898 166.086 157.661 166.326 157.661 166.752V167.671H157.412V165.867H157.651V166.22C157.767 165.98 158.002 165.853 158.344 165.853Z" fill="black"/>
<path d="M159.963 165.884C159.963 165.637 159.756 165.465 159.397 165.465C159.098 165.465 158.88 165.561 158.725 165.743L158.539 165.606C158.729 165.38 159.021 165.249 159.415 165.249C159.907 165.249 160.224 165.479 160.224 165.846C160.224 166.432 159.58 166.46 159.58 166.951H159.32C159.32 166.385 159.963 166.333 159.963 165.884ZM159.267 167.51C159.267 167.411 159.348 167.335 159.45 167.335C159.556 167.335 159.636 167.411 159.636 167.51C159.636 167.606 159.555 167.688 159.45 167.688C159.348 167.688 159.267 167.606 159.267 167.51Z" fill="black"/>
<path d="M161.702 165.27H162.272V167.219H163.506V167.671H161.702V165.27Z" fill="black"/>
<path d="M163.634 166.748C163.634 166.192 164.074 165.798 164.676 165.798C165.277 165.798 165.713 166.192 165.713 166.748C165.713 167.304 165.277 167.699 164.676 167.699C164.073 167.698 163.634 167.304 163.634 166.748ZM165.157 166.748C165.157 166.429 164.95 166.237 164.675 166.237C164.401 166.237 164.19 166.43 164.19 166.748C164.19 167.068 164.401 167.259 164.675 167.259C164.95 167.259 165.157 167.068 165.157 166.748Z" fill="black"/>
<path d="M168.032 165.825V167.362C168.032 168.048 167.652 168.364 166.97 168.364C166.611 168.364 166.263 168.278 166.042 168.11L166.26 167.726C166.422 167.853 166.685 167.936 166.927 167.936C167.315 167.936 167.483 167.764 167.483 167.431V167.352C167.339 167.507 167.132 167.582 166.886 167.582C166.362 167.582 165.939 167.229 165.939 166.69C165.939 166.152 166.361 165.798 166.886 165.798C167.15 165.798 167.368 165.884 167.512 166.062V165.825H168.032ZM167.49 166.69C167.49 166.419 167.283 166.237 166.994 166.237C166.706 166.237 166.495 166.419 166.495 166.69C166.495 166.961 166.706 167.143 166.994 167.143C167.283 167.143 167.49 166.961 167.49 166.69Z" fill="black"/>
<path d="M169.472 165.27C169.472 165.102 169.609 164.971 169.813 164.971C170.017 164.971 170.154 165.095 170.154 165.26C170.154 165.438 170.017 165.568 169.813 165.568C169.61 165.568 169.472 165.438 169.472 165.27ZM169.539 165.825H170.087V167.671H169.539V165.825Z" fill="black"/>
<path d="M172.533 166.614V167.671H171.984V166.697C171.984 166.398 171.844 166.262 171.601 166.262C171.337 166.262 171.148 166.42 171.148 166.759V167.671H170.6V165.826H171.123V166.043C171.271 165.885 171.493 165.799 171.749 165.799C172.195 165.798 172.533 166.052 172.533 166.614Z" fill="black"/>
</g>
<path d="M191.261 172.618H107.264V186.646H191.261V172.618Z" fill="#149DD1"/>
<path d="M138.416 181.811L137.354 180.337C137.255 180.344 137.15 180.35 137.045 180.35H135.828V181.811H135.125V177.009H137.045C138.325 177.009 139.098 177.64 139.098 178.683C139.098 179.424 138.705 179.959 138.015 180.2L139.183 181.811H138.416ZM138.395 178.682C138.395 177.996 137.924 177.605 137.024 177.605H135.828V179.766H137.024C137.924 179.767 138.395 179.369 138.395 178.682Z" fill="white"/>
<path d="M143.499 180.213H140.474C140.559 180.851 141.086 181.276 141.825 181.276C142.261 181.276 142.627 181.131 142.901 180.837L143.274 181.262C142.936 181.647 142.423 181.852 141.804 181.852C140.601 181.852 139.799 181.077 139.799 179.993C139.799 178.916 140.594 178.141 141.67 178.141C142.746 178.141 143.513 178.895 143.513 180.014C143.512 180.068 143.505 180.151 143.499 180.213ZM140.474 179.739H142.865C142.795 179.128 142.323 178.697 141.67 178.697C141.022 178.697 140.544 179.122 140.474 179.739Z" fill="white"/>
<path d="M148.017 178.175V181.317C148.017 182.6 147.349 183.183 146.083 183.183C145.4 183.183 144.711 182.998 144.304 182.641L144.627 182.133C144.972 182.421 145.513 182.606 146.062 182.606C146.942 182.606 147.342 182.209 147.342 181.385V181.097C147.019 181.475 146.533 181.66 145.998 181.66C144.922 181.66 144.106 180.946 144.106 179.897C144.106 178.848 144.922 178.141 145.998 178.141C146.554 178.141 147.06 178.339 147.377 178.737V178.175H148.017ZM147.355 179.897C147.355 179.19 146.82 178.717 146.075 178.717C145.322 178.717 144.788 179.19 144.788 179.897C144.788 180.597 145.322 181.084 146.075 181.084C146.821 181.084 147.355 180.597 147.355 179.897Z" fill="white"/>
<path d="M149.188 177.05C149.188 176.81 149.385 176.618 149.645 176.618C149.905 176.618 150.102 176.803 150.102 177.037C150.102 177.284 149.912 177.476 149.645 177.476C149.385 177.476 149.188 177.29 149.188 177.05ZM149.307 178.175H149.982V181.811H149.307V178.175Z" fill="white"/>
<path d="M150.8 181.427L151.081 180.905C151.397 181.125 151.904 181.283 152.389 181.283C153.015 181.283 153.276 181.097 153.276 180.789C153.276 179.972 150.92 180.679 150.92 179.232C150.92 178.58 151.518 178.141 152.474 178.141C152.959 178.141 153.508 178.265 153.831 178.47L153.543 178.992C153.205 178.779 152.832 178.704 152.467 178.704C151.876 178.704 151.588 178.917 151.588 179.205C151.588 180.062 153.951 179.362 153.951 180.776C153.951 181.434 153.332 181.853 152.341 181.853C151.721 181.852 151.109 181.667 150.8 181.427Z" fill="white"/>
<path d="M156.892 181.598C156.688 181.77 156.378 181.852 156.076 181.852C155.324 181.852 154.895 181.447 154.895 180.714V178.717H154.262V178.176H154.895V177.38H155.57V178.176H156.639V178.717H155.57V180.687C155.57 181.078 155.781 181.298 156.154 181.298C156.351 181.298 156.54 181.236 156.681 181.126L156.892 181.598Z" fill="white"/>
<path d="M160.94 180.213H157.914C157.999 180.851 158.526 181.276 159.265 181.276C159.701 181.276 160.067 181.131 160.341 180.837L160.714 181.262C160.377 181.647 159.863 181.852 159.244 181.852C158.041 181.852 157.24 181.077 157.24 179.993C157.24 178.916 158.035 178.141 159.111 178.141C160.187 178.141 160.954 178.895 160.954 180.014C160.953 180.068 160.946 180.151 160.94 180.213ZM157.914 179.739H160.306C160.236 179.128 159.764 178.697 159.111 178.697C158.463 178.697 157.985 179.122 157.914 179.739Z" fill="white"/>
<path d="M163.896 178.141V178.779C163.84 178.772 163.791 178.772 163.741 178.772C163.017 178.772 162.566 179.204 162.566 180V181.811H161.891V178.175H162.538V178.786C162.778 178.361 163.242 178.141 163.896 178.141Z" fill="white"/>
<g opacity="0.6">
<path d="M134.559 76.8015L134.844 76.2154C135.244 76.5686 135.929 76.824 136.623 76.824C137.554 76.824 137.955 76.4709 137.955 76.0132C137.955 74.7289 134.69 75.5404 134.69 73.5875C134.69 72.7766 135.337 72.0859 136.754 72.0859C137.385 72.0859 138.04 72.2512 138.486 72.5518L138.232 73.1529C137.763 72.8599 137.231 72.7246 136.754 72.7246C135.837 72.7246 135.445 73.1003 135.445 73.558C135.445 74.8423 138.71 74.0389 138.71 75.9687C138.71 76.7721 138.048 77.4633 136.623 77.4633C135.798 77.4627 134.99 77.1922 134.559 76.8015Z" fill="#263238"/>
<path d="M139.597 72.1911C139.597 71.9282 139.812 71.7178 140.097 71.7178C140.382 71.7178 140.598 71.9206 140.598 72.1761C140.598 72.4466 140.39 72.657 140.097 72.657C139.812 72.6564 139.597 72.4535 139.597 72.1911ZM139.728 73.4222H140.467V77.4026H139.728V73.4222Z" fill="#263238"/>
<path d="M145.78 73.4222V76.8616C145.78 78.2661 145.049 78.9047 143.663 78.9047C142.916 78.9047 142.161 78.7019 141.715 78.3112L142.069 77.7551C142.446 78.0707 143.039 78.2736 143.64 78.2736C144.602 78.2736 145.041 77.8384 145.041 76.9368V76.6212C144.688 77.0344 144.156 77.2373 143.571 77.2373C142.393 77.2373 141.5 76.4559 141.5 75.3069C141.5 74.1579 142.393 73.3846 143.571 73.3846C144.179 73.3846 144.733 73.6025 145.08 74.0377V73.4222H145.78ZM145.057 75.3075C145.057 74.5342 144.472 74.0157 143.655 74.0157C142.832 74.0157 142.246 74.5342 142.246 75.3075C142.246 76.0733 142.832 76.6068 143.655 76.6068C144.472 76.6061 145.057 76.0733 145.057 75.3075Z" fill="#263238"/>
<path d="M151.065 75.1121V77.4026H150.326V75.1948C150.326 74.4134 149.927 74.0308 149.225 74.0308C148.44 74.0308 147.932 74.4891 147.932 75.3526V77.4026H147.193V73.4222H147.902V74.0233C148.202 73.6181 148.725 73.3846 149.372 73.3846C150.365 73.3846 151.065 73.9406 151.065 75.1121Z" fill="#263238"/>
<path d="M158.315 73.4221V77.4026H157.615V76.8015C157.314 77.2147 156.806 77.4471 156.229 77.4471C155.174 77.4471 154.473 76.8841 154.473 75.712V73.4215H155.212V75.6293C155.212 76.4108 155.612 76.8009 156.313 76.8009C157.082 76.8009 157.575 76.335 157.575 75.479V73.4215L158.315 73.4221Z" fill="#263238"/>
<path d="M163.954 75.4127C163.954 76.6368 163.085 77.4477 161.891 77.4477C161.314 77.4477 160.805 77.2298 160.466 76.8021V78.8597H159.728V73.4228H160.436V74.0533C160.768 73.61 161.291 73.3852 161.892 73.3852C163.084 73.3846 163.954 74.1961 163.954 75.4127ZM163.207 75.4127C163.207 74.5718 162.615 74.0157 161.829 74.0157C161.052 74.0157 160.459 74.5718 160.459 75.4127C160.459 76.2611 161.051 76.8171 161.829 76.8171C162.615 76.8165 163.207 76.2611 163.207 75.4127Z" fill="#263238"/>
</g>
<path d="M191.261 106.817H107.264V120.844H191.261V106.817Z" fill="white"/>
<g opacity="0.4">
<path d="M111.86 111.544H112.296V115.195H114.604V115.563H111.861V111.544H111.86Z" fill="#263238"/>
<path d="M117.589 113.691V115.563H117.188V115.092C117 115.402 116.635 115.592 116.123 115.592C115.422 115.592 114.992 115.236 114.992 114.713C114.992 114.249 115.298 113.858 116.188 113.858H117.17V113.674C117.17 113.158 116.87 112.876 116.294 112.876C115.893 112.876 115.516 113.014 115.263 113.232L115.074 112.928C115.386 112.669 115.845 112.52 116.334 112.52C117.136 112.519 117.589 112.91 117.589 113.691ZM117.171 114.656V114.162H116.2C115.599 114.162 115.405 114.392 115.405 114.702C115.405 115.052 115.693 115.27 116.188 115.27C116.659 115.27 117.006 115.051 117.171 114.656Z" fill="#263238"/>
<path d="M118.296 115.218L118.485 114.897C118.732 115.086 119.15 115.235 119.586 115.235C120.174 115.235 120.416 115.04 120.416 114.741C120.416 113.955 118.409 114.575 118.409 113.381C118.409 112.887 118.845 112.519 119.634 112.519C120.034 112.519 120.47 112.629 120.728 112.8L120.546 113.128C120.275 112.944 119.952 112.869 119.634 112.869C119.074 112.869 118.827 113.081 118.827 113.369C118.827 114.184 120.835 113.57 120.835 114.73C120.835 115.252 120.364 115.591 119.557 115.591C119.044 115.592 118.549 115.431 118.296 115.218Z" fill="#263238"/>
<path d="M123.236 115.379C123.071 115.523 122.824 115.592 122.582 115.592C122 115.592 121.676 115.27 121.676 114.713V112.887H121.123V112.543H121.676V111.882H122.094V112.543H123.036V112.887H122.094V114.691C122.094 115.046 122.282 115.242 122.629 115.242C122.8 115.242 122.971 115.19 123.088 115.087L123.236 115.379Z" fill="#263238"/>
<path d="M129.071 111.544V115.563H128.711L126.062 112.301V115.563H125.626V111.544H125.986L128.641 114.805V111.544H129.071Z" fill="#263238"/>
<path d="M132.662 113.691V115.563H132.262V115.092C132.073 115.402 131.709 115.592 131.196 115.592C130.496 115.592 130.066 115.236 130.066 114.713C130.066 114.249 130.372 113.858 131.261 113.858H132.244V113.674C132.244 113.158 131.944 112.876 131.367 112.876C130.967 112.876 130.59 113.014 130.337 113.232L130.149 112.928C130.461 112.669 130.92 112.52 131.408 112.52C132.209 112.519 132.662 112.91 132.662 113.691ZM132.244 114.656V114.162H131.273C130.672 114.162 130.478 114.392 130.478 114.702C130.478 115.052 130.766 115.27 131.261 115.27C131.732 115.27 132.079 115.051 132.244 114.656Z" fill="#263238"/>
<path d="M138.908 113.811V115.563H138.49V113.852C138.49 113.214 138.16 112.887 137.601 112.887C136.965 112.887 136.565 113.29 136.565 113.978V115.563H136.147V113.852C136.147 113.214 135.817 112.887 135.252 112.887C134.622 112.887 134.216 113.29 134.216 113.978V115.563H133.798V112.543H134.198V113.094C134.415 112.733 134.816 112.52 135.334 112.52C135.846 112.52 136.246 112.733 136.435 113.158C136.659 112.767 137.101 112.52 137.66 112.52C138.414 112.519 138.908 112.944 138.908 113.811Z" fill="#263238"/>
<path d="M142.753 114.179H140.162C140.21 114.811 140.704 115.23 141.381 115.23C141.758 115.23 142.094 115.098 142.329 114.834L142.565 115.098C142.288 115.419 141.858 115.592 141.37 115.592C140.404 115.592 139.745 114.949 139.745 114.053C139.745 113.157 140.386 112.52 141.258 112.52C142.13 112.52 142.759 113.146 142.759 114.053C142.759 114.087 142.753 114.133 142.753 114.179ZM140.162 113.874H142.359C142.305 113.283 141.864 112.87 141.258 112.87C140.657 112.87 140.216 113.283 140.162 113.874Z" fill="#263238"/>
</g>
<path d="M191.261 87.6545H107.264V101.682H191.261V87.6545Z" fill="white"/>
<g opacity="0.4">
<path d="M112.296 92.7483V94.3275H114.427V94.695H112.296V96.4007H111.86V92.3814H114.686V92.749L112.296 92.7483Z" fill="#263238"/>
<path d="M115.346 92.4272C115.346 92.2719 115.482 92.1404 115.652 92.1404C115.823 92.1404 115.959 92.2669 115.959 92.4221C115.959 92.5887 115.829 92.7208 115.652 92.7208C115.481 92.7196 115.346 92.5875 115.346 92.4272ZM115.44 93.3802H115.858V96.4007H115.44V93.3802Z" fill="#263238"/>
<path d="M118.584 93.357V93.7533C118.549 93.7533 118.513 93.7477 118.484 93.7477C117.836 93.7477 117.442 94.1497 117.442 94.8616V96.4007H117.024V93.3802H117.425V93.9719C117.618 93.5699 118.013 93.357 118.584 93.357Z" fill="#263238"/>
<path d="M118.931 96.0557L119.119 95.7339C119.366 95.9236 119.785 96.0726 120.22 96.0726C120.809 96.0726 121.05 95.8779 121.05 95.5792C121.05 94.7928 119.043 95.4127 119.043 94.2186C119.043 93.7252 119.479 93.357 120.268 93.357C120.668 93.357 121.104 93.4659 121.363 93.6381L121.181 93.9656C120.91 93.7822 120.586 93.707 120.268 93.707C119.709 93.707 119.462 93.9193 119.462 94.2067C119.462 95.0219 121.47 94.4077 121.47 95.5673C121.47 96.0902 120.999 96.4289 120.192 96.4289C119.68 96.4295 119.185 96.2686 118.931 96.0557Z" fill="#263238"/>
<path d="M123.872 96.2167C123.707 96.3601 123.46 96.4289 123.218 96.4289C122.635 96.4289 122.312 96.1071 122.312 95.5504V93.7246H121.758V93.3802H122.312V92.7196H122.73V93.3802H123.671V93.7246H122.73V95.5273C122.73 95.8836 122.918 96.0783 123.266 96.0783C123.436 96.0783 123.607 96.0263 123.725 95.9236L123.872 96.2167Z" fill="#263238"/>
<path d="M129.706 92.3808V96.4001H129.346L126.697 93.1384V96.4001H126.261V92.3808H126.621L129.276 95.6424V92.3808H129.706Z" fill="#263238"/>
<path d="M133.298 94.5285V96.4007H132.897V95.9298C132.708 96.2398 132.344 96.4295 131.831 96.4295C131.131 96.4295 130.701 96.0732 130.701 95.551C130.701 95.0858 131.007 94.6957 131.896 94.6957H132.879V94.5116C132.879 93.995 132.579 93.7133 132.002 93.7133C131.601 93.7133 131.225 93.851 130.972 94.0695L130.784 93.7652C131.096 93.5066 131.555 93.3576 132.043 93.3576C132.844 93.357 133.298 93.7477 133.298 94.5285ZM132.879 95.4934V94.9994H131.908C131.307 94.9994 131.113 95.2292 131.113 95.5391C131.113 95.8892 131.401 96.1077 131.896 96.1077C132.367 96.1077 132.715 95.8892 132.879 95.4934Z" fill="#263238"/>
<path d="M139.544 94.6494V96.4007H139.126V94.6894C139.126 94.052 138.796 93.7252 138.237 93.7252C137.601 93.7252 137.201 94.1272 137.201 94.8159V96.4007H136.783V94.6894C136.783 94.052 136.453 93.7252 135.888 93.7252C135.258 93.7252 134.852 94.1272 134.852 94.8159V96.4007H134.434V93.3802H134.834V93.9312C135.052 93.5693 135.452 93.357 135.971 93.357C136.483 93.357 136.883 93.5693 137.072 93.9944C137.296 93.6037 137.737 93.357 138.297 93.357C139.05 93.357 139.544 93.7822 139.544 94.6494Z" fill="#263238"/>
<path d="M143.39 95.0169H140.799C140.847 95.6487 141.341 96.0676 142.018 96.0676C142.395 96.0676 142.73 95.9355 142.966 95.6713L143.201 95.9355C142.925 96.2567 142.495 96.4295 142.007 96.4295C141.041 96.4295 140.382 95.7865 140.382 94.8904C140.382 93.9944 141.023 93.357 141.895 93.357C142.766 93.357 143.396 93.9831 143.396 94.8904C143.395 94.9249 143.39 94.9706 143.39 95.0169ZM140.799 94.712H142.995C142.942 94.1209 142.501 93.707 141.894 93.707C141.293 93.7076 140.852 94.1209 140.799 94.712Z" fill="#263238"/>
</g>
<path d="M255.915 27.7724H237.471C234.334 27.7724 231.792 30.2526 231.792 33.3114V48.9665C231.792 52.0252 234.335 54.5054 237.471 54.5054H242.856L241.554 59.4483L246.675 54.5054H255.915C259.051 54.5054 261.594 52.0258 261.594 48.9665V33.3114C261.594 30.2526 259.051 27.7724 255.915 27.7724Z" fill="#149DD1"/>
<path opacity="0.7" d="M255.915 27.7724H237.471C234.334 27.7724 231.792 30.2526 231.792 33.3114V48.9665C231.792 52.0252 234.335 54.5054 237.471 54.5054H242.856L241.554 59.4483L246.675 54.5054H255.915C259.051 54.5054 261.594 52.0258 261.594 48.9665V33.3114C261.594 30.2526 259.051 27.7724 255.915 27.7724Z" fill="white"/>
<path d="M253.163 47.3852C256.738 43.8987 256.738 38.2461 253.163 34.7596C249.589 31.2732 243.793 31.2732 240.218 34.7596C236.643 38.2461 236.643 43.8987 240.218 47.3852C243.793 50.8716 249.589 50.8716 253.163 47.3852Z" fill="#149DD1"/>
<path d="M245.732 45.0592C245.485 45.0592 245.251 44.9534 245.091 44.77L241.499 40.643C241.199 40.2974 241.243 39.7801 241.596 39.4865C241.95 39.1941 242.481 39.2354 242.782 39.581L245.732 42.971L250.604 37.3732C250.905 37.0269 251.436 36.9856 251.789 37.2787C252.144 37.5717 252.188 38.0895 251.886 38.4352L246.374 44.7706C246.214 44.9534 245.979 45.0592 245.732 45.0592Z" fill="white"/>
<path d="M252.72 124.357C252.72 124.357 241.539 122.985 224.606 127.512C224.606 127.512 221.88 97.9968 222.205 93.9424C222.529 89.8881 248.349 91.0753 248.349 91.0753C248.349 91.0753 249.015 102.888 250.677 110.016C252.338 117.143 253.571 122.987 252.72 124.357Z" fill="#149DD1"/>
<path opacity="0.2" d="M252.72 124.357C252.72 124.357 241.539 122.985 224.606 127.512C224.606 127.512 221.88 97.9968 222.205 93.9424C222.529 89.8881 248.349 91.0753 248.349 91.0753C248.349 91.0753 249.015 102.888 250.677 110.016C252.338 117.143 253.571 122.987 252.72 124.357Z" fill="black"/>
<path d="M216.436 222.077L220.994 223.336L222.079 216.417L222.663 212.716L218.105 211.458L217.328 216.417L216.436 222.077Z" fill="#E4897B"/>
<path d="M242.643 222.44L247.342 223.048L247.387 216.417L247.419 212.297L242.713 211.696L242.681 216.417L242.643 222.44Z" fill="#E4897B"/>
<path opacity="0.2" d="M242.714 211.696L242.682 216.417H247.388L247.42 212.297L242.714 211.696Z" fill="black"/>
<path opacity="0.2" d="M217.329 216.417H222.08L222.664 212.716L218.106 211.458L217.329 216.417Z" fill="black"/>
<path d="M196.201 96.3388L191.676 95.0345L192.502 100.074C192.502 100.074 196.611 101 197.011 98.9154L196.201 96.3388Z" fill="#E4897B"/>
<path d="M187.159 96.2048L189.378 100.303L192.502 100.074L191.676 95.0345L187.159 96.2048Z" fill="#E4897B"/>
<path d="M202.449 97.6268L195.018 96.0044L194.342 99.5246L201.089 101.129L202.449 97.6268Z" fill="#E4897B"/>
<path d="M224.939 94.4503C224.939 94.4503 224.779 94.6381 224.503 94.9574C223.566 96.0282 221.274 98.6142 218.924 100.843C216.998 102.659 215.046 104.243 213.775 104.563C210.135 105.477 196.903 101.676 196.903 101.676L198.271 96.4414C198.271 96.4414 210.597 98.0381 211.554 98.0381C212.279 98.0381 219.778 87.4436 221.595 86.5732L224.939 94.4503Z" fill="#149DD1"/>
<path opacity="0.2" d="M224.503 94.9574C223.565 96.0282 221.274 98.6142 218.924 100.843C219.399 97.174 220.779 93.8053 222.596 91.6764C222.789 91.451 222.981 91.2631 223.174 91.1254L224.503 94.9574Z" fill="black"/>
<path d="M216.492 221.383L221.669 221.248C221.863 221.243 222.035 221.369 222.084 221.551L223.172 225.617C223.285 226.038 222.968 226.449 222.52 226.453C220.652 226.472 217.95 226.437 215.602 226.498C212.858 226.57 211.114 226.438 207.895 226.523C205.949 226.574 205.339 224.678 206.147 224.484C209.826 223.599 212.231 223.774 215.365 221.772C215.705 221.554 216.083 221.394 216.492 221.383Z" fill="#263238"/>
<path d="M216.049 222.032C216.045 222.033 216.04 222.035 216.035 222.036C215.277 222.204 213.925 222.421 213.388 221.988C213.226 221.857 213.149 221.681 213.158 221.463C213.164 221.333 213.225 221.231 213.333 221.168C213.899 220.836 215.837 221.73 216.056 221.832C216.099 221.852 216.125 221.896 216.12 221.942C216.116 221.983 216.088 222.017 216.049 222.032ZM213.49 221.337C213.475 221.343 213.461 221.348 213.449 221.355C213.405 221.381 213.385 221.416 213.382 221.474C213.377 221.621 213.425 221.735 213.531 221.82C213.832 222.063 214.613 222.087 215.654 221.891C214.89 221.563 213.843 221.207 213.49 221.337Z" fill="#149DD1"/>
<path d="M216.05 222.032C216.024 222.042 215.994 222.042 215.967 222.03C215.386 221.796 214.216 220.831 214.283 220.308C214.299 220.186 214.383 220.032 214.69 219.993C214.919 219.964 215.13 220.022 215.32 220.163C215.941 220.628 216.114 221.864 216.121 221.916C216.126 221.955 216.11 221.993 216.078 222.016C216.069 222.023 216.059 222.028 216.05 222.032ZM214.607 220.234C214.515 220.268 214.508 220.318 214.506 220.337C214.465 220.651 215.265 221.412 215.861 221.738C215.787 221.377 215.591 220.64 215.183 220.335C215.041 220.229 214.89 220.187 214.72 220.209C214.673 220.215 214.636 220.224 214.607 220.234Z" fill="#149DD1"/>
<path d="M242.831 221.383L248.008 221.248C248.201 221.243 248.374 221.369 248.423 221.551L249.511 225.617C249.624 226.038 249.306 226.449 248.859 226.453C246.991 226.472 244.288 226.437 241.941 226.498C239.197 226.57 237.452 226.438 234.234 226.523C232.288 226.574 231.678 224.678 232.486 224.484C236.165 223.599 238.57 223.774 241.704 221.772C242.043 221.554 242.422 221.394 242.831 221.383Z" fill="#263238"/>
<path d="M242.388 222.032C242.384 222.033 242.379 222.035 242.373 222.036C241.615 222.204 240.264 222.421 239.727 221.988C239.565 221.857 239.488 221.681 239.497 221.463C239.503 221.333 239.563 221.231 239.672 221.168C240.238 220.836 242.176 221.73 242.395 221.832C242.438 221.852 242.464 221.896 242.459 221.942C242.455 221.983 242.427 222.017 242.388 222.032ZM239.829 221.337C239.814 221.343 239.8 221.348 239.788 221.355C239.744 221.381 239.724 221.416 239.722 221.474C239.716 221.621 239.764 221.735 239.87 221.82C240.171 222.063 240.953 222.087 241.993 221.891C241.229 221.563 240.182 221.207 239.829 221.337Z" fill="#149DD1"/>
<path d="M242.389 222.032C242.362 222.042 242.333 222.042 242.306 222.03C241.725 221.796 240.555 220.831 240.622 220.308C240.638 220.186 240.721 220.032 241.029 219.993C241.258 219.964 241.469 220.022 241.659 220.163C242.28 220.628 242.453 221.864 242.46 221.916C242.465 221.955 242.449 221.993 242.417 222.016C242.408 222.023 242.398 222.028 242.389 222.032ZM240.945 220.234C240.854 220.268 240.847 220.318 240.845 220.337C240.804 220.651 241.604 221.412 242.2 221.738C242.125 221.377 241.93 220.64 241.522 220.335C241.38 220.229 241.229 220.187 241.06 220.209C241.011 220.215 240.974 220.224 240.945 220.234Z" fill="#149DD1"/>
<path d="M252.338 121.665C254.827 132.194 250.555 215.002 250.555 215.002H242.297L238.767 145.991L225.763 215.002L216.938 214.376C222.707 160.916 227.808 129 227.808 129L227.795 124.966L252.338 121.665Z" fill="#263238"/>
<path opacity="0.4" d="M216.937 214.376L225.765 215.002L235.998 160.677L238.765 145.993L242.296 215.002H250.552C250.552 215.002 254.828 132.193 252.337 121.667L227.793 124.967L227.806 128.999C227.806 128.999 222.709 160.915 216.937 214.376Z" fill="white"/>
<path d="M247.89 82.676C247.591 87.833 247.818 92.9769 248.283 97.7669C248.625 101.271 249.103 104.584 249.61 107.573C250.798 114.58 252.146 119.832 252.338 121.665C248.741 122.15 235.187 123.975 227.795 124.966C218.846 100.56 222.216 86.3547 222.216 86.3547C222.216 86.3547 224.775 85.2883 227.845 84.4762C228.249 84.3666 228.663 84.2677 229.084 84.1731C231.809 83.557 236.362 83.0448 239.518 82.7687C240.182 82.7111 240.857 82.6698 241.515 82.6397C244.868 82.4907 247.89 82.676 247.89 82.676Z" fill="#263238"/>
<path d="M234.753 71.6933C234.933 75.0457 235.298 81.3311 238.154 82.9246C238.154 82.9246 236.376 86.2276 232.53 86.5632C229.621 86.8174 229.814 84.0191 229.814 84.0191C231.497 82.7925 231.093 80.7206 229.812 78.3844L234.753 71.6933Z" fill="#E4897B"/>
<path opacity="0.2" d="M232.739 74.4227L229.814 78.3806C230.12 78.9329 230.393 79.5021 230.585 80.0719C231.938 79.5447 233.48 77.5948 233.261 76.1327C233.152 75.4033 232.944 74.7264 232.739 74.4227Z" fill="black"/>
<path d="M222.235 64.9528C221.674 66.6904 221.982 70.2607 224.471 69.0998C226.961 67.9389 223.2 61.9661 222.235 64.9528Z" fill="#263238"/>
<path d="M235.074 67.3009C235.347 71.7673 235.741 74.3702 233.722 76.898C230.686 80.7 224.803 79.2817 223.162 74.9725C221.685 71.0935 221.486 64.4413 225.729 62.1896C229.909 59.9712 234.8 62.8346 235.074 67.3009Z" fill="#E4897B"/>
<path d="M231.864 64.8726V59.8828C231.864 59.8828 237.309 59.4883 237.067 62.2065C240.083 63.6654 238.657 68.242 234.606 70.4861C232.386 68.7529 232.64 64.579 232.64 64.579C232.4 64.6823 232.137 64.7793 231.864 64.8726Z" fill="#263238"/>
<path d="M237.29 70.7886C237.069 71.9733 236.304 72.9432 235.457 73.4867C234.183 74.3044 233.069 73.2994 233.023 71.8875C232.982 70.6164 233.596 68.6597 235.067 68.4079C236.516 68.1606 237.543 69.4342 237.29 70.7886Z" fill="#E4897B"/>
<path d="M228.312 69.2945C228.357 69.6558 228.197 69.9701 227.954 69.9964C227.711 70.0227 227.478 69.7516 227.433 69.3903C227.388 69.029 227.548 68.7147 227.79 68.6884C228.033 68.6621 228.267 68.9332 228.312 69.2945Z" fill="#263238"/>
<path d="M224.115 69.7516C224.16 70.1129 224 70.4272 223.757 70.4535C223.515 70.4798 223.282 70.2087 223.236 69.8474C223.191 69.4861 223.351 69.1718 223.594 69.1455C223.836 69.1192 224.069 69.3903 224.115 69.7516Z" fill="#263238"/>
<path d="M225.472 69.7861C225.472 69.7861 224.857 71.8862 224.04 72.9625C224.758 73.456 225.841 73.0609 225.841 73.0609L225.472 69.7861Z" fill="#DE5753"/>
<path d="M228.003 74.2255C227.854 74.2624 227.694 74.2906 227.524 74.3094C227.463 74.3157 227.409 74.2737 227.402 74.2155C227.394 74.1566 227.439 74.104 227.497 74.0977C229.128 73.918 229.75 72.7296 229.756 72.7177C229.782 72.6651 229.849 72.6444 229.903 72.6701C229.958 72.6964 229.98 72.7609 229.953 72.8135C229.929 72.8611 229.393 73.8867 228.003 74.2255Z" fill="#263238"/>
<path d="M229.441 67.835C229.367 67.8531 229.285 67.8331 229.228 67.7749C228.547 67.0849 227.751 67.2176 227.742 67.2189C227.623 67.2401 227.508 67.1631 227.485 67.0479C227.462 66.9321 227.541 66.8206 227.659 66.7993C227.701 66.7918 228.699 66.6246 229.544 67.4812C229.628 67.567 229.626 67.7016 229.539 67.783C229.51 67.8093 229.476 67.8262 229.441 67.835Z" fill="#263238"/>
<path d="M222.132 68.5444C222.091 68.5544 222.048 68.5531 222.005 68.5387C221.89 68.4993 221.829 68.3772 221.869 68.2664C222.265 67.1512 223.244 66.9176 223.287 66.9013C223.404 66.8738 223.524 66.9445 223.553 67.0585C223.583 67.1725 223.512 67.287 223.395 67.3159C223.354 67.324 222.602 67.5137 222.284 68.4085C222.259 68.4786 222.2 68.5275 222.132 68.5444Z" fill="#263238"/>
<path d="M234.281 66.7261C234.281 66.7261 231.089 65.5846 229.606 63.7681C229.606 63.7681 226.692 64.5114 226.095 65.6672C226.095 65.6672 225.085 64.8413 225.842 63.7681C225.842 63.7681 223.662 64.2171 223.229 65.6672C223.229 65.6672 222.141 65.3034 222.205 63.7681C222.205 63.7681 221.233 64.125 220.927 65.6672C220.927 65.6672 218.515 60.7751 226.469 59.3713C226.469 59.3713 225.841 59.1133 224.606 59.0613C224.606 59.0613 230.154 56.8779 234.556 58.8778C238.959 60.8784 238.155 64.718 234.281 66.7261Z" fill="#263238"/>
<path d="M254.235 125.877L246.537 126.879C246.537 126.879 243.359 105.22 241.959 98.2259V83.2859L245.985 82.2527L249.086 83.2859C249.83 85.7091 250.485 88.89 251.057 92.4277C251.435 94.7696 251.776 97.2742 252.077 99.8101C252.495 103.266 252.841 106.785 253.137 110.079C253.599 115.395 253.907 120.104 254.074 122.972C254.183 124.8 254.235 125.877 254.235 125.877Z" fill="#149DD1"/>
<path d="M241.96 98.2241C241.96 98.2241 242.599 87.6872 245.986 82.2509C245.986 82.2509 245.901 80.6955 245.224 80.4476C244.547 80.1996 241.96 81.6861 241.96 81.6861C241.96 81.6861 240.347 80.6129 239.992 81.1082C239.637 81.6035 238.78 84.9546 241.96 98.2241Z" fill="#149DD1"/>
<path opacity="0.7" d="M241.96 98.2241C241.96 98.2241 242.599 87.6872 245.986 82.2509C245.986 82.2509 245.901 80.6955 245.224 80.4476C244.547 80.1996 241.96 81.6861 241.96 81.6861C241.96 81.6861 240.347 80.6129 239.992 81.1082C239.637 81.6035 238.78 84.9546 241.96 98.2241Z" fill="white"/>
<path d="M224.442 128.777L225.321 129.396C225.321 129.396 224.05 122.412 224.564 104.755C224.589 103.903 224.621 103.083 224.654 102.3C225.308 87.3603 227.684 84.6428 227.838 84.48L225.617 85.2188L221.591 86.5713C220.404 99.3198 224.442 128.777 224.442 128.777Z" fill="#149DD1"/>
<path d="M224.79 99.73C224.79 99.73 222.567 89.4899 223.228 85.9596C223.889 82.4294 226.26 83.9979 226.26 83.9979C226.26 83.9979 228.438 82.2835 229.085 84.1726C229.085 84.1726 226.095 86.227 224.79 99.73Z" fill="#149DD1"/>
<path opacity="0.7" d="M224.79 99.73C224.79 99.73 222.567 89.4899 223.228 85.9596C223.889 82.4294 226.26 83.9979 226.26 83.9979C226.26 83.9979 228.438 82.2835 229.085 84.1726C229.085 84.1726 226.095 86.227 224.79 99.73Z" fill="white"/>
<path opacity="0.2" d="M252.077 99.8101C248.79 98.013 248.354 93.3231 248.354 93.3231C248.553 93.248 249.772 92.841 251.056 92.4277C251.435 94.7695 251.775 97.2742 252.077 99.8101Z" fill="black"/>
<path opacity="0.2" d="M235.998 160.677L238.765 145.993L238.232 138.223C238.232 138.223 234.438 151.698 235.998 160.677Z" fill="black"/>
<path opacity="0.2" d="M254.074 122.972C252.007 122.834 250.215 122.702 250.215 122.702L249.824 114.506C249.824 114.506 250.491 113.961 251.987 114.118C251.987 114.118 252.661 112.515 253.136 110.079C253.599 115.395 253.907 120.104 254.074 122.972Z" fill="black"/>
<path d="M254.78 110.071L250.754 116.375L253.938 118.16L257.72 112.48L254.78 110.071Z" fill="#E4897B"/>
<path d="M248.925 83.207C251.635 83.4976 263.149 98.9116 263.657 103.559C264.165 108.206 256.893 116.227 256.893 116.227L252.034 113.438C252.034 113.438 256.968 106.043 257.223 104.07C257.477 102.096 248.204 94.005 248.204 94.005C248.204 94.005 247.192 91.6282 247.064 88.2069C246.935 84.7856 248.925 83.207 248.925 83.207Z" fill="#149DD1"/>
<path d="M249.821 114.507C249.821 114.507 253.965 115.374 255.629 117.913C255.629 117.913 253.9 123.204 252.662 123.78C251.425 124.356 248.35 124.356 248.35 124.356C248.35 124.356 248.153 118.471 249.821 114.507Z" fill="#149DD1"/>
</svg>
