<svg width="20" height="20" viewBox="0 0 20 20" fill="none" xmlns="http://www.w3.org/2000/svg">
<path d="M18.3333 9.95874V15.0004C18.3333 15.4346 18.0008 15.7954 17.5692 15.8312C17.5458 15.8329 17.5225 15.8337 17.5 15.8337C17.0967 15.8337 16.7467 15.5421 16.6792 15.1379C16.355 13.1937 13.6625 12.5004 11.2508 12.5004H7.50083V3.33374H11.2508C13.6625 3.33374 16.355 2.64124 16.6792 0.696238C16.7508 0.268737 17.1417 -0.0370959 17.57 0.00290415C18.0025 0.0387375 18.3342 0.399571 18.3342 0.833738V5.8754C19.285 6.06874 20.0008 6.90874 20.0008 7.91707C20.0008 8.92541 19.2842 9.76541 18.3333 9.95874ZM5.83333 12.5004V3.33374H4.58333C2.05583 3.33374 0 5.38957 0 7.91707C0 10.4446 2.05583 12.5004 4.58333 12.5004H5.83333ZM7.1025 14.1671H4.58333C3.85167 14.1671 3.14917 14.0404 2.49583 13.8079L4.305 18.6346C4.495 19.1554 4.87667 19.5712 5.37917 19.8054C5.65833 19.9354 5.95583 20.0004 6.25417 20.0004C6.49417 20.0004 6.735 19.9579 6.96667 19.8737C7.4875 19.6837 7.90333 19.3021 8.1375 18.7996C8.37167 18.2962 8.39583 17.7329 8.20583 17.2129L7.10167 14.1662L7.1025 14.1671Z" fill="black" fill-opacity="0.25"/>
</svg>
