<svg width="110" height="110" viewBox="0 0 110 110" fill="none" xmlns="http://www.w3.org/2000/svg">
<path d="M0.565063 3.95547C34.6585 3.95547 68.7519 3.95547 103.878 3.95547C103.878 12.1292 103.878 20.3029 103.878 28.7243C102.542 28.7243 101.206 28.7243 99.8288 28.7243C99.8288 21.887 99.8288 15.0497 99.8288 8.00513C68.4081 8.00513 36.9875 8.00513 4.61472 8.00513C4.61472 40.0163 4.61472 72.0274 4.61472 105.009C36.0354 105.009 67.456 105.009 99.8288 105.009C99.8288 98.1712 99.8288 91.3339 99.8288 84.2894C101.165 84.2894 102.502 84.2894 103.878 84.2894C103.878 92.4631 103.878 100.637 103.878 109.058C69.785 109.058 35.6916 109.058 0.565063 109.058C0.565063 74.3743 0.565063 39.6904 0.565063 3.95547Z" fill="#048BBD"/>
<path d="M83.5949 40.3435C83.7333 40.456 83.8706 40.5699 84.0069 40.6849C84.0812 40.7466 84.1555 40.8083 84.2321 40.8718C85.2992 41.7913 86.0958 42.8276 86.7381 44.0753C86.7824 44.158 86.8267 44.2407 86.8724 44.3259C88.0744 46.7337 88.0663 49.7021 87.294 52.2306C86.8674 53.4222 86.2569 54.522 85.4196 55.4709C85.3549 55.548 85.2902 55.6251 85.2235 55.7045C83.6297 57.5567 81.3495 58.8743 78.8943 59.1255C77.3781 59.2344 75.7785 59.286 74.3066 58.8613C74.2116 58.834 74.2116 58.834 74.1148 58.8061C72.6308 58.3655 71.3067 57.6496 70.1628 56.601C70.0338 56.4836 70.0338 56.4836 69.9023 56.3637C68.0478 54.5948 66.8119 52.1152 66.744 49.5307C66.7422 49.2917 66.7419 49.0527 66.7429 48.8137C66.7431 48.7513 66.7433 48.6889 66.7435 48.6246C66.7569 46.0646 67.5667 43.7182 69.3151 41.8151C69.3568 41.7695 69.3984 41.7239 69.4412 41.6769C72.9776 37.844 79.3877 37.1735 83.5949 40.3435ZM73.1761 45.1404C72.057 46.6124 71.9703 48.5026 72.1839 50.2745C72.2449 50.5435 72.3213 50.7883 72.423 51.0445C72.4587 51.1363 72.4944 51.2281 72.5312 51.3226C73.1508 52.7194 74.2188 53.6209 75.6214 54.1667C76.9493 54.5615 78.4348 54.4402 79.6711 53.8253C81.0543 53.0059 81.9017 51.8301 82.3117 50.2911C82.6565 48.6767 82.4417 46.8888 81.5583 45.488C81.2965 45.1508 81.0145 44.8458 80.7107 44.5462C80.6575 44.4921 80.6043 44.4379 80.5496 44.3822C79.5109 43.4043 78.241 43.1708 76.8704 43.2046C75.3598 43.2726 74.1526 44.0154 73.1761 45.1404Z" fill="#5CB176"/>
<path d="M0.565063 3.95547C34.6585 3.95547 68.7519 3.95547 103.878 3.95547C103.878 12.1292 103.878 20.3029 103.878 28.7243C102.542 28.7243 101.206 28.7243 99.8288 28.7243C99.8288 21.887 99.8288 15.0497 99.8288 8.00513C68.4081 8.00513 36.9875 8.00513 4.61472 8.00513C4.61472 40.0163 4.61472 72.0274 4.61472 105.009C36.0354 105.009 67.456 105.009 99.8288 105.009C99.8288 98.1712 99.8288 91.3339 99.8288 84.2894C101.165 84.2894 102.502 84.2894 103.878 84.2894C103.878 92.4631 103.878 100.637 103.878 109.058C69.785 109.058 35.6916 109.058 0.565063 109.058C0.565063 74.3743 0.565063 39.6904 0.565063 3.95547Z" fill="#048BBD"/>
<path d="M83.5949 40.3435C83.7333 40.456 83.8706 40.5699 84.0069 40.6849C84.0812 40.7466 84.1555 40.8083 84.2321 40.8718C85.2992 41.7913 86.0958 42.8276 86.7381 44.0753C86.7824 44.158 86.8267 44.2407 86.8724 44.3259C88.0744 46.7337 88.0663 49.7021 87.294 52.2306C86.8674 53.4222 86.2569 54.522 85.4196 55.4709C85.3549 55.548 85.2902 55.6251 85.2235 55.7045C83.6297 57.5567 81.3495 58.8743 78.8943 59.1255C77.3781 59.2344 75.7785 59.286 74.3066 58.8613C74.2116 58.834 74.2116 58.834 74.1148 58.8061C72.6308 58.3655 71.3067 57.6496 70.1628 56.601C70.0338 56.4836 70.0338 56.4836 69.9023 56.3637C68.0478 54.5948 66.8119 52.1152 66.744 49.5307C66.7422 49.2917 66.7419 49.0527 66.7429 48.8137C66.7431 48.7513 66.7433 48.6889 66.7435 48.6246C66.7569 46.0646 67.5667 43.7182 69.3151 41.8151C69.3568 41.7695 69.3984 41.7239 69.4412 41.6769C72.9776 37.844 79.3877 37.1735 83.5949 40.3435ZM73.1761 45.1404C72.057 46.6124 71.9703 48.5026 72.1839 50.2745C72.2449 50.5435 72.3213 50.7883 72.423 51.0445C72.4587 51.1363 72.4944 51.2281 72.5312 51.3226C73.1508 52.7194 74.2188 53.6209 75.6214 54.1667C76.9493 54.5615 78.4348 54.4402 79.6711 53.8253C81.0543 53.0059 81.9017 51.8301 82.3117 50.2911C82.6565 48.6767 82.4417 46.8888 81.5583 45.488C81.2965 45.1508 81.0145 44.8458 80.7107 44.5462C80.6575 44.4921 80.6043 44.4379 80.5496 44.3822C79.5109 43.4043 78.241 43.1708 76.8704 43.2046C75.3598 43.2726 74.1526 44.0154 73.1761 45.1404Z" fill="#5CB176"/>
<path d="M46.7123 38.8014C49.2763 38.7926 49.2763 38.7926 51.8921 38.7837C52.429 38.7812 52.966 38.7786 53.5192 38.7759C54.182 38.7747 54.182 38.7747 54.4936 38.7744C54.7082 38.774 54.9229 38.773 55.1376 38.7716C57.5697 38.756 59.7098 39.007 61.5626 40.7468C62.726 41.9238 63.2818 43.3178 63.3229 44.9701C63.2783 46.6345 62.7214 48.1239 61.5523 49.3181C60.9357 49.8766 60.2461 50.2702 59.5205 50.6678C59.5527 50.7094 59.5848 50.751 59.6179 50.7939C60.2032 51.552 60.7825 52.3124 61.3351 53.0947C61.6715 53.5697 62.0198 54.035 62.3701 54.4997C62.7983 55.0681 63.2205 55.6407 63.6415 56.2144C63.9151 56.5868 64.1904 56.9576 64.47 57.3254C64.5227 57.3948 64.5754 57.4643 64.6297 57.5358C64.7296 57.6672 64.8299 57.7983 64.9306 57.9291C65.2654 58.3696 65.2654 58.3696 65.2654 58.5788C65.3275 58.5788 65.3897 58.5788 65.4537 58.5788C65.4537 58.6409 65.4537 58.7031 65.4537 58.7671C64.6907 58.8089 63.9283 58.8405 63.1644 58.8599C62.8095 58.8691 62.4554 58.8817 62.101 58.9021C59.8257 59.03 59.8257 59.03 59.1757 58.6021C58.7574 58.1924 58.4814 57.7161 58.2209 57.1956C58.07 56.905 57.8887 56.6709 57.6826 56.4167C57.6237 56.3401 57.5648 56.2634 57.5041 56.1844C57.4469 56.1101 57.3898 56.0359 57.3309 55.9595C56.8424 55.3217 56.3652 54.6787 55.902 54.0226C55.595 53.589 55.2797 53.1616 54.9646 52.7339C54.9085 52.6575 54.8524 52.5812 54.7946 52.5026C54.5727 52.2017 54.351 51.9046 54.1134 51.6159C53.964 51.4213 53.964 51.4213 53.964 51.2329C53.2803 51.2329 52.5965 51.2329 51.8921 51.2329C51.8921 53.7192 51.8921 56.2055 51.8921 58.7671C50.1827 58.7671 48.4734 58.7671 46.7123 58.7671C46.7123 52.1784 46.7123 45.5897 46.7123 38.8014ZM51.8921 43.2278C51.8921 44.4398 51.8921 45.6519 51.8921 46.9007C52.5221 46.9072 53.152 46.9128 53.7821 46.9162C53.9962 46.9176 54.2103 46.9196 54.4244 46.922C54.733 46.9255 55.0416 46.927 55.3502 46.9283C55.4452 46.9298 55.5402 46.9312 55.638 46.9327C56.4522 46.9329 57.0828 46.7688 57.6925 46.2036C58.016 45.837 58.0523 45.4062 58.0368 44.9307C57.9775 44.4285 57.828 44.0826 57.478 43.7163C56.7705 43.249 56.1776 43.1875 55.3502 43.2002C55.2509 43.2006 55.1516 43.201 55.0494 43.2014C54.7346 43.2029 54.42 43.2065 54.1053 43.2101C53.8909 43.2115 53.6766 43.2128 53.4622 43.214C52.9388 43.2168 52.4155 43.2224 51.8921 43.2278Z" fill="#5CB176"/>
<path d="M101.2 38.3893C101.299 38.3894 101.299 38.3894 101.399 38.3894C102.511 38.3927 103.561 38.4929 104.632 38.8014C104.697 38.82 104.762 38.8386 104.83 38.8578C105.616 39.0888 106.329 39.4016 107.08 39.7431C107.111 41.3903 107.143 43.0375 107.175 44.7346C106.801 44.6099 106.468 44.4848 106.115 44.3191C103.961 43.3165 101.36 42.8762 99.0753 43.6986C97.7109 44.2717 96.6184 45.246 96.0321 46.6181C95.447 48.2479 95.539 50.0148 96.176 51.6144C96.8029 52.8992 97.8728 53.6519 99.1694 54.1524C100.444 54.5875 101.846 54.5693 103.125 54.1524C103.591 53.9193 103.591 53.9193 104.067 53.6815C104.113 50.4182 104.113 50.4182 104.161 47.089C105.901 47.089 107.642 47.089 109.435 47.089C109.476 49.2841 109.476 49.2841 109.485 50.2234C109.492 50.8632 109.499 51.5027 109.513 52.1424C109.524 52.6584 109.53 53.1742 109.533 53.6904C109.535 53.8867 109.539 54.0831 109.544 54.2794C109.589 55.8976 109.589 55.8976 109.209 56.3638C108.964 56.6086 108.693 56.7963 108.399 56.9777C108.341 57.0203 108.283 57.0629 108.223 57.1068C107.191 57.8597 105.979 58.3492 104.761 58.7024C104.683 58.7252 104.604 58.7481 104.523 58.7716C103.396 59.0817 102.29 59.1783 101.124 59.1733C101.028 59.173 101.028 59.173 100.93 59.1726C98.34 59.1595 95.7668 58.4533 93.8013 56.6952C93.7233 56.6295 93.6454 56.5638 93.5651 56.4962C91.6422 54.8409 90.4289 52.4483 90.2225 49.9144C90.0785 46.9112 90.6826 44.2125 92.6978 41.9091C94.905 39.481 97.9535 38.3802 101.2 38.3893Z" fill="#5CB176"/>
<path d="M28.0651 38.8014C29.6967 38.7955 31.3283 38.7897 33.0094 38.7837C33.5218 38.7811 34.0342 38.7786 34.5621 38.7759C35.1949 38.7746 35.1949 38.7746 35.4926 38.7744C35.6974 38.774 35.9023 38.773 36.1071 38.7715C38.5902 38.7549 40.7471 39.0687 42.6358 40.8376C43.7491 41.9965 44.254 43.4709 44.299 45.0642C44.2436 46.8085 43.654 48.3287 42.3801 49.5377C42.325 49.5913 42.2699 49.645 42.2131 49.7003C40.8181 50.9774 38.9532 51.3624 37.1168 51.3455C36.9684 51.3452 36.9684 51.3452 36.817 51.3449C36.4523 51.3439 36.0876 51.3413 35.7229 51.3388C34.9052 51.3349 34.0874 51.3311 33.2449 51.3271C33.2449 53.7823 33.2449 56.2375 33.2449 58.7671C31.5355 58.7671 29.8262 58.7671 28.0651 58.7671C28.0651 52.1784 28.0651 45.5897 28.0651 38.8014ZM33.2449 43.2277C33.2449 44.502 33.2449 45.7762 33.2449 47.089C33.8159 47.0929 34.387 47.0968 34.9754 47.1008C35.2428 47.1034 35.2428 47.1034 35.5156 47.106C37.1824 47.1206 37.1824 47.1206 38.613 46.3356C38.9765 45.8585 39.0292 45.4209 38.9897 44.8288C38.8628 44.3033 38.6622 43.9511 38.2363 43.6045C37.7809 43.3442 37.402 43.2155 36.88 43.2171C36.799 43.2171 36.7179 43.2171 36.6344 43.2171C36.5478 43.2176 36.4611 43.218 36.3719 43.2185C36.2825 43.2187 36.1932 43.2188 36.1011 43.219C35.8161 43.2195 35.5311 43.2207 35.2461 43.2219C35.0528 43.2223 34.8594 43.2228 34.666 43.2231C34.1923 43.2241 33.7186 43.2259 33.2449 43.2277Z" fill="#5CB176"/>
<path d="M46.7123 38.8014C49.2763 38.7926 49.2763 38.7926 51.8921 38.7837C52.429 38.7812 52.966 38.7786 53.5192 38.7759C54.182 38.7747 54.182 38.7747 54.4936 38.7744C54.7082 38.774 54.9229 38.773 55.1376 38.7716C57.5697 38.756 59.7098 39.007 61.5626 40.7468C62.726 41.9238 63.2818 43.3178 63.3229 44.9701C63.2783 46.6345 62.7214 48.1239 61.5523 49.3181C60.9357 49.8766 60.2461 50.2702 59.5205 50.6678C59.5527 50.7094 59.5848 50.751 59.6179 50.7939C60.2032 51.552 60.7825 52.3124 61.3351 53.0947C61.6715 53.5697 62.0198 54.035 62.3701 54.4997C62.7983 55.0681 63.2205 55.6407 63.6415 56.2144C63.9151 56.5868 64.1904 56.9576 64.47 57.3254C64.5227 57.3948 64.5754 57.4643 64.6297 57.5358C64.7296 57.6672 64.8299 57.7983 64.9306 57.9291C65.2654 58.3696 65.2654 58.3696 65.2654 58.5788C65.3275 58.5788 65.3897 58.5788 65.4537 58.5788C65.4537 58.6409 65.4537 58.7031 65.4537 58.7671C64.6907 58.8089 63.9283 58.8405 63.1644 58.8599C62.8095 58.8691 62.4554 58.8817 62.101 58.9021C59.8257 59.03 59.8257 59.03 59.1757 58.6021C58.7574 58.1924 58.4814 57.7161 58.2209 57.1956C58.07 56.905 57.8887 56.6709 57.6826 56.4167C57.6237 56.3401 57.5648 56.2634 57.5041 56.1844C57.4469 56.1101 57.3898 56.0359 57.3309 55.9595C56.8424 55.3217 56.3652 54.6787 55.902 54.0226C55.595 53.589 55.2797 53.1616 54.9646 52.7339C54.9085 52.6575 54.8524 52.5812 54.7946 52.5026C54.5727 52.2017 54.351 51.9046 54.1134 51.6159C53.964 51.4213 53.964 51.4213 53.964 51.2329C53.2803 51.2329 52.5965 51.2329 51.8921 51.2329C51.8921 53.7192 51.8921 56.2055 51.8921 58.7671C50.1827 58.7671 48.4734 58.7671 46.7123 58.7671C46.7123 52.1784 46.7123 45.5897 46.7123 38.8014ZM51.8921 43.2278C51.8921 44.4398 51.8921 45.6519 51.8921 46.9007C52.5221 46.9072 53.152 46.9128 53.7821 46.9162C53.9962 46.9176 54.2103 46.9196 54.4244 46.922C54.733 46.9255 55.0416 46.927 55.3502 46.9283C55.4452 46.9298 55.5402 46.9312 55.638 46.9327C56.4522 46.9329 57.0828 46.7688 57.6925 46.2036C58.016 45.837 58.0523 45.4062 58.0368 44.9307C57.9775 44.4285 57.828 44.0826 57.478 43.7163C56.7705 43.249 56.1776 43.1875 55.3502 43.2002C55.2509 43.2006 55.1516 43.201 55.0494 43.2014C54.7346 43.2029 54.42 43.2065 54.1053 43.2101C53.8909 43.2115 53.6766 43.2128 53.4622 43.214C52.9388 43.2168 52.4155 43.2224 51.8921 43.2278Z" fill="#5CB176"/>
<path d="M101.2 38.3893C101.299 38.3894 101.299 38.3894 101.399 38.3894C102.511 38.3927 103.561 38.4929 104.632 38.8014C104.697 38.82 104.762 38.8386 104.83 38.8578C105.616 39.0888 106.329 39.4016 107.08 39.7431C107.111 41.3903 107.143 43.0375 107.175 44.7346C106.801 44.6099 106.468 44.4848 106.115 44.3191C103.961 43.3165 101.36 42.8762 99.0753 43.6986C97.7109 44.2717 96.6184 45.246 96.0321 46.6181C95.447 48.2479 95.539 50.0148 96.176 51.6144C96.8029 52.8992 97.8728 53.6519 99.1694 54.1524C100.444 54.5875 101.846 54.5693 103.125 54.1524C103.591 53.9193 103.591 53.9193 104.067 53.6815C104.113 50.4182 104.113 50.4182 104.161 47.089C105.901 47.089 107.642 47.089 109.435 47.089C109.476 49.2841 109.476 49.2841 109.485 50.2234C109.492 50.8632 109.499 51.5027 109.513 52.1424C109.524 52.6584 109.53 53.1742 109.533 53.6904C109.535 53.8867 109.539 54.0831 109.544 54.2794C109.589 55.8976 109.589 55.8976 109.209 56.3638C108.964 56.6086 108.693 56.7963 108.399 56.9777C108.341 57.0203 108.283 57.0629 108.223 57.1068C107.191 57.8597 105.979 58.3492 104.761 58.7024C104.683 58.7252 104.604 58.7481 104.523 58.7716C103.396 59.0817 102.29 59.1783 101.124 59.1733C101.028 59.173 101.028 59.173 100.93 59.1726C98.34 59.1595 95.7668 58.4533 93.8013 56.6952C93.7233 56.6295 93.6454 56.5638 93.5651 56.4962C91.6422 54.8409 90.4289 52.4483 90.2225 49.9144C90.0785 46.9112 90.6826 44.2125 92.6978 41.9091C94.905 39.481 97.9535 38.3802 101.2 38.3893Z" fill="#5CB176"/>
<path d="M28.0651 38.8014C29.6967 38.7955 31.3283 38.7897 33.0094 38.7837C33.5218 38.7811 34.0342 38.7786 34.5621 38.7759C35.1949 38.7746 35.1949 38.7746 35.4926 38.7744C35.6974 38.774 35.9023 38.773 36.1071 38.7715C38.5902 38.7549 40.7471 39.0687 42.6358 40.8376C43.7491 41.9965 44.254 43.4709 44.299 45.0642C44.2436 46.8085 43.654 48.3287 42.3801 49.5377C42.325 49.5913 42.2699 49.645 42.2131 49.7003C40.8181 50.9774 38.9532 51.3624 37.1168 51.3455C36.9684 51.3452 36.9684 51.3452 36.817 51.3449C36.4523 51.3439 36.0876 51.3413 35.7229 51.3388C34.9052 51.3349 34.0874 51.3311 33.2449 51.3271C33.2449 53.7823 33.2449 56.2375 33.2449 58.7671C31.5355 58.7671 29.8262 58.7671 28.0651 58.7671C28.0651 52.1784 28.0651 45.5897 28.0651 38.8014ZM33.2449 43.2277C33.2449 44.502 33.2449 45.7762 33.2449 47.089C33.8159 47.0929 34.387 47.0968 34.9754 47.1008C35.2428 47.1034 35.2428 47.1034 35.5156 47.106C37.1824 47.1206 37.1824 47.1206 38.613 46.3356C38.9765 45.8585 39.0292 45.4209 38.9897 44.8288C38.8628 44.3033 38.6622 43.9511 38.2363 43.6045C37.7809 43.3442 37.402 43.2155 36.88 43.2171C36.799 43.2171 36.7179 43.2171 36.6344 43.2171C36.5478 43.2176 36.4611 43.218 36.3719 43.2185C36.2825 43.2187 36.1932 43.2188 36.1011 43.219C35.8161 43.2195 35.5311 43.2207 35.2461 43.2219C35.0528 43.2223 34.8594 43.2228 34.666 43.2231C34.1923 43.2241 33.7186 43.2259 33.2449 43.2277Z" fill="#5CB176"/>
<path d="M97.4742 70.4452C98.6044 70.4452 98.6044 70.4452 98.8537 70.6181C98.9277 70.7365 98.9277 70.7365 99.0032 70.8573C99.059 70.9422 99.1149 71.0272 99.1724 71.1148C99.2525 71.2495 99.2525 71.2495 99.3343 71.387C99.392 71.4768 99.4498 71.5667 99.5094 71.6592C99.6509 71.8804 99.7884 72.1032 99.9229 72.3288C100.144 72.064 100.343 71.7948 100.527 71.5029C100.588 71.4096 100.588 71.4096 100.65 71.3143C100.734 71.1861 100.816 71.056 100.895 70.9244C101.021 70.7377 101.021 70.7377 101.336 70.4452C101.677 70.4452 102.019 70.4452 102.372 70.4452C102.372 72.0924 102.372 73.7396 102.372 75.4367C102.03 75.4367 101.688 75.4367 101.336 75.4367C101.304 74.4421 101.273 73.4476 101.241 72.423C100.959 72.8242 100.959 72.8242 100.681 73.2288C100.452 73.5397 100.356 73.636 99.9633 73.7139C99.5634 73.6314 99.4685 73.5222 99.2342 73.194C99.1724 73.1099 99.1106 73.0258 99.0469 72.9391C98.9296 72.7679 98.8137 72.5957 98.6986 72.423C98.6675 73.4175 98.6364 74.412 98.6044 75.4367C98.2314 75.4367 97.8585 75.4367 97.4742 75.4367C97.4742 73.7895 97.4742 72.1423 97.4742 70.4452Z" fill="#E35A50"/>
<path d="M86.0787 70.4452C89.2585 70.4452 89.2585 70.4452 90.0876 71.2325C90.6096 71.8299 90.724 72.4395 90.7137 73.2117C90.6682 73.7676 90.4931 74.3254 90.1037 74.7394C89.2599 75.4212 88.4244 75.5128 87.3737 75.472C86.7327 75.4545 86.7327 75.4545 86.0787 75.4367C86.0787 73.7895 86.0787 72.1423 86.0787 70.4452ZM87.2089 71.4812C87.2089 72.4757 87.2089 73.4702 87.2089 74.4949C88.2809 74.5602 88.2809 74.5602 89.1392 74.0744C89.5324 73.6188 89.5911 73.3406 89.5836 72.7563C89.545 72.3003 89.3754 72.0396 89.0453 71.7343C88.4244 71.3152 88.1064 71.4812 87.2089 71.4812Z" fill="#E35A51"/>
<path d="M92.2003 70.4452C93.4124 70.4452 94.6245 70.4452 95.8733 70.4452C95.8733 70.7871 95.8733 71.129 95.8733 71.4812C95.0341 71.4812 94.195 71.4812 93.3305 71.4812C93.3305 71.7609 93.3305 72.0406 93.3305 72.3288C94.0142 72.3288 94.6979 72.3288 95.4024 72.3288C95.4024 72.6396 95.4024 72.9504 95.4024 73.2706C94.7186 73.2706 94.0349 73.2706 93.3305 73.2706C93.3305 73.6746 93.3305 74.0786 93.3305 74.4949C94.2007 74.4949 95.0709 74.4949 95.9674 74.4949C95.9674 74.8057 95.9674 75.1165 95.9674 75.4367C94.7243 75.4367 93.4811 75.4367 92.2003 75.4367C92.2003 73.7895 92.2003 72.1423 92.2003 70.4452Z" fill="#E45A51"/>
<path d="M81.7941 70.436C81.9366 70.4377 81.9366 70.4377 82.0821 70.4393C82.1774 70.4402 82.2727 70.441 82.3709 70.4419C82.4814 70.4436 82.4814 70.4436 82.5942 70.4452C82.8815 71.0046 83.1362 71.5714 83.3785 72.1515C83.4342 72.284 83.4342 72.284 83.4909 72.4193C83.5686 72.6046 83.6462 72.7899 83.7236 72.9753C83.8426 73.2601 83.9622 73.5446 84.0819 73.829C84.1575 74.0095 84.233 74.19 84.3085 74.3705C84.3444 74.4558 84.3803 74.541 84.4173 74.6289C84.45 74.7075 84.4828 74.7861 84.5165 74.8671C84.5455 74.9364 84.5744 75.0056 84.6043 75.077C84.6661 75.2483 84.6661 75.2483 84.6661 75.4367C84.2932 75.4367 83.9202 75.4367 83.536 75.4367C83.171 74.7186 83.171 74.7186 83.0651 74.4007C82.4124 74.4007 81.7598 74.4007 81.0874 74.4007C80.932 74.7426 80.7766 75.0844 80.6165 75.4367C80.2435 75.4367 79.8706 75.4367 79.4863 75.4367C79.6845 74.8187 79.9122 74.2217 80.164 73.6237C80.201 73.5353 80.238 73.4468 80.2761 73.3557C80.3537 73.1704 80.4314 72.9852 80.5093 72.8001C80.6289 72.5155 80.748 72.2307 80.867 71.9458C80.9426 71.7654 81.0183 71.585 81.094 71.4047C81.1297 71.3192 81.1654 71.2338 81.2022 71.1458C81.2352 71.0674 81.2682 70.9891 81.3022 70.9084C81.3458 70.8046 81.3458 70.8046 81.3903 70.6988C81.5036 70.4541 81.5123 70.447 81.7941 70.436ZM82.0291 71.8579C81.9343 72.0715 81.8403 72.2854 81.7466 72.4995C81.7197 72.56 81.6927 72.6205 81.6649 72.6829C81.5453 72.9577 81.4641 73.1559 81.4641 73.4589C81.8681 73.4589 82.2721 73.4589 82.6884 73.4589C82.5293 72.906 82.3622 72.3811 82.1233 71.8579C82.0922 71.8579 82.0612 71.8579 82.0291 71.8579Z" fill="#E35A50"/>
<path d="M70.5869 70.436C70.7295 70.4377 70.7295 70.4377 70.875 70.4393C70.9703 70.4402 71.0656 70.441 71.1637 70.4419C71.2743 70.4436 71.2743 70.4436 71.3871 70.4452C71.6743 71.0046 71.929 71.5714 72.1714 72.1515C72.227 72.284 72.227 72.284 72.2838 72.4193C72.3615 72.6046 72.439 72.7899 72.5165 72.9753C72.6355 73.2601 72.7551 73.5446 72.8748 73.829C72.9503 74.0095 73.0259 74.19 73.1014 74.3705C73.1373 74.4558 73.1732 74.541 73.2102 74.6289C73.2429 74.7075 73.2756 74.7861 73.3093 74.8671C73.3383 74.9364 73.3673 75.0056 73.3971 75.077C73.459 75.2483 73.459 75.2483 73.459 75.4367C73.086 75.4367 72.7131 75.4367 72.3288 75.4367C71.9639 74.7186 71.9639 74.7186 71.8579 74.4007C71.2053 74.4007 70.5526 74.4007 69.8802 74.4007C69.7248 74.7426 69.5694 75.0844 69.4093 75.4367C69.0364 75.4367 68.6634 75.4367 68.2792 75.4367C68.4774 74.8187 68.7051 74.2217 68.9568 73.6237C68.9938 73.5353 69.0308 73.4468 69.0689 73.3557C69.1465 73.1704 69.2242 72.9852 69.3021 72.8001C69.4218 72.5155 69.5408 72.2307 69.6598 71.9458C69.7355 71.7654 69.8111 71.585 69.8868 71.4047C69.9225 71.3192 69.9582 71.2338 69.995 71.1458C70.0281 71.0674 70.0611 70.9891 70.0951 70.9084C70.1387 70.8046 70.1387 70.8046 70.1831 70.6988C70.2964 70.4541 70.3051 70.447 70.5869 70.436ZM70.822 71.8579C70.7272 72.0715 70.6331 72.2854 70.5394 72.4995C70.5125 72.56 70.4855 72.6205 70.4578 72.6829C70.3382 72.9577 70.2569 73.1559 70.2569 73.4589C70.6609 73.4589 71.065 73.4589 71.4812 73.4589C71.3222 72.906 71.155 72.3811 70.9162 71.8579C70.8851 71.8579 70.854 71.8579 70.822 71.8579Z" fill="#E35A50"/>
<path d="M78.262 70.6336C78.262 71.0065 78.262 71.3795 78.262 71.7637C78.1396 71.7171 78.0173 71.6705 77.8912 71.6224C77.2883 71.4249 76.7561 71.3743 76.1606 71.6224C75.7487 71.8551 75.571 72.1653 75.4367 72.6113C75.3578 73.1632 75.499 73.5749 75.8134 74.024C76.2104 74.3759 76.6046 74.5057 77.1319 74.4949C77.5638 74.4286 77.9503 74.2805 78.3562 74.1182C78.3562 74.4911 78.3562 74.864 78.3562 75.2483C77.8808 75.4811 77.4889 75.5801 76.9553 75.572C76.8892 75.5714 76.8232 75.5707 76.7552 75.5701C75.9491 75.5452 75.3364 75.2676 74.7774 74.6832C74.2201 73.9357 74.2107 73.1252 74.3065 72.2346C74.4631 71.5105 74.9331 71.0456 75.5308 70.6336C76.3894 70.1717 77.3976 70.2346 78.262 70.6336Z" fill="#E35A50"/>
<path d="M103.596 70.4452C104.065 70.3466 104.449 70.3166 104.914 70.4452C105.324 70.8217 105.593 71.328 105.855 71.8137C105.886 71.8594 105.918 71.905 105.95 71.9521C106.012 71.9521 106.075 71.9521 106.139 71.9521C106.243 71.8087 106.243 71.8087 106.341 71.6224C107 70.4964 107 70.4964 107.515 70.3452C107.822 70.3505 108.1 70.3767 108.399 70.4452C108.267 70.8151 108.092 71.109 107.866 71.4293C107.799 71.5247 107.732 71.62 107.663 71.7183C107.593 71.8168 107.523 71.9153 107.451 72.0168C107.313 72.2133 107.174 72.4099 107.036 72.6065C106.974 72.6933 106.913 72.7801 106.85 72.8695C106.63 73.1901 106.595 73.3763 106.58 73.7628C106.576 73.8599 106.572 73.957 106.568 74.0571C106.564 74.1588 106.56 74.2606 106.557 74.3654C106.552 74.4678 106.548 74.5703 106.544 74.6759C106.534 74.9295 106.525 75.1831 106.515 75.4367C106.173 75.4367 105.832 75.4367 105.479 75.4367C105.485 75.291 105.49 75.1453 105.495 74.9952C105.511 73.6628 105.351 72.8509 104.485 71.8341C104.271 71.5747 104.092 71.2976 103.908 71.0162C103.847 70.926 103.787 70.8358 103.724 70.7428C103.596 70.5394 103.596 70.5394 103.596 70.4452Z" fill="#E35A50"/>
<path d="M97.4742 70.4452C98.6044 70.4452 98.6044 70.4452 98.8537 70.6181C98.9277 70.7365 98.9277 70.7365 99.0032 70.8573C99.059 70.9422 99.1149 71.0272 99.1724 71.1148C99.2525 71.2495 99.2525 71.2495 99.3343 71.387C99.392 71.4768 99.4498 71.5667 99.5094 71.6592C99.6509 71.8804 99.7884 72.1032 99.9229 72.3288C100.144 72.064 100.343 71.7948 100.527 71.5029C100.588 71.4096 100.588 71.4096 100.65 71.3143C100.734 71.1861 100.816 71.056 100.895 70.9244C101.021 70.7377 101.021 70.7377 101.336 70.4452C101.677 70.4452 102.019 70.4452 102.372 70.4452C102.372 72.0924 102.372 73.7396 102.372 75.4367C102.03 75.4367 101.688 75.4367 101.336 75.4367C101.304 74.4421 101.273 73.4476 101.241 72.423C100.959 72.8242 100.959 72.8242 100.681 73.2288C100.452 73.5397 100.356 73.636 99.9633 73.7139C99.5634 73.6314 99.4685 73.5222 99.2342 73.194C99.1724 73.1099 99.1106 73.0258 99.0469 72.9391C98.9296 72.7679 98.8137 72.5957 98.6986 72.423C98.6675 73.4175 98.6364 74.412 98.6044 75.4367C98.2314 75.4367 97.8585 75.4367 97.4742 75.4367C97.4742 73.7895 97.4742 72.1423 97.4742 70.4452Z" fill="#E35A50"/>
<path d="M86.0787 70.4452C89.2585 70.4452 89.2585 70.4452 90.0876 71.2325C90.6096 71.8299 90.724 72.4395 90.7137 73.2117C90.6682 73.7676 90.4931 74.3254 90.1037 74.7394C89.2599 75.4212 88.4244 75.5128 87.3737 75.472C86.7327 75.4545 86.7327 75.4545 86.0787 75.4367C86.0787 73.7895 86.0787 72.1423 86.0787 70.4452ZM87.2089 71.4812C87.2089 72.4757 87.2089 73.4702 87.2089 74.4949C88.2809 74.5602 88.2809 74.5602 89.1392 74.0744C89.5324 73.6188 89.5911 73.3406 89.5836 72.7563C89.545 72.3003 89.3754 72.0396 89.0453 71.7343C88.4244 71.3152 88.1064 71.4812 87.2089 71.4812Z" fill="#E35A51"/>
<path d="M92.2003 70.4452C93.4124 70.4452 94.6245 70.4452 95.8733 70.4452C95.8733 70.7871 95.8733 71.129 95.8733 71.4812C95.0341 71.4812 94.195 71.4812 93.3305 71.4812C93.3305 71.7609 93.3305 72.0406 93.3305 72.3288C94.0142 72.3288 94.6979 72.3288 95.4024 72.3288C95.4024 72.6396 95.4024 72.9504 95.4024 73.2706C94.7186 73.2706 94.0349 73.2706 93.3305 73.2706C93.3305 73.6746 93.3305 74.0786 93.3305 74.4949C94.2007 74.4949 95.0709 74.4949 95.9674 74.4949C95.9674 74.8057 95.9674 75.1165 95.9674 75.4367C94.7243 75.4367 93.4811 75.4367 92.2003 75.4367C92.2003 73.7895 92.2003 72.1423 92.2003 70.4452Z" fill="#E45A51"/>
<path d="M81.7941 70.436C81.9366 70.4377 81.9366 70.4377 82.0821 70.4393C82.1774 70.4402 82.2727 70.441 82.3709 70.4419C82.4814 70.4436 82.4814 70.4436 82.5942 70.4452C82.8815 71.0046 83.1362 71.5714 83.3785 72.1515C83.4342 72.284 83.4342 72.284 83.4909 72.4193C83.5686 72.6046 83.6462 72.7899 83.7236 72.9753C83.8426 73.2601 83.9622 73.5446 84.0819 73.829C84.1575 74.0095 84.233 74.19 84.3085 74.3705C84.3444 74.4558 84.3803 74.541 84.4173 74.6289C84.45 74.7075 84.4828 74.7861 84.5165 74.8671C84.5455 74.9364 84.5744 75.0056 84.6043 75.077C84.6661 75.2483 84.6661 75.2483 84.6661 75.4367C84.2932 75.4367 83.9202 75.4367 83.536 75.4367C83.171 74.7186 83.171 74.7186 83.0651 74.4007C82.4124 74.4007 81.7598 74.4007 81.0874 74.4007C80.932 74.7426 80.7766 75.0844 80.6165 75.4367C80.2435 75.4367 79.8706 75.4367 79.4863 75.4367C79.6845 74.8187 79.9122 74.2217 80.164 73.6237C80.201 73.5353 80.238 73.4468 80.2761 73.3557C80.3537 73.1704 80.4314 72.9852 80.5093 72.8001C80.6289 72.5155 80.748 72.2307 80.867 71.9458C80.9426 71.7654 81.0183 71.585 81.094 71.4047C81.1297 71.3192 81.1654 71.2338 81.2022 71.1458C81.2352 71.0674 81.2682 70.9891 81.3022 70.9084C81.3458 70.8046 81.3458 70.8046 81.3903 70.6988C81.5036 70.4541 81.5123 70.447 81.7941 70.436ZM82.0291 71.8579C81.9343 72.0715 81.8403 72.2854 81.7466 72.4995C81.7197 72.56 81.6927 72.6205 81.6649 72.6829C81.5453 72.9577 81.4641 73.1559 81.4641 73.4589C81.8681 73.4589 82.2721 73.4589 82.6884 73.4589C82.5293 72.906 82.3622 72.3811 82.1233 71.8579C82.0922 71.8579 82.0612 71.8579 82.0291 71.8579Z" fill="#E35A50"/>
<path d="M70.5869 70.436C70.7295 70.4377 70.7295 70.4377 70.875 70.4393C70.9703 70.4402 71.0656 70.441 71.1637 70.4419C71.2743 70.4436 71.2743 70.4436 71.3871 70.4452C71.6743 71.0046 71.929 71.5714 72.1714 72.1515C72.227 72.284 72.227 72.284 72.2838 72.4193C72.3615 72.6046 72.439 72.7899 72.5165 72.9753C72.6355 73.2601 72.7551 73.5446 72.8748 73.829C72.9503 74.0095 73.0259 74.19 73.1014 74.3705C73.1373 74.4558 73.1732 74.541 73.2102 74.6289C73.2429 74.7075 73.2756 74.7861 73.3093 74.8671C73.3383 74.9364 73.3673 75.0056 73.3971 75.077C73.459 75.2483 73.459 75.2483 73.459 75.4367C73.086 75.4367 72.7131 75.4367 72.3288 75.4367C71.9639 74.7186 71.9639 74.7186 71.8579 74.4007C71.2053 74.4007 70.5526 74.4007 69.8802 74.4007C69.7248 74.7426 69.5694 75.0844 69.4093 75.4367C69.0364 75.4367 68.6634 75.4367 68.2792 75.4367C68.4774 74.8187 68.7051 74.2217 68.9568 73.6237C68.9938 73.5353 69.0308 73.4468 69.0689 73.3557C69.1465 73.1704 69.2242 72.9852 69.3021 72.8001C69.4218 72.5155 69.5408 72.2307 69.6598 71.9458C69.7355 71.7654 69.8111 71.585 69.8868 71.4047C69.9225 71.3192 69.9582 71.2338 69.995 71.1458C70.0281 71.0674 70.0611 70.9891 70.0951 70.9084C70.1387 70.8046 70.1387 70.8046 70.1831 70.6988C70.2964 70.4541 70.3051 70.447 70.5869 70.436ZM70.822 71.8579C70.7272 72.0715 70.6331 72.2854 70.5394 72.4995C70.5125 72.56 70.4855 72.6205 70.4578 72.6829C70.3382 72.9577 70.2569 73.1559 70.2569 73.4589C70.6609 73.4589 71.065 73.4589 71.4812 73.4589C71.3222 72.906 71.155 72.3811 70.9162 71.8579C70.8851 71.8579 70.854 71.8579 70.822 71.8579Z" fill="#E35A50"/>
<path d="M78.262 70.6336C78.262 71.0065 78.262 71.3795 78.262 71.7637C78.1396 71.7171 78.0173 71.6705 77.8912 71.6224C77.2883 71.4249 76.7561 71.3743 76.1606 71.6224C75.7487 71.8551 75.571 72.1653 75.4367 72.6113C75.3578 73.1632 75.499 73.5749 75.8134 74.024C76.2104 74.3759 76.6046 74.5057 77.1319 74.4949C77.5638 74.4286 77.9503 74.2805 78.3562 74.1182C78.3562 74.4911 78.3562 74.864 78.3562 75.2483C77.8808 75.4811 77.4889 75.5801 76.9553 75.572C76.8892 75.5714 76.8232 75.5707 76.7552 75.5701C75.9491 75.5452 75.3364 75.2676 74.7774 74.6832C74.2201 73.9357 74.2107 73.1252 74.3065 72.2346C74.4631 71.5105 74.9331 71.0456 75.5308 70.6336C76.3894 70.1717 77.3976 70.2346 78.262 70.6336Z" fill="#E35A50"/>
<path d="M103.596 70.4452C104.065 70.3466 104.449 70.3166 104.914 70.4452C105.324 70.8217 105.593 71.328 105.855 71.8137C105.886 71.8594 105.918 71.905 105.95 71.9521C106.012 71.9521 106.075 71.9521 106.139 71.9521C106.243 71.8087 106.243 71.8087 106.341 71.6224C107 70.4964 107 70.4964 107.515 70.3452C107.822 70.3505 108.1 70.3767 108.399 70.4452C108.267 70.8151 108.092 71.109 107.866 71.4293C107.799 71.5247 107.732 71.62 107.663 71.7183C107.593 71.8168 107.523 71.9153 107.451 72.0168C107.313 72.2133 107.174 72.4099 107.036 72.6065C106.974 72.6933 106.913 72.7801 106.85 72.8695C106.63 73.1901 106.595 73.3763 106.58 73.7628C106.576 73.8599 106.572 73.957 106.568 74.0571C106.564 74.1588 106.56 74.2606 106.557 74.3654C106.552 74.4678 106.548 74.5703 106.544 74.6759C106.534 74.9295 106.525 75.1831 106.515 75.4367C106.173 75.4367 105.832 75.4367 105.479 75.4367C105.485 75.291 105.49 75.1453 105.495 74.9952C105.511 73.6628 105.351 72.8509 104.485 71.8341C104.271 71.5747 104.092 71.2976 103.908 71.0162C103.847 70.926 103.787 70.8358 103.724 70.7428C103.596 70.5394 103.596 70.5394 103.596 70.4452Z" fill="#E35A50"/>
</svg>
