<svg width="350" height="350" viewBox="0 0 350 350" fill="none" xmlns="http://www.w3.org/2000/svg">
<path d="M35.9563 218.318L40.1619 220.314C40.1619 220.314 41.8377 216.782 45.5372 218.46C47.4587 219.332 47.8542 221.049 47.8024 222.196C47.7415 223.528 47.0002 224.727 45.8865 225.46C44.6153 226.298 42.5447 226.625 39.947 224.781L37.0189 230.953L41.1776 232.926L42.2423 230.683C42.2423 230.683 48.7901 231.942 51.84 225.515C54.7576 219.365 49.9206 215.319 47.5595 214.199C45.7542 213.342 39.3975 210.861 35.9563 218.318Z" fill="#E0E0E0"/>
<path d="M40.4612 234.561L36.2402 232.558L34.3698 236.5L38.5907 238.503L40.4612 234.561Z" fill="#E0E0E0"/>
<path d="M76.7964 286.554L81.5466 287.897C81.5466 287.897 82.675 283.908 86.84 285.009C89.003 285.581 89.7205 287.307 89.8682 288.516C90.0397 289.919 89.4762 291.304 88.4416 292.267C87.26 293.367 85.153 294.076 82.1115 292.606L80.1396 299.576L84.8366 300.905L85.5534 298.371C85.5534 298.371 92.6227 298.531 94.6765 291.271C96.6414 284.325 90.8678 280.949 88.2015 280.195C86.1631 279.619 79.077 278.148 76.7964 286.554Z" fill="#E0E0E0"/>
<path d="M84.3724 302.749L79.6052 301.4L78.3458 305.853L83.1129 307.201L84.3724 302.749Z" fill="#E0E0E0"/>
<path d="M276.011 136.694L280.564 136.779C282.483 138.934 285.003 140.604 287.971 141.493C296.506 144.051 305.498 139.205 308.056 130.671C310.614 122.136 305.768 113.144 297.233 110.586C288.698 108.028 279.706 112.873 277.148 121.408C276.08 124.972 276.307 128.614 277.55 131.835L277.544 131.828L276.011 136.694Z" fill="white"/>
<path d="M276.011 136.695C276.006 136.699 276.034 136.597 276.093 136.391C276.16 136.165 276.25 135.859 276.367 135.465C276.623 134.616 276.994 133.391 277.472 131.805C277.484 131.764 277.527 131.741 277.568 131.753C277.584 131.758 277.599 131.77 277.609 131.783L277.614 131.79L277.479 131.862C276.725 129.943 276.087 127.224 276.476 124.012C276.66 122.412 277.143 120.72 277.932 119.045C278.719 117.37 279.85 115.718 281.345 114.284C282.835 112.849 284.687 111.634 286.799 110.827C288.907 110.018 291.274 109.621 293.692 109.778C298.525 110.031 303.526 112.774 306.367 117.305C307.806 119.602 308.694 122.202 308.856 124.804C309.049 127.403 308.608 129.972 307.678 132.254C306.735 134.534 305.291 136.508 303.595 138.05C301.897 139.596 299.946 140.712 297.966 141.398C293.981 142.781 290 142.419 286.995 141.289C283.953 140.157 281.839 138.348 280.509 136.827L280.563 136.851C279.093 136.805 277.952 136.769 277.156 136.744C276.791 136.73 276.505 136.719 276.293 136.711C276.1 136.704 276.006 136.699 276.011 136.695C276.017 136.691 276.122 136.689 276.323 136.688C276.54 136.688 276.832 136.688 277.206 136.688C277.99 136.692 279.116 136.697 280.565 136.705C280.586 136.705 280.606 136.716 280.619 136.73C281.961 138.216 284.069 139.978 287.076 141.069C290.048 142.159 293.961 142.486 297.865 141.112C299.805 140.429 301.713 139.327 303.372 137.807C305.029 136.291 306.437 134.356 307.355 132.121C308.261 129.886 308.687 127.372 308.496 124.832C308.335 122.287 307.465 119.746 306.058 117.5C303.28 113.071 298.397 110.384 293.668 110.126C288.91 109.796 284.467 111.692 281.555 114.505C280.082 115.906 278.964 117.521 278.181 119.162C277.395 120.805 276.907 122.468 276.714 124.041C276.305 127.202 276.905 129.893 277.622 131.806C277.638 131.846 277.619 131.89 277.579 131.907C277.545 131.92 277.507 131.907 277.487 131.879L277.482 131.872L277.619 131.851C277.108 133.402 276.714 134.602 276.441 135.433C276.308 135.831 276.203 136.14 276.128 136.368C276.056 136.58 276.011 136.695 276.011 136.695Z" fill="#E0E0E0"/>
<path d="M287.251 123.826H290.103C290.103 123.826 290.103 121.431 292.592 121.388C293.884 121.366 294.554 122.212 294.826 122.861C295.142 123.614 295.046 124.473 294.623 125.171C294.139 125.968 293.079 126.693 291.157 126.354V130.539H293.977V129.018C293.977 129.018 297.932 127.996 297.932 123.638C297.932 119.468 294.192 118.5 292.592 118.5C291.367 118.499 287.198 118.795 287.251 123.826Z" fill="#E0E0E0"/>
<path d="M294.011 131.625H291.15V134.298H294.011V131.625Z" fill="#E0E0E0"/>
<path d="M98.4348 50.3944H111.805C111.805 50.3944 111.805 39.1685 123.471 38.9669C129.53 38.8626 132.671 42.8316 133.948 45.8717C135.43 49.4025 134.981 53.4261 132.996 56.7C130.728 60.4387 125.759 63.8372 116.748 62.2496V81.8699H129.969V74.7369C129.969 74.7369 148.511 69.944 148.511 49.5096C148.511 29.9586 130.978 25.4177 123.473 25.4177C117.733 25.4191 98.1821 26.8072 98.4348 50.3944Z" fill="#E0E0E0"/>
<path d="M130.128 86.9639H116.711V99.4953H130.128V86.9639Z" fill="#E0E0E0"/>
<path d="M86.5444 96.9676L76.0276 94.1592C76.0276 94.1592 73.6693 102.989 64.451 100.697C59.663 99.5058 58.0264 95.7244 57.661 93.0644C57.2368 89.976 58.4352 86.9051 60.6843 84.747C63.2533 82.2823 67.8761 80.6534 74.6304 83.795L78.752 68.3628L68.3535 65.5859L66.8555 71.1964C66.8555 71.1964 51.2644 71.0718 46.972 87.1438C42.8651 102.522 55.7017 109.777 61.6048 111.353C66.1184 112.558 81.7879 115.574 86.5444 96.9676Z" fill="#EBEBEB"/>
<path d="M69.2993 61.5494L79.8525 64.3677L82.4846 54.5117L71.9314 51.6935L69.2993 61.5494Z" fill="#EBEBEB"/>
<path d="M289.258 215.05L297.998 215.993C297.998 215.993 298.789 208.654 306.431 209.344C310.399 209.702 312.173 212.519 312.793 214.597C313.513 217.01 312.936 219.609 311.407 221.609C309.661 223.894 306.172 225.765 300.394 224.092L299.011 236.918L307.654 237.85L308.157 233.187C308.157 233.187 320.616 231.36 322.057 218.002C323.434 205.221 312.292 201.016 307.386 200.488C303.634 200.083 290.755 199.613 289.258 215.05Z" fill="#EBEBEB"/>
<path d="M307.384 241.186L298.613 240.241L297.73 248.433L306.501 249.378L307.384 241.186Z" fill="#EBEBEB"/>
<path d="M34.4519 267.476L43.638 266.485C43.638 266.485 42.8064 258.772 50.8074 257.769C54.9626 257.249 57.4147 259.743 58.5172 261.738C59.7968 264.054 59.787 266.852 58.6649 269.248C57.3839 271.985 54.2213 274.688 47.9122 274.265L49.3654 287.745L58.4493 286.766L57.9208 281.865C57.9208 281.865 70.3052 277.199 68.7918 263.159C67.3435 249.726 54.9605 247.905 49.8043 248.461C45.8619 248.886 32.5318 251.287 34.4519 267.476Z" fill="#F5F5F5"/>
<path d="M58.9381 290.241L49.7197 291.235L50.648 299.845L59.8665 298.851L58.9381 290.241Z" fill="#F5F5F5"/>
<path d="M162.196 60.5151L170.276 58.1568C170.276 58.1568 168.296 51.3731 175.311 49.1933C178.954 48.0614 181.553 49.9059 182.86 51.518C184.379 53.3898 184.818 55.9007 184.195 58.2296C183.484 60.8889 181.081 63.8198 175.356 64.4498L178.816 76.3064L186.806 73.974L185.548 69.6634C185.548 69.6634 195.908 63.4957 192.303 51.1477C188.854 39.3324 177.458 39.681 172.922 41.0054C169.453 42.0183 157.883 46.3051 162.196 60.5151Z" fill="#F5F5F5"/>
<path d="M187.792 77.0214L179.684 79.3882L181.895 86.9608L190.003 84.594L187.792 77.0214Z" fill="#F5F5F5"/>
<path d="M306.483 177.837L313.009 175.933C313.009 175.933 311.41 170.454 317.076 168.693C320.018 167.779 322.117 169.269 323.173 170.571C324.399 172.083 324.753 174.11 324.251 175.991C323.677 178.14 321.735 180.506 317.111 181.015L319.906 190.592L326.358 188.708L325.342 185.227C325.342 185.227 333.709 180.246 330.798 170.272C328.012 160.73 318.807 161.011 315.145 162.08C312.344 162.897 302.999 166.36 306.483 177.837Z" fill="#F5F5F5"/>
<path d="M327.148 191.164L320.599 193.076L322.385 199.192L328.933 197.28L327.148 191.164Z" fill="#F5F5F5"/>
<path d="M327.804 335.196C327.804 335.297 259.386 335.378 175.008 335.378C90.5996 335.378 22.1963 335.296 22.1963 335.196C22.1963 335.096 90.5996 335.014 175.008 335.014C259.386 335.014 327.804 335.096 327.804 335.196Z" fill="#263238"/>
<path d="M288.504 84.2525C290.872 69.3098 280.678 55.277 265.735 52.9093C250.792 50.5417 236.759 60.7358 234.392 75.6785C232.024 90.6212 242.218 104.654 257.161 107.022C272.104 109.389 286.136 99.1952 288.504 84.2525Z" fill="white"/>
<path d="M288.835 79.9686C288.835 79.9686 288.814 79.8181 288.793 79.5255C288.774 79.2196 288.746 78.7877 288.709 78.2256C288.692 77.9386 288.673 77.6194 288.652 77.268C288.615 76.9173 288.54 76.5372 288.478 76.1242C288.413 75.7105 288.342 75.266 288.266 74.7914C288.21 74.3126 288.031 73.8261 287.908 73.2983C287.426 71.1829 286.435 68.6825 284.874 66.033C283.3 63.3947 281.029 60.6381 277.936 58.298C277.548 58.0089 277.155 57.7163 276.758 57.4202C276.343 57.1486 275.907 56.9001 275.476 56.6348C275.036 56.3849 274.618 56.0804 274.147 55.8662C273.68 55.6422 273.208 55.4161 272.732 55.1879C272.493 55.0745 272.253 54.9611 272.012 54.847C271.762 54.756 271.51 54.6643 271.256 54.5719C270.75 54.3878 270.238 54.2016 269.723 54.0133C269.202 53.8411 268.656 53.7305 268.117 53.5835C267.573 53.4603 267.037 53.2685 266.469 53.2104C265.343 53.0508 264.204 52.8184 263.025 52.8121C262.438 52.7918 261.846 52.7344 261.25 52.7442C260.653 52.775 260.053 52.8065 259.447 52.8373C259.146 52.8583 258.84 52.8562 258.537 52.8961L257.629 53.0361C257.023 53.1369 256.407 53.2076 255.797 53.3336C254.596 53.6605 253.351 53.9048 252.167 54.399C250.946 54.7896 249.798 55.3937 248.617 55.9593C248.042 56.2708 247.491 56.6341 246.921 56.9722C246.643 57.1507 246.345 57.3026 246.08 57.5035L245.279 58.1034C244.172 58.8629 243.204 59.8128 242.191 60.7277C241.275 61.7406 240.313 62.7325 239.524 63.8826L238.898 64.7198L238.35 65.6151L237.803 66.5167C237.612 66.8135 237.438 67.1201 237.296 67.4449C236.989 68.0819 236.681 68.7217 236.372 69.3643C236.127 70.0335 235.88 70.7055 235.633 71.3796C234.746 74.111 234.268 77.0125 234.229 79.9651C234.268 82.9184 234.744 85.8206 235.632 88.5534C235.879 89.2282 236.125 89.9002 236.37 90.5694C236.68 91.212 236.988 91.8518 237.294 92.4895L237.527 92.9655L237.801 93.4177L238.349 94.3193L238.897 95.2153L239.522 96.0532C240.312 97.2033 241.274 98.1959 242.189 99.2088C243.203 100.124 244.17 101.074 245.277 101.834L246.079 102.434C246.344 102.636 246.641 102.788 246.92 102.966C247.489 103.304 248.041 103.667 248.615 103.979C249.796 104.546 250.945 105.149 252.167 105.54C253.35 106.035 254.596 106.279 255.797 106.606C256.407 106.732 257.023 106.804 257.629 106.904L258.537 107.044C258.84 107.084 259.145 107.082 259.447 107.103C260.053 107.134 260.653 107.165 261.25 107.196C261.846 107.205 262.438 107.148 263.025 107.127C264.204 107.121 265.343 106.889 266.47 106.729C267.038 106.671 267.574 106.479 268.119 106.356C268.658 106.21 269.203 106.099 269.724 105.926C270.24 105.738 270.751 105.552 271.258 105.367C271.511 105.275 271.763 105.183 272.014 105.092C272.254 104.978 272.495 104.864 272.733 104.751C273.21 104.523 273.682 104.297 274.149 104.073C274.62 103.859 275.038 103.555 275.478 103.305C275.909 103.039 276.346 102.791 276.76 102.519C277.157 102.223 277.55 101.93 277.938 101.641C281.031 99.3012 283.302 96.5446 284.875 93.9056C286.436 91.2554 287.427 88.7564 287.909 86.641C288.032 86.1132 288.21 85.6267 288.266 85.1479C288.342 84.6733 288.413 84.2288 288.478 83.8151C288.54 83.4021 288.615 83.022 288.652 82.6713C288.673 82.3199 288.692 82.0007 288.709 81.7137C288.746 81.1516 288.773 80.7197 288.793 80.4138C288.814 80.1191 288.835 79.9686 288.835 79.9686C288.835 79.9686 288.84 80.1191 288.831 80.4124C288.82 80.719 288.804 81.1523 288.784 81.7165C288.772 82.0042 288.758 82.3248 288.744 82.6776C288.712 83.0297 288.643 83.4119 288.587 83.8277C288.526 84.2435 288.461 84.6908 288.391 85.1689C288.339 85.6512 288.166 86.1412 288.048 86.6732C287.584 88.8047 286.608 91.3282 285.052 94.0078C283.483 96.6762 281.207 99.4685 278.096 101.844C277.705 102.137 277.309 102.434 276.909 102.735C276.493 103.011 276.053 103.263 275.619 103.533C275.176 103.788 274.755 104.096 274.279 104.315C273.808 104.543 273.332 104.772 272.852 105.006C272.611 105.12 272.369 105.237 272.126 105.353C271.873 105.446 271.618 105.54 271.363 105.633C270.852 105.821 270.336 106.011 269.814 106.203C269.289 106.378 268.738 106.492 268.193 106.642C267.643 106.769 267.101 106.963 266.527 107.024C265.389 107.19 264.238 107.427 263.045 107.437C262.452 107.459 261.853 107.518 261.25 107.51C260.646 107.48 260.039 107.451 259.426 107.421C259.12 107.4 258.812 107.402 258.506 107.362L257.587 107.223C256.973 107.123 256.349 107.052 255.732 106.926C254.514 106.598 253.254 106.352 252.054 105.854C250.817 105.46 249.652 104.852 248.456 104.279C247.873 103.964 247.314 103.598 246.737 103.256C246.455 103.076 246.154 102.922 245.885 102.719L245.072 102.112C243.951 101.343 242.969 100.383 241.942 99.4566C241.012 98.4318 240.038 97.4273 239.236 96.2632L238.601 95.4148L238.045 94.5076L237.49 93.5948L237.212 93.137L236.976 92.6547C236.664 92.0093 236.352 91.3604 236.039 90.7094C235.79 90.0311 235.54 89.35 235.289 88.6668C234.389 85.8983 233.905 82.9562 233.866 79.9637C233.905 76.9726 234.39 74.0319 235.29 71.2641C235.541 70.5809 235.791 69.8998 236.04 69.2222C236.354 68.5719 236.666 67.9237 236.977 67.2776C237.122 66.9486 237.299 66.6385 237.492 66.3375L238.047 65.4247L238.603 64.5182L239.237 63.6698C240.038 62.5057 241.013 61.5019 241.942 60.4771C242.969 59.551 243.951 58.5906 245.071 57.8227L245.884 57.2165C246.153 57.0135 246.455 56.8595 246.737 56.6789C247.313 56.3373 247.872 55.9712 248.454 55.6562C249.651 55.0836 250.815 54.476 252.052 54.0819C253.251 53.5842 254.512 53.3385 255.729 53.0102C256.346 52.8835 256.97 52.8128 257.583 52.7127L258.502 52.5734C258.808 52.5335 259.118 52.5363 259.423 52.5153C260.035 52.4852 260.643 52.4551 261.246 52.4257C261.85 52.418 262.448 52.4768 263.042 52.4985C264.235 52.5083 265.385 52.7456 266.524 52.9108C267.098 52.9717 267.639 53.1663 268.19 53.293C268.734 53.4428 269.285 53.5569 269.811 53.7326C270.332 53.9244 270.847 54.1141 271.359 54.3017C271.615 54.3955 271.869 54.4893 272.122 54.5824C272.366 54.6986 272.607 54.8141 272.848 54.9296C273.328 55.162 273.804 55.3923 274.275 55.6205C274.751 55.8382 275.172 56.1469 275.615 56.4017C276.05 56.6719 276.489 56.9246 276.906 57.2004C277.306 57.5007 277.702 57.7982 278.092 58.0915C281.204 60.4666 283.48 63.2589 285.049 65.9273C286.606 68.6069 287.582 71.1304 288.046 73.2626C288.164 73.7946 288.337 74.2846 288.389 74.7669C288.459 75.245 288.525 75.6923 288.585 76.1081C288.641 76.5239 288.711 76.9061 288.742 77.2582C288.757 77.611 288.77 77.9316 288.782 78.22C288.802 78.7842 288.819 79.2175 288.83 79.5241C288.84 79.8188 288.835 79.9686 288.835 79.9686Z" fill="#263238"/>
<path d="M251.696 75.2738H256.9C256.9 75.2738 256.9 70.9037 261.441 70.826C263.799 70.7854 265.022 72.3303 265.519 73.514C266.096 74.8881 265.922 76.4547 265.148 77.7287C264.265 79.184 262.331 80.507 258.824 79.8889V87.5259H263.97V84.7497C263.97 84.7497 271.188 82.8842 271.188 74.9301C271.188 67.3197 264.363 65.5522 261.442 65.5522C259.208 65.5522 251.598 66.0919 251.696 75.2738Z" fill="#FF725E"/>
<path d="M264.032 89.5083H258.81V94.3859H264.032V89.5083Z" fill="#FF725E"/>
<path d="M248.54 116.519C250.908 116.519 252.827 114.599 252.827 112.232C252.827 109.864 250.908 107.945 248.54 107.945C246.173 107.945 244.254 109.864 244.254 112.232C244.254 114.599 246.173 116.519 248.54 116.519Z" fill="white"/>
<path d="M252.827 112.232C252.789 112.234 252.802 111.85 252.624 111.202C252.449 110.566 252.014 109.639 251.056 108.926C250.131 108.212 248.609 107.814 247.138 108.363C246.413 108.626 245.722 109.12 245.232 109.803C244.728 110.476 244.445 111.34 244.436 112.23C244.445 113.121 244.728 113.985 245.232 114.659C245.722 115.342 246.413 115.836 247.138 116.099C248.609 116.649 250.131 116.25 251.056 115.536C252.014 114.823 252.449 113.896 252.624 113.26C252.802 112.613 252.789 112.23 252.827 112.232C252.84 112.232 252.848 112.326 252.85 112.507C252.857 112.687 252.836 112.958 252.762 113.295C252.624 113.961 252.209 114.957 251.212 115.741C250.251 116.526 248.622 116.991 247.023 116.415C246.235 116.139 245.482 115.609 244.944 114.87C244.392 114.141 244.079 113.199 244.071 112.23C244.079 111.262 244.392 110.32 244.944 109.591C245.481 108.853 246.235 108.323 247.022 108.047C248.622 107.471 250.25 107.936 251.212 108.721C252.208 109.505 252.623 110.501 252.762 111.167C252.835 111.505 252.856 111.775 252.85 111.955C252.848 112.137 252.84 112.232 252.827 112.232Z" fill="#263238"/>
<path d="M254.069 207.678C261.193 231.85 262.861 257.434 258.573 282.294C258.044 285.364 259.392 288.515 262.607 289.397C265.386 290.161 269.177 288.455 269.71 285.364C274.355 258.431 272.94 230.849 265.206 204.608C263.109 197.494 251.96 200.522 254.069 207.678Z" fill="#263238"/>
<path d="M284.378 178.286C281.096 167.016 272.043 157.839 261.271 154.863C263.438 146.801 260.006 137.492 255.742 130.43C251.479 123.369 243.782 118.291 235.965 116.996C227.847 115.65 222.808 116.383 214.942 118.9C210.246 109.907 201.222 105.03 191.582 103.875C181.942 102.72 171.562 108.144 167.655 117.552C166.257 107.662 155.112 101.798 145.911 104.03C136.71 106.261 129.722 114.425 125.414 123.325L249.019 256.291C259.975 260.659 273.49 256.113 280.062 245.85C286.634 235.588 285.625 220.604 277.745 211.432C285.061 202.541 287.66 189.557 284.378 178.286Z" fill="#FF725E"/>
<path d="M181.982 271.931L172.982 270.96L166.183 334.015L175.183 334.986L181.982 271.931Z" fill="#263238"/>
<path d="M196.258 335.01L205.258 334.04L198.459 270.985L189.459 271.955L196.258 335.01Z" fill="#263238"/>
<path d="M82.3845 140.155C86.0721 129.835 92.8243 122.009 103.143 117.739C113.549 113.434 125.295 113.368 136.385 115.328C140.93 116.131 145.601 117.352 149.105 120.357C152.609 123.362 154.576 128.601 152.557 132.752C162.171 127.324 174.641 127.362 184.222 132.848C193.802 138.334 200.147 149.07 200.331 160.108C210.348 159.307 220.861 161.521 228.808 167.671C236.756 173.82 241.672 184.232 239.872 194.118C246.421 193.546 252.702 197.763 256.19 203.336C259.676 208.909 260.815 215.626 261.279 222.183C261.566 226.232 261.607 230.401 260.255 234.228C259.596 236.09 258.617 237.846 258.188 239.774C257.67 242.107 257.992 244.532 258.064 246.921C258.396 257.973 252.894 269.037 243.881 275.442C234.868 281.848 222.61 283.405 212.281 279.456C200.809 291.3 180.25 292.776 167.203 282.693C158.715 285.54 149.724 287.591 140.844 286.45C136.315 285.867 131.835 284.362 127.966 281.917C124.42 279.677 122.386 275.346 119.047 273.295C115.637 271.2 111.778 273.045 107.93 272.994C103.439 272.933 98.9542 271.83 94.9733 269.744C87.3811 265.768 81.7328 258.354 79.6706 250.035C79.2527 248.35 78.9433 246.563 77.8821 245.19C76.9112 243.933 75.4391 243.192 74.0671 242.392C65.5159 237.404 59.3517 228.506 57.6864 218.746C56.0211 208.988 58.8855 198.549 65.2989 191.008C65.2989 191.008 58.8246 174.402 64.916 159.531C71.0095 144.66 82.3845 140.155 82.3845 140.155Z" fill="#FF725E"/>
<g opacity="0.3">
<path d="M279.992 234.016C274.834 242.07 265.4 246.6 256.283 246.068C254.026 252.868 249.659 258.983 243.813 263.138C234.799 269.543 222.542 271.1 212.214 267.152C200.741 278.996 180.182 280.473 167.135 270.389C158.647 273.236 149.656 275.288 140.776 274.146C136.247 273.564 131.767 272.059 127.898 269.613C124.352 267.373 122.318 263.043 118.979 260.992C115.569 258.896 111.71 260.742 107.862 260.69C103.371 260.629 98.8863 259.526 94.9054 257.44C87.3132 253.464 81.6649 246.05 79.6027 237.731C79.1848 236.046 78.8754 234.259 77.8142 232.886C76.8433 231.629 75.3712 230.888 73.9992 230.088C65.609 225.194 59.5274 216.533 57.7284 206.991C57.0214 210.858 56.957 214.841 57.6185 218.718C59.2838 228.477 65.448 237.374 73.9992 242.363C75.3705 243.163 76.8433 243.905 77.8142 245.161C78.8754 246.534 79.1855 248.322 79.6027 250.006C81.6649 258.325 87.3139 265.739 94.9054 269.716C98.8863 271.801 103.371 272.904 107.862 272.965C111.71 273.017 115.569 271.172 118.979 273.267C122.318 275.318 124.352 279.649 127.898 281.889C131.767 284.334 136.247 285.838 140.776 286.421C149.656 287.563 158.647 285.511 167.135 282.664C180.182 292.748 200.741 291.271 212.214 279.427C222.542 283.375 234.8 281.819 243.813 275.413C249.659 271.258 254.025 265.143 256.283 258.343C265.401 258.876 274.834 254.346 279.992 246.291C283.998 240.035 285.182 232.026 283.716 224.648C283.042 227.982 281.808 231.179 279.992 234.016Z" fill="black"/>
</g>
<path d="M130.639 213.665C130.628 213.671 130.533 213.543 130.363 213.291C130.183 213.046 129.965 212.655 129.614 212.199C128.954 211.26 127.903 209.962 126.412 208.555C124.925 207.146 122.948 205.675 120.527 204.46C118.113 203.243 115.233 202.33 112.125 202.021C109.014 201.75 106.014 202.114 103.416 202.863C100.811 203.608 98.5966 204.688 96.8753 205.798C95.1491 206.905 93.8758 207.986 93.0533 208.787C92.6242 209.17 92.3372 209.513 92.116 209.721C91.9018 209.936 91.7849 210.045 91.7751 210.037C91.7653 210.029 91.864 209.903 92.0614 209.672C92.2658 209.448 92.5374 209.087 92.9539 208.686C93.7505 207.849 95.0091 206.728 96.7353 205.582C98.4573 204.433 100.688 203.314 103.323 202.54C105.951 201.762 108.996 201.381 112.16 201.658C115.318 201.972 118.239 202.91 120.678 204.16C123.125 205.408 125.109 206.92 126.589 208.368C128.074 209.814 129.103 211.149 129.73 212.119C130.065 212.59 130.266 212.995 130.425 213.253C130.576 213.517 130.65 213.659 130.639 213.665Z" fill="#263238"/>
<path d="M140.378 255.125C140.372 255.125 140.373 255.041 140.382 254.877C140.394 254.694 140.409 254.454 140.429 254.15C140.455 253.823 140.487 253.429 140.523 252.968C140.598 252.502 140.683 251.968 140.78 251.37C141 250.172 141.371 248.725 141.941 247.088C142.564 245.477 143.326 243.643 144.496 241.797C146.758 238.096 150.33 234.063 155.44 231.296C157.975 229.907 160.886 228.896 163.995 228.415C167.103 227.931 170.402 227.965 173.685 228.55C180.261 229.745 186.038 233.108 189.902 237.403C193.812 241.685 195.841 246.754 196.311 251.086C196.802 255.457 195.833 258.994 194.886 261.217C193.911 263.459 193.027 264.501 193.027 264.501C193.022 264.498 193.062 264.423 193.146 264.283C193.241 264.128 193.367 263.923 193.525 263.663C193.84 263.109 194.301 262.285 194.756 261.163C195.655 258.94 196.573 255.43 196.055 251.116C195.559 246.841 193.53 241.846 189.654 237.629C185.827 233.402 180.119 230.089 173.621 228.908C170.378 228.33 167.121 228.294 164.052 228.768C160.982 229.237 158.11 230.227 155.602 231.591C150.546 234.307 146.988 238.279 144.717 241.931C143.544 243.752 142.772 245.564 142.134 247.158C141.551 248.776 141.163 250.209 140.922 251.396C140.814 251.99 140.718 252.519 140.634 252.982C140.583 253.44 140.541 253.832 140.506 254.156C140.471 254.458 140.443 254.697 140.422 254.878C140.398 255.042 140.384 255.125 140.378 255.125Z" fill="#263238"/>
<path d="M231.15 263.129C231.156 263.14 231.052 263.198 230.847 263.299C230.64 263.391 230.346 263.56 229.938 263.705C229.137 264.034 227.926 264.399 226.384 264.6C224.846 264.805 222.968 264.788 220.953 264.354C218.942 263.926 216.805 263.035 214.893 261.609C213 260.156 211.563 258.339 210.605 256.52C209.641 254.698 209.116 252.895 208.896 251.359C208.671 249.821 208.694 248.555 208.793 247.696C208.821 247.264 208.905 246.935 208.937 246.71C208.979 246.486 209.007 246.37 209.019 246.373C209.122 246.374 208.641 248.285 209.15 251.317C209.399 252.824 209.94 254.585 210.901 256.361C211.855 258.135 213.268 259.902 215.113 261.318C216.977 262.709 219.059 263.589 221.026 264.027C222.995 264.47 224.837 264.513 226.355 264.344C229.412 264.011 231.12 263.029 231.15 263.129Z" fill="#263238"/>
<path d="M124.842 127.711C124.818 127.707 124.856 127.387 124.947 126.809C125.03 126.231 125.208 125.403 125.479 124.393C125.744 123.381 126.144 122.198 126.664 120.916C127.202 119.641 127.87 118.27 128.688 116.897C129.518 115.529 130.415 114.295 131.289 113.222C132.178 112.16 133.035 111.253 133.804 110.544C134.569 109.831 135.217 109.285 135.689 108.94C136.156 108.59 136.421 108.406 136.436 108.426C136.478 108.479 135.456 109.268 133.984 110.729C133.244 111.455 132.416 112.372 131.55 113.434C130.7 114.507 129.821 115.732 129.001 117.083C128.192 118.441 127.523 119.791 126.974 121.046C126.442 122.308 126.021 123.47 125.726 124.464C125.126 126.451 124.909 127.723 124.842 127.711Z" fill="#263238"/>
<path d="M97.4955 138.435C97.4773 138.507 96.2376 138.146 94.1838 137.929C93.1583 137.813 91.927 137.777 90.5662 137.832C89.2061 137.912 87.7165 138.097 86.1835 138.45C84.654 138.82 83.2386 139.321 81.9863 139.858C80.7438 140.418 79.6595 141.002 78.7943 141.564C77.0541 142.677 76.107 143.554 76.0587 143.498C76.0419 143.479 76.2708 143.254 76.7027 142.862C76.9155 142.663 77.1836 142.427 77.5168 142.18C77.8472 141.93 78.2105 141.627 78.6536 141.349C79.5111 140.753 80.5968 140.138 81.8498 139.553C83.1126 138.99 84.5476 138.472 86.1009 138.096C87.6577 137.737 89.1725 137.559 90.5529 137.497C91.9347 137.46 93.1814 137.525 94.2153 137.674C94.7354 137.724 95.1967 137.833 95.6034 137.909C96.0115 137.98 96.3566 138.071 96.6366 138.155C97.1966 138.311 97.5025 138.41 97.4955 138.435Z" fill="#263238"/>
<path d="M97.4955 196.5C97.5032 196.51 97.4087 196.597 97.2211 196.753C97.0293 196.904 96.7619 197.149 96.3783 197.41C95.6321 197.961 94.4862 198.679 92.9721 199.371C91.4608 200.066 89.5589 200.689 87.3777 201.02C85.2007 201.354 82.7423 201.358 80.2391 200.875C77.7401 200.364 75.47 199.419 73.5863 198.278C71.6977 197.137 70.178 195.834 69.0475 194.615C67.9135 193.397 67.1288 192.295 66.6507 191.5C66.3959 191.112 66.2433 190.783 66.1236 190.571C66.0102 190.354 65.9556 190.239 65.9668 190.233C65.9948 190.217 66.2559 190.658 66.7697 191.423C67.2814 192.188 68.0899 193.255 69.2337 194.436C70.3747 195.618 71.8895 196.883 73.7585 197.989C75.6226 199.098 77.857 200.016 80.3105 200.517C82.7682 200.992 85.1832 200.998 87.3294 200.687C89.4791 200.379 91.3621 199.791 92.8685 199.135C94.377 198.482 95.5327 197.805 96.2985 197.293C97.0657 196.783 97.4752 196.475 97.4955 196.5Z" fill="#263238"/>
<path d="M80.3244 229.301C80.3909 229.329 79.8414 230.547 79.2667 232.611C78.9727 233.641 78.7109 234.891 78.5058 236.291C78.3231 237.693 78.2097 239.246 78.2377 240.878C78.2818 242.511 78.4638 244.058 78.7081 245.451C78.9748 246.84 79.2919 248.076 79.6307 249.093C80.2964 251.13 80.8984 252.323 80.8333 252.353C80.8109 252.365 80.6499 252.073 80.3783 251.534C80.2383 251.266 80.0773 250.933 79.9184 250.534C79.756 250.137 79.5523 249.691 79.3871 249.176C79.0133 248.161 78.6661 246.917 78.3784 245.514C78.1124 244.107 77.9178 242.54 77.873 240.887C77.8443 239.233 77.9696 237.66 78.1733 236.243C78.3994 234.829 78.6913 233.571 79.0196 232.54C79.1617 232.018 79.3465 231.563 79.4907 231.16C79.6314 230.754 79.7777 230.415 79.9058 230.14C80.1543 229.589 80.302 229.291 80.3244 229.301Z" fill="#263238"/>
<path d="M125.715 279.72C125.705 279.727 125.602 279.601 125.416 279.353C125.232 279.103 124.951 278.742 124.62 278.254C123.945 277.289 123.012 275.857 122.003 274.004C120.992 272.153 119.942 269.853 119.125 267.178C118.73 265.838 118.389 264.407 118.152 262.902C117.93 261.395 117.814 259.819 117.821 258.205C117.857 251.726 119.65 246.018 121.484 242.236C122.394 240.33 123.274 238.862 123.929 237.883C124.246 237.386 124.529 237.025 124.708 236.771C124.891 236.522 124.993 236.394 125.003 236.401C125.014 236.408 124.933 236.55 124.769 236.813C124.61 237.079 124.347 237.452 124.05 237.959C123.432 238.958 122.592 240.438 121.718 242.344C119.956 246.13 118.222 251.793 118.186 258.207C118.18 259.803 118.292 261.359 118.507 262.849C118.735 264.336 119.065 265.752 119.447 267.082C120.24 269.735 121.256 272.028 122.232 273.883C123.206 275.742 124.102 277.189 124.739 278.176C125.043 278.643 125.287 279.021 125.476 279.312C125.642 279.572 125.725 279.712 125.715 279.72Z" fill="#263238"/>
<path d="M118.67 250.104C118.678 250.119 118.416 250.273 117.886 250.392C117.359 250.515 116.555 250.545 115.608 250.338C114.657 250.142 113.591 249.696 112.471 249.102C111.351 248.504 110.188 247.711 109.094 246.734C106.889 244.781 105.457 242.476 104.681 240.731C104.298 239.851 104.053 239.114 103.912 238.599C103.781 238.079 103.721 237.791 103.745 237.784C103.814 237.764 104.094 238.916 104.915 240.622C105.739 242.315 107.177 244.548 109.337 246.462C110.409 247.42 111.542 248.204 112.632 248.807C113.724 249.407 114.756 249.866 115.668 250.088C117.511 250.575 118.667 250.032 118.67 250.104Z" fill="#263238"/>
<path d="M169.357 283.829C169.344 283.851 169.116 283.732 168.714 283.499C168.31 283.27 167.747 282.902 167.072 282.418C165.724 281.45 163.966 279.938 162.355 277.966C160.75 275.99 159.624 273.963 158.949 272.447C158.61 271.688 158.364 271.062 158.222 270.62C158.075 270.18 158.005 269.933 158.028 269.924C158.087 269.902 158.451 270.86 159.182 272.336C159.911 273.811 161.056 275.787 162.638 277.736C164.226 279.679 165.93 281.2 167.227 282.212C168.526 283.226 169.39 283.776 169.357 283.829Z" fill="#263238"/>
<path d="M216.337 262.009C216.362 262.009 216.387 262.272 216.41 262.749C216.435 263.226 216.449 263.917 216.447 264.771C216.434 266.476 216.353 268.857 215.771 271.419C215.19 273.986 214.122 276.147 213.205 277.591C212.736 278.309 212.338 278.876 212.03 279.243C211.731 279.616 211.556 279.814 211.536 279.798C211.481 279.758 212.124 278.918 212.986 277.457C213.836 275.994 214.845 273.86 215.417 271.337C215.99 268.818 216.112 266.463 216.191 264.765C216.258 263.064 216.282 262.009 216.337 262.009Z" fill="#263238"/>
<path d="M245.965 225.817C245.971 225.806 246.084 225.86 246.294 225.973C246.502 226.089 246.817 226.249 247.2 226.491C247.96 226.983 249.04 227.75 250.175 228.92C251.307 230.086 252.482 231.657 253.448 233.582C253.931 234.544 254.358 235.592 254.742 236.697C255.108 237.807 255.424 238.977 255.682 240.189C256.682 245.056 256.631 249.571 256.539 252.794C256.484 254.41 256.404 255.716 256.345 256.617C256.314 257.033 256.288 257.376 256.267 257.655C256.246 257.892 256.229 258.016 256.216 258.016C256.204 258.015 256.197 257.89 256.194 257.652C256.196 257.372 256.199 257.028 256.203 256.611C256.223 255.654 256.249 254.36 256.281 252.787C256.307 249.57 256.314 245.078 255.324 240.263C255.068 239.064 254.759 237.908 254.403 236.809C254.027 235.718 253.614 234.683 253.147 233.731C252.212 231.827 251.079 230.269 249.988 229.097C248.894 227.922 247.851 227.133 247.121 226.609C246.374 226.11 245.95 225.843 245.965 225.817Z" fill="#263238"/>
<path d="M237.782 233.578C237.768 233.558 238.025 233.339 238.501 232.961C238.98 232.589 239.659 232.03 240.478 231.321C242.119 229.906 244.272 227.811 246.335 225.228C248.393 222.638 249.953 220.072 250.965 218.155C251.473 217.197 251.865 216.411 252.12 215.861C252.382 215.313 252.538 215.013 252.561 215.023C252.584 215.033 252.473 215.35 252.25 215.918C252.033 216.488 251.675 217.295 251.194 218.273C250.235 220.23 248.695 222.843 246.62 225.455C244.539 228.061 242.337 230.145 240.644 231.518C239.798 232.206 239.091 232.736 238.585 233.075C238.081 233.419 237.797 233.598 237.782 233.578Z" fill="#263238"/>
<path d="M233.57 137.974C233.581 137.969 233.634 138.059 233.724 138.238C233.809 138.418 233.95 138.678 234.091 139.03C234.394 139.726 234.769 140.763 235.095 142.083C235.758 144.705 236.077 148.572 235.026 152.619C233.974 156.667 231.811 159.889 229.956 161.857C229.029 162.851 228.197 163.574 227.593 164.034C227.299 164.273 227.049 164.432 226.887 164.547C226.722 164.659 226.631 164.713 226.624 164.703C226.607 164.679 226.933 164.417 227.504 163.924C228.075 163.434 228.874 162.688 229.765 161.684C231.551 159.694 233.64 156.505 234.673 152.527C235.706 148.551 235.435 144.749 234.845 142.141C234.555 140.829 234.22 139.789 233.96 139.082C233.7 138.374 233.543 137.986 233.57 137.974Z" fill="#263238"/>
<path d="M245.965 144.878C245.963 144.942 245.268 144.929 244.17 145.09C243.074 145.247 241.579 145.636 240.074 146.404C238.573 147.179 237.386 148.168 236.619 148.967C235.848 149.765 235.454 150.337 235.402 150.302C235.37 150.283 235.69 149.654 236.429 148.793C237.163 147.932 238.361 146.877 239.908 146.079C241.457 145.288 243.012 144.928 244.139 144.833C245.27 144.735 245.968 144.841 245.965 144.878Z" fill="#263238"/>
<path d="M268.552 221.057C268.54 221.053 268.587 220.882 268.686 220.561C268.777 220.237 268.958 219.775 269.118 219.159C269.479 217.939 269.908 216.142 270.184 213.886C270.461 211.632 270.542 208.909 270.169 205.929C269.815 202.952 268.985 199.718 267.542 196.572C266.812 195.002 265.969 193.534 265.057 192.18C264.127 190.837 263.127 189.618 262.11 188.515C260.04 186.342 257.897 184.657 255.957 183.478C254.019 182.292 252.337 181.523 251.146 181.077C250.561 180.825 250.081 180.697 249.769 180.573C249.454 180.459 249.289 180.393 249.293 180.381C249.296 180.369 249.468 180.411 249.791 180.503C250.111 180.605 250.599 180.711 251.195 180.944C252.408 181.351 254.118 182.09 256.09 183.258C258.066 184.419 260.248 186.101 262.355 188.285C263.389 189.394 264.406 190.623 265.351 191.978C266.278 193.345 267.134 194.831 267.872 196.42C269.334 199.605 270.163 202.88 270.503 205.89C270.86 208.903 270.751 211.652 270.44 213.919C270.129 216.189 269.658 217.989 269.253 219.202C269.07 219.815 268.868 220.271 268.755 220.587C268.634 220.9 268.564 221.062 268.552 221.057Z" fill="#263238"/>
<path d="M268.509 176.249C268.549 176.258 268.443 176.938 268.081 177.987C267.72 179.033 267.068 180.439 266.075 181.817C265.081 183.196 263.951 184.259 263.064 184.922C262.176 185.589 261.557 185.891 261.537 185.856C261.459 185.76 263.844 184.336 265.78 181.604C267.749 178.902 268.392 176.203 268.509 176.249Z" fill="#263238"/>
<path d="M194.954 118.9C194.978 118.892 195.078 119.15 195.236 119.627C195.32 119.864 195.412 120.158 195.491 120.506C195.574 120.853 195.686 121.245 195.752 121.69C195.924 122.573 196.036 123.642 196.067 124.833C196.079 126.024 195.999 127.336 195.771 128.693C195.528 130.048 195.161 131.31 194.749 132.427C194.317 133.538 193.851 134.507 193.391 135.28C193.178 135.677 192.94 136.008 192.746 136.307C192.554 136.608 192.369 136.853 192.21 137.048C191.899 137.443 191.718 137.653 191.699 137.637C191.642 137.595 192.323 136.719 193.165 135.155C193.591 134.375 194.025 133.409 194.433 132.31C194.821 131.204 195.173 129.962 195.411 128.63C195.635 127.296 195.724 126.008 195.731 124.836C195.718 123.664 195.635 122.608 195.497 121.731C195.233 119.976 194.887 118.92 194.954 118.9Z" fill="#263238"/>
<g opacity="0.3">
<path d="M195.862 243.8C196.487 242.237 196.68 239.986 195.137 239.314C194.082 238.855 192.896 239.496 191.936 240.131C188.897 242.14 188.003 243.47 184.998 245.421C182.855 246.811 179.687 248.324 177.364 247.263C174.784 246.085 174.749 242.464 173.243 240.061C172.778 239.318 172.026 238.626 171.151 238.688C170.209 238.754 169.065 239.587 168.906 240.519C168.747 241.451 169.026 242.611 169.063 243.556C169.178 246.489 169.181 248.018 168.921 250.302C168.798 250.875 168.712 251.494 168.652 252.141C166.149 251.967 163.587 251.934 161.332 251.798C160.77 251.763 160.138 251.772 159.74 252.225C159.444 252.563 159.356 253.063 159.292 253.534C159.181 254.348 159.106 255.167 159.053 255.987C147.375 256.047 136.351 255.386 126.028 249.716C114.917 243.613 109.6 233.749 109.6 219.974C109.6 219.974 109.656 215.843 103.739 215.761C97.207 215.67 97.3071 222.927 97.3071 222.927C96.0968 237.847 105.961 252.081 118.897 259.612C131.524 266.964 146.565 268.917 161.199 268.971C161.508 269.355 161.865 269.68 162.291 269.909C163.199 270.395 164.249 270.369 165.25 270.273C167.908 270.018 170.53 269.323 173.022 268.242C173.65 268.777 174.566 269.379 176.341 269.682C179.604 270.238 182.09 270.483 185.366 270.009C187.397 269.715 190.622 268.495 191.228 266.535C191.416 265.927 191.409 265.254 191.712 264.694C191.719 264.681 191.729 264.671 191.737 264.657C191.967 264.407 192.194 264.155 192.401 263.885C192.532 263.764 192.663 263.644 192.79 263.52C194.183 262.158 194.52 257.888 193.034 256.599C193.253 256.306 193.462 256.006 193.65 255.693L193.189 256.173C194.851 253.676 194.59 251.499 192.371 249.314C192.399 249.269 192.432 249.229 192.459 249.184L192.352 249.295C192.35 249.293 192.349 249.291 192.347 249.289C194.066 246.831 194.8 246.457 195.862 243.8Z" fill="black"/>
</g>
<path d="M109.601 216.565C109.601 230.339 114.917 240.204 126.029 246.307C137.14 252.41 149.063 252.71 161.739 252.554C161.916 256.89 162.094 261.227 162.271 265.563C147.303 265.602 131.834 263.735 118.898 256.203C105.962 248.672 96.0975 234.438 97.3078 219.519C97.3078 219.519 97.207 212.261 103.739 212.352C109.658 212.433 109.601 216.565 109.601 216.565Z" fill="#263238"/>
<path d="M195.137 235.903C194.082 235.444 192.896 236.085 191.936 236.72C188.897 238.728 188.003 240.059 184.998 242.01C182.856 243.4 179.687 244.912 177.364 243.851C174.785 242.673 174.749 239.053 173.243 236.65C172.778 235.906 172.027 235.215 171.152 235.276C170.209 235.342 169.066 236.175 168.907 237.107C168.747 238.039 169.027 239.2 169.063 240.144C169.178 243.077 169.181 244.606 168.921 246.891C168.66 249.175 168.169 253.386 169.458 255.29C170.106 258.418 170.895 260.513 172.27 263.395C172.638 264.166 171.485 263.572 172.17 264.082C172.908 264.631 173.611 265.807 176.341 266.272C179.605 266.827 182.09 267.072 185.367 266.598C187.398 266.305 190.623 265.085 191.229 263.125C191.417 262.517 191.41 261.844 191.713 261.284C191.967 260.814 192.409 260.483 192.791 260.109C194.21 258.722 194.537 254.304 192.952 253.109C194.884 250.456 194.694 248.172 192.347 245.878C194.067 243.419 194.8 243.045 195.863 240.388C196.487 238.826 196.681 236.575 195.137 235.903Z" fill="white"/>
<path d="M175.081 250.704C174.58 251.138 174.229 249.505 173.611 249.37C169.817 248.542 165.137 248.617 161.331 248.387C160.77 248.352 160.137 248.361 159.74 248.814C159.443 249.152 159.356 249.652 159.292 250.124C158.771 253.947 158.891 257.881 159.644 261.654C160.027 263.577 160.724 265.661 162.29 266.5C163.199 266.986 164.249 266.96 165.249 266.864C170.837 266.328 176.272 263.87 180.661 259.895L175.081 250.704Z" fill="white"/>
<path d="M172.188 264.41C172.168 264.424 172.011 264.223 171.742 263.844C171.601 263.658 171.462 263.412 171.297 263.127C171.124 262.846 170.952 262.513 170.776 262.137C170.044 260.648 169.316 258.458 168.862 255.971C168.421 253.48 168.334 251.178 168.469 249.526C168.494 249.112 168.532 248.74 168.585 248.415C168.63 248.088 168.669 247.808 168.726 247.583C168.828 247.131 168.896 246.885 168.92 246.89C168.984 246.903 168.777 247.902 168.725 249.539C168.659 251.175 168.785 253.444 169.22 255.906C169.67 258.364 170.348 260.534 171.011 262.029C171.659 263.534 172.244 264.372 172.188 264.41Z" fill="#263238"/>
<path d="M190.222 255.847C190.164 255.757 191.071 255.113 192.007 254.133C192.95 253.159 193.559 252.229 193.651 252.284C193.735 252.326 193.249 253.373 192.27 254.386C191.295 255.403 190.267 255.93 190.222 255.847Z" fill="#263238"/>
<path d="M189.676 263.005C189.618 262.915 190.525 262.271 191.461 261.291C192.404 260.317 193.012 259.387 193.105 259.442C193.189 259.484 192.703 260.532 191.724 261.544C190.75 262.562 189.721 263.088 189.676 263.005Z" fill="#263238"/>
<path d="M189.032 249.338C188.974 249.248 189.88 248.604 190.816 247.624C191.76 246.65 192.367 245.72 192.46 245.774C192.544 245.816 192.059 246.864 191.079 247.876C190.105 248.894 189.077 249.421 189.032 249.338Z" fill="#263238"/>
<path d="M159.793 180.484C159.578 182.101 153.919 182.595 147.625 184.79C141.285 186.859 136.485 189.893 135.335 188.737C134.811 188.177 135.412 186.569 137.202 184.657C138.973 182.752 142.006 180.645 145.794 179.362C149.582 178.089 153.271 177.927 155.836 178.369C158.419 178.805 159.871 179.721 159.793 180.484Z" fill="#263238"/>
<path d="M220.299 154.399C219.075 155.655 214.413 154.226 208.774 154.045C203.144 153.701 198.342 154.687 197.271 153.322C196.803 152.663 197.581 151.395 199.693 150.226C201.774 149.061 205.235 148.146 209.108 148.325C212.981 148.508 216.314 149.74 218.249 151.093C220.214 152.451 220.841 153.786 220.299 154.399Z" fill="#263238"/>
<path d="M221.619 178.766C230.806 182.356 235.174 193.15 231.374 202.875C227.574 212.599 217.046 217.573 207.859 213.984C198.671 210.394 194.304 199.6 198.104 189.876C201.903 180.151 212.431 175.177 221.619 178.766Z" fill="white"/>
<path d="M221.949 177.922C231.136 181.511 235.928 191.221 232.651 199.609C229.374 207.995 219.27 211.884 210.082 208.295C200.895 204.705 196.104 194.996 199.381 186.61C202.657 178.221 212.762 174.332 221.949 177.922Z" fill="#263238"/>
<path d="M166.173 191.212C173.643 197.653 174.172 209.285 167.354 217.193C160.537 225.1 148.953 226.289 141.483 219.848C134.013 213.407 133.485 201.775 140.302 193.869C147.119 185.961 158.702 184.771 166.173 191.212Z" fill="white"/>
<path d="M166.765 190.526C174.234 196.967 175.524 207.717 169.644 214.537C163.764 221.357 152.941 221.663 145.471 215.223C138 208.781 136.712 198.031 142.591 191.212C148.472 184.392 159.294 184.085 166.765 190.526Z" fill="#263238"/>
<g opacity="0.3">
<path d="M184.94 218.95C182.931 220.351 183.104 222.304 183.138 224.753C183.153 225.904 183.493 226.763 184.181 227.685C184.87 228.607 185.984 229.245 187.134 229.201C189.059 229.127 190.799 227.431 191.64 225.697C192.899 223.102 193.22 220.186 193.411 217.307C190.974 217.01 186.949 217.549 184.94 218.95Z" fill="black"/>
</g>
<path d="M191.64 225.698C191.65 225.704 191.612 225.795 191.521 225.957C191.431 226.12 191.284 226.353 191.071 226.635C190.636 227.197 189.954 227.96 188.916 228.718C188.379 229.069 187.712 229.367 186.942 229.437C186.179 229.522 185.308 229.299 184.627 228.751C183.941 228.215 183.433 227.4 183.202 226.495C182.963 225.589 182.959 224.624 183 223.664C183.04 222.702 183.154 221.736 183.514 220.867C183.868 219.994 184.485 219.288 185.162 218.776C186.533 217.742 188.069 217.371 189.312 217.206C190.57 217.048 191.593 217.067 192.295 217.08C192.998 217.099 193.386 217.128 193.386 217.152C193.386 217.178 192.997 217.197 192.296 217.222C191.596 217.252 190.579 217.274 189.349 217.461C188.132 217.654 186.656 218.046 185.367 219.042C184.731 219.536 184.168 220.193 183.844 221.002C183.514 221.812 183.403 222.734 183.364 223.68C183.322 224.628 183.327 225.557 183.547 226.405C183.759 227.251 184.218 227.991 184.836 228.488C185.45 228.989 186.214 229.199 186.918 229.136C187.625 229.085 188.26 228.821 188.776 228.5C189.785 227.804 190.507 227.064 190.96 226.545C191.412 226.016 191.613 225.681 191.64 225.698Z" fill="#263238"/>
<path d="M160.529 324.476C154.623 323.455 148.376 323.351 142.545 324.738C139.514 325.459 136.453 326.396 133.966 328.272C131.479 330.148 129.453 332.091 129.692 335.197L175.254 335.245C175.254 329.707 166.435 325.497 160.529 324.476Z" fill="#263238"/>
<path d="M210.844 324.277C216.75 323.256 222.997 323.152 228.828 324.54C231.859 325.261 234.919 326.197 237.407 328.073C239.894 329.949 241.747 332.091 241.508 335.197L196.119 335.046C196.118 329.509 204.938 325.298 210.844 324.277Z" fill="#263238"/>
<path d="M143.62 128.269C143.604 128.301 143.077 128.046 142.098 127.661C141.121 127.273 139.662 126.809 137.811 126.496C135.962 126.177 133.706 126.071 131.248 126.404C128.794 126.732 126.147 127.546 123.661 128.958C121.193 130.402 119.16 132.283 117.646 134.242C116.125 136.202 115.085 138.207 114.434 139.966C113.777 141.725 113.446 143.219 113.293 144.26C113.136 145.3 113.091 145.884 113.056 145.881C113.043 145.88 113.044 145.734 113.056 145.456C113.079 145.179 113.073 144.764 113.152 144.24C113.264 143.186 113.558 141.669 114.192 139.876C114.82 138.085 115.849 136.038 117.38 134.036C118.902 132.035 120.964 130.112 123.479 128.642C126.012 127.203 128.709 126.384 131.203 126.07C133.702 125.75 135.989 125.886 137.854 126.241C139.722 126.592 141.183 127.098 142.151 127.53C142.644 127.723 143 127.937 143.25 128.057C143.499 128.185 143.625 128.258 143.62 128.269Z" fill="#263238"/>
<g opacity="0.3">
<path d="M186.949 150.302C187.646 145.274 185.873 139.961 182.295 136.361C178.716 132.76 173.416 130.953 168.384 131.618C168.373 126.695 168.363 121.771 168.352 116.848C168.352 116.848 172.147 117.61 172.213 128.269C172.213 128.269 181.174 127.409 186.138 135.961C191.102 144.512 186.949 150.302 186.949 150.302Z" fill="black"/>
</g>
<path d="M174.208 171.576C174.196 171.574 174.208 171.366 174.241 170.974C174.259 170.767 174.281 170.526 174.306 170.249C174.339 169.963 174.369 169.633 174.356 169.259C174.42 167.771 174.256 165.591 173.517 163.032C173.368 162.382 173.073 161.745 172.834 161.059C172.57 160.384 172.223 159.71 171.885 159.006C171.478 158.338 171.128 157.604 170.624 156.937C170.384 156.598 170.153 156.243 169.895 155.902C169.623 155.571 169.346 155.237 169.067 154.898C167.899 153.593 166.577 152.281 164.971 151.238C163.385 150.178 161.599 149.293 159.659 148.709C157.706 148.168 155.723 147.962 153.815 148.013C151.9 148.037 150.081 148.443 148.397 148.923C147.979 149.06 147.567 149.196 147.16 149.33C146.76 149.48 146.376 149.657 145.991 149.816C145.209 150.111 144.521 150.545 143.821 150.893C143.159 151.308 142.506 151.693 141.922 152.123C141.355 152.575 140.766 152.958 140.292 153.427C138.303 155.198 137 156.954 136.261 158.246C136.05 158.556 135.899 158.85 135.775 159.11C135.648 159.358 135.538 159.574 135.444 159.758C135.262 160.108 135.162 160.289 135.15 160.285C135.139 160.28 135.216 160.089 135.377 159.728C135.463 159.538 135.563 159.317 135.678 159.062C135.794 158.796 135.935 158.494 136.138 158.176C136.845 156.852 138.129 155.052 140.121 153.236C140.596 152.754 141.186 152.361 141.757 151.896C142.344 151.454 143.002 151.058 143.669 150.632C144.376 150.273 145.072 149.829 145.861 149.523C146.25 149.36 146.64 149.177 147.045 149.022C147.457 148.884 147.875 148.744 148.297 148.602C150.004 148.105 151.852 147.687 153.802 147.657C155.744 147.6 157.767 147.806 159.76 148.359C161.739 148.954 163.56 149.859 165.171 150.944C166.803 152.01 168.142 153.349 169.321 154.68C169.603 155.026 169.882 155.367 170.156 155.704C170.416 156.051 170.648 156.413 170.89 156.759C171.394 157.439 171.746 158.186 172.152 158.866C172.489 159.583 172.834 160.269 173.095 160.957C173.33 161.653 173.62 162.301 173.764 162.962C174.479 165.562 174.605 167.769 174.496 169.266C174.498 169.643 174.457 169.974 174.412 170.26C174.374 170.538 174.34 170.779 174.311 170.985C174.257 171.375 174.221 171.578 174.208 171.576Z" fill="#263238"/>
<path d="M108.718 193.031C108.715 193.043 108.585 193.019 108.342 192.963C108.101 192.898 107.732 192.837 107.283 192.679C106.371 192.405 105.082 191.882 103.619 190.998C102.155 190.119 100.549 188.824 99.1004 187.081C97.6514 185.346 96.3977 183.134 95.6837 180.611C95.0026 178.079 94.9438 175.536 95.298 173.303C95.648 171.064 96.3627 169.128 97.1684 167.623C97.9706 166.114 98.8099 165.003 99.4518 164.301C99.7556 163.934 100.041 163.694 100.215 163.514C100.395 163.34 100.494 163.254 100.503 163.263C100.528 163.288 100.162 163.665 99.5603 164.393C98.9562 165.117 98.1596 166.238 97.398 167.741C96.6329 169.24 95.956 171.152 95.6305 173.354C95.3008 175.549 95.3701 178.039 96.0358 180.515C96.7344 182.981 97.9517 185.153 99.3608 186.868C100.769 188.591 102.331 189.885 103.757 190.779C105.181 191.678 106.44 192.232 107.33 192.544C108.218 192.86 108.727 192.997 108.718 193.031Z" fill="#263238"/>
<path d="M83.0193 167.284C83.0235 167.243 83.7956 167.272 85.0171 167.516C86.2372 167.757 87.9011 168.253 89.6133 169.091C91.3241 169.934 92.7339 170.947 93.6712 171.765C94.6113 172.583 95.1062 173.175 95.0768 173.204C95.0349 173.246 94.4776 172.721 93.5081 171.964C92.5407 171.207 91.1337 170.246 89.453 169.418C87.7709 168.595 86.1511 168.069 84.9597 167.767C83.7683 167.462 83.0116 167.343 83.0193 167.284Z" fill="#263238"/>
<path d="M185.187 156.752C185.168 156.813 184.413 156.572 183.165 156.353C181.919 156.134 180.163 155.986 178.248 156.219C176.332 156.458 174.667 157.036 173.521 157.57C172.372 158.103 171.711 158.539 171.676 158.486C171.662 158.465 171.815 158.34 172.106 158.129C172.394 157.912 172.839 157.639 173.408 157.338C174.544 156.735 176.241 156.101 178.203 155.856C180.165 155.618 181.962 155.812 183.215 156.1C183.842 156.244 184.342 156.391 184.677 156.522C185.014 156.648 185.196 156.729 185.187 156.752Z" fill="#263238"/>
<g opacity="0.3">
<path d="M179.627 153.074C176.952 152.597 174.117 153.074 171.745 154.402C167.832 147.701 159.798 143.652 152.083 144.494C144.368 145.335 138.308 151.274 135.93 158.661C139.879 151.295 146.71 148.383 153.915 148.178C161.121 147.974 168.458 151.938 171.651 158.401C176.123 155.855 181.704 155.347 186.561 157.045C184.796 154.981 182.301 153.552 179.627 153.074Z" fill="black"/>
</g>
<g opacity="0.3">
<path d="M102.595 161.67C98.4082 161.934 94.4147 164.346 92.2328 167.929C89.4132 166.583 86.1414 166.459 83.1279 167.284C87.7934 167.707 92.4029 170.102 95.4717 173.68C95.219 168.754 98.1506 163.811 102.595 161.67Z" fill="black"/>
</g>
<g opacity="0.3">
<path d="M271.003 192.276C266.956 185.455 258.154 180.343 250.227 180.618L250.033 180.608C256.321 182.99 263.426 187.966 267.18 195.658C270.13 201.701 271.361 209.453 270.148 216.067C274.189 209.241 275.051 199.098 271.003 192.276Z" fill="black"/>
</g>
<path d="M273.274 294.155C273.351 293.585 273.414 293.013 273.426 292.438C273.462 290.734 273.606 289.308 273.153 287.426C272.838 286.11 272.198 284.781 271.725 284.21C272.724 281.986 273.379 279.641 273.639 277.258C273.737 276.361 273.773 275.419 273.347 274.598C272.613 273.181 270.75 272.532 269.029 272.165C265.652 271.445 262.122 271.291 258.684 271.713C258.261 271.764 257.81 271.837 257.504 272.099C257.093 272.45 257.078 273.018 257.102 273.523C257.184 275.27 257.438 278.197 257.235 281.065C255.488 281.71 253.875 282.741 252.526 284.103C252.51 284.118 252.495 284.134 252.479 284.15C250.924 285.706 247.3 288.174 247.3 288.174C246.27 288.869 245.625 289.59 245.554 290.436C245.489 291.221 245.879 291.915 246.54 292.342C248.679 293.722 253.471 290.247 253.471 290.247C253.471 290.247 252.639 292.859 251.366 294.765C249.216 297.983 250.902 295.29 247.62 300.191C247.281 300.698 246.224 301.998 246.648 303.362C247.092 304.79 248.111 304.963 249.516 304.423C251.893 303.509 255.007 300.203 257.073 298.53C256.503 299.231 253.716 303.249 253.253 303.984C252.605 305.012 251.95 305.859 252.255 306.72C252.559 307.582 253.793 307.878 254.704 307.81C255.444 307.754 256.062 307.245 256.612 306.746C258.171 305.332 260.226 302.827 261.573 301.209C260.942 302.647 259.441 305.455 259.032 306.97C258.881 307.529 258.467 308.744 258.723 309.263C259.157 310.143 260.421 310.203 261.332 309.839C262.512 309.368 264.125 307.491 264.819 306.427C265.514 305.363 265.982 304.171 266.446 302.989C266.446 302.989 266.267 303.848 266.043 304.345C265.818 304.842 265.233 306.294 265.224 306.839C265.216 307.383 264.6 309.424 265.468 309.98C266.634 310.726 267.628 309.492 267.932 309.109C269.961 306.562 271.13 303.08 271.951 300.684C272.676 298.562 272.978 296.372 273.274 294.155Z" fill="white"/>
<path d="M273.274 294.155C273.274 294.155 273.266 294.312 273.232 294.617C273.191 294.934 273.134 295.382 273.06 295.967C272.882 297.146 272.648 298.914 271.895 301.069C271.53 302.145 271.122 303.343 270.583 304.622C270.043 305.896 269.387 307.266 268.447 308.596C267.972 309.226 267.483 310.017 266.564 310.283C266.104 310.402 265.605 310.275 265.234 309.936C264.895 309.54 264.879 309.027 264.889 308.569C264.906 308.101 264.989 307.635 265.061 307.174C265.08 307.058 265.094 306.944 265.1 306.839C265.105 306.705 265.126 306.582 265.153 306.461C265.206 306.22 265.278 305.988 265.355 305.756C265.511 305.294 265.689 304.835 265.887 304.375C266.087 303.937 266.207 303.451 266.316 302.963L266.568 303.038C266.031 304.413 265.462 305.892 264.459 307.175C263.967 307.813 263.425 308.428 262.809 308.994C262.499 309.275 262.171 309.545 261.797 309.767C261.423 309.996 260.989 310.138 260.546 310.181C260.105 310.227 259.634 310.182 259.212 309.963C259.004 309.853 258.814 309.69 258.678 309.487C258.53 309.298 258.48 309.001 258.489 308.781C258.502 308.313 258.619 307.88 258.735 307.449C258.856 307.025 258.971 306.587 259.135 306.161C259.78 304.47 260.658 302.846 261.423 301.143L261.698 301.313C260.611 302.622 259.501 303.971 258.291 305.291C257.683 305.948 257.055 306.603 256.348 307.202C255.99 307.497 255.586 307.779 255.102 307.912C254.604 308.039 254.127 307.998 253.646 307.906C253.176 307.801 252.686 307.611 252.337 307.203C251.981 306.792 251.931 306.185 252.095 305.707C252.251 305.221 252.519 304.812 252.772 304.407C253.023 304.002 253.294 303.611 253.574 303.217C254.678 301.639 255.798 300.037 256.934 298.416L257.186 298.669C255.301 300.225 253.55 302.056 251.443 303.546C250.915 303.917 250.357 304.258 249.747 304.519C249.147 304.768 248.471 304.993 247.754 304.825C247.398 304.743 247.079 304.509 246.869 304.221C246.655 303.93 246.525 303.611 246.439 303.273C246.264 302.579 246.443 301.857 246.741 301.255C248.99 297.417 252.146 294.281 253.299 290.19L253.576 290.39C252.645 291.035 251.686 291.607 250.669 292.067C249.659 292.519 248.576 292.908 247.42 292.82C246.845 292.749 246.28 292.464 245.907 292.024C245.522 291.588 245.323 290.986 245.379 290.41C245.431 289.819 245.751 289.305 246.128 288.911C246.505 288.51 246.952 288.193 247.384 287.902C249.089 286.704 250.772 285.508 252.227 284.154C253.635 282.7 255.351 281.576 257.177 280.91L257.072 281.051C257.205 279.144 257.149 277.271 257.053 275.448C257.027 274.991 257.002 274.538 256.977 274.088C256.962 273.64 256.896 273.187 256.994 272.707C257.044 272.471 257.154 272.231 257.334 272.049C257.514 271.866 257.746 271.759 257.968 271.693C258.423 271.563 258.855 271.549 259.287 271.494C262.748 271.146 266.046 271.395 269.011 272.026C270.476 272.352 271.963 272.798 272.969 273.859C273.472 274.382 273.738 275.088 273.793 275.764C273.856 276.445 273.772 277.1 273.693 277.728C273.355 280.25 272.623 282.434 271.804 284.243L271.791 284.152C272.313 284.838 272.62 285.576 272.882 286.272C273.137 286.972 273.296 287.652 273.392 288.288C273.587 289.563 273.528 290.652 273.498 291.519C273.48 292.388 273.405 293.046 273.356 293.487C273.309 293.932 273.274 294.155 273.274 294.155C273.274 294.155 273.279 293.928 273.31 293.487C273.343 293.046 273.404 292.391 273.407 291.52C273.423 290.652 273.467 289.57 273.26 288.312C273.158 287.684 272.994 287.016 272.738 286.329C272.476 285.647 272.158 284.911 271.658 284.266C271.637 284.241 271.634 284.205 271.646 284.176C272.444 282.374 273.155 280.202 273.475 277.703C273.551 277.079 273.627 276.435 273.564 275.791C273.505 275.148 273.261 274.511 272.791 274.026C271.852 273.039 270.404 272.597 268.955 272.284C266.013 271.671 262.743 271.437 259.316 271.792C258.891 271.847 258.446 271.869 258.054 271.984C257.653 272.09 257.363 272.37 257.289 272.776C257.206 273.173 257.265 273.626 257.283 274.075C257.31 274.525 257.335 274.979 257.362 275.435C257.464 277.263 257.525 279.149 257.394 281.078C257.39 281.144 257.346 281.198 257.289 281.219C255.506 281.877 253.849 282.963 252.46 284.4C250.971 285.79 249.294 286.983 247.58 288.191C247.145 288.485 246.73 288.783 246.381 289.153C246.034 289.517 245.769 289.959 245.728 290.443C245.683 290.93 245.846 291.425 246.173 291.796C246.5 292.175 246.959 292.405 247.458 292.47C248.483 292.55 249.537 292.188 250.519 291.744C251.507 291.296 252.461 290.727 253.362 290.1L253.367 290.097C253.448 290.04 253.56 290.06 253.616 290.141C253.65 290.19 253.656 290.249 253.639 290.3C253.302 291.311 252.902 292.297 252.425 293.264C251.959 294.24 251.336 295.139 250.729 296.026C250.43 296.478 250.085 296.912 249.775 297.344C249.467 297.79 249.159 298.237 248.85 298.684L247.934 300.044C247.628 300.51 247.294 300.936 247.066 301.415C246.789 301.975 246.642 302.604 246.789 303.186C246.935 303.771 247.276 304.347 247.842 304.472C248.401 304.61 249.037 304.424 249.603 304.183C250.174 303.938 250.716 303.609 251.231 303.248C253.299 301.787 255.044 299.967 256.957 298.389C257.033 298.326 257.146 298.337 257.209 298.413C257.261 298.476 257.262 298.565 257.217 298.63L257.209 298.642C256.08 300.252 254.965 301.842 253.866 303.409C253.589 303.797 253.317 304.192 253.065 304.596C252.813 304.994 252.559 305.392 252.426 305.81C252.288 306.22 252.336 306.668 252.601 306.979C252.865 307.294 253.29 307.474 253.716 307.567C254.14 307.653 254.612 307.685 255.008 307.58C255.416 307.469 255.786 307.219 256.127 306.938C256.811 306.361 257.436 305.712 258.04 305.062C259.244 303.754 260.355 302.41 261.444 301.104C261.501 301.034 261.604 301.024 261.673 301.08C261.731 301.127 261.748 301.208 261.719 301.274C260.94 302.993 260.063 304.609 259.426 306.269C259.265 306.68 259.153 307.104 259.03 307.531C258.915 307.951 258.803 308.376 258.792 308.785C258.756 309.187 259.009 309.506 259.352 309.695C259.697 309.877 260.114 309.925 260.513 309.883C261.335 309.825 262.009 309.319 262.611 308.778C263.211 308.23 263.748 307.625 264.232 307.002C265.212 305.761 265.775 304.316 266.319 302.94C266.344 302.872 266.421 302.837 266.489 302.863C266.551 302.886 266.585 302.953 266.571 303.016C266.457 303.517 266.334 304.013 266.12 304.478C265.924 304.928 265.745 305.383 265.591 305.835C265.514 306.062 265.443 306.289 265.392 306.514C265.367 306.626 265.348 306.738 265.343 306.841C265.336 306.973 265.32 307.093 265.301 307.21C265.224 307.677 265.143 308.129 265.124 308.576C265.106 309.013 265.145 309.481 265.4 309.776C265.686 310.038 266.128 310.168 266.508 310.063C267.303 309.846 267.804 309.099 268.274 308.472C269.208 307.167 269.87 305.813 270.416 304.55C270.962 303.283 271.38 302.091 271.754 301.019C272.524 298.884 272.78 297.128 272.982 295.953C273.072 295.371 273.142 294.925 273.191 294.609C273.241 294.309 273.274 294.155 273.274 294.155Z" fill="#263238"/>
<path d="M271.803 284.27C271.759 284.32 271.092 283.722 269.899 282.929C268.708 282.144 266.93 281.216 264.789 280.803C262.647 280.397 260.65 280.566 259.237 280.78C257.82 281.006 256.957 281.24 256.941 281.179C256.934 281.155 257.143 281.075 257.529 280.951C257.914 280.821 258.483 280.676 259.193 280.526C260.611 280.244 262.653 280.026 264.858 280.444C267.062 280.87 268.874 281.865 270.045 282.716C270.63 283.148 271.084 283.522 271.372 283.809C271.666 284.089 271.82 284.252 271.803 284.27Z" fill="#263238"/>
</svg>
