<svg width="182" height="62" viewBox="0 0 182 62" fill="none" xmlns="http://www.w3.org/2000/svg">
<path d="M42.494 42.126C37.786 46.746 32 49.056 25.136 49.056C18.272 49.056 12.464 46.746 7.712 42.126C3.004 37.418 0.65 31.676 0.65 24.9C0.65 18.08 3.004 12.36 7.712 7.74C12.42 3.076 18.228 0.743999 25.136 0.743999C32.044 0.743999 37.83 3.076 42.494 7.74C47.246 12.36 49.622 18.08 49.622 24.9C49.622 31.676 47.246 37.418 42.494 42.126ZM17.018 32.952C19.174 35.064 21.88 36.12 25.136 36.12C28.392 36.12 31.076 35.064 33.188 32.952C35.344 30.796 36.422 28.112 36.422 24.9C36.422 21.688 35.344 19.026 33.188 16.914C31.076 14.758 28.392 13.68 25.136 13.68C21.88 13.68 19.174 14.758 17.018 16.914C14.906 19.026 13.85 21.688 13.85 24.9C13.85 28.068 14.906 30.752 17.018 32.952ZM71.2035 48.924C66.2755 48.924 62.0735 47.252 58.5975 43.908C55.1655 40.564 53.4495 36.428 53.4495 31.5C53.4495 26.572 55.1655 22.436 58.5975 19.092C61.9855 15.748 66.1875 14.076 71.2035 14.076C76.2195 14.076 80.4215 15.748 83.8095 19.092C87.2415 22.48 88.9575 26.616 88.9575 31.5C88.9575 36.428 87.2415 40.564 83.8095 43.908C80.4215 47.252 76.2195 48.924 71.2035 48.924ZM67.1775 35.724C68.2335 36.78 69.5755 37.308 71.2035 37.308C72.8315 37.308 74.1515 36.78 75.1635 35.724C76.2195 34.58 76.7475 33.172 76.7475 31.5C76.7475 29.784 76.2195 28.398 75.1635 27.342C74.1955 26.242 72.8755 25.692 71.2035 25.692C69.5755 25.692 68.2335 26.242 67.1775 27.342C66.1655 28.442 65.6595 29.828 65.6595 31.5C65.6595 33.172 66.1655 34.58 67.1775 35.724ZM114.844 14.076C119.288 14.076 122.918 15.726 125.734 19.026C128.55 22.282 129.958 26.44 129.958 31.5C129.958 36.56 128.55 40.718 125.734 43.974C122.918 47.274 119.288 48.924 114.844 48.924C111.06 48.924 108.112 47.626 106 45.03V61.2H93.7899V15H106V17.97C108.112 15.374 111.06 14.076 114.844 14.076ZM107.584 35.922C108.684 37.11 110.114 37.704 111.874 37.704C113.634 37.704 115.042 37.11 116.098 35.922C117.198 34.734 117.748 33.26 117.748 31.5C117.748 29.74 117.198 28.266 116.098 27.078C115.042 25.89 113.634 25.296 111.874 25.296C110.114 25.296 108.684 25.89 107.584 27.078C106.528 28.266 106 29.74 106 31.5C106 33.26 106.528 34.734 107.584 35.922ZM145.653 24.702C145.653 25.318 146.203 25.78 147.303 26.088C148.447 26.396 149.833 26.704 151.461 27.012C153.089 27.32 154.717 27.782 156.345 28.398C157.973 28.97 159.337 30.026 160.437 31.566C161.581 33.106 162.153 35.086 162.153 37.506C162.153 39.574 161.691 41.422 160.767 43.05C159.843 44.634 158.589 45.822 157.005 46.614C153.969 48.154 150.735 48.924 147.303 48.924C139.339 48.924 134.191 46.306 131.859 41.07L142.485 36.318C143.365 38.562 144.927 39.684 147.171 39.684C148.667 39.684 149.415 39.2 149.415 38.232C149.415 37.748 148.975 37.33 148.095 36.978C147.215 36.626 145.785 36.23 143.805 35.79C136.897 34.25 133.465 30.796 133.509 25.428C133.509 21.82 134.873 19.026 137.601 17.046C140.373 15.066 143.563 14.076 147.171 14.076C154.431 14.076 159.205 16.87 161.493 22.458L151.395 26.088C150.603 24.24 149.371 23.316 147.699 23.316C146.335 23.316 145.653 23.778 145.653 24.702ZM179.667 30.84H169.107L166.797 15V1.8H181.977V15L179.667 30.84ZM179.733 46.812C178.281 48.264 176.499 48.99 174.387 48.99C172.275 48.99 170.471 48.264 168.975 46.812C167.523 45.316 166.797 43.512 166.797 41.4C166.797 39.288 167.523 37.506 168.975 36.054C170.471 34.558 172.275 33.81 174.387 33.81C176.499 33.81 178.281 34.558 179.733 36.054C181.229 37.506 181.977 39.288 181.977 41.4C181.977 43.512 181.229 45.316 179.733 46.812Z" fill="#333333"/>
</svg>
