<svg width="144" height="12" viewBox="0 0 144 12" fill="none" xmlns="http://www.w3.org/2000/svg">
<path d="M0.15625 0.546875H6.03906C7.32031 0.546875 8.27865 0.851562 8.91406 1.46094C9.55469 2.07031 9.875 2.9375 9.875 4.0625C9.875 5.21875 9.52604 6.1224 8.82812 6.77344C8.13542 7.42448 7.07552 7.75 5.64844 7.75H3.71094V12H0.15625V0.546875ZM3.71094 5.42969H4.57812C5.26042 5.42969 5.73958 5.3125 6.01562 5.07812C6.29167 4.83854 6.42969 4.53385 6.42969 4.16406C6.42969 3.80469 6.3099 3.5 6.07031 3.25C5.83073 3 5.38021 2.875 4.71875 2.875H3.71094V5.42969ZM11.7812 12V0.546875H17.6797C18.7734 0.546875 19.6094 0.640625 20.1875 0.828125C20.7656 1.01562 21.2318 1.36458 21.5859 1.875C21.9401 2.38021 22.1172 2.9974 22.1172 3.72656C22.1172 4.36198 21.9818 4.91146 21.7109 5.375C21.4401 5.83333 21.0677 6.20573 20.5938 6.49219C20.2917 6.67448 19.8776 6.82552 19.3516 6.94531C19.7734 7.08594 20.0807 7.22656 20.2734 7.36719C20.4036 7.46094 20.5911 7.66146 20.8359 7.96875C21.0859 8.27604 21.2526 8.51302 21.3359 8.67969L23.0469 12H19.0469L17.1562 8.5C16.9167 8.04688 16.7031 7.7526 16.5156 7.61719C16.2604 7.4401 15.9714 7.35156 15.6484 7.35156H15.3359V12H11.7812ZM15.3359 5.1875H16.8281C16.9896 5.1875 17.3021 5.13542 17.7656 5.03125C18 4.98438 18.1901 4.86458 18.3359 4.67188C18.487 4.47917 18.5625 4.25781 18.5625 4.00781C18.5625 3.63802 18.4453 3.35417 18.2109 3.15625C17.9766 2.95833 17.5365 2.85938 16.8906 2.85938H15.3359V5.1875ZM23.4609 6.28125C23.4609 4.41146 23.9818 2.95573 25.0234 1.91406C26.0651 0.872396 27.5156 0.351562 29.375 0.351562C31.2812 0.351562 32.75 0.864583 33.7812 1.89062C34.8125 2.91146 35.3281 4.34375 35.3281 6.1875C35.3281 7.52604 35.1016 8.625 34.6484 9.48438C34.2005 10.3385 33.5495 11.0052 32.6953 11.4844C31.8464 11.9583 30.7865 12.1953 29.5156 12.1953C28.224 12.1953 27.1536 11.9896 26.3047 11.5781C25.4609 11.1667 24.776 10.5156 24.25 9.625C23.724 8.73438 23.4609 7.61979 23.4609 6.28125ZM27 6.29688C27 7.45312 27.2135 8.28385 27.6406 8.78906C28.0729 9.29427 28.6589 9.54688 29.3984 9.54688C30.1589 9.54688 30.7474 9.29948 31.1641 8.80469C31.5807 8.3099 31.7891 7.42188 31.7891 6.14062C31.7891 5.0625 31.5703 4.27604 31.1328 3.78125C30.7005 3.28125 30.112 3.03125 29.3672 3.03125C28.6536 3.03125 28.0807 3.28385 27.6484 3.78906C27.2161 4.29427 27 5.13021 27 6.29688ZM42.9922 7.85156V5.46875H48.4609V10.3516C47.4141 11.0651 46.487 11.5521 45.6797 11.8125C44.8776 12.0677 43.9245 12.1953 42.8203 12.1953C41.4609 12.1953 40.3516 11.9635 39.4922 11.5C38.638 11.0365 37.974 10.3464 37.5 9.42969C37.0312 8.51302 36.7969 7.46094 36.7969 6.27344C36.7969 5.02344 37.0547 3.9375 37.5703 3.01562C38.0859 2.08854 38.8411 1.38542 39.8359 0.90625C40.612 0.536458 41.6562 0.351562 42.9688 0.351562C44.2344 0.351562 45.1797 0.466146 45.8047 0.695312C46.4349 0.924479 46.9557 1.28125 47.3672 1.76562C47.7839 2.24479 48.0964 2.85417 48.3047 3.59375L44.8906 4.20312C44.75 3.77083 44.5104 3.4401 44.1719 3.21094C43.8385 2.98177 43.4115 2.86719 42.8906 2.86719C42.1146 2.86719 41.4948 3.13802 41.0312 3.67969C40.5729 4.21615 40.3438 5.06771 40.3438 6.23438C40.3438 7.47396 40.5755 8.35938 41.0391 8.89062C41.5078 9.42188 42.1589 9.6875 42.9922 9.6875C43.388 9.6875 43.7656 9.63021 44.125 9.51562C44.4844 9.40104 44.8958 9.20573 45.3594 8.92969V7.85156H42.9922ZM50.5156 8.8125H53.9141V12H50.5156V8.8125ZM63.0938 10.1094H59.0625L58.5078 12H54.8906L59.1953 0.546875H63.0547L67.3594 12H63.6562L63.0938 10.1094ZM62.3516 7.63281L61.0859 3.51562L59.8281 7.63281H62.3516ZM75.8281 7.32031L78.9297 8.25781C78.7214 9.1276 78.3932 9.85417 77.9453 10.4375C77.4974 11.0208 76.9401 11.4609 76.2734 11.7578C75.612 12.0547 74.7682 12.2031 73.7422 12.2031C72.4974 12.2031 71.4792 12.0234 70.6875 11.6641C69.901 11.2995 69.2214 10.6615 68.6484 9.75C68.0755 8.83854 67.7891 7.67188 67.7891 6.25C67.7891 4.35417 68.2917 2.89844 69.2969 1.88281C70.3073 0.861979 71.7344 0.351562 73.5781 0.351562C75.0208 0.351562 76.1536 0.643229 76.9766 1.22656C77.8047 1.8099 78.4193 2.70573 78.8203 3.91406L75.6953 4.60938C75.5859 4.26042 75.4714 4.00521 75.3516 3.84375C75.1536 3.57292 74.9115 3.36458 74.625 3.21875C74.3385 3.07292 74.0182 3 73.6641 3C72.862 3 72.2474 3.32292 71.8203 3.96875C71.4974 4.44792 71.3359 5.20052 71.3359 6.22656C71.3359 7.4974 71.5286 8.36979 71.9141 8.84375C72.2995 9.3125 72.8411 9.54688 73.5391 9.54688C74.2161 9.54688 74.7266 9.35677 75.0703 8.97656C75.4193 8.59635 75.6719 8.04427 75.8281 7.32031ZM87.7031 10.1094H83.6719L83.1172 12H79.5L83.8047 0.546875H87.6641L91.9688 12H88.2656L87.7031 10.1094ZM86.9609 7.63281L85.6953 3.51562L84.4375 7.63281H86.9609ZM93.1562 0.546875H98.4141C99.4505 0.546875 100.286 0.6875 100.922 0.96875C101.562 1.25 102.091 1.65365 102.508 2.17969C102.924 2.70573 103.227 3.31771 103.414 4.01562C103.602 4.71354 103.695 5.45312 103.695 6.23438C103.695 7.45833 103.555 8.40885 103.273 9.08594C102.997 9.75781 102.612 10.3229 102.117 10.7812C101.622 11.2344 101.091 11.5365 100.523 11.6875C99.7474 11.8958 99.0443 12 98.4141 12H93.1562V0.546875ZM96.6953 3.14062V9.39844H97.5625C98.3021 9.39844 98.8281 9.31771 99.1406 9.15625C99.4531 8.98958 99.6979 8.70312 99.875 8.29688C100.052 7.88542 100.141 7.22135 100.141 6.30469C100.141 5.09115 99.9427 4.26042 99.5469 3.8125C99.151 3.36458 98.4948 3.14062 97.5781 3.14062H96.6953ZM105.555 0.546875H115.039V2.99219H109.102V4.8125H114.609V7.14844H109.102V9.40625H115.211V12H105.555V0.546875ZM117.086 0.546875H121.742L123.539 7.51562L125.328 0.546875H129.969V12H127.078V3.26562L124.836 12H122.219L119.984 3.26562V12H117.086V0.546875ZM131.078 0.546875H135.008L137.32 4.41406L139.633 0.546875H143.539L139.086 7.20312V12H135.539V7.20312L131.078 0.546875Z" fill="#5DB077"/>
</svg>
