<svg width="250" height="235" viewBox="0 0 250 235" fill="none" xmlns="http://www.w3.org/2000/svg">
<path d="M102.671 0.253924L103.216 1.39558C103.281 1.53021 103.404 1.62284 103.548 1.64484L104.766 1.82812C105.127 1.8821 105.271 2.3413 105.01 2.60455L104.128 3.49295C104.025 3.59759 103.977 3.74821 104.001 3.89617L104.21 5.15045C104.272 5.52234 103.894 5.80626 103.571 5.63031L102.481 5.03782C102.352 4.96784 102.199 4.96784 102.071 5.03782L100.98 5.63031C100.657 5.80559 100.28 5.52234 100.341 5.15045L100.55 3.89617C100.574 3.74821 100.527 3.59759 100.423 3.49295L99.5414 2.60455C99.2796 2.3413 99.424 1.8821 99.7857 1.82812L101.004 1.64484C101.148 1.62351 101.272 1.53021 101.336 1.39558L101.88 0.253924C102.043 -0.0846412 102.51 -0.0846412 102.671 0.253924Z" fill="#F5F5F5"/>
<path d="M22.4036 94.1312L22.9483 95.2728C23.0128 95.4075 23.1366 95.5001 23.2804 95.5221L24.4988 95.7054C24.8599 95.7593 25.0043 96.2185 24.7432 96.4818L23.8612 97.3702C23.7574 97.4748 23.7104 97.6255 23.7342 97.7734L23.9425 99.0277C24.0044 99.3996 23.6266 99.6835 23.3036 99.5076L22.2134 98.9151C22.0851 98.8451 21.9317 98.8451 21.8034 98.9151L20.7132 99.5076C20.3902 99.6835 20.0124 99.3996 20.0743 99.0277L20.2825 97.7734C20.307 97.6255 20.26 97.4748 20.1555 97.3702L19.2736 96.4818C19.0118 96.2185 19.1562 95.7593 19.5179 95.7054L20.7364 95.5221C20.8802 95.5008 21.0039 95.4075 21.0684 95.2728L21.6132 94.1312C21.775 93.7933 22.2424 93.7933 22.4036 94.1312Z" fill="#F0F0F0"/>
<path d="M12.2807 31.1473L12.8255 32.289C12.89 32.4236 13.0138 32.5162 13.1569 32.5382L14.3754 32.7215C14.7364 32.7755 14.8808 33.2347 14.6197 33.4979L13.7377 34.3863C13.634 34.491 13.5862 34.6416 13.6114 34.7895L13.8196 36.0438C13.8815 36.4157 13.5037 36.6996 13.1807 36.5237L12.0905 35.9312C11.9622 35.8612 11.8088 35.8612 11.6805 35.9312L10.5903 36.5237C10.2673 36.6996 9.88954 36.4157 9.95143 36.0438L10.1597 34.7895C10.1842 34.6416 10.1371 34.491 10.0327 34.3863L9.15072 33.4979C8.88962 33.2347 9.03338 32.7755 9.39506 32.7215L10.6135 32.5382C10.7573 32.5169 10.8811 32.4236 10.9456 32.289L11.4903 31.1473C11.6521 30.8087 12.1196 30.8087 12.2807 31.1473Z" fill="#F0F0F0"/>
<path d="M61.1265 59.7941L61.452 60.4766C61.4907 60.5572 61.5642 60.6125 61.6506 60.6252L62.3791 60.7345C62.5951 60.7671 62.6815 61.0411 62.5248 61.199L61.9981 61.7302C61.9362 61.7928 61.9078 61.8828 61.9227 61.9708L62.0471 62.7205C62.0838 62.9431 61.8582 63.1124 61.6648 63.0071L61.0136 62.6532C60.9369 62.6112 60.8454 62.6112 60.7687 62.6532L60.1175 63.0071C59.9241 63.1124 59.6985 62.9425 59.7352 62.7205L59.8596 61.9708C59.8745 61.8828 59.8461 61.7922 59.7842 61.7302L59.2575 61.199C59.1015 61.0417 59.1872 60.7671 59.4032 60.7345L60.1317 60.6252C60.2174 60.6125 60.2916 60.5565 60.3303 60.4766L60.6558 59.7941C60.7513 59.5922 61.0304 59.5922 61.1265 59.7941Z" fill="#F0F0F0"/>
<path d="M41.3698 147.119L41.6954 147.802C41.7334 147.882 41.8075 147.938 41.8933 147.95L42.6218 148.06C42.8378 148.092 42.9242 148.366 42.7675 148.524L42.2408 149.055C42.1789 149.118 42.1505 149.208 42.1647 149.297L42.2891 150.046C42.3259 150.269 42.1002 150.438 41.9075 150.334L41.2563 149.98C41.1796 149.938 41.0881 149.938 41.0113 149.98L40.3595 150.334C40.1661 150.439 39.9405 150.269 39.9779 150.046L40.1023 149.297C40.1171 149.208 40.0888 149.118 40.0269 149.055L39.5002 148.524C39.3441 148.367 39.4299 148.092 39.6459 148.06L40.3744 147.95C40.4601 147.938 40.5343 147.882 40.5723 147.802L40.8979 147.119C40.9939 146.917 41.2731 146.917 41.3698 147.119Z" fill="#F5F5F5"/>
<path d="M243.882 1.29496L244.208 1.97742C244.246 2.05739 244.32 2.11338 244.406 2.12604L245.134 2.23534C245.35 2.268 245.437 2.54191 245.28 2.69987L244.753 3.23104C244.691 3.29369 244.662 3.38366 244.677 3.47164L244.802 4.22141C244.838 4.44401 244.613 4.61329 244.42 4.50866L243.769 4.15477C243.692 4.11278 243.601 4.11278 243.524 4.15477L242.873 4.50866C242.679 4.61329 242.454 4.44401 242.491 4.22141L242.615 3.47164C242.63 3.38366 242.602 3.29303 242.54 3.23104L242.013 2.69987C241.857 2.54258 241.943 2.268 242.159 2.23534L242.888 2.12604C242.973 2.11338 243.047 2.05739 243.085 1.97742L243.411 1.29496C243.506 1.09235 243.786 1.09235 243.882 1.29496Z" fill="#F5F5F5"/>
<path d="M238.277 127.075L238.841 128.256C238.907 128.395 239.036 128.491 239.184 128.514L240.444 128.703C240.818 128.759 240.967 129.235 240.697 129.507L239.785 130.426C239.677 130.534 239.628 130.69 239.654 130.843L239.869 132.141C239.933 132.526 239.542 132.819 239.208 132.638L238.08 132.025C237.947 131.953 237.789 131.953 237.656 132.025L236.528 132.638C236.194 132.819 235.803 132.526 235.867 132.141L236.082 130.843C236.107 130.691 236.058 130.535 235.951 130.426L235.039 129.507C234.769 129.235 234.918 128.76 235.292 128.703L236.552 128.514C236.7 128.492 236.829 128.395 236.895 128.256L237.459 127.075C237.628 126.725 238.11 126.725 238.277 127.075Z" fill="#F0F0F0"/>
<path d="M169.219 16.615C169.219 17.1035 168.836 17.4994 168.364 17.4994C167.891 17.4994 167.508 17.1035 167.508 16.615C167.508 16.1265 167.891 15.7306 168.364 15.7306C168.836 15.7306 169.219 16.1265 169.219 16.615Z" fill="#F0F0F0"/>
<path d="M193.829 188.418C193.829 188.907 193.446 189.302 192.974 189.302C192.501 189.302 192.118 188.907 192.118 188.418C192.118 187.93 192.501 187.534 192.974 187.534C193.446 187.533 193.829 187.93 193.829 188.418Z" fill="#F5F5F5"/>
<path d="M49.4092 5.56831C49.4092 7.66302 47.7665 9.36051 45.7408 9.36051C43.7146 9.36051 42.0725 7.66235 42.0725 5.56831C42.0725 3.47361 43.7152 1.77612 45.7408 1.77612C47.7665 1.77546 49.4092 3.47361 49.4092 5.56831Z" fill="#F0F0F0"/>
<path d="M84.117 30.6254C86.5584 31.052 88.8639 31.2446 90.827 31.2199C89.0979 33.3046 86.3857 34.429 83.5754 33.9384C80.76 33.4466 78.5506 31.4619 77.5752 28.8993C79.4261 29.5898 81.669 30.1976 84.117 30.6254Z" fill="#F5F5F5"/>
<path d="M85.2601 23.6309C82.3957 23.1303 79.7092 22.9531 77.5508 23.0717C78.8421 19.5221 82.4228 17.3001 86.1872 17.9579C89.9464 18.6144 92.6213 21.9294 92.7128 25.7202C90.7123 24.8751 88.1245 24.1307 85.2601 23.6309Z" fill="#F5F5F5"/>
<path d="M97.0352 28.0715C97.2844 26.5473 92.0414 24.3605 85.3247 23.1873C78.6079 22.0141 72.961 22.2987 72.7119 23.823C72.4627 25.3473 77.7057 27.534 84.4224 28.7072C91.1392 29.8804 96.7861 29.5958 97.0352 28.0715Z" fill="#F5F5F5"/>
<path d="M243.391 85.203C230.764 111.329 200.054 121.921 174.781 108.867C173.738 108.329 172.728 107.766 171.758 107.161C186.283 101.612 198.85 90.5781 206.318 75.128C216.975 53.0793 214.442 27.8036 201.803 8.84595C208.136 9.38179 214.478 11.1466 220.507 14.2603C245.781 27.3144 256.019 59.0775 243.391 85.203Z" fill="#F5F5F5"/>
<path d="M220 22.9205C222.894 25.1332 224.514 28.4708 224.694 31.9278C223.03 29.5252 220.868 27.2612 218.299 25.2971C215.731 23.333 212.996 21.8695 210.283 20.9071C213.535 20.0747 217.096 20.6992 220 22.9205Z" fill="#F0F0F0"/>
<path d="M207.089 103.059C204.082 105.104 200.493 105.526 197.292 104.51C200.047 103.723 202.848 102.405 205.517 100.59C208.185 98.7743 210.457 96.6249 212.266 94.3236C211.901 97.7659 210.107 101.006 207.089 103.059Z" fill="#F0F0F0"/>
<path d="M224.707 52.7375C226.241 56.1031 226.137 59.836 224.711 62.9684C224.348 60.0379 223.481 56.9842 222.12 53.9971C220.759 51.0093 219.021 48.3808 217.074 46.2048C220.318 47.0638 223.168 49.3585 224.707 52.7375Z" fill="#F0F0F0"/>
<path d="M233.017 89.0313C230.76 91.9284 227.467 93.4646 224.119 93.5086C226.509 91.8891 228.787 89.7484 230.791 87.1765C232.794 84.6046 234.322 81.8401 235.363 79.0776C236.035 82.4706 235.284 86.1228 233.017 89.0313Z" fill="#F0F0F0"/>
<path d="M125 235C194.036 235 250 231.621 250 227.454C250 223.286 194.036 219.907 125 219.907C55.9644 219.907 0 223.286 0 227.454C0 231.621 55.9644 235 125 235Z" fill="#F5F5F5"/>
<path d="M127.802 38.5717L127.356 38.2051C129.383 35.5633 131.516 33.0347 133.694 30.6894L134.105 31.0979C131.94 33.4292 129.819 35.9438 127.802 38.5717Z" fill="#407BFF"/>
<path d="M125.394 40.7572L123.317 43.4647L123.764 43.8312L125.841 41.1237L125.394 40.7572Z" fill="#407BFF"/>
<path d="M170.135 69.4912C184.142 46.2069 186.05 23.2718 175.85 15.8467C165.651 8.42159 145.405 18.008 128.92 39.4883L81.7766 100.916L130.077 136.077L170.135 69.4912Z" fill="#407BFF"/>
<path opacity="0.1" d="M164.617 65.477L123.614 131.371L118.595 121.461L159.324 61.3516C170.839 44.3507 177.289 28.814 177.317 20.1633C177.32 19.3828 178.396 19.1896 178.644 19.9267C181.547 28.5448 176.519 46.3554 164.617 65.477Z" fill="white"/>
<path d="M130.079 136.088C136.6 126.516 131.074 110.884 117.736 101.174C104.399 91.4639 88.3002 91.3519 81.7792 100.924C75.2582 110.496 80.7842 126.127 94.1218 135.838C107.459 145.548 123.558 145.66 130.079 136.088Z" fill="#407BFF"/>
<path opacity="0.5" d="M130.079 136.088C136.6 126.516 131.074 110.884 117.736 101.174C104.399 91.4639 88.3002 91.3519 81.7792 100.924C75.2582 110.496 80.7842 126.127 94.1218 135.838C107.459 145.548 123.558 145.66 130.079 136.088Z" fill="white"/>
<path opacity="0.1" d="M125.065 90.2935C114.464 82.5759 102.443 80.3739 94.772 83.9808L82.8103 99.5628C89.8872 91.3759 105.059 91.9357 117.734 101.162C130.414 110.393 136.035 124.97 130.956 134.619L140.998 117.933C141.853 109.207 135.778 98.0925 125.065 90.2935Z" fill="black"/>
<path opacity="0.2" d="M142.037 40.0607C139.097 44.8699 136.898 53.8752 145.62 60.2246C154.342 66.574 161.802 61.3989 165.192 56.9169L142.037 40.0607Z" fill="black"/>
<path d="M167.255 51.3345C166.252 59.9306 156.645 66.2021 146.553 58.8556C136.461 51.5091 138.935 40.0446 146.426 36.1718C151.041 33.7858 156.918 34.8062 160.941 37.734C164.962 40.6624 167.872 46.0381 167.255 51.3345Z" fill="white"/>
<path d="M147.923 56.8429C143.996 53.9837 141.99 50.2569 142.273 46.348C142.519 42.9664 144.518 39.9107 147.491 38.3738C151 36.5597 155.966 37.1248 159.569 39.7474C163.172 42.3699 165.361 47.0138 164.891 51.04C164.493 54.4509 162.383 57.4267 159.386 58.8056C155.922 60.3992 151.851 59.702 147.923 56.8429Z" fill="#407BFF"/>
<path opacity="0.3" d="M147.923 56.8429C143.996 53.9837 141.99 50.2569 142.273 46.348C142.519 42.9664 144.518 39.9107 147.491 38.3738C151 36.5597 155.966 37.1248 159.569 39.7474C163.172 42.3699 165.361 47.0138 164.891 51.04C164.493 54.4509 162.383 57.4267 159.386 58.8056C155.922 60.3992 151.851 59.702 147.923 56.8429Z" fill="black"/>
<path d="M147.923 56.843C143.996 53.9838 141.919 50.3609 142.073 46.6414C142.207 43.423 144.065 40.5745 146.923 39.2076C150.295 37.5941 155.166 38.2992 158.769 40.9218C162.372 43.5443 164.656 48.0483 164.322 51.8738C164.04 55.1148 162.072 57.8833 159.186 59.099C155.85 60.5032 151.851 59.7021 147.923 56.843Z" fill="#407BFF"/>
<path opacity="0.2" d="M147.923 56.843C143.996 53.9838 141.919 50.3609 142.073 46.6414C142.207 43.423 144.065 40.5745 146.923 39.2076C150.295 37.5941 155.166 38.2992 158.769 40.9218C162.372 43.5443 164.656 48.0483 164.322 51.8738C164.04 55.1148 162.072 57.8833 159.186 59.099C155.85 60.5032 151.851 59.7021 147.923 56.843Z" fill="white"/>
<path opacity="0.3" d="M161.494 43.5596L143.349 51.8331C142.435 50.1816 141.999 48.4268 142.072 46.6427C142.108 45.7656 142.27 44.9199 142.555 44.1268L154.267 38.7877C155.853 39.2049 157.402 39.9254 158.769 40.9217C159.796 41.6689 160.716 42.5639 161.494 43.5596Z" fill="white"/>
<path opacity="0.3" d="M164.099 48.896L147.449 56.4817C146.389 55.6646 145.482 54.7942 144.728 53.8692L162.845 45.6057C163.422 46.672 163.848 47.7877 164.099 48.896Z" fill="white"/>
<path opacity="0.1" d="M182.256 34.0525C181.702 29.4565 178.284 24.1381 172.881 20.2053C167.483 16.2758 161.487 14.7409 157.11 15.7473C164.556 12.6089 171.23 12.4849 175.85 15.8473C180.468 19.2102 182.604 25.7483 182.256 34.0525Z" fill="black"/>
<path opacity="0.5" d="M117.728 117.335C119.759 114.353 118.114 109.539 114.052 106.582C109.991 103.625 105.052 103.646 103.02 106.628C100.989 109.61 102.634 114.424 106.696 117.381C110.757 120.338 115.696 120.317 117.728 117.335Z" fill="#407BFF"/>
<path opacity="0.5" d="M98.5402 114.516C96.5087 117.497 91.5697 117.518 87.5081 114.562C83.4465 111.605 81.8006 106.791 83.832 103.809C85.8635 100.827 90.8025 100.806 94.8641 103.763C98.9257 106.72 100.572 111.534 98.5402 114.516Z" fill="#407BFF"/>
<path opacity="0.5" d="M126.749 135.051C124.717 138.033 119.778 138.053 115.717 135.097C111.655 132.14 110.009 127.326 112.041 124.344C114.072 121.362 119.011 121.342 123.073 124.298C127.134 127.254 128.78 132.068 126.749 135.051Z" fill="#407BFF"/>
<path opacity="0.5" d="M107.564 132.242C105.533 135.223 100.594 135.244 96.532 132.288C92.4704 129.331 90.8245 124.517 92.8559 121.535C94.8874 118.553 99.8264 118.532 103.888 121.489C107.95 124.445 109.596 129.259 107.564 132.242Z" fill="#407BFF"/>
<path opacity="0.5" d="M117.727 117.323C117.512 117.639 117.257 117.926 116.983 118.175C118.108 115.2 116.404 111.079 112.778 108.439C109.151 105.799 104.824 105.53 102.494 107.628C102.628 107.277 102.803 106.932 103.018 106.617C105.047 103.638 109.99 103.616 114.051 106.571C118.11 109.526 119.755 114.344 117.727 117.323Z" fill="#407BFF"/>
<path opacity="0.5" d="M98.5378 114.516C98.3225 114.832 98.0717 115.113 97.7938 115.368C98.9233 112.388 97.2245 108.271 93.5923 105.627C89.9652 102.986 85.638 102.717 83.3042 104.82C83.4422 104.465 83.6143 104.125 83.829 103.809C85.8617 100.826 90.8008 100.808 94.8611 103.764C98.9265 106.723 100.57 111.532 98.5378 114.516Z" fill="#407BFF"/>
<path opacity="0.5" d="M126.75 135.053C126.534 135.369 126.283 135.651 126.006 135.905C127.135 132.925 125.432 128.805 121.804 126.164C118.172 123.52 113.85 123.254 111.516 125.358C111.655 125.002 111.826 124.662 112.042 124.347C114.074 121.363 119.008 121.341 123.073 124.301C127.133 127.256 128.782 132.07 126.75 135.053Z" fill="#407BFF"/>
<path opacity="0.5" d="M107.564 132.242C107.349 132.558 107.102 132.843 106.82 133.093C107.946 130.119 106.245 125.992 102.618 123.352C98.9913 120.712 94.6603 120.448 92.3303 122.546C92.4631 122.187 92.6398 121.851 92.8551 121.535C94.8878 118.551 99.8269 118.534 103.887 121.49C107.947 124.445 109.596 129.258 107.564 132.242Z" fill="#407BFF"/>
<path d="M113.767 62.1673C113.767 62.1673 105.068 73.8412 97.4874 83.8935C95.3167 86.7719 91.8302 88.1449 88.3263 87.6963C81.702 86.8486 70.8923 91.7065 70.8923 91.7065C70.8923 91.7065 91.3235 57.0469 113.767 62.1673Z" fill="#407BFF"/>
<path opacity="0.3" d="M113.767 62.1673C113.767 62.1673 105.068 73.8412 97.4874 83.8935C95.3167 86.7719 91.8302 88.1449 88.3263 87.6963C81.702 86.8486 70.8923 91.7065 70.8923 91.7065C70.8923 91.7065 91.3235 57.0469 113.767 62.1673Z" fill="black"/>
<path d="M154.586 91.8824C154.586 91.8824 146.886 104.282 140.285 115.049C138.396 118.132 138.319 121.987 139.909 125.247C142.913 131.409 142.132 143.567 142.132 143.567C142.132 143.567 166.813 112 154.586 91.8824Z" fill="#407BFF"/>
<path opacity="0.3" d="M154.586 91.8824C154.586 91.8824 146.886 104.282 140.285 115.049C138.396 118.132 138.319 121.987 139.909 125.247C142.913 131.409 142.132 143.567 142.132 143.567C142.132 143.567 166.813 112 154.586 91.8824Z" fill="black"/>
<path d="M182.707 181.05C190.731 160.68 155.959 154.909 142.166 160.021C128.373 165.132 114.34 168.932 113.788 155.303C113.235 141.674 123.858 133.221 118.8 130.076C115.993 128.33 115.191 131.434 113.81 135.905C109.562 149.662 85.5403 152.944 96.5924 172.863C107.645 192.783 101.776 188.458 83.1536 196.452C64.5309 204.446 74.1072 227.454 92.1221 227.454C110.137 227.454 166.906 227.454 200.494 227.454C250.16 227.454 203.139 129.177 182.707 181.05Z" fill="#407BFF"/>
<path opacity="0.6" d="M182.707 181.05C190.731 160.68 155.959 154.909 142.166 160.021C128.373 165.132 114.34 168.932 113.788 155.303C113.235 141.674 123.858 133.221 118.8 130.076C115.993 128.33 115.191 131.434 113.81 135.905C109.562 149.662 85.5403 152.944 96.5924 172.863C107.645 192.783 101.776 188.458 83.1536 196.452C64.5309 204.446 74.1072 227.454 92.1221 227.454C110.137 227.454 166.906 227.454 200.494 227.454C250.16 227.454 203.139 129.177 182.707 181.05Z" fill="white"/>
<path d="M91.1862 110.059C89.7408 104.873 81.9277 111.408 74.2268 119.284C66.4633 127.224 62.7331 145.212 55.2907 154.582C47.7961 164.017 26.5223 172.498 34.8576 186.623C47.1539 207.46 18.8929 227.454 52.3592 227.454C85.8255 227.454 108.454 227.454 121.004 227.454C133.553 227.454 147.166 211.588 127.619 200.776C108.073 189.965 78.79 215.142 70.8917 191.145C66.9726 179.237 81.1844 184.701 74.6071 165.197C68.0299 145.694 68.4554 140.388 71.8137 131.695C79.9833 110.553 93.3814 117.934 91.1862 110.059Z" fill="#407BFF"/>
<path opacity="0.6" d="M91.1862 110.059C89.7408 104.873 81.9277 111.408 74.2268 119.284C66.4633 127.224 62.7331 145.212 55.2907 154.582C47.7961 164.017 26.5223 172.498 34.8576 186.623C47.1539 207.46 18.8929 227.454 52.3592 227.454C85.8255 227.454 108.454 227.454 121.004 227.454C133.553 227.454 147.166 211.588 127.619 200.776C108.073 189.965 78.79 215.142 70.8917 191.145C66.9726 179.237 81.1844 184.701 74.6071 165.197C68.0299 145.694 68.4554 140.388 71.8137 131.695C79.9833 110.553 93.3814 117.934 91.1862 110.059Z" fill="white"/>
<path d="M105.412 112.451C107.116 109.236 112.955 111.167 112.828 115.368C112.7 119.57 97.5727 125.086 100.383 139.605C103.193 154.124 130.195 155.172 136.533 169.718C142.871 184.265 118.324 186.307 125.618 195.403C132.913 204.501 155.549 183.609 171.648 188.982C187.747 194.355 203.847 227.454 174.31 227.454C144.773 227.454 103.094 227.454 83.3049 227.454C63.5159 227.454 49.0643 185.204 68.0797 167.83C87.0945 150.455 71.7558 156.09 78.8552 144.95C85.9533 133.811 98.8834 124.769 105.412 112.451Z" fill="#407BFF"/>
<path opacity="0.8" d="M105.412 112.451C107.116 109.236 112.955 111.167 112.828 115.368C112.7 119.57 97.5727 125.086 100.383 139.605C103.193 154.124 130.195 155.172 136.533 169.718C142.871 184.265 118.324 186.307 125.618 195.403C132.913 204.501 155.549 183.609 171.648 188.982C187.747 194.355 203.847 227.454 174.31 227.454C144.773 227.454 103.094 227.454 83.3049 227.454C63.5159 227.454 49.0643 185.204 68.0797 167.83C87.0945 150.455 71.7558 156.09 78.8552 144.95C85.9533 133.811 98.8834 124.769 105.412 112.451Z" fill="white"/>
</svg>
