<svg width="14" height="14" viewBox="0 0 14 14" fill="none" xmlns="http://www.w3.org/2000/svg">
<g clip-path="url(#clip0_1893_155)">
<path d="M11.6667 1.16667H11.0833V0.583333C11.0833 0.428624 11.0219 0.280251 10.9125 0.170854C10.8031 0.0614582 10.6547 0 10.5 0C10.3453 0 10.1969 0.0614582 10.0875 0.170854C9.97812 0.280251 9.91667 0.428624 9.91667 0.583333V1.16667H4.08333V0.583333C4.08333 0.428624 4.02187 0.280251 3.91248 0.170854C3.80308 0.0614582 3.65471 0 3.5 0C3.34529 0 3.19692 0.0614582 3.08752 0.170854C2.97812 0.280251 2.91667 0.428624 2.91667 0.583333V1.16667H2.33333C1.71449 1.16667 1.121 1.4125 0.683417 1.85008C0.245833 2.28767 0 2.88116 0 3.5L0 11.6667C0 12.2855 0.245833 12.879 0.683417 13.3166C1.121 13.7542 1.71449 14 2.33333 14H11.6667C12.2855 14 12.879 13.7542 13.3166 13.3166C13.7542 12.879 14 12.2855 14 11.6667V3.5C14 2.88116 13.7542 2.28767 13.3166 1.85008C12.879 1.4125 12.2855 1.16667 11.6667 1.16667ZM12.8333 11.6667C12.8333 11.9761 12.7104 12.2728 12.4916 12.4916C12.2728 12.7104 11.9761 12.8333 11.6667 12.8333H2.33333C2.02391 12.8333 1.72717 12.7104 1.50838 12.4916C1.28958 12.2728 1.16667 11.9761 1.16667 11.6667V3.5C1.16667 3.19058 1.28958 2.89383 1.50838 2.67504C1.72717 2.45625 2.02391 2.33333 2.33333 2.33333H2.91667V2.91667C2.91667 3.07138 2.97812 3.21975 3.08752 3.32915C3.19692 3.43854 3.34529 3.5 3.5 3.5C3.65471 3.5 3.80308 3.43854 3.91248 3.32915C4.02187 3.21975 4.08333 3.07138 4.08333 2.91667V2.33333H9.91667V2.91667C9.91667 3.07138 9.97812 3.21975 10.0875 3.32915C10.1969 3.43854 10.3453 3.5 10.5 3.5C10.6547 3.5 10.8031 3.43854 10.9125 3.32915C11.0219 3.21975 11.0833 3.07138 11.0833 2.91667V2.33333H11.6667C11.9761 2.33333 12.2728 2.45625 12.4916 2.67504C12.7104 2.89383 12.8333 3.19058 12.8333 3.5V11.6667Z" fill="#232323"/>
<path d="M11.0835 4.08337H2.91683C2.76212 4.08337 2.61375 4.14483 2.50435 4.25423C2.39495 4.36362 2.3335 4.512 2.3335 4.66671C2.3335 4.82142 2.39495 4.96979 2.50435 5.07919C2.61375 5.18858 2.76212 5.25004 2.91683 5.25004H11.0835C11.2382 5.25004 11.3866 5.18858 11.496 5.07919C11.6054 4.96979 11.6668 4.82142 11.6668 4.66671C11.6668 4.512 11.6054 4.36362 11.496 4.25423C11.3866 4.14483 11.2382 4.08337 11.0835 4.08337Z" fill="#232323"/>
<path d="M4.0835 7H2.91683C2.76212 7 2.61375 7.06146 2.50435 7.17085C2.39495 7.28025 2.3335 7.42862 2.3335 7.58333C2.3335 7.73804 2.39495 7.88642 2.50435 7.99581C2.61375 8.10521 2.76212 8.16667 2.91683 8.16667H4.0835C4.23821 8.16667 4.38658 8.10521 4.49597 7.99581C4.60537 7.88642 4.66683 7.73804 4.66683 7.58333C4.66683 7.42862 4.60537 7.28025 4.49597 7.17085C4.38658 7.06146 4.23821 7 4.0835 7Z" fill="#232323"/>
<path d="M4.0835 9.91663H2.91683C2.76212 9.91663 2.61375 9.97808 2.50435 10.0875C2.39495 10.1969 2.3335 10.3452 2.3335 10.5C2.3335 10.6547 2.39495 10.803 2.50435 10.9124C2.61375 11.0218 2.76212 11.0833 2.91683 11.0833H4.0835C4.23821 11.0833 4.38658 11.0218 4.49597 10.9124C4.60537 10.803 4.66683 10.6547 4.66683 10.5C4.66683 10.3452 4.60537 10.1969 4.49597 10.0875C4.38658 9.97808 4.23821 9.91663 4.0835 9.91663Z" fill="#232323"/>
<path d="M7.5835 7H6.41683C6.26212 7 6.11375 7.06146 6.00435 7.17085C5.89495 7.28025 5.8335 7.42862 5.8335 7.58333C5.8335 7.73804 5.89495 7.88642 6.00435 7.99581C6.11375 8.10521 6.26212 8.16667 6.41683 8.16667H7.5835C7.73821 8.16667 7.88658 8.10521 7.99597 7.99581C8.10537 7.88642 8.16683 7.73804 8.16683 7.58333C8.16683 7.42862 8.10537 7.28025 7.99597 7.17085C7.88658 7.06146 7.73821 7 7.5835 7Z" fill="#232323"/>
<path d="M7.5835 9.91663H6.41683C6.26212 9.91663 6.11375 9.97808 6.00435 10.0875C5.89495 10.1969 5.8335 10.3452 5.8335 10.5C5.8335 10.6547 5.89495 10.803 6.00435 10.9124C6.11375 11.0218 6.26212 11.0833 6.41683 11.0833H7.5835C7.73821 11.0833 7.88658 11.0218 7.99597 10.9124C8.10537 10.803 8.16683 10.6547 8.16683 10.5C8.16683 10.3452 8.10537 10.1969 7.99597 10.0875C7.88658 9.97808 7.73821 9.91663 7.5835 9.91663Z" fill="#232323"/>
<path d="M11.0835 7H9.91683C9.76212 7 9.61375 7.06146 9.50435 7.17085C9.39495 7.28025 9.3335 7.42862 9.3335 7.58333C9.3335 7.73804 9.39495 7.88642 9.50435 7.99581C9.61375 8.10521 9.76212 8.16667 9.91683 8.16667H11.0835C11.2382 8.16667 11.3866 8.10521 11.496 7.99581C11.6054 7.88642 11.6668 7.73804 11.6668 7.58333C11.6668 7.42862 11.6054 7.28025 11.496 7.17085C11.3866 7.06146 11.2382 7 11.0835 7Z" fill="#232323"/>
<path d="M11.0835 9.91663H9.91683C9.76212 9.91663 9.61375 9.97808 9.50435 10.0875C9.39495 10.1969 9.3335 10.3452 9.3335 10.5C9.3335 10.6547 9.39495 10.803 9.50435 10.9124C9.61375 11.0218 9.76212 11.0833 9.91683 11.0833H11.0835C11.2382 11.0833 11.3866 11.0218 11.496 10.9124C11.6054 10.803 11.6668 10.6547 11.6668 10.5C11.6668 10.3452 11.6054 10.1969 11.496 10.0875C11.3866 9.97808 11.2382 9.91663 11.0835 9.91663Z" fill="#232323"/>
</g>
<defs>
<clipPath id="clip0_1893_155">
<rect width="14" height="14" fill="white"/>
</clipPath>
</defs>
</svg>
