<svg width="173" height="34" viewBox="0 0 173 34" fill="none" xmlns="http://www.w3.org/2000/svg">
<rect x="0.25" y="0.25" width="172.5" height="33.5" fill="#FAFAFA"/>
<rect x="0.25" y="0.25" width="172.5" height="33.5" stroke="#333333" stroke-width="0.5"/>
<path d="M13.6 20.144C12.832 20.144 12.172 19.964 11.62 19.604C11.076 19.236 10.696 18.732 10.48 18.092L11.2 17.672C11.352 18.2 11.632 18.608 12.04 18.896C12.456 19.184 12.98 19.328 13.612 19.328C14.228 19.328 14.712 19.192 15.064 18.92C15.416 18.648 15.592 18.28 15.592 17.816C15.592 17.376 15.432 17.044 15.112 16.82C14.8 16.596 14.272 16.364 13.528 16.124C12.64 15.828 12.064 15.596 11.8 15.428C11.16 15.044 10.84 14.488 10.84 13.76C10.84 13.048 11.088 12.488 11.584 12.08C12.072 11.664 12.684 11.456 13.42 11.456C14.052 11.456 14.612 11.624 15.1 11.96C15.588 12.288 15.952 12.724 16.192 13.268L15.484 13.664C15.1 12.736 14.412 12.272 13.42 12.272C12.892 12.272 12.468 12.404 12.148 12.668C11.836 12.924 11.68 13.276 11.68 13.724C11.68 14.148 11.824 14.46 12.112 14.66C12.408 14.868 12.884 15.08 13.54 15.296L14.188 15.524C14.324 15.564 14.516 15.636 14.764 15.74C15.036 15.844 15.224 15.932 15.328 16.004C15.752 16.26 16.02 16.496 16.132 16.712C16.332 17.032 16.432 17.392 16.432 17.792C16.432 18.504 16.172 19.076 15.652 19.508C15.132 19.932 14.448 20.144 13.6 20.144ZM20.6433 13.856C21.5393 13.856 22.2553 14.172 22.7913 14.804C23.3433 15.428 23.6193 16.168 23.6193 17.024C23.6193 17.064 23.6113 17.188 23.5953 17.396H18.3273C18.4073 17.996 18.6633 18.476 19.0953 18.836C19.5273 19.196 20.0673 19.376 20.7153 19.376C21.6273 19.376 22.2713 19.036 22.6473 18.356L23.3433 18.764C23.0793 19.196 22.7153 19.536 22.2513 19.784C21.7953 20.024 21.2793 20.144 20.7033 20.144C19.7593 20.144 18.9913 19.848 18.3993 19.256C17.8073 18.664 17.5113 17.912 17.5113 17C17.5113 16.096 17.8033 15.348 18.3873 14.756C18.9713 14.156 19.7233 13.856 20.6433 13.856ZM20.6433 14.624C20.0193 14.624 19.4953 14.808 19.0713 15.176C18.6553 15.544 18.4073 16.028 18.3273 16.628H22.8033C22.7153 15.988 22.4713 15.496 22.0713 15.152C21.6553 14.8 21.1793 14.624 20.6433 14.624ZM25.6711 20H24.8791V11.24H25.6711V20ZM30.1237 13.856C31.0197 13.856 31.7357 14.172 32.2717 14.804C32.8237 15.428 33.0997 16.168 33.0997 17.024C33.0997 17.064 33.0917 17.188 33.0757 17.396H27.8077C27.8877 17.996 28.1437 18.476 28.5757 18.836C29.0077 19.196 29.5477 19.376 30.1957 19.376C31.1077 19.376 31.7517 19.036 32.1277 18.356L32.8237 18.764C32.5597 19.196 32.1957 19.536 31.7317 19.784C31.2757 20.024 30.7597 20.144 30.1837 20.144C29.2397 20.144 28.4717 19.848 27.8797 19.256C27.2877 18.664 26.9917 17.912 26.9917 17C26.9917 16.096 27.2837 15.348 27.8677 14.756C28.4517 14.156 29.2037 13.856 30.1237 13.856ZM30.1237 14.624C29.4997 14.624 28.9757 14.808 28.5517 15.176C28.1357 15.544 27.8877 16.028 27.8077 16.628H32.2837C32.1957 15.988 31.9517 15.496 31.5517 15.152C31.1357 14.8 30.6597 14.624 30.1237 14.624ZM37.1555 20.144C36.2515 20.144 35.4995 19.844 34.8995 19.244C34.2995 18.628 33.9995 17.88 33.9995 17C33.9995 16.112 34.2995 15.368 34.8995 14.768C35.4995 14.16 36.2515 13.856 37.1555 13.856C37.7475 13.856 38.2795 14 38.7515 14.288C39.2235 14.568 39.5675 14.948 39.7835 15.428L39.1355 15.8C38.9755 15.44 38.7155 15.156 38.3555 14.948C38.0035 14.732 37.6035 14.624 37.1555 14.624C36.4915 14.624 35.9315 14.856 35.4755 15.32C35.0195 15.776 34.7915 16.336 34.7915 17C34.7915 17.656 35.0195 18.22 35.4755 18.692C35.9315 19.148 36.4915 19.376 37.1555 19.376C37.5955 19.376 37.9915 19.272 38.3435 19.064C38.7035 18.856 38.9835 18.568 39.1835 18.2L39.8435 18.584C39.5955 19.064 39.2315 19.444 38.7515 19.724C38.2715 20.004 37.7395 20.144 37.1555 20.144ZM44.1606 14V14.768H42.4326V18.404C42.4326 18.732 42.4966 18.968 42.6246 19.112C42.7526 19.248 42.9446 19.32 43.2006 19.328C43.4566 19.328 43.7766 19.32 44.1606 19.304V20C43.3046 20.128 42.6686 20.068 42.2526 19.82C41.8446 19.564 41.6406 19.092 41.6406 18.404V14.768H40.3806V14H41.6406V12.56L42.4326 12.32V14H44.1606Z" fill="#919090"/>
<path d="M159 21.25L153.804 14.875L164.196 14.875L159 21.25Z" fill="#333333"/>
</svg>
