<svg width="350" height="350" viewBox="0 0 350 350" fill="none" xmlns="http://www.w3.org/2000/svg">
<path d="M95.4144 88.4597C82.1697 88.4597 71.4331 77.7231 71.4331 64.4784C71.4331 51.2337 82.1697 40.4971 95.4144 40.4971C108.659 40.4971 119.396 51.2337 119.396 64.4784C119.396 77.7231 108.659 88.4597 95.4144 88.4597Z" fill="#068BBE"/>
<path d="M89.5035 59.1324H84.5405V75.1666H89.5035V59.1324Z" fill="white"/>
<path d="M86.9981 57.0332C88.6193 57.0332 89.9332 55.7074 89.9332 54.0736C89.9332 52.4398 88.6193 51.1154 86.9981 51.1154C85.3769 51.1154 84.063 52.4405 84.063 54.0736C84.063 55.7074 85.3762 57.0332 86.9981 57.0332Z" fill="white"/>
<path d="M97.4372 66.7499C97.4372 64.4959 98.4746 63.1526 100.461 63.1526C102.286 63.1526 103.163 64.4413 103.163 66.7499C103.163 69.0592 103.163 75.1667 103.163 75.1667H108.103C108.103 75.1667 108.103 69.3098 108.103 65.0146C108.103 60.7201 105.668 58.6432 102.269 58.6432C98.868 58.6432 97.4372 61.2927 97.4372 61.2927V59.1332H92.6758V75.1674H97.4372C97.4372 75.1674 97.4372 69.2202 97.4372 66.7499Z" fill="white"/>
<path d="M127.554 16.7202L130.838 22.7248L136.842 26.0085L130.838 29.2922L127.554 35.2968L124.27 29.2922L118.266 26.0085L124.27 22.7248L127.554 16.7202Z" fill="#FBF335"/>
<path d="M264.509 179.391L266.973 183.894L271.476 186.357L266.973 188.82L264.509 193.323L262.047 188.82L257.543 186.357L262.047 183.894L264.509 179.391Z" fill="#FBF335"/>
<path d="M271.476 157.156L272.586 159.188L274.619 160.299L272.586 161.41L271.476 163.442L270.365 161.41L268.333 160.299L270.365 159.188L271.476 157.156Z" fill="#E0E0E0"/>
<path d="M104.1 18.9784L105.211 21.0105L107.242 22.1214L105.211 23.233L104.1 25.2644L102.988 23.233L100.956 22.1214L102.988 21.0105L104.1 18.9784Z" fill="#FBF335"/>
<path d="M48.3933 207.731C50.8986 206.641 52.657 204.021 52.6318 200.959C52.5961 196.948 49.5196 193.723 45.7585 193.754C41.9995 193.785 38.9797 197.062 39.0147 201.072C39.042 204.162 40.8802 206.767 43.4408 207.795C32.9842 209.509 33.6072 220.89 33.6072 220.89L58.3837 220.683C58.3837 220.683 58.7995 209.164 48.3933 207.731Z" fill="#068BBE"/>
<path d="M286.045 282.757C285.694 280.974 283.936 279.58 282.121 279.646C280.322 279.711 278.684 281.202 278.439 282.983C278.179 281.204 276.528 279.728 274.728 279.679C272.912 279.63 271.167 281.039 270.832 282.824C270.589 284.124 271.034 285.477 271.767 286.579C272.498 287.681 273.498 288.574 274.486 289.454C275.871 290.686 277.15 291.844 278.534 293.076C279.908 291.831 281.077 290.662 282.449 289.418C283.43 288.53 284.422 287.629 285.144 286.52C285.866 285.412 286.3 284.054 286.045 282.757Z" fill="#CD0303"/>
<path d="M302.182 135.205L304.837 134.679L309.03 125.455L307.979 120.156C307.979 120.156 312.033 119.09 312.926 126.125C313.819 133.16 313.991 131.289 313.991 131.289C313.991 131.289 322.711 129.594 323.585 130.208C324.221 130.654 326.175 139.261 327.197 143.937C327.712 146.292 326.698 148.777 324.612 149.771C324.315 149.913 324.009 150.021 323.699 150.083C321.526 150.514 310.071 150.949 310.071 150.949L305.485 151.858L302.182 135.205Z" fill="#068BBE"/>
<path d="M294.293 135.258L299.527 153.092L304.074 152.191L300.545 134.398L294.293 135.258Z" fill="#068BBE"/>
<path d="M329.328 328.526C329.328 328.627 259.91 328.708 174.298 328.708C88.6555 328.708 19.252 328.626 19.252 328.526C19.252 328.425 88.6555 328.344 174.298 328.344C259.91 328.344 329.328 328.425 329.328 328.526Z" fill="#263238"/>
<path d="M275.403 128.205C261.277 135.075 244.257 129.193 237.387 115.068C230.516 100.943 236.398 83.9223 250.524 77.0518C264.649 70.182 281.67 76.0634 288.54 90.1887C295.41 104.315 289.528 121.335 275.403 128.205Z" fill="#CD0303"/>
<path d="M255.935 108.985C256.414 108.955 256.696 108.624 256.597 108.125C256.528 107.78 256.343 106.914 256.271 106.551C256.176 106.055 256.056 105.925 255.548 105.701C254.442 105.213 253.471 104.357 252.732 102.838C250.587 98.4285 251.966 92.8768 257.258 90.3029C261.944 88.0244 265.91 89.6351 267.77 93.4592C270.217 98.4901 270.056 103.819 266.75 105.426C264.925 106.313 262.825 105.468 262.362 103.406C261.813 100.939 261.668 98.0596 260.891 96.4636C260.197 95.0356 258.851 94.2166 257.264 94.9887C255.397 95.8966 254.838 98.5559 256.095 101.142C256.896 102.789 257.996 103.632 257.996 103.632C257.996 103.632 260.021 112.652 260.376 114.231C261.08 117.377 263.33 120.561 263.548 120.887C263.677 121.081 263.967 120.999 264.011 120.786C264.074 120.477 264.962 116.652 264.383 113.544C264.22 112.663 263.279 108.151 263.279 108.151C264.447 109.013 266.715 109.168 268.598 108.252C274.208 105.524 275.526 98.5601 272.196 91.7155C269.679 86.5397 262.952 83.8517 256.289 87.092C247.999 91.124 246.709 99.1005 249.12 104.056C250.579 107.059 253.014 109.177 255.935 108.985Z" fill="white"/>
<path d="M303.809 208.429C293.689 204.562 288.62 193.223 292.487 183.103C296.354 172.983 307.693 167.914 317.812 171.781C327.932 175.648 333.002 186.987 329.135 197.107C325.267 207.227 313.929 212.295 303.809 208.429Z" fill="#05B06C"/>
<path fill-rule="evenodd" clip-rule="evenodd" d="M321.05 193.435C322.94 188.09 320.202 182.173 314.834 180.122C309.53 178.096 303.619 180.597 301.397 185.719C301.337 185.861 301.278 186.002 301.223 186.145C300.515 187.998 300.372 189.923 300.704 191.744L296.918 196.317L303.047 196.668C304.164 197.984 305.621 199.049 307.349 199.709C312.8 201.793 318.892 199.096 320.959 193.686C320.991 193.603 321.023 193.52 321.05 193.435ZM307.946 198.148C306.259 197.504 304.884 196.407 303.902 195.042L300.326 194.84L302.529 192.177C302.055 190.439 302.106 188.548 302.794 186.746C302.896 186.478 303.013 186.216 303.141 185.963C305.14 181.951 309.936 180.04 314.237 181.684C318.594 183.348 320.894 188.066 319.606 192.434C319.543 192.653 319.472 192.869 319.389 193.086C317.653 197.628 312.52 199.896 307.946 198.148Z" fill="white"/>
<path fill-rule="evenodd" clip-rule="evenodd" d="M314.859 193.621C314.66 193.408 313.695 192.372 313.503 192.209C313.313 192.041 313.165 191.942 312.912 192.121C312.658 192.299 311.985 192.661 311.786 192.765C311.581 192.872 311.435 192.838 311.237 192.624C311.042 192.412 310.357 191.864 309.747 190.688C309.273 189.782 309.083 188.81 309.037 188.516C308.99 188.223 309.164 188.142 309.33 188.068C309.483 187.999 309.678 187.878 309.856 187.787C309.904 187.758 309.946 187.731 309.987 187.705C310.076 187.639 310.15 187.571 310.249 187.477C310.394 187.347 310.405 187.193 310.391 187.05C310.377 186.907 310.343 185.539 310.324 184.981C310.308 184.424 310.074 184.43 309.93 184.375C309.792 184.322 309.639 184.237 309.478 184.176C309.316 184.114 309.03 184.073 308.716 184.229C308.402 184.384 307.556 184.728 307.105 185.911C306.999 186.188 306.944 186.485 306.917 186.776C306.839 187.715 307.099 188.614 307.145 188.77C307.205 188.973 307.801 192.07 309.89 193.974C311.986 195.871 312.108 195.553 312.568 195.681C313.026 195.813 314.221 195.651 314.634 195.163C315.052 194.682 315.235 194.201 315.213 194.077C315.192 193.955 315.053 193.834 314.859 193.621Z" fill="white"/>
<path d="M48.7418 117.769C40.4811 117.769 33.7842 111.072 33.7842 102.811C33.7842 94.5498 40.4811 87.8529 48.7418 87.8529C57.0025 87.8529 63.6994 94.5498 63.6994 102.811C63.7001 111.072 57.0032 117.769 48.7418 117.769Z" fill="#068BBE"/>
<path d="M40.7725 107.818C42.2201 108.747 43.9386 109.288 45.7852 109.288C51.857 109.288 55.287 104.159 55.0805 99.5597C55.7189 99.0991 56.274 98.523 56.7122 97.8671C56.1256 98.1268 55.4949 98.3032 54.8341 98.3816C55.5089 97.9777 56.0276 97.3365 56.2719 96.5728C55.6398 96.9473 54.9398 97.2203 54.1957 97.3666C53.5986 96.731 52.7495 96.3341 51.808 96.3341C49.6975 96.3341 48.1463 98.3039 48.623 100.349C45.9049 100.213 43.4955 98.9108 41.8827 96.9326C41.0259 98.4026 41.4382 100.326 42.8949 101.299C42.3587 101.282 41.854 101.135 41.413 100.89C41.378 102.405 42.463 103.822 44.0359 104.138C43.5753 104.263 43.0713 104.291 42.5596 104.193C42.9747 105.493 44.1829 106.437 45.6137 106.465C44.2396 107.542 42.5071 108.023 40.7725 107.818Z" fill="white"/>
<path d="M75.6226 285.329C61.7815 288.626 47.8886 280.079 44.5909 266.238C41.2939 252.397 49.8409 238.504 63.6813 235.206C77.5224 231.909 91.4153 240.456 94.7123 254.297C98.0107 268.139 89.4637 282.032 75.6226 285.329Z" fill="#EA456D"/>
<path d="M66.9686 249.003C70.638 248.128 71.0755 248.039 72.5399 247.76C73.8944 247.503 74.6749 247.553 75.2048 247.626C75.9055 247.722 76.434 247.911 77.0297 248.277C77.6254 248.644 78.032 249.031 78.4338 249.612C78.7376 250.052 79.1346 250.726 79.5154 252.052C79.9263 253.485 80.0446 253.916 80.9182 257.585C81.7925 261.254 81.8814 261.692 82.1607 263.157C82.4183 264.511 82.3679 265.292 82.2951 265.821C82.1985 266.522 82.0095 267.05 81.6434 267.646C81.2773 268.241 80.8902 268.648 80.3085 269.05C79.8689 269.354 79.1947 269.751 77.8696 270.131C76.4368 270.542 76.0056 270.66 72.3362 271.534C68.6668 272.408 68.2293 272.497 66.7649 272.777C65.4104 273.035 64.6299 272.984 64.1007 272.911C63.4 272.815 62.8715 272.626 62.2758 272.26C61.6808 271.893 61.2741 271.507 60.8716 270.925C60.5685 270.486 60.1709 269.812 59.7908 268.486C59.3799 267.053 59.2623 266.622 58.388 262.953C57.5137 259.284 57.4241 258.846 57.1455 257.382C56.8872 256.027 56.9383 255.246 57.0111 254.717C57.1077 254.016 57.2967 253.488 57.6628 252.893C58.0296 252.297 58.416 251.89 58.9984 251.488C59.438 251.185 60.1121 250.788 61.4372 250.407C62.868 249.995 63.2999 249.877 66.9686 249.003ZM66.3792 246.527C62.6475 247.416 62.1834 247.544 60.733 247.96C59.2861 248.375 58.3432 248.845 57.5501 249.393C56.7304 249.96 56.0759 250.612 55.4935 251.558C54.9111 252.503 54.6241 253.383 54.489 254.37C54.3574 255.324 54.363 256.379 54.6444 257.857C54.9265 259.339 55.0224 259.811 55.9114 263.542C56.8004 267.274 56.9278 267.738 57.3436 269.188C57.7587 270.635 58.2291 271.578 58.7772 272.371C59.3428 273.19 59.9959 273.845 60.9416 274.427C61.8873 275.009 62.7658 275.297 63.7528 275.433C64.7076 275.564 65.7618 275.559 67.2402 275.276C68.7221 274.994 69.1939 274.898 72.9256 274.009C76.6573 273.12 77.1214 272.993 78.5711 272.577C80.018 272.162 80.9609 271.692 81.7547 271.144C82.5751 270.577 83.2289 269.925 83.8113 268.979C84.393 268.033 84.6807 267.155 84.8165 266.168C84.9474 265.213 84.9425 264.159 84.6604 262.681C84.3776 261.199 84.2817 260.728 83.3927 256.996C82.5037 253.264 82.3763 252.8 81.9605 251.35C81.5454 249.904 81.075 248.96 80.5269 248.167C79.9606 247.347 79.3082 246.692 78.3618 246.11C77.4161 245.529 76.5376 245.241 75.5506 245.105C74.5958 244.974 73.5416 244.979 72.0632 245.261C70.582 245.543 70.1109 245.638 66.3792 246.527Z" fill="white"/>
<path d="M67.9718 253.212C64.0749 254.141 61.6683 258.053 62.5965 261.95C63.5247 265.847 67.437 268.253 71.3339 267.325C75.2308 266.397 77.6374 262.485 76.7092 258.588C75.7803 254.69 71.8687 252.284 67.9718 253.212ZM70.7438 264.849C68.214 265.451 65.6751 263.889 65.0724 261.36C64.4697 258.83 66.0321 256.291 68.5619 255.688C71.0917 255.086 73.6306 256.647 74.2333 259.178C74.8353 261.707 73.2736 264.247 70.7438 264.849Z" fill="white"/>
<path d="M76.8892 250.793C77.1062 251.704 76.5441 252.618 75.6334 252.835C74.722 253.052 73.8078 252.489 73.5915 251.579C73.3745 250.669 73.9366 249.755 74.848 249.538C75.758 249.32 76.6722 249.883 76.8892 250.793Z" fill="white"/>
<path d="M270.765 262.655C264.13 262.655 258.751 257.277 258.751 250.641C258.751 244.006 264.13 238.627 270.765 238.627C277.4 238.627 282.779 244.006 282.779 250.641C282.779 257.276 277.4 262.655 270.765 262.655Z" fill="#068BBE"/>
<path d="M268.934 257.903H271.858V250.579H273.899L274.116 248.127H271.858C271.858 248.127 271.858 247.211 271.858 246.73C271.858 246.152 271.975 245.924 272.534 245.924C272.984 245.924 274.116 245.924 274.116 245.924V243.379C274.116 243.379 272.448 243.379 272.091 243.379C269.915 243.379 268.934 244.337 268.934 246.172C268.934 247.77 268.934 248.127 268.934 248.127H267.413V250.61H268.934V257.903Z" fill="white"/>
<path d="M229.789 329.032L133.268 328.975C121.659 328.969 112.253 319.554 112.255 307.946L112.303 65.9667C112.305 54.3515 121.725 44.9386 133.34 44.9449L229.861 45.0017C241.47 45.0087 250.876 54.4223 250.874 66.0311L250.826 308.011C250.825 319.626 241.405 329.039 229.789 329.032Z" fill="#263238"/>
<path d="M229.759 53.5605L211.045 53.55C208.536 53.5486 206.5 55.6745 206.501 58.2974L206.499 61.6917C206.499 64.3153 204.464 66.4412 201.955 66.4398L165.478 66.4181C162.968 66.4167 160.934 64.2887 160.935 61.6651L160.936 58.2708C160.936 55.6472 158.901 53.5192 156.392 53.5178L149.81 53.5136L133.431 53.5045C125.296 53.5003 118.7 60.0922 118.698 68.2269L118.651 304.417C118.65 312.548 125.238 319.141 133.367 319.145L229.696 319.201C237.83 319.206 244.427 312.614 244.429 304.48L244.476 68.2892C244.476 60.158 237.889 53.5654 229.759 53.5605Z" fill="white"/>
<path d="M231.168 72.7489C231.169 72.8119 228.735 72.884 225.733 72.9085C222.73 72.933 220.296 72.9022 220.296 72.8385C220.296 72.7755 222.729 72.7041 225.732 72.6789C228.733 72.6544 231.168 72.6852 231.168 72.7489Z" fill="#263238"/>
<path d="M231.191 75.5308C231.192 75.5938 228.758 75.6659 225.756 75.6904C222.753 75.7149 220.319 75.6841 220.319 75.6204C220.319 75.5574 222.752 75.486 225.755 75.4608C228.756 75.4363 231.19 75.4671 231.191 75.5308Z" fill="#263238"/>
<path d="M231.214 78.3118C231.215 78.3748 228.781 78.4469 225.78 78.4714C222.777 78.4959 220.343 78.4651 220.343 78.4014C220.342 78.3384 222.775 78.267 225.778 78.2418C228.78 78.2173 231.214 78.2488 231.214 78.3118Z" fill="#263238"/>
<path d="M128.813 81.0251C128.819 81.0195 128.916 81.0139 129.098 81.0062C129.323 80.9985 129.582 80.9901 129.89 80.9803C130.638 80.9628 131.616 80.939 132.816 80.9103L132.735 80.9929C132.724 80.344 132.713 79.6356 132.7 78.8719C132.704 78.4778 132.667 78.1054 132.705 77.6504C132.784 77.1961 133.189 76.795 133.687 76.7488C134.158 76.7397 134.573 76.718 135.084 76.7418C135.612 76.8062 136.06 77.313 136.044 77.8716C136.055 78.8607 136.067 79.8939 136.079 80.9656L135.943 80.8319C137.128 80.82 138.363 80.8074 139.634 80.7941L139.494 80.9369C139.48 79.4508 139.467 77.9136 139.452 76.3386C139.449 75.9459 139.445 75.5553 139.443 75.1675C139.441 74.8063 139.221 74.5648 138.924 74.2953C138.378 73.757 137.84 73.2264 137.31 72.7049C136.782 72.1834 136.263 71.671 135.754 71.1691C135.5 70.9185 135.249 70.67 135 70.4243C134.741 70.1744 134.538 69.9161 134.237 69.8545C133.946 69.7761 133.625 69.8384 133.39 70.0162C133.167 70.2052 132.928 70.4726 132.704 70.6917C132.249 71.1502 131.808 71.5961 131.379 72.0273C130.546 72.8925 129.679 73.6828 129.048 74.4297C128.782 74.8427 128.882 75.3474 128.863 75.8073C128.862 76.2644 128.861 76.6984 128.86 77.1079C128.855 77.9052 128.851 78.6038 128.847 79.2023C128.841 79.7378 128.836 80.1795 128.833 80.5421C128.826 80.8515 128.82 81.0181 128.813 81.0251C128.806 81.0321 128.798 80.8795 128.788 80.5813C128.778 80.225 128.766 79.7896 128.751 79.2625C128.737 78.6591 128.721 77.9549 128.703 77.1506C128.696 76.7334 128.687 76.291 128.679 75.8248C128.675 75.5889 128.672 75.3467 128.668 75.0989C128.665 74.8371 128.733 74.5662 128.871 74.3268C129.554 73.4903 130.369 72.7497 131.208 71.8593C131.633 71.4239 132.071 70.9752 132.522 70.5132C132.758 70.2808 132.952 70.0498 133.234 69.8076C133.529 69.5808 133.934 69.4996 134.304 69.5969C134.697 69.6837 134.952 70.0057 135.19 70.2304C135.44 70.4747 135.692 70.7225 135.948 70.9724C136.458 71.4729 136.979 71.9832 137.509 72.5033C138.038 73.0241 138.578 73.5533 139.125 74.0902C139.254 74.2274 139.41 74.3436 139.537 74.5368C139.657 74.7209 139.725 74.9379 139.73 75.1591C139.734 75.549 139.737 75.941 139.741 76.3358C139.753 77.9108 139.765 79.448 139.776 80.9341L139.777 81.0762L139.636 81.0769C138.364 81.0853 137.131 81.093 135.945 81.1007L135.81 81.1014L135.81 80.967C135.804 79.8953 135.798 78.8621 135.794 77.873C135.809 77.4271 135.462 77.0337 135.048 76.977C134.624 76.9546 134.123 76.9693 133.71 76.9728C133.313 77.0057 132.982 77.3242 132.914 77.6903C132.878 78.0613 132.905 78.4939 132.898 78.8698C132.898 79.6342 132.898 80.3426 132.898 80.9915V81.0748L132.817 81.0741C131.597 81.0657 130.603 81.0587 129.843 81.0531C129.542 81.0482 129.288 81.0433 129.068 81.0398C128.895 81.0349 128.808 81.0307 128.813 81.0251Z" fill="#263238"/>
<path d="M192.486 265.584C192.486 265.609 192.126 265.633 191.475 265.655C190.754 265.67 189.828 265.689 188.717 265.713C186.388 265.746 183.17 265.766 179.617 265.766C176.063 265.766 172.845 265.746 170.517 265.713C169.405 265.69 168.479 265.67 167.759 265.655C167.108 265.633 166.747 265.609 166.747 265.584C166.747 265.559 167.107 265.535 167.759 265.514C168.478 265.499 169.405 265.479 170.517 265.455C172.845 265.423 176.063 265.402 179.617 265.402C183.17 265.402 186.388 265.423 188.717 265.455C189.828 265.479 190.755 265.498 191.475 265.514C192.126 265.535 192.486 265.559 192.486 265.584Z" fill="#455A64"/>
<path d="M232.94 271.916C232.94 272.017 218.121 272.098 199.845 272.098C181.563 272.098 166.748 272.016 166.748 271.916C166.748 271.816 181.563 271.734 199.845 271.734C218.121 271.734 232.94 271.816 232.94 271.916Z" fill="#455A64"/>
<path d="M212.255 277.873C212.255 277.974 202.067 278.055 189.502 278.055C176.933 278.055 166.748 277.974 166.748 277.873C166.748 277.773 176.933 277.691 189.502 277.691C202.067 277.691 212.255 277.773 212.255 277.873Z" fill="#455A64"/>
<path d="M234.248 289.468L232.191 287.405L230.233 289.358L230.242 283.454L234.257 283.46L234.248 289.468ZM232.192 287.148L232.256 287.212L234.067 289.029L234.075 283.641L230.424 283.635L230.415 288.919L232.192 287.148Z" fill="#263238"/>
<path d="M179.486 288.7L178.76 288.377C178.409 288.567 178.102 288.66 177.82 288.663C176.709 288.672 175.797 287.774 175.788 286.663C175.779 285.552 176.676 284.64 177.788 284.631C178.9 284.622 179.811 285.52 179.82 286.63C179.824 287.125 179.646 287.601 179.318 287.974L179.486 288.7ZM177.789 284.769C176.754 284.778 175.918 285.627 175.927 286.662C175.935 287.697 176.784 288.533 177.82 288.525C178.086 288.523 178.381 288.429 178.724 288.24L178.754 288.223L179.289 288.462L179.168 287.936L179.192 287.909C179.512 287.558 179.686 287.104 179.682 286.633C179.674 285.597 178.825 284.761 177.789 284.769Z" fill="#263238"/>
<path d="M184.152 288.389L183.32 286.359L181.761 284.938L185.544 284.908L184.152 288.389ZM182.114 285.073L183.442 286.292L184.151 288.021L185.339 285.047L182.114 285.073Z" fill="#263238"/>
<path d="M185.466 284.926L183.403 286.268L183.479 286.384L185.542 285.041L185.466 284.926Z" fill="#263238"/>
<path d="M173.533 285.361C173.424 284.821 172.889 284.4 172.338 284.422C171.792 284.444 171.298 284.898 171.225 285.439C171.144 284.899 170.641 284.453 170.095 284.44C169.544 284.427 169.016 284.857 168.916 285.399C168.843 285.794 168.981 286.204 169.204 286.538C169.427 286.872 169.732 287.142 170.032 287.408C170.453 287.78 170.843 288.13 171.265 288.502C171.68 288.123 172.033 287.767 172.448 287.388C172.745 287.117 173.045 286.843 173.262 286.506C173.481 286.167 173.611 285.755 173.533 285.361Z" fill="#068BBE"/>
<path d="M238.463 294.692C238.463 294.692 238.455 294.465 238.451 294.033C238.448 293.595 238.444 292.956 238.438 292.118C238.431 290.429 238.421 287.945 238.409 284.727C238.393 278.293 238.371 268.934 238.343 257.193L238.463 257.314C211.53 257.328 171.326 257.351 126.522 257.376H126.515L126.697 257.194C126.694 270.226 126.692 282.867 126.691 294.692L126.515 294.516C158.74 294.549 186.702 294.578 206.618 294.598C216.583 294.619 224.533 294.636 230.002 294.648C232.733 294.657 234.841 294.665 236.277 294.671C236.987 294.676 237.53 294.679 237.903 294.682C238.27 294.684 238.463 294.692 238.463 294.692C238.463 294.692 238.286 294.699 237.926 294.703C237.557 294.706 237.022 294.709 236.321 294.714C234.894 294.719 232.798 294.727 230.083 294.736C224.624 294.748 216.688 294.765 206.739 294.786C186.794 294.806 158.789 294.835 126.515 294.868H126.338V294.692C126.336 282.867 126.334 270.225 126.333 257.193V257.011H126.515H126.522C171.327 257.037 211.53 257.058 238.463 257.074H238.583V257.194C238.555 268.965 238.533 278.349 238.517 284.8C238.505 288.006 238.494 290.481 238.488 292.164C238.482 292.993 238.478 293.624 238.475 294.058C238.471 294.481 238.463 294.692 238.463 294.692Z" fill="#263238"/>
<path d="M131.177 263.461L131.036 288.252L162.046 288.429L162.187 263.638L131.177 263.461Z" fill="#EBEBEB"/>
<path d="M162.18 263.635C162.176 263.638 162.124 263.641 162.024 263.643C161.91 263.645 161.767 263.647 161.585 263.65C161.182 263.652 160.617 263.656 159.891 263.66C158.4 263.661 156.251 263.664 153.533 263.667C148.079 263.656 140.351 263.64 131.169 263.621L131.333 263.459C131.296 270.841 131.255 279.297 131.211 288.247C131.249 288.292 130.871 287.902 131.035 288.067H131.044H131.06H131.094L131.161 288.068L131.296 288.068L131.564 288.07L132.101 288.072L133.169 288.079C133.881 288.083 134.588 288.087 135.292 288.091C136.7 288.1 138.093 288.108 139.469 288.117C142.223 288.134 144.91 288.152 147.515 288.168C152.724 288.206 157.606 288.241 162.038 288.273L161.886 288.424C161.96 280.979 162.023 274.804 162.066 270.468C162.095 268.311 162.118 266.614 162.134 265.434C162.145 264.865 162.153 264.422 162.159 264.102C162.168 263.799 162.18 263.635 162.18 263.635C162.18 263.635 162.19 263.778 162.194 264.07C162.196 264.383 162.199 264.818 162.203 265.374C162.206 266.546 162.21 268.232 162.214 270.374C162.208 274.733 162.2 280.942 162.19 288.426V288.577L162.038 288.576C157.606 288.558 152.724 288.538 147.515 288.516C144.91 288.504 142.223 288.49 139.469 288.476C138.093 288.469 136.7 288.462 135.292 288.454C134.588 288.45 133.88 288.446 133.169 288.442L132.101 288.436L131.564 288.433L131.296 288.432L131.161 288.431H131.094H131.06H131.044H131.035C131.195 288.594 130.808 288.209 130.848 288.245C130.906 279.294 130.961 270.838 131.009 263.456L131.009 263.292L131.172 263.294C140.397 263.38 148.162 263.452 153.642 263.503C156.343 263.537 158.48 263.564 159.963 263.582C160.675 263.595 161.228 263.604 161.623 263.611C161.797 263.616 161.935 263.62 162.044 263.623C162.137 263.628 162.183 263.631 162.18 263.635Z" fill="#263238"/>
<path d="M132.237 265.027L132.114 286.697L160.945 286.861L161.068 265.192L132.237 265.027Z" fill="#E0E0E0"/>
<path d="M132.107 286.695L142.253 273.282L148.443 281.745L152.7 277.264L160.938 286.859L132.107 286.695Z" fill="#F5F5F5"/>
<path d="M151.149 271.683C151.142 272.936 150.12 273.947 148.866 273.94C147.613 273.933 146.602 272.911 146.609 271.657C146.616 270.404 147.638 269.393 148.892 269.401C150.145 269.407 151.156 270.429 151.149 271.683Z" fill="#F5F5F5"/>
<path d="M183.461 102.811C183.461 102.823 183.347 102.836 183.13 102.848C182.87 102.857 182.557 102.868 182.181 102.882C181.297 102.897 180.118 102.916 178.688 102.94C175.739 102.973 171.665 102.993 167.166 102.993C162.665 102.993 158.591 102.973 155.642 102.94C154.212 102.916 153.033 102.897 152.15 102.882C151.773 102.869 151.46 102.857 151.201 102.848C150.984 102.836 150.87 102.823 150.87 102.811C150.87 102.798 150.984 102.785 151.201 102.773C151.46 102.764 151.773 102.753 152.15 102.739C153.033 102.724 154.212 102.705 155.642 102.681C158.591 102.648 162.665 102.628 167.166 102.628C171.666 102.628 175.739 102.648 178.688 102.681C180.118 102.705 181.298 102.724 182.181 102.739C182.557 102.752 182.87 102.764 183.13 102.773C183.347 102.786 183.461 102.798 183.461 102.811Z" fill="#263238"/>
<path d="M229.272 239.857L226.216 236.792L223.306 239.694L223.319 230.92L229.286 230.929L229.272 239.857ZM226.217 236.41L226.313 236.506L229.004 239.205L229.017 231.198L223.59 231.19L223.578 239.043L226.217 236.41Z" fill="#263238"/>
<path d="M151.672 238.934L150.243 238.297C149.553 238.671 148.947 238.855 148.393 238.86C146.205 238.877 144.411 237.112 144.394 234.924C144.376 232.737 146.142 230.943 148.33 230.925C150.517 230.908 152.311 232.673 152.329 234.86C152.337 235.835 151.987 236.771 151.341 237.506L151.672 238.934ZM148.332 231.196C146.293 231.212 144.649 232.884 144.665 234.921C144.681 236.959 146.353 238.604 148.391 238.587C148.915 238.583 149.497 238.399 150.171 238.027L150.231 237.993L151.284 238.463L151.045 237.428L151.093 237.376C151.723 236.684 152.066 235.791 152.058 234.862C152.041 232.824 150.37 231.18 148.332 231.196Z" fill="#263238"/>
<path d="M160.856 238.321L159.219 234.325L156.148 231.527L163.595 231.467L160.856 238.321ZM156.844 231.793L159.459 234.193L160.853 237.597L163.193 231.742L156.844 231.793Z" fill="#263238"/>
<path d="M163.434 231.47L159.374 234.112L159.522 234.34L163.582 231.699L163.434 231.47Z" fill="#263238"/>
<path d="M139.953 232.362C139.74 231.298 138.687 230.469 137.602 230.512C136.528 230.555 135.553 231.449 135.411 232.513C135.252 231.452 134.262 230.573 133.188 230.547C132.103 230.522 131.063 231.368 130.867 232.434C130.724 233.211 130.994 234.019 131.433 234.676C131.873 235.332 132.472 235.864 133.064 236.387C133.893 237.119 134.66 237.808 135.489 238.542C136.307 237.796 137.003 237.095 137.819 236.349C138.403 235.816 138.993 235.276 139.422 234.612C139.852 233.948 140.108 233.136 139.953 232.362Z" fill="#CD0303"/>
<path d="M139.274 107.862C142.064 107.862 144.325 105.6 144.325 102.81C144.325 100.021 142.064 97.7593 139.274 97.7593C136.484 97.7593 134.223 100.021 134.223 102.81C134.223 105.6 136.484 107.862 139.274 107.862Z" fill="#EBEBEB"/>
<path d="M227.365 210.879C227.365 210.979 206.183 211.061 180.059 211.061C153.927 211.061 132.75 210.979 132.75 210.879C132.75 210.778 153.927 210.697 180.059 210.697C206.183 210.696 227.365 210.778 227.365 210.879Z" fill="#455A64"/>
<path d="M227.365 202.999C227.365 203.1 206.183 203.181 180.059 203.181C153.927 203.181 132.75 203.099 132.75 202.999C132.75 202.899 153.927 202.817 180.059 202.817C206.183 202.817 227.365 202.899 227.365 202.999Z" fill="#455A64"/>
<path d="M184.25 218.862C184.25 218.963 172.72 219.044 158.501 219.044C144.277 219.044 132.75 218.962 132.75 218.862C132.75 218.762 144.277 218.68 158.501 218.68C172.72 218.68 184.25 218.762 184.25 218.862Z" fill="#455A64"/>
<path d="M177.894 304.703C177.889 305.829 176.986 306.738 175.875 306.733C174.765 306.727 173.869 305.81 173.874 304.684C173.879 303.559 174.783 302.649 175.893 302.654C177.003 302.659 177.899 303.576 177.894 304.703Z" fill="#263238"/>
<path d="M184.123 304.732C184.118 305.857 183.214 306.766 182.104 306.762C180.994 306.757 180.098 305.84 180.103 304.713C180.107 303.587 181.011 302.678 182.121 302.683C183.232 302.688 184.128 303.605 184.123 304.732Z" fill="#263238"/>
<path d="M190.351 304.76C190.347 305.886 189.443 306.796 188.332 306.79C187.222 306.786 186.326 305.869 186.331 304.742C186.336 303.615 187.24 302.707 188.35 302.712C189.46 302.716 190.356 303.633 190.351 304.76Z" fill="#263238"/>
<path d="M239.134 112.808H127.186V181.271H239.134V112.808Z" fill="#E0E0E0"/>
<path d="M137.52 181.283L169.599 138.346L189.487 165.198L202.965 150.836L229.402 181.256L137.52 181.283Z" fill="#F5F5F5"/>
<path d="M197.916 133.079C197.918 137.075 194.679 140.315 190.684 140.316C186.688 140.317 183.449 137.079 183.447 133.083C183.446 129.088 186.684 125.848 190.68 125.847C194.675 125.845 197.915 129.084 197.916 133.079Z" fill="#F5F5F5"/>
<path d="M238.833 244.897C238.832 243.433 238.765 181.586 238.668 90.0292L238.833 90.1944C205.073 90.1993 167.019 90.2056 126.897 90.2112H126.885L127.067 90.0292C127.054 147.946 127.042 201.546 127.033 244.897L126.884 244.749C194.772 244.839 237.612 244.896 238.833 244.897C237.612 244.899 194.772 244.955 126.885 245.046H126.736V244.897C126.727 201.547 126.715 147.946 126.702 90.0292V89.8472H126.884H126.897C167.018 89.8535 205.073 89.8591 238.832 89.864H238.998V90.0292C238.964 135.853 238.935 174.586 238.916 201.87C238.897 215.492 238.881 226.254 238.872 233.617C238.863 237.287 238.856 240.11 238.852 242.019C238.848 242.966 238.844 243.685 238.842 244.174C238.839 244.656 238.833 244.897 238.833 244.897Z" fill="#263238"/>
<path d="M186.23 264.108L188.707 255.786C189.139 253.982 189.713 251.853 190.485 249.424C191.179 247.241 192.959 244.947 194.584 243.295C197.112 240.724 198.314 240.706 200.013 239.342C200.168 239.242 200.341 239.1 200.487 239.022C200.838 238.832 201.096 238.579 201.313 238.307C202.777 236.723 201.371 234.272 198.397 234.505C196.158 234.681 192.507 235.321 186.57 241.446C186.496 241.539 186.418 241.617 186.345 241.712C183.229 245.762 180.303 234.2 179.775 229.896C179.433 227.104 176.412 225.387 173.679 226.398L159.216 233.162C158.022 232.742 156.604 232.813 154.994 233.305C152.864 234.093 151.682 236.282 152.238 238.407L158.104 261.822L140.876 319.147H178.01L186.23 264.108Z" fill="#D9D9D9"/>
<path d="M214.757 211.459L203.279 233.952L197.539 232.357L168.688 255.825C166.233 257.823 162.635 257.503 160.57 255.104L149.586 242.34C149.586 242.34 171.735 232.799 175.832 224.901C179.928 217.003 175.194 215.211 175.194 215.211L185.618 203.365L214.757 211.459Z" fill="#068BBE"/>
<path d="M199.869 165.51C199.869 165.51 183.066 161.794 159.422 139.056C135.777 116.318 124.667 86.1231 121.772 86.2708C118.878 86.4178 106.241 80.5504 82.2053 132.835C58.1701 185.118 67.6377 197.26 72.4208 197.162C77.2039 197.063 109.68 188.014 129.964 190.319C150.249 192.625 176.322 203.197 176.322 203.197L199.869 165.51Z" fill="#068BBE"/>
<path d="M235.564 194.009L229.832 204.908L227.263 209.79C223.742 216.487 215.594 219.255 208.722 216.089L172.708 203.541L193.682 155.658L229.663 174.833C236.57 178.513 239.207 187.081 235.564 194.009Z" fill="#068BBE"/>
<g opacity="0.4">
<path d="M235.564 194.009L229.832 204.908L227.263 209.79C223.742 216.487 215.594 219.255 208.722 216.089L172.708 203.541L193.682 155.658L229.663 174.833C236.57 178.513 239.207 187.081 235.564 194.009Z" fill="black"/>
</g>
<path d="M84.1466 133.787C71.3548 162.11 66.0299 187.348 72.2536 190.159C78.4766 192.97 93.8913 172.288 106.683 143.965C119.474 115.643 124.799 90.4043 118.576 87.5938C112.353 84.7833 96.9391 105.464 84.1466 133.787Z" fill="#068BBE"/>
<g opacity="0.5">
<path d="M84.1466 133.787C71.3548 162.11 66.0299 187.348 72.2536 190.159C78.4766 192.97 93.8913 172.288 106.683 143.965C119.474 115.643 124.799 90.4043 118.576 87.5938C112.353 84.7833 96.9391 105.464 84.1466 133.787Z" fill="black"/>
</g>
<path d="M238.656 209.756L228.894 206.691L234.934 195.205L242.255 199.756L238.656 209.756Z" fill="#068BBE"/>
<g opacity="0.6">
<path d="M234.934 195.205L228.894 206.691L230.9 207.322L235.811 195.75L234.934 195.205Z" fill="black"/>
</g>
<path d="M228.208 197.855C228.065 198.171 223.194 196.277 217.328 193.626C211.458 190.974 206.82 188.569 206.963 188.253C207.105 187.938 211.975 189.832 217.843 192.483C223.71 195.135 228.35 197.54 228.208 197.855Z" fill="#068BBE"/>
<path d="M231.21 191.015C231.056 191.326 226.648 189.468 221.363 186.866C216.076 184.262 211.917 181.901 212.07 181.589C212.223 181.279 216.629 183.137 221.917 185.741C227.202 188.343 231.363 190.704 231.21 191.015Z" fill="#068BBE"/>
<path d="M224.422 205.03C224.37 205.197 223.211 204.929 221.36 204.357C220.436 204.072 219.342 203.71 218.13 203.291C216.927 202.855 215.677 202.224 214.339 201.617C208.998 199.138 204.921 196.711 205.054 196.423C205.212 196.083 209.571 198.023 214.862 200.478C216.189 201.079 217.419 201.741 218.58 202.226C219.746 202.697 220.791 203.137 221.663 203.524C223.409 204.299 224.472 204.864 224.422 205.03Z" fill="#068BBE"/>
<path d="M110.226 127.488C110.226 127.488 95.6216 118.432 87.6311 138.163C79.6413 157.894 95.0063 161.139 95.0063 161.139C101.294 151.388 106.402 140.214 110.226 127.488Z" fill="#068BBE"/>
<g opacity="0.5">
<path d="M125.757 103.973C125.843 103.988 125.635 105.328 125.185 107.743C124.723 110.153 124.07 113.653 123.134 117.951C122.516 120.067 121.842 122.378 121.118 124.856C120.752 126.097 120.372 127.38 119.983 128.701C119.787 129.363 119.588 130.033 119.387 130.712C119.168 131.386 118.884 132.047 118.63 132.728C117.578 135.443 116.475 138.29 115.331 141.241C115.044 141.979 114.754 142.723 114.461 143.473C114.177 144.227 113.776 144.936 113.435 145.679C112.721 147.151 111.997 148.644 111.265 150.155C110.53 151.666 109.803 153.158 109.087 154.629C108.714 155.357 108.404 156.111 107.988 156.801C107.578 157.495 107.172 158.184 106.77 158.866C105.157 161.589 103.6 164.218 102.116 166.724C101.737 167.345 101.394 167.977 100.998 168.566C100.588 169.145 100.184 169.717 99.7838 170.281C98.9851 171.406 98.2088 172.498 97.4584 173.555C95.9562 175.657 94.5548 177.619 93.2717 179.414C90.4794 182.798 88.1372 185.467 86.5286 187.319C84.9102 189.164 83.9834 190.158 83.9169 190.103C83.8504 190.048 84.6498 188.949 86.152 187.009C87.7102 185.033 89.8984 182.259 92.5857 178.852C93.8212 177.043 95.1694 175.066 96.6156 172.947C97.3422 171.888 98.094 170.793 98.8682 169.667C99.256 169.104 99.6494 168.532 100.048 167.954C100.433 167.366 100.767 166.732 101.137 166.111C102.591 163.61 104.116 160.987 105.697 158.269C106.094 157.59 106.493 156.905 106.897 156.214C107.307 155.527 107.613 154.778 107.981 154.053C108.689 152.592 109.409 151.108 110.136 149.608C110.866 148.108 111.587 146.626 112.297 145.166C112.638 144.43 113.04 143.726 113.324 142.979C113.617 142.235 113.908 141.497 114.198 140.767C115.357 137.845 116.476 135.025 117.542 132.337C117.802 131.663 118.092 131.009 118.318 130.343C118.526 129.671 118.732 129.007 118.936 128.353C119.343 127.047 119.739 125.777 120.123 124.55C120.895 122.102 121.615 119.817 122.276 117.725C123.291 113.516 124.117 110.088 124.705 107.647C125.302 105.269 125.673 103.958 125.757 103.973Z" fill="black"/>
</g>
<g opacity="0.4">
<path d="M153.085 240.773C154.418 243.191 155.777 245.647 157.749 247.58C159.72 249.513 162.428 250.882 165.175 250.606C167.922 250.329 170.525 248.047 170.555 245.286C171.873 246.277 173.894 245.74 174.986 244.504C176.078 243.269 176.433 241.551 176.564 239.907C178.355 240.963 180.845 240.125 182.04 238.424C183.235 236.723 183.309 234.431 182.73 232.434C182.152 230.438 180.995 228.666 179.856 226.927C181.235 227.039 182.695 227.135 183.929 226.51C185.163 225.885 185.995 224.253 185.276 223.072C184.854 222.378 184.043 222.034 183.268 221.791C181.107 221.115 179.591 220.573 177.341 220.835C176.819 220.839 178.241 226.768 164.122 234.875C155.787 239.663 153.085 240.773 153.085 240.773Z" fill="black"/>
</g>
<path d="M184.879 249.338C184.87 249.403 183.93 249.223 182.406 249.264C180.891 249.298 178.774 249.63 176.683 250.634C174.591 251.636 173.006 253.079 172.03 254.239C171.044 255.401 170.596 256.246 170.539 256.213C170.519 256.202 170.61 255.98 170.815 255.6C171.021 255.219 171.354 254.687 171.83 254.075C172.772 252.853 174.373 251.336 176.525 250.305C178.676 249.273 180.861 248.974 182.404 249.006C183.18 249.018 183.803 249.091 184.228 249.17C184.654 249.247 184.883 249.315 184.879 249.338Z" fill="black"/>
<path d="M154.006 237.013C156.28 239.198 157.836 241.609 160.221 243.809C161.305 244.809 162.989 246.703 164.442 246.955C165.895 247.207 166.826 247.014 167.401 245.656C167.867 244.556 167.031 243.053 166.453 242.147C164.933 239.763 163.48 237.899 162.341 236.046C161.809 235.178 162.499 234.998 162.75 235.4C163.845 236.535 165.478 237.518 166.458 238.754C167.801 240.446 168.044 242.686 171.558 241.977C172.022 241.884 172.486 241.723 172.862 241.436C174.184 240.423 174.24 238.664 173.683 237.254C173.247 236.149 172.481 235.212 171.727 234.295C173.222 235.983 174.855 237.761 177.232 237.953C178.614 238.064 180.002 237.421 180.561 236.151C181.265 234.554 180.256 233.01 179.244 231.761C177.45 229.547 175.448 227.503 173.273 225.662C172.464 224.976 171.432 224.593 170.371 224.586C169.141 224.578 167.602 224.809 166.842 225.879C165.463 227.821 165.888 229.538 165.888 229.538C165.888 229.538 162.803 227.974 160.325 229.61C157.847 231.245 157.234 234.056 157.234 234.056L154.006 237.013Z" fill="#D9D9D9"/>
<path d="M170.417 223.909C169.462 222.948 169.24 221.19 169.98 219.738C170.505 218.709 171.167 217.711 171.837 217.484C174.771 216.495 187.589 218.712 187.472 221.557C187.351 224.478 186.419 225.764 179.462 224.76C178.239 224.583 176.319 224.342 176.319 224.342L174.64 226.862L170.417 223.909Z" fill="#D9D9D9"/>
<path d="M172.713 235.821C172.611 235.883 171.635 233.893 169.644 232.109C167.673 230.301 165.597 229.524 165.649 229.417C165.664 229.377 166.199 229.515 167.006 229.895C167.812 230.273 168.875 230.922 169.889 231.839C170.899 232.757 171.649 233.752 172.104 234.517C172.561 235.283 172.752 235.803 172.713 235.821Z" fill="black"/>
<path d="M174.87 227.079C174.806 227.139 173.96 226.449 172.806 225.742C172.232 225.389 171.699 225.092 171.301 224.913C170.905 224.727 170.643 224.676 170.644 224.622C170.641 224.575 170.945 224.537 171.39 224.671C171.835 224.797 172.408 225.07 172.997 225.432C174.18 226.155 174.955 227.002 174.87 227.079Z" fill="black"/>
<path d="M177.022 224.435C177.013 224.512 175.897 224.544 174.553 224.157C173.885 223.952 173.321 223.63 172.973 223.329C172.621 223.03 172.474 222.779 172.509 222.75C172.576 222.688 173.373 223.445 174.66 223.809C175.932 224.177 177.041 224.314 177.022 224.435Z" fill="black"/>
<path d="M164.564 239.343C164.523 239.372 164.069 238.794 163.395 237.824C162.707 236.876 161.831 235.462 160.403 234.423C158.974 233.382 157.292 233.135 156.165 233.3C155.015 233.46 154.415 233.935 154.38 233.868C154.368 233.852 154.502 233.721 154.788 233.544C155.072 233.363 155.528 233.165 156.123 233.046C157.302 232.804 159.099 233.022 160.615 234.127C162.124 235.23 162.975 236.7 163.61 237.681C164.229 238.688 164.605 239.314 164.564 239.343Z" fill="black"/>
<path d="M174.37 267.693C174.381 267.793 172.035 268.13 169.131 268.446C166.226 268.762 163.863 268.937 163.853 268.836C163.841 268.736 166.187 268.399 169.092 268.083C171.996 267.768 174.359 267.593 174.37 267.693Z" fill="black"/>
<path d="M284.643 34.8907L285.432 36.3355L286.877 37.1251L285.432 37.9161L284.643 39.3602L283.852 37.9161L282.407 37.1251L283.852 36.3355L284.643 34.8907Z" fill="#FBF335"/>
<path d="M301.165 70.7097L301.956 72.1545L303.4 72.9448L301.956 73.7351L301.165 75.1799L300.376 73.7351L298.93 72.9448L300.376 72.1545L301.165 70.7097Z" fill="#FBF335"/>
<path d="M36.3321 166.273L37.1224 167.719L38.5672 168.509L37.1224 169.298L36.3321 170.743L35.5425 169.298L34.0977 168.509L35.5425 167.719L36.3321 166.273Z" fill="#FBF335"/>
<path d="M262.963 43.7933L264.788 47.1295L268.124 48.9544L264.788 50.7793L262.963 54.1162L261.138 50.7793L257.802 48.9544L261.138 47.1295L262.963 43.7933Z" fill="#FBF335"/>
<path d="M51.1426 143.568L52.9633 146.897L56.2925 148.718L52.9633 150.538L51.1426 153.868L49.3219 150.538L45.9927 148.718L49.3219 146.897L51.1426 143.568Z" fill="#FBF335"/>
<path d="M305.661 222.995L307.481 226.325L310.811 228.145L307.481 229.967L305.661 233.296L303.84 229.967L300.511 228.145L303.84 226.325L305.661 222.995Z" fill="#FBF335"/>
</svg>
