<svg width="28" height="24" viewBox="0 0 28 24" fill="none" xmlns="http://www.w3.org/2000/svg">
<path d="M1.46628 11.5079L7.66379 13.8785L10.0626 21.7848C10.2161 22.2912 10.8203 22.4784 11.2213 22.1423L14.6759 19.2561C15.038 18.9537 15.5538 18.9386 15.9323 19.2202L22.1631 23.8563C22.5921 24.1759 23.1999 23.935 23.3075 23.4037L27.8719 0.902248C27.9894 0.321911 27.433 -0.162224 26.8938 0.0514974L1.45902 10.1073C0.831345 10.3554 0.836814 11.2662 1.46628 11.5079ZM9.67602 12.6166L21.7883 4.97122C22.0059 4.83422 22.2299 5.13588 22.043 5.31358L12.0469 14.8364C11.6955 15.1716 11.4689 15.6202 11.4047 16.1071L11.0642 18.6932C11.0191 19.0385 10.5458 19.0728 10.4528 18.7386L9.1432 14.0227C8.9932 13.4848 9.21178 12.9102 9.67602 12.6166Z" fill="#3C4043"/>
</svg>
